G04 EAGLE Gerber RS-274X export*
G75*
%MOMM*%
%FSLAX34Y34*%
%LPD*%
%INBottom Copper*%
%IPPOS*%
%AMOC8*
5,1,8,0,0,1.08239X$1,22.5*%
G01*
%ADD10C,5.842000*%
%ADD11R,1.879600X1.879600*%
%ADD12C,1.879600*%
%ADD13C,5.080000*%
%ADD14P,1.649562X8X292.500000*%
%ADD15C,1.524000*%
%ADD16C,0.756400*%
%ADD17C,0.508000*%
%ADD18C,0.304800*%
%ADD19C,0.406400*%
%ADD20C,0.812800*%

G36*
X550016Y-589837D02*
X550016Y-589837D01*
X550043Y-589838D01*
X554418Y-589592D01*
X554450Y-589585D01*
X554545Y-589574D01*
X563076Y-587627D01*
X563077Y-587627D01*
X563079Y-587627D01*
X563237Y-587571D01*
X571121Y-583774D01*
X571122Y-583773D01*
X571124Y-583773D01*
X571265Y-583683D01*
X578107Y-578228D01*
X578108Y-578227D01*
X578109Y-578226D01*
X578227Y-578107D01*
X583683Y-571265D01*
X583684Y-571264D01*
X583685Y-571263D01*
X583699Y-571242D01*
X583704Y-571236D01*
X583709Y-571224D01*
X583774Y-571121D01*
X587571Y-563237D01*
X587571Y-563236D01*
X587572Y-563234D01*
X587627Y-563076D01*
X589574Y-554545D01*
X589576Y-554513D01*
X589592Y-554418D01*
X589838Y-550043D01*
X589836Y-550027D01*
X589839Y-550000D01*
X589839Y-50000D01*
X589837Y-49984D01*
X589838Y-49957D01*
X589592Y-45582D01*
X589585Y-45550D01*
X589574Y-45455D01*
X587627Y-36924D01*
X587627Y-36923D01*
X587627Y-36921D01*
X587571Y-36763D01*
X583774Y-28879D01*
X583773Y-28878D01*
X583773Y-28876D01*
X583683Y-28735D01*
X578227Y-21893D01*
X578227Y-21892D01*
X578226Y-21891D01*
X578107Y-21773D01*
X571265Y-16317D01*
X571264Y-16316D01*
X571263Y-16315D01*
X571121Y-16226D01*
X563237Y-12429D01*
X563236Y-12429D01*
X563234Y-12428D01*
X563076Y-12373D01*
X561745Y-12069D01*
X558410Y-11308D01*
X555075Y-10547D01*
X555075Y-10546D01*
X554545Y-10426D01*
X554513Y-10424D01*
X554418Y-10408D01*
X550043Y-10162D01*
X550026Y-10164D01*
X550000Y-10161D01*
X50000Y-10161D01*
X49984Y-10163D01*
X49957Y-10162D01*
X45582Y-10408D01*
X45550Y-10415D01*
X45455Y-10426D01*
X36924Y-12373D01*
X36923Y-12373D01*
X36921Y-12373D01*
X36763Y-12429D01*
X28879Y-16226D01*
X28878Y-16227D01*
X28876Y-16227D01*
X28735Y-16317D01*
X21893Y-21773D01*
X21892Y-21773D01*
X21891Y-21774D01*
X21773Y-21893D01*
X16317Y-28735D01*
X16316Y-28736D01*
X16315Y-28737D01*
X16226Y-28879D01*
X12429Y-36763D01*
X12429Y-36764D01*
X12428Y-36766D01*
X12373Y-36924D01*
X10426Y-45455D01*
X10424Y-45487D01*
X10408Y-45582D01*
X10162Y-49957D01*
X10164Y-49974D01*
X10161Y-50000D01*
X10161Y-333855D01*
X10172Y-333925D01*
X10174Y-333997D01*
X10192Y-334046D01*
X10200Y-334097D01*
X10234Y-334161D01*
X10259Y-334228D01*
X10291Y-334269D01*
X10316Y-334315D01*
X10368Y-334364D01*
X10412Y-334420D01*
X10456Y-334448D01*
X10494Y-334484D01*
X10559Y-334514D01*
X10619Y-334553D01*
X10670Y-334566D01*
X10717Y-334588D01*
X10788Y-334596D01*
X10858Y-334613D01*
X10910Y-334609D01*
X10961Y-334615D01*
X11032Y-334600D01*
X11103Y-334594D01*
X11151Y-334574D01*
X11202Y-334563D01*
X11263Y-334526D01*
X11329Y-334498D01*
X11385Y-334453D01*
X11413Y-334436D01*
X11428Y-334419D01*
X11460Y-334393D01*
X13937Y-331916D01*
X19902Y-328472D01*
X26556Y-326689D01*
X33444Y-326689D01*
X40098Y-328472D01*
X46063Y-331916D01*
X50934Y-336787D01*
X54378Y-342752D01*
X56161Y-349406D01*
X56161Y-356294D01*
X54378Y-362948D01*
X50934Y-368913D01*
X46063Y-373784D01*
X40098Y-377228D01*
X33444Y-379011D01*
X26556Y-379011D01*
X19902Y-377228D01*
X13937Y-373784D01*
X11460Y-371307D01*
X11402Y-371265D01*
X11350Y-371216D01*
X11303Y-371194D01*
X11261Y-371164D01*
X11192Y-371142D01*
X11127Y-371112D01*
X11075Y-371107D01*
X11025Y-371091D01*
X10954Y-371093D01*
X10883Y-371085D01*
X10832Y-371096D01*
X10780Y-371098D01*
X10712Y-371122D01*
X10642Y-371137D01*
X10597Y-371164D01*
X10549Y-371182D01*
X10493Y-371227D01*
X10431Y-371264D01*
X10397Y-371303D01*
X10357Y-371336D01*
X10318Y-371396D01*
X10271Y-371451D01*
X10252Y-371499D01*
X10224Y-371543D01*
X10206Y-371612D01*
X10179Y-371679D01*
X10171Y-371750D01*
X10163Y-371781D01*
X10165Y-371804D01*
X10161Y-371845D01*
X10161Y-448155D01*
X10172Y-448225D01*
X10174Y-448297D01*
X10192Y-448346D01*
X10200Y-448397D01*
X10234Y-448461D01*
X10259Y-448528D01*
X10291Y-448569D01*
X10316Y-448615D01*
X10368Y-448664D01*
X10412Y-448720D01*
X10456Y-448748D01*
X10494Y-448784D01*
X10559Y-448814D01*
X10619Y-448853D01*
X10670Y-448866D01*
X10717Y-448888D01*
X10788Y-448896D01*
X10858Y-448913D01*
X10910Y-448909D01*
X10961Y-448915D01*
X11032Y-448900D01*
X11103Y-448894D01*
X11151Y-448874D01*
X11202Y-448863D01*
X11263Y-448826D01*
X11329Y-448798D01*
X11385Y-448753D01*
X11413Y-448736D01*
X11428Y-448719D01*
X11460Y-448693D01*
X13937Y-446216D01*
X19902Y-442772D01*
X26556Y-440989D01*
X33444Y-440989D01*
X40098Y-442772D01*
X46063Y-446216D01*
X50934Y-451087D01*
X54378Y-457052D01*
X56161Y-463706D01*
X56161Y-470594D01*
X54378Y-477248D01*
X50934Y-483213D01*
X46063Y-488084D01*
X40098Y-491528D01*
X33444Y-493311D01*
X26556Y-493311D01*
X19902Y-491528D01*
X13937Y-488084D01*
X11460Y-485607D01*
X11402Y-485565D01*
X11350Y-485516D01*
X11303Y-485494D01*
X11261Y-485464D01*
X11192Y-485442D01*
X11127Y-485412D01*
X11075Y-485407D01*
X11025Y-485391D01*
X10954Y-485393D01*
X10883Y-485385D01*
X10832Y-485396D01*
X10780Y-485398D01*
X10712Y-485422D01*
X10642Y-485437D01*
X10597Y-485464D01*
X10549Y-485482D01*
X10493Y-485527D01*
X10431Y-485564D01*
X10397Y-485603D01*
X10357Y-485636D01*
X10318Y-485696D01*
X10271Y-485751D01*
X10252Y-485799D01*
X10224Y-485843D01*
X10206Y-485912D01*
X10179Y-485979D01*
X10171Y-486050D01*
X10163Y-486081D01*
X10165Y-486104D01*
X10161Y-486145D01*
X10161Y-550000D01*
X10163Y-550016D01*
X10162Y-550043D01*
X10408Y-554418D01*
X10415Y-554450D01*
X10426Y-554545D01*
X12373Y-563076D01*
X12373Y-563077D01*
X12373Y-563079D01*
X12429Y-563237D01*
X16226Y-571121D01*
X16227Y-571122D01*
X16227Y-571124D01*
X16317Y-571265D01*
X21773Y-578107D01*
X21773Y-578108D01*
X21774Y-578109D01*
X21893Y-578227D01*
X28735Y-583683D01*
X28736Y-583684D01*
X28737Y-583685D01*
X28879Y-583774D01*
X36763Y-587571D01*
X36764Y-587571D01*
X36766Y-587572D01*
X36924Y-587627D01*
X39864Y-588298D01*
X43199Y-589060D01*
X45455Y-589574D01*
X45487Y-589576D01*
X45582Y-589592D01*
X49957Y-589838D01*
X49974Y-589836D01*
X50000Y-589839D01*
X550000Y-589839D01*
X550016Y-589837D01*
G37*
%LPC*%
G36*
X297802Y-435307D02*
X297802Y-435307D01*
X294629Y-432134D01*
X294555Y-432081D01*
X294485Y-432021D01*
X294455Y-432009D01*
X294429Y-431990D01*
X294342Y-431963D01*
X294257Y-431929D01*
X294216Y-431925D01*
X294194Y-431918D01*
X294162Y-431919D01*
X294091Y-431911D01*
X245066Y-431911D01*
X208089Y-394934D01*
X208089Y-185066D01*
X275912Y-117243D01*
X275965Y-117169D01*
X276025Y-117100D01*
X276037Y-117070D01*
X276056Y-117044D01*
X276083Y-116957D01*
X276117Y-116872D01*
X276121Y-116831D01*
X276128Y-116809D01*
X276127Y-116776D01*
X276135Y-116705D01*
X276135Y-116248D01*
X276116Y-116133D01*
X276099Y-116017D01*
X276097Y-116011D01*
X276096Y-116005D01*
X276041Y-115902D01*
X275988Y-115797D01*
X275983Y-115793D01*
X275980Y-115788D01*
X275896Y-115708D01*
X275812Y-115625D01*
X275806Y-115622D01*
X275802Y-115618D01*
X275785Y-115610D01*
X275665Y-115544D01*
X274013Y-114860D01*
X270940Y-111787D01*
X269277Y-107773D01*
X269277Y-103427D01*
X270940Y-99413D01*
X272851Y-97502D01*
X272893Y-97444D01*
X272942Y-97392D01*
X272964Y-97345D01*
X272994Y-97303D01*
X273015Y-97234D01*
X273046Y-97169D01*
X273051Y-97117D01*
X273067Y-97067D01*
X273065Y-96996D01*
X273073Y-96925D01*
X273062Y-96874D01*
X273060Y-96822D01*
X273036Y-96754D01*
X273020Y-96684D01*
X272994Y-96639D01*
X272976Y-96591D01*
X272931Y-96535D01*
X272894Y-96473D01*
X272855Y-96439D01*
X272822Y-96399D01*
X272762Y-96360D01*
X272707Y-96313D01*
X272659Y-96294D01*
X272615Y-96266D01*
X272546Y-96248D01*
X272479Y-96221D01*
X272408Y-96213D01*
X272377Y-96205D01*
X272353Y-96207D01*
X272312Y-96203D01*
X265200Y-96203D01*
X265180Y-96206D01*
X265161Y-96204D01*
X265059Y-96226D01*
X264957Y-96242D01*
X264940Y-96252D01*
X264920Y-96256D01*
X264831Y-96309D01*
X264740Y-96358D01*
X264726Y-96372D01*
X264709Y-96382D01*
X264642Y-96461D01*
X264570Y-96536D01*
X264562Y-96554D01*
X264549Y-96569D01*
X264510Y-96665D01*
X264467Y-96759D01*
X264465Y-96779D01*
X264457Y-96797D01*
X264439Y-96964D01*
X264439Y-104077D01*
X253262Y-104077D01*
X253242Y-104080D01*
X253223Y-104078D01*
X253121Y-104100D01*
X253019Y-104117D01*
X253002Y-104126D01*
X252982Y-104130D01*
X252893Y-104183D01*
X252802Y-104232D01*
X252788Y-104246D01*
X252771Y-104256D01*
X252704Y-104335D01*
X252633Y-104410D01*
X252624Y-104428D01*
X252611Y-104443D01*
X252573Y-104539D01*
X252529Y-104633D01*
X252527Y-104653D01*
X252519Y-104671D01*
X252501Y-104838D01*
X252501Y-105601D01*
X252499Y-105601D01*
X252499Y-104838D01*
X252496Y-104818D01*
X252498Y-104799D01*
X252476Y-104697D01*
X252459Y-104595D01*
X252450Y-104578D01*
X252446Y-104558D01*
X252393Y-104469D01*
X252344Y-104378D01*
X252330Y-104364D01*
X252320Y-104347D01*
X252241Y-104280D01*
X252166Y-104209D01*
X252148Y-104200D01*
X252133Y-104187D01*
X252037Y-104148D01*
X251943Y-104105D01*
X251923Y-104103D01*
X251905Y-104095D01*
X251738Y-104077D01*
X240561Y-104077D01*
X240561Y-96964D01*
X240558Y-96944D01*
X240560Y-96925D01*
X240538Y-96823D01*
X240522Y-96721D01*
X240512Y-96704D01*
X240508Y-96684D01*
X240455Y-96595D01*
X240406Y-96504D01*
X240392Y-96490D01*
X240382Y-96473D01*
X240303Y-96406D01*
X240228Y-96334D01*
X240210Y-96326D01*
X240195Y-96313D01*
X240099Y-96274D01*
X240005Y-96231D01*
X239985Y-96229D01*
X239967Y-96221D01*
X239800Y-96203D01*
X233418Y-96203D01*
X233328Y-96217D01*
X233237Y-96225D01*
X233207Y-96237D01*
X233175Y-96242D01*
X233094Y-96285D01*
X233010Y-96321D01*
X232978Y-96347D01*
X232957Y-96358D01*
X232935Y-96381D01*
X232879Y-96426D01*
X168781Y-160524D01*
X168739Y-160582D01*
X168690Y-160634D01*
X168668Y-160681D01*
X168638Y-160723D01*
X168617Y-160792D01*
X168586Y-160857D01*
X168581Y-160909D01*
X168565Y-160959D01*
X168567Y-161030D01*
X168559Y-161101D01*
X168570Y-161152D01*
X168572Y-161204D01*
X168596Y-161272D01*
X168612Y-161342D01*
X168638Y-161387D01*
X168656Y-161435D01*
X168701Y-161491D01*
X168738Y-161553D01*
X168777Y-161587D01*
X168810Y-161627D01*
X168870Y-161666D01*
X168925Y-161713D01*
X168973Y-161732D01*
X169017Y-161760D01*
X169086Y-161778D01*
X169153Y-161805D01*
X169224Y-161813D01*
X169255Y-161821D01*
X169279Y-161819D01*
X169320Y-161823D01*
X170229Y-161823D01*
X170319Y-161809D01*
X170410Y-161801D01*
X170439Y-161789D01*
X170471Y-161784D01*
X170552Y-161741D01*
X170636Y-161705D01*
X170668Y-161679D01*
X170689Y-161668D01*
X170711Y-161645D01*
X170767Y-161600D01*
X172802Y-159565D01*
X177198Y-159565D01*
X180307Y-162674D01*
X180307Y-167070D01*
X177198Y-170179D01*
X172802Y-170179D01*
X170767Y-168144D01*
X170693Y-168091D01*
X170623Y-168031D01*
X170593Y-168019D01*
X170567Y-168000D01*
X170480Y-167973D01*
X170395Y-167939D01*
X170354Y-167935D01*
X170332Y-167928D01*
X170300Y-167929D01*
X170229Y-167921D01*
X168165Y-167921D01*
X168075Y-167935D01*
X167984Y-167943D01*
X167955Y-167955D01*
X167923Y-167960D01*
X167842Y-168003D01*
X167758Y-168039D01*
X167726Y-168065D01*
X167705Y-168076D01*
X167683Y-168099D01*
X167627Y-168144D01*
X165892Y-169879D01*
X132738Y-169879D01*
X117289Y-154430D01*
X117215Y-154377D01*
X117146Y-154317D01*
X117116Y-154305D01*
X117089Y-154286D01*
X117002Y-154259D01*
X116918Y-154225D01*
X116877Y-154221D01*
X116854Y-154214D01*
X116822Y-154215D01*
X116751Y-154207D01*
X113873Y-154207D01*
X110764Y-151098D01*
X110764Y-146702D01*
X113873Y-143593D01*
X118269Y-143593D01*
X121378Y-146702D01*
X121378Y-149580D01*
X121393Y-149670D01*
X121400Y-149761D01*
X121412Y-149791D01*
X121418Y-149823D01*
X121460Y-149903D01*
X121496Y-149987D01*
X121522Y-150019D01*
X121533Y-150040D01*
X121556Y-150062D01*
X121601Y-150118D01*
X135041Y-163558D01*
X135115Y-163611D01*
X135184Y-163671D01*
X135215Y-163683D01*
X135241Y-163702D01*
X135328Y-163729D01*
X135413Y-163763D01*
X135453Y-163767D01*
X135476Y-163774D01*
X135508Y-163773D01*
X135579Y-163781D01*
X154439Y-163781D01*
X154509Y-163770D01*
X154581Y-163768D01*
X154630Y-163750D01*
X154681Y-163742D01*
X154745Y-163708D01*
X154812Y-163683D01*
X154853Y-163651D01*
X154899Y-163626D01*
X154948Y-163574D01*
X155004Y-163530D01*
X155032Y-163486D01*
X155068Y-163448D01*
X155098Y-163383D01*
X155137Y-163323D01*
X155150Y-163272D01*
X155172Y-163225D01*
X155180Y-163154D01*
X155197Y-163084D01*
X155193Y-163032D01*
X155199Y-162981D01*
X155184Y-162910D01*
X155178Y-162839D01*
X155158Y-162791D01*
X155147Y-162740D01*
X155110Y-162679D01*
X155082Y-162613D01*
X155037Y-162557D01*
X155020Y-162529D01*
X155003Y-162514D01*
X154977Y-162482D01*
X154693Y-162198D01*
X154693Y-157802D01*
X157802Y-154693D01*
X162229Y-154693D01*
X162234Y-154697D01*
X162318Y-154757D01*
X162337Y-154763D01*
X162354Y-154774D01*
X162454Y-154799D01*
X162553Y-154829D01*
X162573Y-154829D01*
X162592Y-154834D01*
X162695Y-154826D01*
X162799Y-154823D01*
X162818Y-154816D01*
X162838Y-154815D01*
X162932Y-154774D01*
X163030Y-154739D01*
X163046Y-154726D01*
X163064Y-154718D01*
X163195Y-154613D01*
X229735Y-88073D01*
X260281Y-88073D01*
X260377Y-88058D01*
X260474Y-88048D01*
X260498Y-88038D01*
X260524Y-88034D01*
X260610Y-87988D01*
X260699Y-87948D01*
X260718Y-87931D01*
X260741Y-87918D01*
X260808Y-87848D01*
X260880Y-87782D01*
X260892Y-87759D01*
X260910Y-87740D01*
X260951Y-87652D01*
X260998Y-87566D01*
X261003Y-87541D01*
X261014Y-87517D01*
X261025Y-87420D01*
X261042Y-87324D01*
X261038Y-87298D01*
X261041Y-87273D01*
X261020Y-87178D01*
X261006Y-87081D01*
X260994Y-87058D01*
X260989Y-87032D01*
X260939Y-86949D01*
X260895Y-86862D01*
X260876Y-86843D01*
X260863Y-86821D01*
X260789Y-86758D01*
X260719Y-86690D01*
X260691Y-86674D01*
X260676Y-86661D01*
X260645Y-86649D01*
X260572Y-86609D01*
X260213Y-86460D01*
X257140Y-83387D01*
X255477Y-79373D01*
X255477Y-75027D01*
X257140Y-71013D01*
X260213Y-67940D01*
X264227Y-66277D01*
X268573Y-66277D01*
X272587Y-67940D01*
X275660Y-71013D01*
X277323Y-75027D01*
X277323Y-79373D01*
X275660Y-83387D01*
X272587Y-86460D01*
X272228Y-86609D01*
X272145Y-86660D01*
X272059Y-86706D01*
X272041Y-86725D01*
X272019Y-86738D01*
X271957Y-86813D01*
X271890Y-86884D01*
X271879Y-86908D01*
X271862Y-86928D01*
X271827Y-87019D01*
X271786Y-87107D01*
X271783Y-87133D01*
X271774Y-87157D01*
X271770Y-87255D01*
X271759Y-87351D01*
X271764Y-87377D01*
X271763Y-87403D01*
X271790Y-87497D01*
X271811Y-87592D01*
X271825Y-87614D01*
X271832Y-87639D01*
X271887Y-87719D01*
X271937Y-87803D01*
X271957Y-87820D01*
X271972Y-87841D01*
X272050Y-87900D01*
X272124Y-87963D01*
X272149Y-87973D01*
X272169Y-87988D01*
X272262Y-88018D01*
X272352Y-88055D01*
X272385Y-88058D01*
X272403Y-88064D01*
X272436Y-88064D01*
X272519Y-88073D01*
X287981Y-88073D01*
X288077Y-88058D01*
X288174Y-88048D01*
X288198Y-88038D01*
X288224Y-88034D01*
X288310Y-87988D01*
X288399Y-87948D01*
X288418Y-87931D01*
X288441Y-87918D01*
X288508Y-87848D01*
X288580Y-87782D01*
X288592Y-87759D01*
X288610Y-87740D01*
X288651Y-87652D01*
X288698Y-87566D01*
X288703Y-87541D01*
X288714Y-87517D01*
X288725Y-87420D01*
X288742Y-87324D01*
X288738Y-87298D01*
X288741Y-87273D01*
X288720Y-87178D01*
X288706Y-87081D01*
X288694Y-87058D01*
X288689Y-87032D01*
X288639Y-86949D01*
X288595Y-86862D01*
X288576Y-86843D01*
X288563Y-86821D01*
X288489Y-86758D01*
X288419Y-86690D01*
X288391Y-86674D01*
X288376Y-86661D01*
X288345Y-86649D01*
X288272Y-86609D01*
X287913Y-86460D01*
X284840Y-83387D01*
X283177Y-79373D01*
X283177Y-75027D01*
X284840Y-71013D01*
X287913Y-67940D01*
X291927Y-66277D01*
X296273Y-66277D01*
X300287Y-67940D01*
X303360Y-71013D01*
X305023Y-75027D01*
X305023Y-79373D01*
X303360Y-83387D01*
X300287Y-86460D01*
X299928Y-86609D01*
X299845Y-86660D01*
X299759Y-86706D01*
X299741Y-86725D01*
X299719Y-86738D01*
X299657Y-86813D01*
X299590Y-86884D01*
X299579Y-86908D01*
X299562Y-86928D01*
X299527Y-87019D01*
X299486Y-87107D01*
X299483Y-87133D01*
X299474Y-87157D01*
X299470Y-87255D01*
X299459Y-87351D01*
X299464Y-87377D01*
X299463Y-87403D01*
X299490Y-87497D01*
X299511Y-87592D01*
X299525Y-87614D01*
X299532Y-87639D01*
X299587Y-87719D01*
X299637Y-87803D01*
X299657Y-87820D01*
X299672Y-87841D01*
X299750Y-87900D01*
X299824Y-87963D01*
X299849Y-87973D01*
X299869Y-87988D01*
X299962Y-88018D01*
X300052Y-88055D01*
X300085Y-88058D01*
X300103Y-88064D01*
X300136Y-88064D01*
X300219Y-88073D01*
X315581Y-88073D01*
X315677Y-88058D01*
X315774Y-88048D01*
X315798Y-88038D01*
X315824Y-88034D01*
X315909Y-87988D01*
X315999Y-87948D01*
X316018Y-87931D01*
X316041Y-87918D01*
X316108Y-87848D01*
X316180Y-87782D01*
X316192Y-87759D01*
X316210Y-87740D01*
X316251Y-87652D01*
X316298Y-87566D01*
X316303Y-87541D01*
X316314Y-87517D01*
X316325Y-87420D01*
X316342Y-87324D01*
X316338Y-87298D01*
X316341Y-87273D01*
X316320Y-87178D01*
X316306Y-87081D01*
X316294Y-87058D01*
X316289Y-87032D01*
X316239Y-86949D01*
X316195Y-86862D01*
X316176Y-86843D01*
X316163Y-86821D01*
X316089Y-86758D01*
X316019Y-86690D01*
X315991Y-86674D01*
X315976Y-86661D01*
X315945Y-86649D01*
X315872Y-86609D01*
X315513Y-86460D01*
X312440Y-83387D01*
X310777Y-79373D01*
X310777Y-75027D01*
X312440Y-71013D01*
X315513Y-67940D01*
X319527Y-66277D01*
X323873Y-66277D01*
X327887Y-67940D01*
X330960Y-71013D01*
X332623Y-75027D01*
X332623Y-79373D01*
X330960Y-83387D01*
X327887Y-86460D01*
X327528Y-86609D01*
X327445Y-86660D01*
X327359Y-86706D01*
X327341Y-86725D01*
X327319Y-86738D01*
X327257Y-86813D01*
X327190Y-86884D01*
X327179Y-86908D01*
X327162Y-86928D01*
X327127Y-87019D01*
X327086Y-87107D01*
X327083Y-87133D01*
X327074Y-87157D01*
X327070Y-87255D01*
X327059Y-87351D01*
X327064Y-87377D01*
X327063Y-87403D01*
X327090Y-87497D01*
X327111Y-87592D01*
X327125Y-87614D01*
X327132Y-87639D01*
X327187Y-87719D01*
X327237Y-87803D01*
X327257Y-87820D01*
X327272Y-87841D01*
X327350Y-87900D01*
X327424Y-87963D01*
X327448Y-87973D01*
X327469Y-87988D01*
X327562Y-88018D01*
X327652Y-88055D01*
X327685Y-88058D01*
X327703Y-88064D01*
X327736Y-88064D01*
X327819Y-88073D01*
X341712Y-88073D01*
X341719Y-88072D01*
X341727Y-88073D01*
X341841Y-88052D01*
X341954Y-88034D01*
X341961Y-88030D01*
X341969Y-88028D01*
X342070Y-87972D01*
X342172Y-87918D01*
X342177Y-87913D01*
X342184Y-87909D01*
X342262Y-87824D01*
X342341Y-87740D01*
X342344Y-87733D01*
X342350Y-87727D01*
X342396Y-87622D01*
X342445Y-87517D01*
X342446Y-87509D01*
X342449Y-87502D01*
X342459Y-87387D01*
X342472Y-87273D01*
X342470Y-87265D01*
X342471Y-87257D01*
X342444Y-87144D01*
X342419Y-87032D01*
X342415Y-87025D01*
X342414Y-87018D01*
X342352Y-86919D01*
X342293Y-86821D01*
X342287Y-86816D01*
X342283Y-86809D01*
X342159Y-86696D01*
X341622Y-86306D01*
X340294Y-84978D01*
X339189Y-83457D01*
X338336Y-81783D01*
X337755Y-79996D01*
X337554Y-78723D01*
X347877Y-78723D01*
X347877Y-89046D01*
X346604Y-88845D01*
X345216Y-88394D01*
X345149Y-88383D01*
X345084Y-88363D01*
X345028Y-88365D01*
X344973Y-88356D01*
X344906Y-88368D01*
X344838Y-88370D01*
X344786Y-88389D01*
X344731Y-88399D01*
X344671Y-88431D01*
X344607Y-88454D01*
X344564Y-88489D01*
X344514Y-88516D01*
X344468Y-88566D01*
X344415Y-88608D01*
X344385Y-88655D01*
X344347Y-88696D01*
X344319Y-88758D01*
X344282Y-88815D01*
X344269Y-88869D01*
X344246Y-88920D01*
X344239Y-88988D01*
X344222Y-89053D01*
X344227Y-89109D01*
X344221Y-89165D01*
X344236Y-89231D01*
X344241Y-89299D01*
X344263Y-89350D01*
X344276Y-89405D01*
X344311Y-89463D01*
X344338Y-89525D01*
X344387Y-89587D01*
X344404Y-89615D01*
X344420Y-89628D01*
X344443Y-89656D01*
X345464Y-90677D01*
X353581Y-98795D01*
X353598Y-98807D01*
X353610Y-98822D01*
X353697Y-98878D01*
X353781Y-98938D01*
X353800Y-98944D01*
X353817Y-98955D01*
X353917Y-98980D01*
X354016Y-99011D01*
X354036Y-99010D01*
X354056Y-99015D01*
X354158Y-99007D01*
X354262Y-99004D01*
X354281Y-98998D01*
X354301Y-98996D01*
X354396Y-98956D01*
X354493Y-98920D01*
X354509Y-98907D01*
X354527Y-98900D01*
X354658Y-98795D01*
X357113Y-96340D01*
X361127Y-94677D01*
X365473Y-94677D01*
X369487Y-96340D01*
X372560Y-99413D01*
X374223Y-103427D01*
X374223Y-107773D01*
X372560Y-111787D01*
X369487Y-114860D01*
X365473Y-116523D01*
X361127Y-116523D01*
X357113Y-114860D01*
X354040Y-111787D01*
X353356Y-110135D01*
X353294Y-110035D01*
X353234Y-109935D01*
X353229Y-109931D01*
X353226Y-109926D01*
X353164Y-109875D01*
X347822Y-104532D01*
X347764Y-104491D01*
X347712Y-104441D01*
X347665Y-104419D01*
X347623Y-104389D01*
X347554Y-104368D01*
X347489Y-104338D01*
X347437Y-104332D01*
X347387Y-104317D01*
X347316Y-104318D01*
X347245Y-104311D01*
X347194Y-104322D01*
X347142Y-104323D01*
X347074Y-104348D01*
X347004Y-104363D01*
X346959Y-104389D01*
X346911Y-104407D01*
X346855Y-104452D01*
X346793Y-104489D01*
X346759Y-104529D01*
X346719Y-104561D01*
X346680Y-104621D01*
X346633Y-104676D01*
X346614Y-104724D01*
X346586Y-104768D01*
X346568Y-104837D01*
X346541Y-104904D01*
X346533Y-104975D01*
X346525Y-105007D01*
X346527Y-105030D01*
X346523Y-105071D01*
X346523Y-107773D01*
X344860Y-111787D01*
X341787Y-114860D01*
X337773Y-116523D01*
X333427Y-116523D01*
X329413Y-114860D01*
X326958Y-112405D01*
X326942Y-112393D01*
X326929Y-112378D01*
X326842Y-112322D01*
X326758Y-112262D01*
X326739Y-112256D01*
X326723Y-112245D01*
X326622Y-112220D01*
X326523Y-112189D01*
X326503Y-112190D01*
X326484Y-112185D01*
X326381Y-112193D01*
X326277Y-112196D01*
X326259Y-112202D01*
X326239Y-112204D01*
X326144Y-112244D01*
X326046Y-112280D01*
X326031Y-112293D01*
X326012Y-112300D01*
X325881Y-112405D01*
X296376Y-141911D01*
X274153Y-141911D01*
X274063Y-141925D01*
X273972Y-141933D01*
X273942Y-141945D01*
X273910Y-141950D01*
X273830Y-141993D01*
X273746Y-142029D01*
X273714Y-142055D01*
X273693Y-142066D01*
X273671Y-142089D01*
X273615Y-142134D01*
X245530Y-170219D01*
X245477Y-170293D01*
X245417Y-170362D01*
X245405Y-170392D01*
X245386Y-170418D01*
X245359Y-170505D01*
X245325Y-170590D01*
X245321Y-170631D01*
X245314Y-170654D01*
X245315Y-170686D01*
X245307Y-170757D01*
X245307Y-172198D01*
X242198Y-175307D01*
X237802Y-175307D01*
X234693Y-172198D01*
X234693Y-171797D01*
X234682Y-171726D01*
X234680Y-171655D01*
X234662Y-171606D01*
X234654Y-171554D01*
X234620Y-171491D01*
X234595Y-171424D01*
X234563Y-171383D01*
X234538Y-171337D01*
X234486Y-171288D01*
X234442Y-171232D01*
X234398Y-171203D01*
X234360Y-171167D01*
X234295Y-171137D01*
X234235Y-171099D01*
X234184Y-171086D01*
X234137Y-171064D01*
X234066Y-171056D01*
X233996Y-171038D01*
X233944Y-171043D01*
X233893Y-171037D01*
X233822Y-171052D01*
X233751Y-171058D01*
X233703Y-171078D01*
X233652Y-171089D01*
X233591Y-171126D01*
X233525Y-171154D01*
X233469Y-171199D01*
X233441Y-171215D01*
X233426Y-171233D01*
X233394Y-171259D01*
X216442Y-188211D01*
X216389Y-188285D01*
X216329Y-188354D01*
X216317Y-188384D01*
X216298Y-188411D01*
X216271Y-188497D01*
X216237Y-188582D01*
X216233Y-188623D01*
X216226Y-188646D01*
X216227Y-188678D01*
X216219Y-188749D01*
X216219Y-391251D01*
X216233Y-391341D01*
X216241Y-391432D01*
X216253Y-391462D01*
X216258Y-391494D01*
X216301Y-391574D01*
X216337Y-391658D01*
X216363Y-391690D01*
X216374Y-391711D01*
X216397Y-391733D01*
X216442Y-391789D01*
X243394Y-418741D01*
X243452Y-418783D01*
X243504Y-418833D01*
X243551Y-418855D01*
X243593Y-418885D01*
X243662Y-418906D01*
X243727Y-418936D01*
X243779Y-418942D01*
X243829Y-418957D01*
X243900Y-418955D01*
X243971Y-418963D01*
X244022Y-418952D01*
X244074Y-418951D01*
X244142Y-418926D01*
X244212Y-418911D01*
X244257Y-418884D01*
X244305Y-418866D01*
X244361Y-418822D01*
X244423Y-418785D01*
X244457Y-418745D01*
X244497Y-418713D01*
X244536Y-418652D01*
X244583Y-418598D01*
X244602Y-418550D01*
X244630Y-418506D01*
X244648Y-418436D01*
X244675Y-418370D01*
X244683Y-418298D01*
X244691Y-418267D01*
X244689Y-418244D01*
X244693Y-418203D01*
X244693Y-417802D01*
X247802Y-414693D01*
X252198Y-414693D01*
X253217Y-415712D01*
X253291Y-415765D01*
X253361Y-415825D01*
X253391Y-415837D01*
X253417Y-415856D01*
X253504Y-415883D01*
X253589Y-415917D01*
X253630Y-415921D01*
X253652Y-415928D01*
X253684Y-415927D01*
X253755Y-415935D01*
X316905Y-415935D01*
X316995Y-415921D01*
X317086Y-415913D01*
X317116Y-415901D01*
X317148Y-415896D01*
X317229Y-415853D01*
X317312Y-415817D01*
X317345Y-415791D01*
X317365Y-415780D01*
X317387Y-415757D01*
X317443Y-415712D01*
X355066Y-378089D01*
X365847Y-378089D01*
X365937Y-378075D01*
X366028Y-378067D01*
X366058Y-378055D01*
X366090Y-378050D01*
X366170Y-378007D01*
X366254Y-377971D01*
X366286Y-377945D01*
X366307Y-377934D01*
X366329Y-377911D01*
X366385Y-377866D01*
X374470Y-369781D01*
X374523Y-369707D01*
X374583Y-369638D01*
X374595Y-369608D01*
X374614Y-369582D01*
X374641Y-369495D01*
X374675Y-369410D01*
X374679Y-369369D01*
X374686Y-369347D01*
X374685Y-369314D01*
X374693Y-369243D01*
X374693Y-367802D01*
X376220Y-366275D01*
X376273Y-366201D01*
X376333Y-366131D01*
X376345Y-366101D01*
X376364Y-366075D01*
X376391Y-365988D01*
X376425Y-365903D01*
X376429Y-365862D01*
X376436Y-365840D01*
X376435Y-365808D01*
X376443Y-365737D01*
X376443Y-279263D01*
X376429Y-279173D01*
X376421Y-279082D01*
X376409Y-279053D01*
X376404Y-279021D01*
X376361Y-278940D01*
X376325Y-278856D01*
X376299Y-278824D01*
X376288Y-278803D01*
X376265Y-278781D01*
X376258Y-278772D01*
X376250Y-278758D01*
X376241Y-278751D01*
X376220Y-278725D01*
X374693Y-277198D01*
X374693Y-272802D01*
X377802Y-269693D01*
X382198Y-269693D01*
X385307Y-272802D01*
X385307Y-277198D01*
X383780Y-278725D01*
X383736Y-278786D01*
X383703Y-278821D01*
X383697Y-278834D01*
X383667Y-278869D01*
X383655Y-278899D01*
X383636Y-278925D01*
X383609Y-279012D01*
X383575Y-279097D01*
X383571Y-279138D01*
X383564Y-279160D01*
X383565Y-279192D01*
X383557Y-279263D01*
X383557Y-365737D01*
X383571Y-365827D01*
X383579Y-365918D01*
X383591Y-365947D01*
X383596Y-365979D01*
X383639Y-366060D01*
X383675Y-366144D01*
X383701Y-366176D01*
X383712Y-366197D01*
X383735Y-366219D01*
X383780Y-366275D01*
X385307Y-367802D01*
X385307Y-372198D01*
X382198Y-375307D01*
X380757Y-375307D01*
X380667Y-375321D01*
X380576Y-375329D01*
X380546Y-375341D01*
X380514Y-375346D01*
X380434Y-375389D01*
X380350Y-375425D01*
X380318Y-375451D01*
X380297Y-375462D01*
X380275Y-375485D01*
X380219Y-375530D01*
X372134Y-383615D01*
X369530Y-386219D01*
X358749Y-386219D01*
X358659Y-386233D01*
X358568Y-386241D01*
X358538Y-386253D01*
X358506Y-386258D01*
X358426Y-386301D01*
X358342Y-386337D01*
X358310Y-386363D01*
X358289Y-386374D01*
X358267Y-386397D01*
X358211Y-386442D01*
X320588Y-424065D01*
X303407Y-424065D01*
X303337Y-424076D01*
X303265Y-424078D01*
X303216Y-424096D01*
X303165Y-424104D01*
X303101Y-424138D01*
X303034Y-424163D01*
X302993Y-424195D01*
X302947Y-424220D01*
X302898Y-424272D01*
X302842Y-424316D01*
X302814Y-424360D01*
X302778Y-424398D01*
X302748Y-424463D01*
X302709Y-424523D01*
X302696Y-424574D01*
X302674Y-424621D01*
X302666Y-424692D01*
X302649Y-424762D01*
X302653Y-424814D01*
X302647Y-424865D01*
X302662Y-424936D01*
X302668Y-425007D01*
X302688Y-425055D01*
X302699Y-425106D01*
X302736Y-425167D01*
X302764Y-425233D01*
X302809Y-425289D01*
X302826Y-425317D01*
X302843Y-425332D01*
X302869Y-425364D01*
X305307Y-427802D01*
X305307Y-432198D01*
X302198Y-435307D01*
X297802Y-435307D01*
G37*
%LPD*%
%LPC*%
G36*
X91327Y-452673D02*
X91327Y-452673D01*
X87313Y-451010D01*
X84240Y-447937D01*
X82577Y-443923D01*
X82577Y-439577D01*
X84240Y-435563D01*
X86982Y-432821D01*
X86993Y-432805D01*
X87009Y-432793D01*
X87065Y-432705D01*
X87125Y-432621D01*
X87131Y-432602D01*
X87142Y-432586D01*
X87167Y-432485D01*
X87198Y-432386D01*
X87197Y-432366D01*
X87202Y-432347D01*
X87194Y-432244D01*
X87191Y-432140D01*
X87184Y-432122D01*
X87183Y-432102D01*
X87143Y-432007D01*
X87107Y-431909D01*
X87094Y-431894D01*
X87087Y-431876D01*
X87006Y-431775D01*
X87003Y-431770D01*
X86999Y-431767D01*
X86982Y-431745D01*
X60014Y-404777D01*
X58005Y-402768D01*
X58005Y-227683D01*
X94470Y-191218D01*
X94523Y-191144D01*
X94583Y-191075D01*
X94595Y-191045D01*
X94614Y-191018D01*
X94641Y-190931D01*
X94675Y-190847D01*
X94679Y-190806D01*
X94686Y-190783D01*
X94685Y-190751D01*
X94693Y-190680D01*
X94693Y-187802D01*
X97802Y-184693D01*
X102198Y-184693D01*
X105307Y-187802D01*
X105307Y-192198D01*
X104111Y-193394D01*
X104069Y-193452D01*
X104020Y-193504D01*
X103998Y-193551D01*
X103968Y-193593D01*
X103946Y-193662D01*
X103916Y-193727D01*
X103911Y-193779D01*
X103895Y-193829D01*
X103897Y-193900D01*
X103889Y-193971D01*
X103900Y-194022D01*
X103902Y-194074D01*
X103926Y-194142D01*
X103941Y-194212D01*
X103968Y-194257D01*
X103986Y-194305D01*
X104031Y-194361D01*
X104068Y-194423D01*
X104107Y-194457D01*
X104140Y-194497D01*
X104200Y-194536D01*
X104255Y-194583D01*
X104303Y-194602D01*
X104347Y-194630D01*
X104416Y-194648D01*
X104483Y-194675D01*
X104554Y-194683D01*
X104585Y-194691D01*
X104608Y-194689D01*
X104649Y-194693D01*
X107198Y-194693D01*
X110307Y-197802D01*
X110307Y-202198D01*
X107198Y-205307D01*
X105039Y-205307D01*
X104948Y-205321D01*
X104858Y-205329D01*
X104828Y-205341D01*
X104796Y-205346D01*
X104715Y-205389D01*
X104631Y-205425D01*
X104599Y-205451D01*
X104578Y-205462D01*
X104556Y-205485D01*
X104500Y-205530D01*
X95530Y-214500D01*
X95477Y-214574D01*
X95417Y-214644D01*
X95405Y-214674D01*
X95386Y-214700D01*
X95359Y-214787D01*
X95325Y-214872D01*
X95321Y-214913D01*
X95314Y-214935D01*
X95315Y-214967D01*
X95307Y-215039D01*
X95307Y-217198D01*
X92198Y-220307D01*
X87802Y-220307D01*
X84693Y-217198D01*
X84693Y-212802D01*
X87802Y-209693D01*
X89961Y-209693D01*
X90052Y-209679D01*
X90142Y-209671D01*
X90172Y-209659D01*
X90204Y-209654D01*
X90285Y-209611D01*
X90369Y-209575D01*
X90401Y-209549D01*
X90422Y-209538D01*
X90444Y-209515D01*
X90500Y-209470D01*
X99470Y-200500D01*
X99523Y-200426D01*
X99583Y-200356D01*
X99595Y-200326D01*
X99614Y-200300D01*
X99641Y-200213D01*
X99675Y-200128D01*
X99679Y-200087D01*
X99686Y-200065D01*
X99685Y-200033D01*
X99693Y-199961D01*
X99693Y-197802D01*
X100889Y-196606D01*
X100931Y-196548D01*
X100980Y-196496D01*
X101002Y-196449D01*
X101032Y-196407D01*
X101054Y-196338D01*
X101084Y-196273D01*
X101089Y-196221D01*
X101105Y-196171D01*
X101103Y-196100D01*
X101111Y-196029D01*
X101100Y-195978D01*
X101098Y-195926D01*
X101074Y-195858D01*
X101059Y-195788D01*
X101032Y-195743D01*
X101014Y-195695D01*
X100969Y-195639D01*
X100932Y-195577D01*
X100893Y-195543D01*
X100860Y-195503D01*
X100800Y-195464D01*
X100745Y-195417D01*
X100697Y-195398D01*
X100653Y-195370D01*
X100584Y-195352D01*
X100517Y-195325D01*
X100446Y-195317D01*
X100415Y-195309D01*
X100392Y-195311D01*
X100351Y-195307D01*
X99320Y-195307D01*
X99230Y-195321D01*
X99139Y-195329D01*
X99109Y-195341D01*
X99077Y-195346D01*
X98997Y-195389D01*
X98913Y-195425D01*
X98881Y-195451D01*
X98860Y-195462D01*
X98838Y-195485D01*
X98782Y-195530D01*
X64326Y-229986D01*
X64273Y-230060D01*
X64262Y-230073D01*
X64234Y-230101D01*
X64231Y-230108D01*
X64213Y-230129D01*
X64201Y-230159D01*
X64182Y-230186D01*
X64156Y-230269D01*
X64131Y-230324D01*
X64129Y-230337D01*
X64121Y-230357D01*
X64117Y-230398D01*
X64110Y-230421D01*
X64111Y-230453D01*
X64103Y-230524D01*
X64103Y-399927D01*
X64117Y-400017D01*
X64125Y-400108D01*
X64137Y-400138D01*
X64142Y-400170D01*
X64185Y-400251D01*
X64221Y-400334D01*
X64247Y-400367D01*
X64258Y-400387D01*
X64281Y-400409D01*
X64326Y-400465D01*
X81278Y-417417D01*
X81336Y-417459D01*
X81388Y-417509D01*
X81435Y-417531D01*
X81477Y-417561D01*
X81546Y-417582D01*
X81611Y-417612D01*
X81663Y-417618D01*
X81713Y-417633D01*
X81784Y-417632D01*
X81855Y-417639D01*
X81906Y-417628D01*
X81958Y-417627D01*
X82026Y-417602D01*
X82096Y-417587D01*
X82141Y-417560D01*
X82189Y-417543D01*
X82245Y-417498D01*
X82307Y-417461D01*
X82341Y-417421D01*
X82381Y-417389D01*
X82420Y-417329D01*
X82467Y-417274D01*
X82486Y-417226D01*
X82514Y-417182D01*
X82532Y-417112D01*
X82559Y-417046D01*
X82567Y-416975D01*
X82575Y-416943D01*
X82573Y-416920D01*
X82577Y-416879D01*
X82577Y-414177D01*
X84240Y-410163D01*
X87313Y-407090D01*
X91327Y-405427D01*
X94895Y-405427D01*
X94985Y-405413D01*
X95076Y-405405D01*
X95105Y-405393D01*
X95137Y-405388D01*
X95218Y-405345D01*
X95302Y-405309D01*
X95334Y-405283D01*
X95355Y-405272D01*
X95377Y-405249D01*
X95433Y-405204D01*
X98244Y-402393D01*
X98301Y-402314D01*
X98363Y-402239D01*
X98373Y-402214D01*
X98388Y-402193D01*
X98417Y-402100D01*
X98452Y-402009D01*
X98453Y-401983D01*
X98460Y-401958D01*
X98458Y-401860D01*
X98462Y-401763D01*
X98455Y-401738D01*
X98454Y-401712D01*
X98420Y-401620D01*
X98393Y-401527D01*
X98379Y-401506D01*
X98370Y-401481D01*
X98309Y-401405D01*
X98253Y-401325D01*
X98232Y-401309D01*
X98216Y-401289D01*
X98134Y-401236D01*
X98056Y-401178D01*
X98031Y-401170D01*
X98009Y-401156D01*
X97914Y-401132D01*
X97822Y-401102D01*
X97796Y-401102D01*
X97770Y-401096D01*
X97673Y-401103D01*
X97576Y-401104D01*
X97544Y-401113D01*
X97525Y-401115D01*
X97495Y-401128D01*
X97415Y-401151D01*
X95673Y-401873D01*
X91327Y-401873D01*
X87313Y-400210D01*
X84240Y-397137D01*
X82577Y-393123D01*
X82577Y-388777D01*
X84240Y-384763D01*
X87313Y-381690D01*
X91327Y-380027D01*
X95673Y-380027D01*
X98341Y-381133D01*
X98455Y-381159D01*
X98568Y-381188D01*
X98575Y-381187D01*
X98581Y-381189D01*
X98697Y-381178D01*
X98814Y-381169D01*
X98819Y-381166D01*
X98826Y-381166D01*
X98933Y-381118D01*
X99040Y-381072D01*
X99046Y-381068D01*
X99050Y-381066D01*
X99064Y-381053D01*
X99171Y-380968D01*
X102366Y-377772D01*
X102408Y-377714D01*
X102457Y-377662D01*
X102479Y-377615D01*
X102510Y-377573D01*
X102531Y-377504D01*
X102561Y-377439D01*
X102567Y-377387D01*
X102582Y-377337D01*
X102580Y-377266D01*
X102588Y-377195D01*
X102577Y-377144D01*
X102576Y-377092D01*
X102551Y-377024D01*
X102536Y-376954D01*
X102509Y-376910D01*
X102491Y-376861D01*
X102446Y-376805D01*
X102410Y-376743D01*
X102370Y-376709D01*
X102338Y-376669D01*
X102277Y-376630D01*
X102223Y-376583D01*
X102174Y-376564D01*
X102131Y-376536D01*
X102061Y-376518D01*
X101995Y-376491D01*
X101923Y-376483D01*
X101892Y-376475D01*
X101869Y-376477D01*
X101828Y-376473D01*
X83470Y-376473D01*
X82577Y-375580D01*
X82577Y-355520D01*
X83470Y-354627D01*
X103530Y-354627D01*
X104423Y-355520D01*
X104423Y-368977D01*
X104434Y-369047D01*
X104436Y-369119D01*
X104454Y-369168D01*
X104462Y-369219D01*
X104496Y-369283D01*
X104521Y-369350D01*
X104553Y-369391D01*
X104578Y-369437D01*
X104630Y-369486D01*
X104674Y-369542D01*
X104718Y-369570D01*
X104756Y-369606D01*
X104821Y-369636D01*
X104881Y-369675D01*
X104932Y-369688D01*
X104979Y-369710D01*
X105050Y-369718D01*
X105120Y-369735D01*
X105172Y-369731D01*
X105223Y-369737D01*
X105294Y-369722D01*
X105365Y-369716D01*
X105413Y-369696D01*
X105464Y-369685D01*
X105525Y-369648D01*
X105591Y-369620D01*
X105647Y-369575D01*
X105675Y-369558D01*
X105690Y-369541D01*
X105722Y-369515D01*
X111728Y-363509D01*
X111773Y-363447D01*
X111803Y-363415D01*
X111809Y-363403D01*
X111841Y-363365D01*
X111853Y-363335D01*
X111872Y-363309D01*
X111899Y-363222D01*
X111933Y-363137D01*
X111937Y-363096D01*
X111944Y-363074D01*
X111943Y-363042D01*
X111951Y-362971D01*
X111951Y-259771D01*
X111937Y-259681D01*
X111929Y-259590D01*
X111917Y-259561D01*
X111912Y-259529D01*
X111869Y-259448D01*
X111833Y-259364D01*
X111807Y-259332D01*
X111796Y-259311D01*
X111773Y-259289D01*
X111728Y-259233D01*
X109693Y-257198D01*
X109693Y-252802D01*
X111728Y-250767D01*
X111781Y-250693D01*
X111841Y-250623D01*
X111853Y-250593D01*
X111872Y-250567D01*
X111899Y-250480D01*
X111933Y-250395D01*
X111937Y-250354D01*
X111944Y-250332D01*
X111943Y-250300D01*
X111951Y-250229D01*
X111951Y-248737D01*
X144470Y-216218D01*
X144523Y-216144D01*
X144583Y-216075D01*
X144595Y-216045D01*
X144614Y-216018D01*
X144641Y-215931D01*
X144675Y-215847D01*
X144679Y-215806D01*
X144686Y-215783D01*
X144685Y-215751D01*
X144693Y-215680D01*
X144693Y-212802D01*
X147802Y-209693D01*
X152198Y-209693D01*
X155307Y-212802D01*
X155307Y-217198D01*
X152198Y-220307D01*
X149320Y-220307D01*
X149230Y-220321D01*
X149139Y-220329D01*
X149109Y-220341D01*
X149077Y-220346D01*
X148997Y-220389D01*
X148913Y-220425D01*
X148881Y-220451D01*
X148860Y-220462D01*
X148838Y-220485D01*
X148782Y-220530D01*
X118946Y-250365D01*
X118935Y-250381D01*
X118919Y-250394D01*
X118863Y-250481D01*
X118803Y-250565D01*
X118797Y-250584D01*
X118786Y-250601D01*
X118761Y-250701D01*
X118731Y-250800D01*
X118731Y-250820D01*
X118726Y-250839D01*
X118734Y-250942D01*
X118737Y-251046D01*
X118744Y-251065D01*
X118745Y-251084D01*
X118786Y-251179D01*
X118821Y-251277D01*
X118834Y-251292D01*
X118842Y-251311D01*
X118946Y-251442D01*
X120307Y-252802D01*
X120307Y-257198D01*
X118272Y-259233D01*
X118219Y-259307D01*
X118159Y-259377D01*
X118147Y-259407D01*
X118128Y-259433D01*
X118101Y-259520D01*
X118067Y-259605D01*
X118063Y-259646D01*
X118056Y-259668D01*
X118057Y-259700D01*
X118049Y-259771D01*
X118049Y-365812D01*
X117600Y-366261D01*
X117557Y-366320D01*
X117514Y-366365D01*
X117507Y-366381D01*
X117487Y-366404D01*
X117475Y-366434D01*
X117456Y-366460D01*
X117429Y-366547D01*
X117428Y-366551D01*
X117411Y-366588D01*
X117410Y-366596D01*
X117395Y-366632D01*
X117391Y-366673D01*
X117384Y-366695D01*
X117385Y-366728D01*
X117377Y-366799D01*
X117377Y-377488D01*
X117380Y-377508D01*
X117378Y-377527D01*
X117400Y-377629D01*
X117417Y-377731D01*
X117426Y-377748D01*
X117430Y-377768D01*
X117483Y-377857D01*
X117532Y-377948D01*
X117546Y-377962D01*
X117556Y-377979D01*
X117635Y-378046D01*
X117710Y-378117D01*
X117728Y-378126D01*
X117743Y-378139D01*
X117839Y-378177D01*
X117933Y-378221D01*
X117953Y-378223D01*
X117971Y-378231D01*
X118138Y-378249D01*
X119662Y-378249D01*
X119682Y-378246D01*
X119701Y-378248D01*
X119803Y-378226D01*
X119905Y-378209D01*
X119922Y-378200D01*
X119942Y-378196D01*
X120031Y-378143D01*
X120122Y-378094D01*
X120136Y-378080D01*
X120153Y-378070D01*
X120220Y-377991D01*
X120291Y-377916D01*
X120300Y-377898D01*
X120313Y-377883D01*
X120352Y-377787D01*
X120395Y-377693D01*
X120397Y-377673D01*
X120405Y-377655D01*
X120423Y-377488D01*
X120423Y-366404D01*
X121696Y-366605D01*
X123483Y-367186D01*
X125157Y-368039D01*
X126678Y-369144D01*
X126998Y-369464D01*
X127056Y-369506D01*
X127108Y-369555D01*
X127155Y-369577D01*
X127197Y-369607D01*
X127266Y-369628D01*
X127331Y-369659D01*
X127383Y-369664D01*
X127433Y-369680D01*
X127504Y-369678D01*
X127575Y-369686D01*
X127626Y-369675D01*
X127678Y-369673D01*
X127746Y-369649D01*
X127816Y-369634D01*
X127861Y-369607D01*
X127909Y-369589D01*
X127965Y-369544D01*
X128027Y-369507D01*
X128061Y-369468D01*
X128101Y-369435D01*
X128140Y-369375D01*
X128187Y-369320D01*
X128206Y-369272D01*
X128234Y-369228D01*
X128252Y-369159D01*
X128279Y-369092D01*
X128287Y-369021D01*
X128295Y-368990D01*
X128293Y-368966D01*
X128297Y-368926D01*
X128297Y-337391D01*
X171728Y-293960D01*
X171781Y-293886D01*
X171841Y-293817D01*
X171853Y-293787D01*
X171872Y-293760D01*
X171899Y-293674D01*
X171933Y-293589D01*
X171937Y-293548D01*
X171944Y-293525D01*
X171943Y-293493D01*
X171951Y-293422D01*
X171951Y-181578D01*
X171937Y-181488D01*
X171929Y-181397D01*
X171917Y-181367D01*
X171912Y-181335D01*
X171869Y-181255D01*
X171833Y-181171D01*
X171807Y-181139D01*
X171796Y-181118D01*
X171773Y-181096D01*
X171728Y-181040D01*
X168960Y-178272D01*
X168886Y-178219D01*
X168817Y-178159D01*
X168787Y-178147D01*
X168760Y-178128D01*
X168673Y-178101D01*
X168589Y-178067D01*
X168548Y-178063D01*
X168525Y-178056D01*
X168493Y-178057D01*
X168422Y-178049D01*
X156578Y-178049D01*
X156488Y-178063D01*
X156397Y-178071D01*
X156367Y-178083D01*
X156335Y-178088D01*
X156255Y-178131D01*
X156171Y-178167D01*
X156139Y-178193D01*
X156118Y-178204D01*
X156096Y-178227D01*
X156040Y-178272D01*
X155530Y-178782D01*
X155477Y-178856D01*
X155417Y-178925D01*
X155405Y-178955D01*
X155386Y-178982D01*
X155359Y-179069D01*
X155325Y-179153D01*
X155321Y-179194D01*
X155314Y-179217D01*
X155315Y-179249D01*
X155307Y-179320D01*
X155307Y-182198D01*
X152198Y-185307D01*
X147802Y-185307D01*
X144693Y-182198D01*
X144693Y-177802D01*
X147802Y-174693D01*
X150680Y-174693D01*
X150770Y-174679D01*
X150861Y-174671D01*
X150891Y-174659D01*
X150923Y-174654D01*
X151003Y-174611D01*
X151087Y-174575D01*
X151119Y-174549D01*
X151140Y-174538D01*
X151162Y-174515D01*
X151218Y-174470D01*
X153737Y-171951D01*
X171263Y-171951D01*
X178049Y-178737D01*
X178049Y-296263D01*
X134618Y-339694D01*
X134565Y-339768D01*
X134505Y-339837D01*
X134493Y-339867D01*
X134474Y-339894D01*
X134447Y-339981D01*
X134413Y-340065D01*
X134409Y-340106D01*
X134402Y-340129D01*
X134403Y-340161D01*
X134395Y-340232D01*
X134395Y-384668D01*
X125418Y-393645D01*
X125407Y-393661D01*
X125391Y-393673D01*
X125335Y-393761D01*
X125275Y-393844D01*
X125269Y-393863D01*
X125258Y-393880D01*
X125233Y-393981D01*
X125202Y-394079D01*
X125203Y-394099D01*
X125198Y-394119D01*
X125206Y-394222D01*
X125209Y-394325D01*
X125216Y-394344D01*
X125217Y-394364D01*
X125258Y-394459D01*
X125263Y-394473D01*
X125264Y-394478D01*
X125266Y-394481D01*
X125293Y-394556D01*
X125306Y-394572D01*
X125313Y-394590D01*
X125382Y-394676D01*
X125390Y-394689D01*
X125398Y-394696D01*
X125418Y-394721D01*
X128160Y-397463D01*
X129823Y-401477D01*
X129823Y-405823D01*
X128160Y-409837D01*
X125087Y-412910D01*
X121073Y-414573D01*
X116727Y-414573D01*
X112713Y-412910D01*
X109640Y-409837D01*
X107977Y-405823D01*
X107977Y-403121D01*
X107966Y-403050D01*
X107964Y-402978D01*
X107946Y-402929D01*
X107938Y-402878D01*
X107904Y-402815D01*
X107879Y-402747D01*
X107847Y-402707D01*
X107822Y-402661D01*
X107770Y-402611D01*
X107726Y-402555D01*
X107682Y-402527D01*
X107644Y-402491D01*
X107579Y-402461D01*
X107519Y-402422D01*
X107468Y-402410D01*
X107421Y-402388D01*
X107350Y-402380D01*
X107280Y-402362D01*
X107228Y-402366D01*
X107177Y-402361D01*
X107106Y-402376D01*
X107035Y-402381D01*
X106987Y-402402D01*
X106936Y-402413D01*
X106875Y-402450D01*
X106809Y-402478D01*
X106753Y-402522D01*
X106725Y-402539D01*
X106710Y-402557D01*
X106678Y-402583D01*
X101467Y-407793D01*
X101455Y-407809D01*
X101440Y-407822D01*
X101384Y-407909D01*
X101323Y-407993D01*
X101318Y-408012D01*
X101307Y-408029D01*
X101281Y-408129D01*
X101251Y-408228D01*
X101252Y-408248D01*
X101247Y-408267D01*
X101255Y-408370D01*
X101257Y-408474D01*
X101264Y-408493D01*
X101266Y-408513D01*
X101306Y-408608D01*
X101342Y-408705D01*
X101354Y-408721D01*
X101362Y-408739D01*
X101467Y-408870D01*
X102760Y-410163D01*
X104423Y-414177D01*
X104423Y-418523D01*
X102760Y-422537D01*
X99687Y-425610D01*
X95673Y-427273D01*
X92971Y-427273D01*
X92900Y-427284D01*
X92828Y-427286D01*
X92779Y-427304D01*
X92728Y-427312D01*
X92665Y-427346D01*
X92597Y-427371D01*
X92557Y-427403D01*
X92511Y-427428D01*
X92461Y-427480D01*
X92405Y-427524D01*
X92377Y-427568D01*
X92341Y-427606D01*
X92311Y-427671D01*
X92272Y-427731D01*
X92260Y-427782D01*
X92238Y-427829D01*
X92230Y-427900D01*
X92212Y-427970D01*
X92216Y-428022D01*
X92211Y-428073D01*
X92226Y-428144D01*
X92231Y-428215D01*
X92252Y-428263D01*
X92263Y-428314D01*
X92300Y-428375D01*
X92328Y-428441D01*
X92373Y-428497D01*
X92389Y-428525D01*
X92407Y-428540D01*
X92433Y-428572D01*
X94465Y-430604D01*
X94539Y-430657D01*
X94608Y-430717D01*
X94638Y-430729D01*
X94664Y-430748D01*
X94751Y-430775D01*
X94836Y-430809D01*
X94877Y-430813D01*
X94899Y-430820D01*
X94932Y-430819D01*
X95003Y-430827D01*
X95673Y-430827D01*
X99687Y-432490D01*
X102760Y-435563D01*
X104423Y-439577D01*
X104423Y-443923D01*
X102760Y-447937D01*
X99687Y-451010D01*
X95673Y-452673D01*
X91327Y-452673D01*
G37*
%LPD*%
%LPC*%
G36*
X423555Y-535025D02*
X423555Y-535025D01*
X416707Y-533190D01*
X410568Y-529645D01*
X405555Y-524632D01*
X402010Y-518493D01*
X400175Y-511645D01*
X400175Y-504555D01*
X402010Y-497707D01*
X405555Y-491568D01*
X410568Y-486555D01*
X416707Y-483010D01*
X423555Y-481175D01*
X430645Y-481175D01*
X437493Y-483010D01*
X443632Y-486555D01*
X448645Y-491568D01*
X452190Y-497707D01*
X454025Y-504555D01*
X454025Y-511645D01*
X452190Y-518493D01*
X448645Y-524632D01*
X443632Y-529645D01*
X437493Y-533190D01*
X430645Y-535025D01*
X423555Y-535025D01*
G37*
%LPD*%
%LPC*%
G36*
X173555Y-535025D02*
X173555Y-535025D01*
X166707Y-533190D01*
X160568Y-529645D01*
X155555Y-524632D01*
X152010Y-518493D01*
X150175Y-511645D01*
X150175Y-504555D01*
X152010Y-497707D01*
X155555Y-491568D01*
X160568Y-486555D01*
X166707Y-483010D01*
X173555Y-481175D01*
X180645Y-481175D01*
X187493Y-483010D01*
X193632Y-486555D01*
X198645Y-491568D01*
X202190Y-497707D01*
X204025Y-504555D01*
X204025Y-511645D01*
X202190Y-518493D01*
X198645Y-524632D01*
X193632Y-529645D01*
X187493Y-533190D01*
X180645Y-535025D01*
X173555Y-535025D01*
G37*
%LPD*%
%LPC*%
G36*
X429355Y-118325D02*
X429355Y-118325D01*
X422507Y-116490D01*
X416368Y-112945D01*
X411355Y-107932D01*
X407810Y-101793D01*
X405975Y-94945D01*
X405975Y-87855D01*
X407810Y-81007D01*
X411355Y-74868D01*
X416368Y-69855D01*
X422507Y-66310D01*
X429355Y-64475D01*
X436445Y-64475D01*
X443293Y-66310D01*
X449432Y-69855D01*
X454445Y-74868D01*
X457990Y-81007D01*
X459825Y-87855D01*
X459825Y-94945D01*
X457990Y-101793D01*
X454445Y-107932D01*
X449432Y-112945D01*
X443293Y-116490D01*
X436445Y-118325D01*
X429355Y-118325D01*
G37*
%LPD*%
%LPC*%
G36*
X179355Y-118325D02*
X179355Y-118325D01*
X172507Y-116490D01*
X166368Y-112945D01*
X161355Y-107932D01*
X157810Y-101793D01*
X155975Y-94945D01*
X155975Y-87855D01*
X157810Y-81007D01*
X161355Y-74868D01*
X166368Y-69855D01*
X172507Y-66310D01*
X179355Y-64475D01*
X186445Y-64475D01*
X193293Y-66310D01*
X199432Y-69855D01*
X204445Y-74868D01*
X207990Y-81007D01*
X209825Y-87855D01*
X209825Y-94945D01*
X207990Y-101793D01*
X204445Y-107932D01*
X199432Y-112945D01*
X193293Y-116490D01*
X186445Y-118325D01*
X179355Y-118325D01*
G37*
%LPD*%
%LPC*%
G36*
X533512Y-270945D02*
X533512Y-270945D01*
X528155Y-265588D01*
X528155Y-258719D01*
X528141Y-258629D01*
X528133Y-258538D01*
X528121Y-258508D01*
X528116Y-258476D01*
X528073Y-258396D01*
X528037Y-258312D01*
X528011Y-258280D01*
X528000Y-258259D01*
X527977Y-258237D01*
X527955Y-258209D01*
X527952Y-258205D01*
X527949Y-258202D01*
X527932Y-258181D01*
X404039Y-134288D01*
X403965Y-134235D01*
X403896Y-134175D01*
X403866Y-134163D01*
X403840Y-134144D01*
X403753Y-134117D01*
X403668Y-134083D01*
X403627Y-134079D01*
X403604Y-134072D01*
X403572Y-134073D01*
X403501Y-134065D01*
X363755Y-134065D01*
X363665Y-134079D01*
X363574Y-134087D01*
X363545Y-134099D01*
X363513Y-134104D01*
X363432Y-134147D01*
X363348Y-134183D01*
X363316Y-134209D01*
X363295Y-134220D01*
X363273Y-134243D01*
X363217Y-134288D01*
X362198Y-135307D01*
X357802Y-135307D01*
X354693Y-132198D01*
X354693Y-127802D01*
X357802Y-124693D01*
X362198Y-124693D01*
X363217Y-125712D01*
X363291Y-125765D01*
X363361Y-125825D01*
X363391Y-125837D01*
X363417Y-125856D01*
X363504Y-125883D01*
X363589Y-125917D01*
X363630Y-125921D01*
X363652Y-125928D01*
X363684Y-125927D01*
X363755Y-125935D01*
X407184Y-125935D01*
X533681Y-252432D01*
X533755Y-252485D01*
X533824Y-252545D01*
X533854Y-252557D01*
X533880Y-252576D01*
X533967Y-252603D01*
X534052Y-252637D01*
X534093Y-252641D01*
X534116Y-252648D01*
X534148Y-252647D01*
X534219Y-252655D01*
X541088Y-252655D01*
X546445Y-258012D01*
X546445Y-265588D01*
X541088Y-270945D01*
X533512Y-270945D01*
G37*
%LPD*%
%LPC*%
G36*
X357802Y-365307D02*
X357802Y-365307D01*
X354693Y-362198D01*
X354693Y-357802D01*
X357802Y-354693D01*
X359961Y-354693D01*
X360052Y-354679D01*
X360142Y-354671D01*
X360172Y-354659D01*
X360204Y-354654D01*
X360285Y-354611D01*
X360369Y-354575D01*
X360401Y-354549D01*
X360422Y-354538D01*
X360444Y-354515D01*
X360500Y-354470D01*
X361220Y-353750D01*
X361273Y-353676D01*
X361333Y-353606D01*
X361345Y-353576D01*
X361364Y-353550D01*
X361391Y-353463D01*
X361425Y-353378D01*
X361429Y-353337D01*
X361436Y-353315D01*
X361435Y-353283D01*
X361443Y-353211D01*
X361443Y-269263D01*
X361429Y-269173D01*
X361421Y-269082D01*
X361409Y-269053D01*
X361404Y-269021D01*
X361361Y-268940D01*
X361325Y-268856D01*
X361299Y-268824D01*
X361288Y-268803D01*
X361265Y-268781D01*
X361220Y-268725D01*
X359693Y-267198D01*
X359693Y-262802D01*
X362802Y-259693D01*
X367198Y-259693D01*
X370307Y-262802D01*
X370307Y-267198D01*
X368780Y-268725D01*
X368727Y-268799D01*
X368667Y-268869D01*
X368655Y-268899D01*
X368636Y-268925D01*
X368609Y-269012D01*
X368575Y-269097D01*
X368571Y-269138D01*
X368564Y-269160D01*
X368565Y-269192D01*
X368557Y-269263D01*
X368557Y-356473D01*
X366250Y-358780D01*
X365530Y-359500D01*
X365477Y-359574D01*
X365417Y-359644D01*
X365405Y-359674D01*
X365386Y-359700D01*
X365359Y-359787D01*
X365325Y-359872D01*
X365321Y-359913D01*
X365314Y-359935D01*
X365315Y-359967D01*
X365307Y-360039D01*
X365307Y-362198D01*
X362198Y-365307D01*
X357802Y-365307D01*
G37*
%LPD*%
%LPC*%
G36*
X97302Y-255807D02*
X97302Y-255807D01*
X94193Y-252698D01*
X94193Y-248302D01*
X97302Y-245193D01*
X99461Y-245193D01*
X99552Y-245179D01*
X99642Y-245171D01*
X99672Y-245159D01*
X99704Y-245154D01*
X99785Y-245111D01*
X99869Y-245075D01*
X99901Y-245049D01*
X99922Y-245038D01*
X99944Y-245015D01*
X100000Y-244970D01*
X159470Y-185500D01*
X159523Y-185426D01*
X159583Y-185356D01*
X159595Y-185326D01*
X159614Y-185300D01*
X159641Y-185213D01*
X159675Y-185128D01*
X159679Y-185087D01*
X159686Y-185065D01*
X159685Y-185033D01*
X159693Y-184961D01*
X159693Y-182802D01*
X162802Y-179693D01*
X167198Y-179693D01*
X170307Y-182802D01*
X170307Y-187198D01*
X167198Y-190307D01*
X165039Y-190307D01*
X164948Y-190321D01*
X164858Y-190329D01*
X164828Y-190341D01*
X164796Y-190346D01*
X164715Y-190389D01*
X164631Y-190425D01*
X164599Y-190451D01*
X164578Y-190462D01*
X164556Y-190485D01*
X164500Y-190530D01*
X105030Y-250000D01*
X104977Y-250074D01*
X104917Y-250144D01*
X104905Y-250174D01*
X104886Y-250200D01*
X104859Y-250287D01*
X104825Y-250372D01*
X104821Y-250413D01*
X104814Y-250435D01*
X104815Y-250467D01*
X104807Y-250539D01*
X104807Y-252698D01*
X101698Y-255807D01*
X97302Y-255807D01*
G37*
%LPD*%
%LPC*%
G36*
X551523Y-81751D02*
X551523Y-81751D01*
X551523Y-51523D01*
X581751Y-51523D01*
X581751Y-51560D01*
X581445Y-54664D01*
X580836Y-57724D01*
X579931Y-60709D01*
X578737Y-63592D01*
X577266Y-66343D01*
X575533Y-68937D01*
X573554Y-71348D01*
X571348Y-73554D01*
X568937Y-75533D01*
X566343Y-77266D01*
X563592Y-78737D01*
X560709Y-79931D01*
X557724Y-80836D01*
X554664Y-81445D01*
X551560Y-81751D01*
X551523Y-81751D01*
G37*
%LPD*%
%LPC*%
G36*
X51523Y-581751D02*
X51523Y-581751D01*
X51523Y-551523D01*
X81751Y-551523D01*
X81751Y-551560D01*
X81445Y-554664D01*
X80836Y-557724D01*
X79931Y-560709D01*
X78737Y-563592D01*
X77266Y-566343D01*
X75533Y-568937D01*
X73554Y-571348D01*
X71348Y-573554D01*
X68937Y-575533D01*
X66343Y-577266D01*
X63592Y-578737D01*
X60709Y-579931D01*
X57724Y-580836D01*
X54664Y-581445D01*
X51560Y-581751D01*
X51523Y-581751D01*
G37*
%LPD*%
%LPC*%
G36*
X551523Y-581751D02*
X551523Y-581751D01*
X551523Y-551523D01*
X581751Y-551523D01*
X581751Y-551560D01*
X581445Y-554664D01*
X580836Y-557724D01*
X579931Y-560709D01*
X578737Y-563592D01*
X577266Y-566343D01*
X575533Y-568937D01*
X573554Y-571348D01*
X571348Y-573554D01*
X568937Y-575533D01*
X566343Y-577266D01*
X563592Y-578737D01*
X560709Y-579931D01*
X557724Y-580836D01*
X554664Y-581445D01*
X551560Y-581751D01*
X551523Y-581751D01*
G37*
%LPD*%
%LPC*%
G36*
X51523Y-81751D02*
X51523Y-81751D01*
X51523Y-51523D01*
X81751Y-51523D01*
X81751Y-51560D01*
X81445Y-54664D01*
X80836Y-57724D01*
X79931Y-60709D01*
X78737Y-63592D01*
X77266Y-66343D01*
X75533Y-68937D01*
X73554Y-71348D01*
X71348Y-73554D01*
X68937Y-75533D01*
X66343Y-77266D01*
X63592Y-78737D01*
X60709Y-79931D01*
X57724Y-80836D01*
X54664Y-81445D01*
X51560Y-81751D01*
X51523Y-81751D01*
G37*
%LPD*%
%LPC*%
G36*
X548440Y-581751D02*
X548440Y-581751D01*
X545336Y-581445D01*
X542276Y-580836D01*
X539291Y-579931D01*
X536408Y-578737D01*
X533657Y-577266D01*
X531063Y-575533D01*
X528652Y-573554D01*
X526446Y-571348D01*
X524467Y-568937D01*
X522734Y-566343D01*
X521263Y-563592D01*
X520069Y-560709D01*
X519164Y-557724D01*
X518555Y-554664D01*
X518249Y-551560D01*
X518249Y-551523D01*
X548477Y-551523D01*
X548477Y-581751D01*
X548440Y-581751D01*
G37*
%LPD*%
%LPC*%
G36*
X48440Y-81751D02*
X48440Y-81751D01*
X45336Y-81445D01*
X42276Y-80836D01*
X39291Y-79931D01*
X36408Y-78737D01*
X33657Y-77266D01*
X31063Y-75533D01*
X28652Y-73554D01*
X26446Y-71348D01*
X24467Y-68937D01*
X22734Y-66343D01*
X21263Y-63592D01*
X20069Y-60709D01*
X19164Y-57724D01*
X18555Y-54664D01*
X18249Y-51560D01*
X18249Y-51523D01*
X48477Y-51523D01*
X48477Y-81751D01*
X48440Y-81751D01*
G37*
%LPD*%
%LPC*%
G36*
X548440Y-81751D02*
X548440Y-81751D01*
X545336Y-81445D01*
X542276Y-80836D01*
X539291Y-79931D01*
X536408Y-78737D01*
X533657Y-77266D01*
X531063Y-75533D01*
X528652Y-73554D01*
X526446Y-71348D01*
X524467Y-68937D01*
X522734Y-66343D01*
X521263Y-63592D01*
X520069Y-60709D01*
X519164Y-57724D01*
X518555Y-54664D01*
X518249Y-51560D01*
X518249Y-51523D01*
X548477Y-51523D01*
X548477Y-81751D01*
X548440Y-81751D01*
G37*
%LPD*%
%LPC*%
G36*
X48440Y-581751D02*
X48440Y-581751D01*
X45336Y-581445D01*
X42276Y-580836D01*
X39291Y-579931D01*
X36408Y-578737D01*
X33657Y-577266D01*
X31063Y-575533D01*
X28652Y-573554D01*
X26446Y-571348D01*
X24467Y-568937D01*
X22734Y-566343D01*
X21263Y-563592D01*
X20069Y-560709D01*
X19164Y-557724D01*
X18555Y-554664D01*
X18249Y-551560D01*
X18249Y-551523D01*
X48477Y-551523D01*
X48477Y-581751D01*
X48440Y-581751D01*
G37*
%LPD*%
%LPC*%
G36*
X551523Y-48477D02*
X551523Y-48477D01*
X551523Y-18249D01*
X551560Y-18249D01*
X554664Y-18555D01*
X557724Y-19164D01*
X560709Y-20069D01*
X563592Y-21263D01*
X566343Y-22734D01*
X568937Y-24467D01*
X571348Y-26446D01*
X573554Y-28652D01*
X575533Y-31063D01*
X577266Y-33657D01*
X578737Y-36408D01*
X579931Y-39291D01*
X580836Y-42276D01*
X581445Y-45336D01*
X581751Y-48440D01*
X581751Y-48477D01*
X551523Y-48477D01*
G37*
%LPD*%
%LPC*%
G36*
X51523Y-548477D02*
X51523Y-548477D01*
X51523Y-518249D01*
X51560Y-518249D01*
X54664Y-518555D01*
X57724Y-519164D01*
X60709Y-520069D01*
X63592Y-521263D01*
X66343Y-522734D01*
X68937Y-524467D01*
X71348Y-526446D01*
X73554Y-528652D01*
X75533Y-531063D01*
X77266Y-533657D01*
X78737Y-536408D01*
X79931Y-539291D01*
X80836Y-542276D01*
X81445Y-545336D01*
X81751Y-548440D01*
X81751Y-548477D01*
X51523Y-548477D01*
G37*
%LPD*%
%LPC*%
G36*
X51523Y-48477D02*
X51523Y-48477D01*
X51523Y-18249D01*
X51560Y-18249D01*
X54664Y-18555D01*
X57724Y-19164D01*
X60709Y-20069D01*
X63592Y-21263D01*
X66343Y-22734D01*
X68937Y-24467D01*
X71348Y-26446D01*
X73554Y-28652D01*
X75533Y-31063D01*
X77266Y-33657D01*
X78737Y-36408D01*
X79931Y-39291D01*
X80836Y-42276D01*
X81445Y-45336D01*
X81751Y-48440D01*
X81751Y-48477D01*
X51523Y-48477D01*
G37*
%LPD*%
%LPC*%
G36*
X551523Y-548477D02*
X551523Y-548477D01*
X551523Y-518249D01*
X551560Y-518249D01*
X554664Y-518555D01*
X557724Y-519164D01*
X560709Y-520069D01*
X563592Y-521263D01*
X566343Y-522734D01*
X568937Y-524467D01*
X571348Y-526446D01*
X573554Y-528652D01*
X575533Y-531063D01*
X577266Y-533657D01*
X578737Y-536408D01*
X579931Y-539291D01*
X580836Y-542276D01*
X581445Y-545336D01*
X581751Y-548440D01*
X581751Y-548477D01*
X551523Y-548477D01*
G37*
%LPD*%
%LPC*%
G36*
X18249Y-548477D02*
X18249Y-548477D01*
X18249Y-548440D01*
X18555Y-545336D01*
X19164Y-542276D01*
X20069Y-539291D01*
X21263Y-536408D01*
X22734Y-533657D01*
X24467Y-531063D01*
X26446Y-528652D01*
X28652Y-526446D01*
X31063Y-524467D01*
X33657Y-522734D01*
X36408Y-521263D01*
X39291Y-520069D01*
X42276Y-519164D01*
X45336Y-518555D01*
X48440Y-518249D01*
X48477Y-518249D01*
X48477Y-548477D01*
X18249Y-548477D01*
G37*
%LPD*%
%LPC*%
G36*
X518249Y-548477D02*
X518249Y-548477D01*
X518249Y-548440D01*
X518555Y-545336D01*
X519164Y-542276D01*
X520069Y-539291D01*
X521263Y-536408D01*
X522734Y-533657D01*
X524467Y-531063D01*
X526446Y-528652D01*
X528652Y-526446D01*
X531063Y-524467D01*
X533657Y-522734D01*
X536408Y-521263D01*
X539291Y-520069D01*
X542276Y-519164D01*
X545336Y-518555D01*
X548440Y-518249D01*
X548477Y-518249D01*
X548477Y-548477D01*
X518249Y-548477D01*
G37*
%LPD*%
%LPC*%
G36*
X518249Y-48477D02*
X518249Y-48477D01*
X518249Y-48440D01*
X518555Y-45336D01*
X519164Y-42276D01*
X520069Y-39291D01*
X521263Y-36408D01*
X522734Y-33657D01*
X524467Y-31063D01*
X526446Y-28652D01*
X528652Y-26446D01*
X531063Y-24467D01*
X533657Y-22734D01*
X536408Y-21263D01*
X539291Y-20069D01*
X542276Y-19164D01*
X545336Y-18555D01*
X548440Y-18249D01*
X548477Y-18249D01*
X548477Y-48477D01*
X518249Y-48477D01*
G37*
%LPD*%
%LPC*%
G36*
X18249Y-48477D02*
X18249Y-48477D01*
X18249Y-48440D01*
X18555Y-45336D01*
X19164Y-42276D01*
X20069Y-39291D01*
X21263Y-36408D01*
X22734Y-33657D01*
X24467Y-31063D01*
X26446Y-28652D01*
X28652Y-26446D01*
X31063Y-24467D01*
X33657Y-22734D01*
X36408Y-21263D01*
X39291Y-20069D01*
X42276Y-19164D01*
X45336Y-18555D01*
X48440Y-18249D01*
X48477Y-18249D01*
X48477Y-48477D01*
X18249Y-48477D01*
G37*
%LPD*%
%LPC*%
G36*
X533512Y-169345D02*
X533512Y-169345D01*
X528155Y-163988D01*
X528155Y-156412D01*
X533512Y-151055D01*
X541088Y-151055D01*
X544421Y-154388D01*
X544495Y-154441D01*
X544564Y-154501D01*
X544594Y-154513D01*
X544621Y-154532D01*
X544708Y-154559D01*
X544792Y-154593D01*
X544833Y-154597D01*
X544856Y-154604D01*
X544888Y-154603D01*
X544959Y-154611D01*
X555041Y-154611D01*
X555131Y-154597D01*
X555222Y-154589D01*
X555252Y-154577D01*
X555284Y-154572D01*
X555364Y-154529D01*
X555448Y-154493D01*
X555480Y-154467D01*
X555501Y-154456D01*
X555523Y-154433D01*
X555579Y-154388D01*
X558912Y-151055D01*
X566488Y-151055D01*
X571845Y-156412D01*
X571845Y-163988D01*
X566488Y-169345D01*
X558912Y-169345D01*
X555579Y-166012D01*
X555505Y-165959D01*
X555436Y-165899D01*
X555406Y-165887D01*
X555379Y-165868D01*
X555292Y-165841D01*
X555208Y-165807D01*
X555167Y-165803D01*
X555144Y-165796D01*
X555112Y-165797D01*
X555041Y-165789D01*
X544959Y-165789D01*
X544869Y-165803D01*
X544778Y-165811D01*
X544748Y-165823D01*
X544716Y-165828D01*
X544636Y-165871D01*
X544552Y-165907D01*
X544520Y-165933D01*
X544499Y-165944D01*
X544477Y-165967D01*
X544421Y-166012D01*
X541088Y-169345D01*
X533512Y-169345D01*
G37*
%LPD*%
%LPC*%
G36*
X26561Y-158045D02*
X26561Y-158045D01*
X23200Y-156653D01*
X20627Y-154080D01*
X19235Y-150719D01*
X19235Y-147081D01*
X20627Y-143720D01*
X23200Y-141147D01*
X26561Y-139755D01*
X45439Y-139755D01*
X48800Y-141147D01*
X51373Y-143720D01*
X52765Y-147081D01*
X52765Y-150719D01*
X51373Y-154080D01*
X48800Y-156653D01*
X45439Y-158045D01*
X26561Y-158045D01*
G37*
%LPD*%
%LPC*%
G36*
X26561Y-132645D02*
X26561Y-132645D01*
X23200Y-131253D01*
X20627Y-128680D01*
X19235Y-125319D01*
X19235Y-121681D01*
X20627Y-118320D01*
X23200Y-115747D01*
X26561Y-114355D01*
X45439Y-114355D01*
X48800Y-115747D01*
X51373Y-118320D01*
X52765Y-121681D01*
X52765Y-125319D01*
X51373Y-128680D01*
X48800Y-131253D01*
X45439Y-132645D01*
X26561Y-132645D01*
G37*
%LPD*%
%LPC*%
G36*
X26561Y-183445D02*
X26561Y-183445D01*
X23200Y-182053D01*
X20627Y-179480D01*
X19235Y-176119D01*
X19235Y-172481D01*
X20627Y-169120D01*
X23200Y-166547D01*
X26561Y-165155D01*
X45439Y-165155D01*
X48800Y-166547D01*
X51373Y-169120D01*
X52765Y-172481D01*
X52765Y-176119D01*
X51373Y-179480D01*
X48800Y-182053D01*
X45439Y-183445D01*
X26561Y-183445D01*
G37*
%LPD*%
%LPC*%
G36*
X26561Y-208845D02*
X26561Y-208845D01*
X23200Y-207453D01*
X20627Y-204880D01*
X19235Y-201519D01*
X19235Y-197881D01*
X20627Y-194520D01*
X23200Y-191947D01*
X26561Y-190555D01*
X45439Y-190555D01*
X48800Y-191947D01*
X51373Y-194520D01*
X52765Y-197881D01*
X52765Y-201519D01*
X51373Y-204880D01*
X48800Y-207453D01*
X45439Y-208845D01*
X26561Y-208845D01*
G37*
%LPD*%
%LPC*%
G36*
X26561Y-259645D02*
X26561Y-259645D01*
X23200Y-258253D01*
X20627Y-255680D01*
X19235Y-252319D01*
X19235Y-248681D01*
X20627Y-245320D01*
X23200Y-242747D01*
X26561Y-241355D01*
X45439Y-241355D01*
X48800Y-242747D01*
X51373Y-245320D01*
X52765Y-248681D01*
X52765Y-252319D01*
X51373Y-255680D01*
X48800Y-258253D01*
X45439Y-259645D01*
X26561Y-259645D01*
G37*
%LPD*%
%LPC*%
G36*
X26561Y-285045D02*
X26561Y-285045D01*
X23200Y-283653D01*
X20627Y-281080D01*
X19235Y-277719D01*
X19235Y-274081D01*
X20627Y-270720D01*
X23200Y-268147D01*
X26561Y-266755D01*
X45439Y-266755D01*
X48800Y-268147D01*
X51373Y-270720D01*
X52765Y-274081D01*
X52765Y-277719D01*
X51373Y-281080D01*
X48800Y-283653D01*
X45439Y-285045D01*
X26561Y-285045D01*
G37*
%LPD*%
%LPC*%
G36*
X26561Y-310445D02*
X26561Y-310445D01*
X23200Y-309053D01*
X20627Y-306480D01*
X19235Y-303119D01*
X19235Y-299481D01*
X20627Y-296120D01*
X23200Y-293547D01*
X26561Y-292155D01*
X45439Y-292155D01*
X48800Y-293547D01*
X51373Y-296120D01*
X52765Y-299481D01*
X52765Y-303119D01*
X51373Y-306480D01*
X48800Y-309053D01*
X45439Y-310445D01*
X26561Y-310445D01*
G37*
%LPD*%
%LPC*%
G36*
X26561Y-234245D02*
X26561Y-234245D01*
X23200Y-232853D01*
X20627Y-230280D01*
X19235Y-226919D01*
X19235Y-223281D01*
X20627Y-219920D01*
X23200Y-217347D01*
X26561Y-215955D01*
X45439Y-215955D01*
X48800Y-217347D01*
X51373Y-219920D01*
X52765Y-223281D01*
X52765Y-226919D01*
X51373Y-230280D01*
X48800Y-232853D01*
X45439Y-234245D01*
X26561Y-234245D01*
G37*
%LPD*%
%LPC*%
G36*
X156302Y-301807D02*
X156302Y-301807D01*
X153193Y-298698D01*
X153193Y-294302D01*
X155228Y-292267D01*
X155281Y-292193D01*
X155341Y-292123D01*
X155353Y-292093D01*
X155372Y-292067D01*
X155399Y-291980D01*
X155433Y-291895D01*
X155437Y-291854D01*
X155444Y-291832D01*
X155443Y-291800D01*
X155451Y-291729D01*
X155451Y-270078D01*
X155437Y-269988D01*
X155429Y-269897D01*
X155417Y-269867D01*
X155412Y-269835D01*
X155369Y-269755D01*
X155333Y-269671D01*
X155307Y-269639D01*
X155296Y-269618D01*
X155273Y-269596D01*
X155228Y-269540D01*
X146218Y-260530D01*
X146144Y-260477D01*
X146075Y-260417D01*
X146045Y-260405D01*
X146018Y-260386D01*
X145931Y-260359D01*
X145847Y-260325D01*
X145806Y-260321D01*
X145783Y-260314D01*
X145751Y-260315D01*
X145680Y-260307D01*
X142802Y-260307D01*
X139693Y-257198D01*
X139693Y-252802D01*
X142802Y-249693D01*
X147198Y-249693D01*
X150307Y-252802D01*
X150307Y-255680D01*
X150308Y-255688D01*
X150308Y-255690D01*
X150310Y-255702D01*
X150321Y-255770D01*
X150329Y-255861D01*
X150341Y-255891D01*
X150346Y-255923D01*
X150389Y-256003D01*
X150425Y-256087D01*
X150451Y-256119D01*
X150462Y-256140D01*
X150485Y-256162D01*
X150530Y-256218D01*
X161549Y-267237D01*
X161549Y-291729D01*
X161563Y-291819D01*
X161571Y-291910D01*
X161583Y-291939D01*
X161588Y-291971D01*
X161631Y-292052D01*
X161667Y-292136D01*
X161693Y-292168D01*
X161704Y-292189D01*
X161727Y-292211D01*
X161772Y-292267D01*
X163807Y-294302D01*
X163807Y-298698D01*
X160698Y-301807D01*
X156302Y-301807D01*
G37*
%LPD*%
%LPC*%
G36*
X272227Y-504823D02*
X272227Y-504823D01*
X268213Y-503160D01*
X265140Y-500087D01*
X263477Y-496073D01*
X263477Y-491727D01*
X265140Y-487713D01*
X268213Y-484640D01*
X272227Y-482977D01*
X276573Y-482977D01*
X280587Y-484640D01*
X283660Y-487713D01*
X285323Y-491727D01*
X285323Y-496073D01*
X283660Y-500087D01*
X280587Y-503160D01*
X276573Y-504823D01*
X272227Y-504823D01*
G37*
%LPD*%
%LPC*%
G36*
X341427Y-533223D02*
X341427Y-533223D01*
X337413Y-531560D01*
X334340Y-528487D01*
X332677Y-524473D01*
X332677Y-520127D01*
X334340Y-516113D01*
X337413Y-513040D01*
X341427Y-511377D01*
X345773Y-511377D01*
X349787Y-513040D01*
X352860Y-516113D01*
X354523Y-520127D01*
X354523Y-524473D01*
X352860Y-528487D01*
X349787Y-531560D01*
X345773Y-533223D01*
X341427Y-533223D01*
G37*
%LPD*%
%LPC*%
G36*
X313727Y-533223D02*
X313727Y-533223D01*
X309713Y-531560D01*
X306640Y-528487D01*
X304977Y-524473D01*
X304977Y-520127D01*
X306640Y-516113D01*
X309713Y-513040D01*
X313727Y-511377D01*
X318073Y-511377D01*
X322087Y-513040D01*
X325160Y-516113D01*
X326823Y-520127D01*
X326823Y-524473D01*
X325160Y-528487D01*
X322087Y-531560D01*
X318073Y-533223D01*
X313727Y-533223D01*
G37*
%LPD*%
%LPC*%
G36*
X116727Y-439973D02*
X116727Y-439973D01*
X112713Y-438310D01*
X109640Y-435237D01*
X107977Y-431223D01*
X107977Y-426877D01*
X109640Y-422863D01*
X112713Y-419790D01*
X116727Y-418127D01*
X121073Y-418127D01*
X125087Y-419790D01*
X128160Y-422863D01*
X129823Y-426877D01*
X129823Y-431223D01*
X128160Y-435237D01*
X125087Y-438310D01*
X121073Y-439973D01*
X116727Y-439973D01*
G37*
%LPD*%
%LPC*%
G36*
X244527Y-504823D02*
X244527Y-504823D01*
X240513Y-503160D01*
X237440Y-500087D01*
X235777Y-496073D01*
X235777Y-491727D01*
X237440Y-487713D01*
X240513Y-484640D01*
X244527Y-482977D01*
X248873Y-482977D01*
X252887Y-484640D01*
X255960Y-487713D01*
X257623Y-491727D01*
X257623Y-496073D01*
X255960Y-500087D01*
X252887Y-503160D01*
X248873Y-504823D01*
X244527Y-504823D01*
G37*
%LPD*%
%LPC*%
G36*
X286127Y-533223D02*
X286127Y-533223D01*
X282113Y-531560D01*
X279040Y-528487D01*
X277377Y-524473D01*
X277377Y-520127D01*
X279040Y-516113D01*
X282113Y-513040D01*
X286127Y-511377D01*
X290473Y-511377D01*
X294487Y-513040D01*
X297560Y-516113D01*
X299223Y-520127D01*
X299223Y-524473D01*
X297560Y-528487D01*
X294487Y-531560D01*
X290473Y-533223D01*
X286127Y-533223D01*
G37*
%LPD*%
%LPC*%
G36*
X299927Y-504823D02*
X299927Y-504823D01*
X295913Y-503160D01*
X292840Y-500087D01*
X291177Y-496073D01*
X291177Y-491727D01*
X292840Y-487713D01*
X295913Y-484640D01*
X299927Y-482977D01*
X304273Y-482977D01*
X308287Y-484640D01*
X311360Y-487713D01*
X313023Y-491727D01*
X313023Y-496073D01*
X311360Y-500087D01*
X308287Y-503160D01*
X304273Y-504823D01*
X299927Y-504823D01*
G37*
%LPD*%
%LPC*%
G36*
X258427Y-533223D02*
X258427Y-533223D01*
X254413Y-531560D01*
X251340Y-528487D01*
X249677Y-524473D01*
X249677Y-520127D01*
X251340Y-516113D01*
X254413Y-513040D01*
X258427Y-511377D01*
X262773Y-511377D01*
X266787Y-513040D01*
X269860Y-516113D01*
X271523Y-520127D01*
X271523Y-524473D01*
X269860Y-528487D01*
X266787Y-531560D01*
X262773Y-533223D01*
X258427Y-533223D01*
G37*
%LPD*%
%LPC*%
G36*
X327627Y-504823D02*
X327627Y-504823D01*
X323613Y-503160D01*
X320540Y-500087D01*
X318877Y-496073D01*
X318877Y-491727D01*
X320540Y-487713D01*
X323613Y-484640D01*
X327627Y-482977D01*
X331973Y-482977D01*
X335987Y-484640D01*
X339060Y-487713D01*
X340723Y-491727D01*
X340723Y-496073D01*
X339060Y-500087D01*
X335987Y-503160D01*
X331973Y-504823D01*
X327627Y-504823D01*
G37*
%LPD*%
%LPC*%
G36*
X533512Y-220145D02*
X533512Y-220145D01*
X528155Y-214788D01*
X528155Y-207212D01*
X533512Y-201855D01*
X541088Y-201855D01*
X546445Y-207212D01*
X546445Y-214788D01*
X541088Y-220145D01*
X533512Y-220145D01*
G37*
%LPD*%
%LPC*%
G36*
X558912Y-245545D02*
X558912Y-245545D01*
X553555Y-240188D01*
X553555Y-232612D01*
X558912Y-227255D01*
X566488Y-227255D01*
X571845Y-232612D01*
X571845Y-240188D01*
X566488Y-245545D01*
X558912Y-245545D01*
G37*
%LPD*%
%LPC*%
G36*
X533512Y-245545D02*
X533512Y-245545D01*
X528155Y-240188D01*
X528155Y-232612D01*
X533512Y-227255D01*
X541088Y-227255D01*
X546445Y-232612D01*
X546445Y-240188D01*
X541088Y-245545D01*
X533512Y-245545D01*
G37*
%LPD*%
%LPC*%
G36*
X558912Y-220145D02*
X558912Y-220145D01*
X553555Y-214788D01*
X553555Y-207212D01*
X558912Y-201855D01*
X566488Y-201855D01*
X571845Y-207212D01*
X571845Y-214788D01*
X566488Y-220145D01*
X558912Y-220145D01*
G37*
%LPD*%
%LPC*%
G36*
X558912Y-270945D02*
X558912Y-270945D01*
X553555Y-265588D01*
X553555Y-258012D01*
X558912Y-252655D01*
X566488Y-252655D01*
X571845Y-258012D01*
X571845Y-265588D01*
X566488Y-270945D01*
X558912Y-270945D01*
G37*
%LPD*%
%LPC*%
G36*
X37523Y-108261D02*
X37523Y-108261D01*
X37523Y-99623D01*
X53666Y-99623D01*
X53531Y-100479D01*
X53036Y-102000D01*
X52310Y-103425D01*
X51370Y-104719D01*
X50239Y-105850D01*
X48945Y-106790D01*
X47520Y-107516D01*
X45999Y-108011D01*
X44420Y-108261D01*
X37523Y-108261D01*
G37*
%LPD*%
%LPC*%
G36*
X26001Y-108011D02*
X26001Y-108011D01*
X24480Y-107516D01*
X23055Y-106790D01*
X21761Y-105850D01*
X20630Y-104719D01*
X19690Y-103425D01*
X18964Y-102000D01*
X18469Y-100479D01*
X18334Y-99623D01*
X34477Y-99623D01*
X34477Y-108261D01*
X27580Y-108261D01*
X26001Y-108011D01*
G37*
%LPD*%
%LPC*%
G36*
X37523Y-96577D02*
X37523Y-96577D01*
X37523Y-87939D01*
X44420Y-87939D01*
X45999Y-88189D01*
X47520Y-88684D01*
X48945Y-89410D01*
X50239Y-90350D01*
X51370Y-91481D01*
X52310Y-92775D01*
X53036Y-94200D01*
X53531Y-95721D01*
X53666Y-96577D01*
X37523Y-96577D01*
G37*
%LPD*%
%LPC*%
G36*
X18334Y-96577D02*
X18334Y-96577D01*
X18469Y-95721D01*
X18964Y-94200D01*
X19690Y-92775D01*
X20630Y-91481D01*
X21761Y-90350D01*
X23055Y-89410D01*
X24480Y-88684D01*
X26001Y-88189D01*
X27580Y-87939D01*
X34477Y-87939D01*
X34477Y-96577D01*
X18334Y-96577D01*
G37*
%LPD*%
%LPC*%
G36*
X254023Y-117539D02*
X254023Y-117539D01*
X254023Y-107123D01*
X264439Y-107123D01*
X264439Y-115332D01*
X264266Y-115979D01*
X263931Y-116558D01*
X263458Y-117031D01*
X262879Y-117366D01*
X262232Y-117539D01*
X254023Y-117539D01*
G37*
%LPD*%
%LPC*%
G36*
X359023Y-505839D02*
X359023Y-505839D01*
X359023Y-495423D01*
X369439Y-495423D01*
X369439Y-503632D01*
X369266Y-504279D01*
X368931Y-504858D01*
X368458Y-505331D01*
X367879Y-505666D01*
X367232Y-505839D01*
X359023Y-505839D01*
G37*
%LPD*%
%LPC*%
G36*
X359023Y-492377D02*
X359023Y-492377D01*
X359023Y-481961D01*
X367232Y-481961D01*
X367879Y-482134D01*
X368458Y-482469D01*
X368931Y-482942D01*
X369266Y-483521D01*
X369439Y-484168D01*
X369439Y-492377D01*
X359023Y-492377D01*
G37*
%LPD*%
%LPC*%
G36*
X347121Y-505666D02*
X347121Y-505666D01*
X346542Y-505331D01*
X346069Y-504858D01*
X345734Y-504279D01*
X345561Y-503632D01*
X345561Y-495423D01*
X355977Y-495423D01*
X355977Y-505839D01*
X347768Y-505839D01*
X347121Y-505666D01*
G37*
%LPD*%
%LPC*%
G36*
X242121Y-117366D02*
X242121Y-117366D01*
X241542Y-117031D01*
X241069Y-116558D01*
X240734Y-115979D01*
X240561Y-115332D01*
X240561Y-107123D01*
X250977Y-107123D01*
X250977Y-117539D01*
X242768Y-117539D01*
X242121Y-117366D01*
G37*
%LPD*%
%LPC*%
G36*
X345561Y-492377D02*
X345561Y-492377D01*
X345561Y-484168D01*
X345734Y-483521D01*
X346069Y-482942D01*
X346542Y-482469D01*
X347121Y-482134D01*
X347768Y-481961D01*
X355977Y-481961D01*
X355977Y-492377D01*
X345561Y-492377D01*
G37*
%LPD*%
%LPC*%
G36*
X120423Y-455973D02*
X120423Y-455973D01*
X130746Y-455973D01*
X130545Y-457246D01*
X129964Y-459033D01*
X129111Y-460707D01*
X128006Y-462228D01*
X126678Y-463556D01*
X125157Y-464661D01*
X123483Y-465514D01*
X121696Y-466095D01*
X120423Y-466296D01*
X120423Y-455973D01*
G37*
%LPD*%
%LPC*%
G36*
X350923Y-78723D02*
X350923Y-78723D01*
X361246Y-78723D01*
X361045Y-79996D01*
X360464Y-81783D01*
X359611Y-83457D01*
X358506Y-84978D01*
X357178Y-86306D01*
X355657Y-87411D01*
X353983Y-88264D01*
X352196Y-88845D01*
X350923Y-89046D01*
X350923Y-78723D01*
G37*
%LPD*%
%LPC*%
G36*
X350923Y-75677D02*
X350923Y-75677D01*
X350923Y-65354D01*
X352196Y-65555D01*
X353983Y-66136D01*
X355657Y-66989D01*
X357178Y-68094D01*
X358506Y-69422D01*
X359611Y-70943D01*
X360464Y-72617D01*
X361045Y-74404D01*
X361246Y-75677D01*
X350923Y-75677D01*
G37*
%LPD*%
%LPC*%
G36*
X120423Y-452927D02*
X120423Y-452927D01*
X120423Y-442604D01*
X121696Y-442805D01*
X123483Y-443386D01*
X125157Y-444239D01*
X126678Y-445344D01*
X128006Y-446672D01*
X129111Y-448193D01*
X129964Y-449867D01*
X130545Y-451654D01*
X130746Y-452927D01*
X120423Y-452927D01*
G37*
%LPD*%
%LPC*%
G36*
X116104Y-466095D02*
X116104Y-466095D01*
X114317Y-465514D01*
X112643Y-464661D01*
X111122Y-463556D01*
X109794Y-462228D01*
X108689Y-460707D01*
X107836Y-459033D01*
X107255Y-457246D01*
X107054Y-455973D01*
X117377Y-455973D01*
X117377Y-466296D01*
X116104Y-466095D01*
G37*
%LPD*%
%LPC*%
G36*
X337554Y-75677D02*
X337554Y-75677D01*
X337755Y-74404D01*
X338336Y-72617D01*
X339189Y-70943D01*
X340294Y-69422D01*
X341622Y-68094D01*
X343143Y-66989D01*
X344817Y-66136D01*
X346604Y-65555D01*
X347877Y-65354D01*
X347877Y-75677D01*
X337554Y-75677D01*
G37*
%LPD*%
%LPC*%
G36*
X107054Y-452927D02*
X107054Y-452927D01*
X107255Y-451654D01*
X107836Y-449867D01*
X108689Y-448193D01*
X109794Y-446672D01*
X111122Y-445344D01*
X112643Y-444239D01*
X114317Y-443386D01*
X116104Y-442805D01*
X117377Y-442604D01*
X117377Y-452927D01*
X107054Y-452927D01*
G37*
%LPD*%
%LPC*%
G36*
X538823Y-195761D02*
X538823Y-195761D01*
X538823Y-187123D01*
X547461Y-187123D01*
X547461Y-189809D01*
X541509Y-195761D01*
X538823Y-195761D01*
G37*
%LPD*%
%LPC*%
G36*
X564223Y-195761D02*
X564223Y-195761D01*
X564223Y-187123D01*
X572861Y-187123D01*
X572861Y-189809D01*
X566909Y-195761D01*
X564223Y-195761D01*
G37*
%LPD*%
%LPC*%
G36*
X564223Y-184077D02*
X564223Y-184077D01*
X564223Y-175439D01*
X566909Y-175439D01*
X572861Y-181391D01*
X572861Y-184077D01*
X564223Y-184077D01*
G37*
%LPD*%
%LPC*%
G36*
X538823Y-184077D02*
X538823Y-184077D01*
X538823Y-175439D01*
X541509Y-175439D01*
X547461Y-181391D01*
X547461Y-184077D01*
X538823Y-184077D01*
G37*
%LPD*%
%LPC*%
G36*
X533091Y-195761D02*
X533091Y-195761D01*
X527139Y-189809D01*
X527139Y-187123D01*
X535777Y-187123D01*
X535777Y-195761D01*
X533091Y-195761D01*
G37*
%LPD*%
%LPC*%
G36*
X558491Y-195761D02*
X558491Y-195761D01*
X552539Y-189809D01*
X552539Y-187123D01*
X561177Y-187123D01*
X561177Y-195761D01*
X558491Y-195761D01*
G37*
%LPD*%
%LPC*%
G36*
X527139Y-184077D02*
X527139Y-184077D01*
X527139Y-181391D01*
X533091Y-175439D01*
X535777Y-175439D01*
X535777Y-184077D01*
X527139Y-184077D01*
G37*
%LPD*%
%LPC*%
G36*
X552539Y-184077D02*
X552539Y-184077D01*
X552539Y-181391D01*
X558491Y-175439D01*
X561177Y-175439D01*
X561177Y-184077D01*
X552539Y-184077D01*
G37*
%LPD*%
%LPC*%
G36*
X537299Y-185601D02*
X537299Y-185601D01*
X537299Y-185599D01*
X537301Y-185599D01*
X537301Y-185601D01*
X537299Y-185601D01*
G37*
%LPD*%
%LPC*%
G36*
X357499Y-493901D02*
X357499Y-493901D01*
X357499Y-493899D01*
X357501Y-493899D01*
X357501Y-493901D01*
X357499Y-493901D01*
G37*
%LPD*%
%LPC*%
G36*
X35999Y-98101D02*
X35999Y-98101D01*
X35999Y-98099D01*
X36001Y-98099D01*
X36001Y-98101D01*
X35999Y-98101D01*
G37*
%LPD*%
%LPC*%
G36*
X118899Y-454451D02*
X118899Y-454451D01*
X118899Y-454449D01*
X118901Y-454449D01*
X118901Y-454451D01*
X118899Y-454451D01*
G37*
%LPD*%
%LPC*%
G36*
X49999Y-550001D02*
X49999Y-550001D01*
X49999Y-549999D01*
X50001Y-549999D01*
X50001Y-550001D01*
X49999Y-550001D01*
G37*
%LPD*%
%LPC*%
G36*
X549999Y-550001D02*
X549999Y-550001D01*
X549999Y-549999D01*
X550001Y-549999D01*
X550001Y-550001D01*
X549999Y-550001D01*
G37*
%LPD*%
%LPC*%
G36*
X549999Y-50001D02*
X549999Y-50001D01*
X549999Y-49999D01*
X550001Y-49999D01*
X550001Y-50001D01*
X549999Y-50001D01*
G37*
%LPD*%
%LPC*%
G36*
X562699Y-185601D02*
X562699Y-185601D01*
X562699Y-185599D01*
X562701Y-185599D01*
X562701Y-185601D01*
X562699Y-185601D01*
G37*
%LPD*%
%LPC*%
G36*
X349399Y-77201D02*
X349399Y-77201D01*
X349399Y-77199D01*
X349401Y-77199D01*
X349401Y-77201D01*
X349399Y-77201D01*
G37*
%LPD*%
%LPC*%
G36*
X49999Y-50001D02*
X49999Y-50001D01*
X49999Y-49999D01*
X50001Y-49999D01*
X50001Y-50001D01*
X49999Y-50001D01*
G37*
%LPD*%
D10*
X50000Y-550000D03*
X50000Y-50000D03*
X550000Y-550000D03*
X550000Y-50000D03*
D11*
X357500Y-493900D03*
D12*
X329800Y-493900D03*
X302100Y-493900D03*
X274400Y-493900D03*
X246700Y-493900D03*
X343600Y-522300D03*
X315900Y-522300D03*
X288300Y-522300D03*
X260600Y-522300D03*
D13*
X427100Y-508100D03*
X177100Y-508100D03*
D11*
X252500Y-105600D03*
D12*
X280200Y-105600D03*
X307900Y-105600D03*
X335600Y-105600D03*
X363300Y-105600D03*
X266400Y-77200D03*
X294100Y-77200D03*
X321700Y-77200D03*
X349400Y-77200D03*
D13*
X182900Y-91400D03*
X432900Y-91400D03*
D14*
X537300Y-160200D03*
X562700Y-160200D03*
X537300Y-185600D03*
X562700Y-185600D03*
X537300Y-211000D03*
X562700Y-211000D03*
X537300Y-236400D03*
X562700Y-236400D03*
X537300Y-261800D03*
X562700Y-261800D03*
D12*
X118900Y-454450D03*
X93500Y-441750D03*
X118900Y-429050D03*
X118900Y-403650D03*
X118900Y-378250D03*
X93500Y-416350D03*
X93500Y-390950D03*
D11*
X93500Y-365550D03*
D15*
X43620Y-98100D02*
X28380Y-98100D01*
X28380Y-123500D02*
X43620Y-123500D01*
X43620Y-148900D02*
X28380Y-148900D01*
X28380Y-174300D02*
X43620Y-174300D01*
X43620Y-199700D02*
X28380Y-199700D01*
X28380Y-225100D02*
X43620Y-225100D01*
X43620Y-250500D02*
X28380Y-250500D01*
X28380Y-275900D02*
X43620Y-275900D01*
X43620Y-301300D02*
X28380Y-301300D01*
D16*
X360000Y-390000D03*
X310000Y-165300D03*
X300000Y-340000D03*
X230000Y-370000D03*
X300000Y-470000D03*
X250000Y-330000D03*
X140000Y-80000D03*
X130000Y-120000D03*
X125000Y-200000D03*
X200000Y-240000D03*
X100000Y-320000D03*
X230000Y-130000D03*
D17*
X354638Y-105600D02*
X363300Y-105600D01*
X354638Y-105600D02*
X341176Y-92138D01*
X231419Y-92138D01*
X163557Y-160000D02*
X160000Y-160000D01*
D16*
X160000Y-160000D03*
D17*
X163557Y-160000D02*
X231419Y-92138D01*
D18*
X93500Y-433951D02*
X93500Y-441750D01*
X93500Y-433951D02*
X61054Y-401505D01*
X61054Y-228946D02*
X100000Y-190000D01*
X61054Y-228946D02*
X61054Y-401505D01*
D16*
X100000Y-190000D03*
X280000Y-130000D03*
D17*
X304400Y-105600D01*
X307900Y-105600D01*
D16*
X300000Y-430000D03*
D17*
X246750Y-427846D02*
X212154Y-393250D01*
X297846Y-427846D02*
X300000Y-430000D01*
X280200Y-118704D02*
X280200Y-105600D01*
X297846Y-427846D02*
X246750Y-427846D01*
X212154Y-186750D02*
X280200Y-118704D01*
X212154Y-186750D02*
X212154Y-393250D01*
D18*
X131346Y-383405D02*
X124055Y-390696D01*
X131346Y-338654D02*
X175000Y-295000D01*
X131346Y-338654D02*
X131346Y-383405D01*
X93500Y-411449D02*
X93500Y-416350D01*
X93500Y-411449D02*
X114253Y-390696D01*
X124055Y-390696D01*
X175000Y-295000D02*
X175000Y-180000D01*
X155000Y-175000D02*
X150000Y-180000D01*
D16*
X150000Y-180000D03*
D18*
X155000Y-175000D02*
X170000Y-175000D01*
X175000Y-180000D01*
D16*
X365000Y-265000D03*
D19*
X365000Y-355000D01*
X360000Y-360000D01*
D16*
X360000Y-360000D03*
X250000Y-420000D03*
D17*
X367846Y-382154D02*
X380000Y-370000D01*
X367846Y-382154D02*
X356750Y-382154D01*
X318904Y-420000D02*
X250000Y-420000D01*
X318904Y-420000D02*
X356750Y-382154D01*
D16*
X380000Y-370000D03*
D19*
X380000Y-275000D01*
D16*
X380000Y-275000D03*
D20*
X537300Y-160200D02*
X562700Y-160200D01*
D16*
X150000Y-215000D03*
D18*
X115000Y-250000D01*
X115000Y-255000D01*
D16*
X115000Y-255000D03*
D18*
X106454Y-377996D02*
X93500Y-390950D01*
X106454Y-377996D02*
X106454Y-373095D01*
X115000Y-364549D02*
X115000Y-255000D01*
X115000Y-364549D02*
X106454Y-373095D01*
D16*
X360000Y-130000D03*
D17*
X405500Y-130000D01*
X537300Y-261800D01*
D16*
X158500Y-296500D03*
D18*
X158500Y-268500D01*
X145000Y-255000D01*
D16*
X145000Y-255000D03*
X240000Y-170000D03*
D17*
X272154Y-137846D01*
X326938Y-105600D02*
X335600Y-105600D01*
X294692Y-137846D02*
X272154Y-137846D01*
X294692Y-137846D02*
X326938Y-105600D01*
D16*
X90000Y-215000D03*
D19*
X105000Y-200000D01*
D16*
X105000Y-200000D03*
D19*
X99500Y-250500D02*
X165000Y-185000D01*
D16*
X165000Y-185000D03*
X99500Y-250500D03*
X116071Y-148900D03*
X175000Y-164872D03*
D18*
X166587Y-164872D01*
X134001Y-166830D02*
X116071Y-148900D01*
X134001Y-166830D02*
X164629Y-166830D01*
X166587Y-164872D01*
M02*
