G04 EAGLE Gerber RS-274X export*
G75*
%MOMM*%
%FSLAX34Y34*%
%LPD*%
%INTop Copper*%
%IPPOS*%
%AMOC8*
5,1,8,0,0,1.08239X$1,22.5*%
G01*
%ADD10R,1.000000X1.100000*%
%ADD11R,1.100000X1.000000*%
%ADD12R,1.000000X1.400000*%
%ADD13C,5.842000*%
%ADD14R,1.200000X0.600000*%
%ADD15R,1.879600X1.879600*%
%ADD16C,1.879600*%
%ADD17C,5.080000*%
%ADD18P,1.649562X8X292.500000*%
%ADD19R,0.600000X1.200000*%
%ADD20R,2.032000X0.660400*%
%ADD21R,1.300000X1.500000*%
%ADD22C,1.524000*%
%ADD23C,0.203200*%
%ADD24C,0.508000*%
%ADD25C,0.756400*%
%ADD26C,0.406400*%
%ADD27C,0.254000*%
%ADD28C,0.812800*%
%ADD29C,0.127000*%
%ADD30C,0.609600*%

G36*
X550016Y-589837D02*
X550016Y-589837D01*
X550043Y-589838D01*
X554418Y-589592D01*
X554450Y-589585D01*
X554545Y-589574D01*
X563076Y-587627D01*
X563077Y-587627D01*
X563079Y-587627D01*
X563237Y-587571D01*
X571121Y-583774D01*
X571122Y-583773D01*
X571124Y-583773D01*
X571265Y-583683D01*
X578107Y-578228D01*
X578108Y-578227D01*
X578109Y-578226D01*
X578227Y-578107D01*
X583683Y-571265D01*
X583684Y-571264D01*
X583685Y-571263D01*
X583699Y-571242D01*
X583704Y-571236D01*
X583709Y-571224D01*
X583774Y-571121D01*
X587571Y-563237D01*
X587571Y-563236D01*
X587572Y-563234D01*
X587627Y-563076D01*
X589574Y-554545D01*
X589576Y-554513D01*
X589592Y-554418D01*
X589838Y-550043D01*
X589836Y-550027D01*
X589839Y-550000D01*
X589839Y-50000D01*
X589837Y-49984D01*
X589838Y-49957D01*
X589592Y-45582D01*
X589585Y-45550D01*
X589574Y-45455D01*
X587627Y-36924D01*
X587627Y-36923D01*
X587627Y-36921D01*
X587571Y-36763D01*
X583774Y-28879D01*
X583773Y-28878D01*
X583773Y-28876D01*
X583683Y-28735D01*
X578227Y-21893D01*
X578227Y-21892D01*
X578226Y-21891D01*
X578107Y-21773D01*
X571265Y-16317D01*
X571264Y-16316D01*
X571263Y-16315D01*
X571121Y-16226D01*
X563237Y-12429D01*
X563236Y-12429D01*
X563234Y-12428D01*
X563076Y-12373D01*
X561745Y-12069D01*
X558410Y-11308D01*
X555075Y-10547D01*
X555075Y-10546D01*
X554545Y-10426D01*
X554513Y-10424D01*
X554418Y-10408D01*
X550043Y-10162D01*
X550026Y-10164D01*
X550000Y-10161D01*
X50000Y-10161D01*
X49984Y-10163D01*
X49957Y-10162D01*
X45582Y-10408D01*
X45550Y-10415D01*
X45455Y-10426D01*
X36924Y-12373D01*
X36923Y-12373D01*
X36921Y-12373D01*
X36763Y-12429D01*
X28879Y-16226D01*
X28878Y-16227D01*
X28876Y-16227D01*
X28735Y-16317D01*
X21893Y-21773D01*
X21892Y-21773D01*
X21891Y-21774D01*
X21773Y-21893D01*
X16317Y-28735D01*
X16316Y-28736D01*
X16315Y-28737D01*
X16226Y-28879D01*
X12429Y-36763D01*
X12429Y-36764D01*
X12428Y-36766D01*
X12373Y-36924D01*
X10426Y-45455D01*
X10424Y-45487D01*
X10408Y-45582D01*
X10162Y-49957D01*
X10164Y-49974D01*
X10161Y-50000D01*
X10161Y-333855D01*
X10172Y-333925D01*
X10174Y-333997D01*
X10192Y-334046D01*
X10200Y-334097D01*
X10234Y-334161D01*
X10259Y-334228D01*
X10291Y-334269D01*
X10316Y-334315D01*
X10368Y-334364D01*
X10412Y-334420D01*
X10456Y-334448D01*
X10494Y-334484D01*
X10559Y-334514D01*
X10619Y-334553D01*
X10670Y-334566D01*
X10717Y-334588D01*
X10788Y-334596D01*
X10858Y-334613D01*
X10910Y-334609D01*
X10961Y-334615D01*
X11032Y-334600D01*
X11103Y-334594D01*
X11151Y-334574D01*
X11202Y-334563D01*
X11263Y-334526D01*
X11329Y-334498D01*
X11385Y-334453D01*
X11413Y-334436D01*
X11428Y-334419D01*
X11460Y-334393D01*
X13937Y-331916D01*
X19902Y-328472D01*
X26556Y-326689D01*
X33444Y-326689D01*
X40098Y-328472D01*
X46063Y-331916D01*
X50934Y-336787D01*
X54378Y-342752D01*
X56161Y-349406D01*
X56161Y-356294D01*
X54378Y-362948D01*
X50934Y-368913D01*
X46063Y-373784D01*
X40098Y-377228D01*
X33444Y-379011D01*
X26556Y-379011D01*
X19902Y-377228D01*
X13937Y-373784D01*
X11460Y-371307D01*
X11402Y-371265D01*
X11350Y-371216D01*
X11303Y-371194D01*
X11261Y-371164D01*
X11192Y-371142D01*
X11127Y-371112D01*
X11075Y-371107D01*
X11025Y-371091D01*
X10954Y-371093D01*
X10883Y-371085D01*
X10832Y-371096D01*
X10780Y-371098D01*
X10712Y-371122D01*
X10642Y-371137D01*
X10597Y-371164D01*
X10549Y-371182D01*
X10493Y-371227D01*
X10431Y-371264D01*
X10397Y-371303D01*
X10357Y-371336D01*
X10318Y-371396D01*
X10271Y-371451D01*
X10252Y-371499D01*
X10224Y-371543D01*
X10206Y-371612D01*
X10179Y-371679D01*
X10171Y-371750D01*
X10163Y-371781D01*
X10165Y-371804D01*
X10161Y-371845D01*
X10161Y-448155D01*
X10172Y-448225D01*
X10174Y-448297D01*
X10192Y-448346D01*
X10200Y-448397D01*
X10234Y-448461D01*
X10259Y-448528D01*
X10291Y-448569D01*
X10316Y-448615D01*
X10368Y-448664D01*
X10412Y-448720D01*
X10456Y-448748D01*
X10494Y-448784D01*
X10559Y-448814D01*
X10619Y-448853D01*
X10670Y-448866D01*
X10717Y-448888D01*
X10788Y-448896D01*
X10858Y-448913D01*
X10910Y-448909D01*
X10961Y-448915D01*
X11032Y-448900D01*
X11103Y-448894D01*
X11151Y-448874D01*
X11202Y-448863D01*
X11263Y-448826D01*
X11329Y-448798D01*
X11385Y-448753D01*
X11413Y-448736D01*
X11428Y-448719D01*
X11460Y-448693D01*
X13937Y-446216D01*
X19902Y-442772D01*
X26556Y-440989D01*
X33444Y-440989D01*
X40098Y-442772D01*
X46063Y-446216D01*
X50934Y-451087D01*
X54378Y-457052D01*
X56161Y-463706D01*
X56161Y-470594D01*
X54378Y-477248D01*
X50934Y-483213D01*
X46063Y-488084D01*
X40098Y-491528D01*
X33444Y-493311D01*
X26556Y-493311D01*
X19902Y-491528D01*
X13937Y-488084D01*
X11460Y-485607D01*
X11402Y-485565D01*
X11350Y-485516D01*
X11303Y-485494D01*
X11261Y-485464D01*
X11192Y-485442D01*
X11127Y-485412D01*
X11075Y-485407D01*
X11025Y-485391D01*
X10954Y-485393D01*
X10883Y-485385D01*
X10832Y-485396D01*
X10780Y-485398D01*
X10712Y-485422D01*
X10642Y-485437D01*
X10597Y-485464D01*
X10549Y-485482D01*
X10493Y-485527D01*
X10431Y-485564D01*
X10397Y-485603D01*
X10357Y-485636D01*
X10318Y-485696D01*
X10271Y-485751D01*
X10252Y-485799D01*
X10224Y-485843D01*
X10206Y-485912D01*
X10179Y-485979D01*
X10171Y-486050D01*
X10163Y-486081D01*
X10165Y-486104D01*
X10161Y-486145D01*
X10161Y-550000D01*
X10163Y-550016D01*
X10162Y-550043D01*
X10408Y-554418D01*
X10415Y-554450D01*
X10426Y-554545D01*
X12373Y-563076D01*
X12373Y-563077D01*
X12373Y-563079D01*
X12429Y-563237D01*
X16226Y-571121D01*
X16227Y-571122D01*
X16227Y-571124D01*
X16317Y-571265D01*
X21773Y-578107D01*
X21773Y-578108D01*
X21774Y-578109D01*
X21893Y-578227D01*
X28735Y-583683D01*
X28736Y-583684D01*
X28737Y-583685D01*
X28879Y-583774D01*
X36763Y-587571D01*
X36764Y-587571D01*
X36766Y-587572D01*
X36924Y-587627D01*
X39864Y-588298D01*
X43199Y-589060D01*
X45455Y-589574D01*
X45487Y-589576D01*
X45582Y-589592D01*
X49957Y-589838D01*
X49974Y-589836D01*
X50000Y-589839D01*
X550000Y-589839D01*
X550016Y-589837D01*
G37*
%LPC*%
G36*
X533512Y-169345D02*
X533512Y-169345D01*
X528155Y-163988D01*
X528081Y-163935D01*
X528012Y-163875D01*
X527982Y-163863D01*
X527955Y-163844D01*
X527868Y-163817D01*
X527784Y-163783D01*
X527743Y-163779D01*
X527720Y-163772D01*
X527688Y-163773D01*
X527617Y-163765D01*
X480986Y-163765D01*
X480966Y-163768D01*
X480947Y-163766D01*
X480845Y-163788D01*
X480743Y-163804D01*
X480726Y-163814D01*
X480706Y-163818D01*
X480617Y-163871D01*
X480526Y-163920D01*
X480512Y-163934D01*
X480495Y-163944D01*
X480428Y-164023D01*
X480356Y-164098D01*
X480348Y-164116D01*
X480335Y-164131D01*
X480296Y-164227D01*
X480253Y-164321D01*
X480251Y-164341D01*
X480243Y-164359D01*
X480225Y-164526D01*
X480225Y-167332D01*
X479332Y-168225D01*
X468068Y-168225D01*
X467175Y-167332D01*
X467175Y-152068D01*
X467888Y-151355D01*
X467941Y-151281D01*
X468001Y-151212D01*
X468013Y-151182D01*
X468032Y-151156D01*
X468059Y-151069D01*
X468093Y-150984D01*
X468097Y-150943D01*
X468104Y-150921D01*
X468103Y-150888D01*
X468111Y-150817D01*
X468111Y-76330D01*
X468097Y-76240D01*
X468089Y-76149D01*
X468077Y-76119D01*
X468072Y-76088D01*
X468029Y-76007D01*
X467993Y-75923D01*
X467967Y-75891D01*
X467956Y-75870D01*
X467933Y-75848D01*
X467888Y-75792D01*
X437908Y-45812D01*
X437834Y-45759D01*
X437765Y-45699D01*
X437734Y-45687D01*
X437708Y-45668D01*
X437621Y-45641D01*
X437536Y-45607D01*
X437496Y-45603D01*
X437473Y-45596D01*
X437441Y-45597D01*
X437370Y-45589D01*
X142630Y-45589D01*
X142540Y-45603D01*
X142449Y-45611D01*
X142419Y-45623D01*
X142388Y-45628D01*
X142307Y-45671D01*
X142223Y-45707D01*
X142191Y-45733D01*
X142170Y-45744D01*
X142148Y-45767D01*
X142092Y-45812D01*
X77818Y-110085D01*
X77807Y-110102D01*
X77791Y-110114D01*
X77735Y-110201D01*
X77675Y-110285D01*
X77669Y-110304D01*
X77658Y-110321D01*
X77633Y-110421D01*
X77602Y-110520D01*
X77603Y-110540D01*
X77598Y-110559D01*
X77606Y-110662D01*
X77609Y-110766D01*
X77616Y-110785D01*
X77617Y-110805D01*
X77658Y-110900D01*
X77693Y-110997D01*
X77706Y-111013D01*
X77713Y-111031D01*
X77818Y-111162D01*
X78525Y-111868D01*
X78525Y-128132D01*
X77632Y-129025D01*
X76850Y-129025D01*
X76830Y-129028D01*
X76811Y-129026D01*
X76709Y-129048D01*
X76607Y-129064D01*
X76590Y-129074D01*
X76570Y-129078D01*
X76481Y-129131D01*
X76390Y-129180D01*
X76376Y-129194D01*
X76359Y-129204D01*
X76292Y-129283D01*
X76220Y-129358D01*
X76212Y-129376D01*
X76199Y-129391D01*
X76160Y-129487D01*
X76117Y-129581D01*
X76115Y-129601D01*
X76107Y-129619D01*
X76089Y-129786D01*
X76089Y-140214D01*
X76092Y-140234D01*
X76090Y-140253D01*
X76112Y-140355D01*
X76128Y-140457D01*
X76138Y-140474D01*
X76142Y-140494D01*
X76195Y-140583D01*
X76244Y-140674D01*
X76258Y-140688D01*
X76268Y-140705D01*
X76347Y-140772D01*
X76422Y-140844D01*
X76440Y-140852D01*
X76455Y-140865D01*
X76551Y-140904D01*
X76645Y-140947D01*
X76665Y-140949D01*
X76683Y-140957D01*
X76850Y-140975D01*
X77632Y-140975D01*
X78525Y-141868D01*
X78525Y-158132D01*
X77632Y-159025D01*
X63368Y-159025D01*
X62475Y-158132D01*
X62475Y-141868D01*
X63368Y-140975D01*
X64150Y-140975D01*
X64170Y-140972D01*
X64189Y-140974D01*
X64291Y-140952D01*
X64393Y-140936D01*
X64410Y-140926D01*
X64430Y-140922D01*
X64519Y-140869D01*
X64610Y-140820D01*
X64624Y-140806D01*
X64641Y-140796D01*
X64708Y-140717D01*
X64780Y-140642D01*
X64788Y-140624D01*
X64801Y-140609D01*
X64840Y-140513D01*
X64883Y-140419D01*
X64885Y-140399D01*
X64893Y-140381D01*
X64911Y-140214D01*
X64911Y-129786D01*
X64908Y-129766D01*
X64910Y-129747D01*
X64888Y-129645D01*
X64872Y-129543D01*
X64862Y-129526D01*
X64858Y-129506D01*
X64805Y-129417D01*
X64756Y-129326D01*
X64742Y-129312D01*
X64732Y-129295D01*
X64653Y-129228D01*
X64578Y-129156D01*
X64560Y-129148D01*
X64545Y-129135D01*
X64449Y-129096D01*
X64355Y-129053D01*
X64335Y-129051D01*
X64317Y-129043D01*
X64150Y-129025D01*
X63368Y-129025D01*
X62437Y-128094D01*
X62436Y-128083D01*
X62426Y-128066D01*
X62422Y-128046D01*
X62369Y-127957D01*
X62320Y-127866D01*
X62306Y-127852D01*
X62296Y-127835D01*
X62217Y-127768D01*
X62142Y-127696D01*
X62124Y-127688D01*
X62109Y-127675D01*
X62013Y-127636D01*
X61919Y-127593D01*
X61899Y-127591D01*
X61881Y-127583D01*
X61714Y-127565D01*
X52343Y-127565D01*
X52228Y-127584D01*
X52112Y-127601D01*
X52107Y-127603D01*
X52100Y-127604D01*
X51998Y-127659D01*
X51893Y-127712D01*
X51889Y-127717D01*
X51883Y-127720D01*
X51803Y-127804D01*
X51721Y-127888D01*
X51717Y-127894D01*
X51714Y-127898D01*
X51706Y-127915D01*
X51640Y-128035D01*
X51373Y-128680D01*
X48800Y-131253D01*
X45439Y-132645D01*
X26561Y-132645D01*
X23200Y-131253D01*
X20627Y-128680D01*
X19235Y-125319D01*
X19235Y-121681D01*
X20627Y-118320D01*
X23200Y-115747D01*
X26561Y-114355D01*
X45439Y-114355D01*
X48800Y-115747D01*
X51373Y-118320D01*
X51640Y-118965D01*
X51701Y-119065D01*
X51761Y-119165D01*
X51766Y-119169D01*
X51769Y-119174D01*
X51860Y-119249D01*
X51948Y-119325D01*
X51954Y-119327D01*
X51959Y-119331D01*
X52067Y-119373D01*
X52176Y-119417D01*
X52184Y-119418D01*
X52189Y-119419D01*
X52207Y-119420D01*
X52343Y-119435D01*
X61714Y-119435D01*
X61734Y-119432D01*
X61753Y-119434D01*
X61855Y-119412D01*
X61957Y-119396D01*
X61974Y-119386D01*
X61994Y-119382D01*
X62083Y-119329D01*
X62174Y-119280D01*
X62188Y-119266D01*
X62205Y-119256D01*
X62272Y-119177D01*
X62344Y-119102D01*
X62352Y-119084D01*
X62365Y-119069D01*
X62404Y-118973D01*
X62447Y-118879D01*
X62449Y-118859D01*
X62457Y-118841D01*
X62475Y-118674D01*
X62475Y-111868D01*
X63368Y-110975D01*
X64150Y-110975D01*
X64170Y-110972D01*
X64189Y-110974D01*
X64291Y-110952D01*
X64393Y-110936D01*
X64410Y-110926D01*
X64430Y-110922D01*
X64519Y-110869D01*
X64610Y-110820D01*
X64624Y-110806D01*
X64641Y-110796D01*
X64708Y-110717D01*
X64780Y-110642D01*
X64788Y-110624D01*
X64801Y-110609D01*
X64840Y-110513D01*
X64883Y-110419D01*
X64885Y-110399D01*
X64893Y-110381D01*
X64911Y-110214D01*
X64911Y-108388D01*
X65762Y-106334D01*
X136834Y-35262D01*
X138888Y-34411D01*
X441112Y-34411D01*
X443166Y-35262D01*
X478438Y-70534D01*
X479289Y-72588D01*
X479289Y-150817D01*
X479303Y-150907D01*
X479311Y-150998D01*
X479323Y-151028D01*
X479328Y-151060D01*
X479371Y-151141D01*
X479407Y-151224D01*
X479433Y-151257D01*
X479444Y-151277D01*
X479467Y-151299D01*
X479512Y-151355D01*
X480225Y-152068D01*
X480225Y-154874D01*
X480228Y-154894D01*
X480226Y-154913D01*
X480248Y-155015D01*
X480264Y-155117D01*
X480274Y-155134D01*
X480278Y-155154D01*
X480331Y-155243D01*
X480380Y-155334D01*
X480394Y-155348D01*
X480404Y-155365D01*
X480483Y-155432D01*
X480558Y-155504D01*
X480576Y-155512D01*
X480591Y-155525D01*
X480687Y-155564D01*
X480781Y-155607D01*
X480801Y-155609D01*
X480819Y-155617D01*
X480986Y-155635D01*
X528617Y-155635D01*
X528707Y-155621D01*
X528798Y-155613D01*
X528828Y-155601D01*
X528860Y-155596D01*
X528940Y-155553D01*
X529024Y-155517D01*
X529056Y-155491D01*
X529077Y-155480D01*
X529099Y-155457D01*
X529155Y-155412D01*
X533512Y-151055D01*
X541088Y-151055D01*
X546445Y-156412D01*
X546445Y-163988D01*
X541088Y-169345D01*
X533512Y-169345D01*
G37*
%LPD*%
%LPC*%
G36*
X152868Y-407025D02*
X152868Y-407025D01*
X151975Y-406132D01*
X151975Y-393868D01*
X152868Y-392975D01*
X155174Y-392975D01*
X155194Y-392972D01*
X155213Y-392974D01*
X155315Y-392952D01*
X155417Y-392936D01*
X155434Y-392926D01*
X155454Y-392922D01*
X155543Y-392869D01*
X155634Y-392820D01*
X155648Y-392806D01*
X155665Y-392796D01*
X155732Y-392717D01*
X155804Y-392642D01*
X155812Y-392624D01*
X155825Y-392609D01*
X155864Y-392513D01*
X155907Y-392419D01*
X155909Y-392399D01*
X155917Y-392381D01*
X155935Y-392214D01*
X155935Y-263773D01*
X167358Y-252350D01*
X167405Y-252285D01*
X167417Y-252272D01*
X167420Y-252266D01*
X167471Y-252207D01*
X167483Y-252176D01*
X167502Y-252150D01*
X167529Y-252063D01*
X167563Y-251978D01*
X167567Y-251937D01*
X167574Y-251915D01*
X167573Y-251883D01*
X167581Y-251812D01*
X167581Y-248766D01*
X168474Y-247873D01*
X190058Y-247873D01*
X190951Y-248766D01*
X190951Y-256634D01*
X190058Y-257527D01*
X173994Y-257527D01*
X173904Y-257541D01*
X173813Y-257549D01*
X173783Y-257561D01*
X173751Y-257566D01*
X173670Y-257609D01*
X173586Y-257645D01*
X173554Y-257671D01*
X173533Y-257682D01*
X173511Y-257705D01*
X173455Y-257750D01*
X171931Y-259274D01*
X171889Y-259332D01*
X171840Y-259384D01*
X171818Y-259431D01*
X171788Y-259473D01*
X171767Y-259542D01*
X171736Y-259607D01*
X171731Y-259659D01*
X171715Y-259709D01*
X171717Y-259780D01*
X171709Y-259851D01*
X171720Y-259902D01*
X171722Y-259954D01*
X171746Y-260022D01*
X171762Y-260092D01*
X171788Y-260137D01*
X171806Y-260185D01*
X171851Y-260241D01*
X171888Y-260303D01*
X171927Y-260337D01*
X171960Y-260377D01*
X172020Y-260416D01*
X172075Y-260463D01*
X172123Y-260482D01*
X172167Y-260510D01*
X172236Y-260528D01*
X172303Y-260555D01*
X172374Y-260563D01*
X172405Y-260571D01*
X172429Y-260569D01*
X172470Y-260573D01*
X190058Y-260573D01*
X190597Y-261112D01*
X190671Y-261165D01*
X190740Y-261225D01*
X190770Y-261237D01*
X190796Y-261256D01*
X190883Y-261283D01*
X190968Y-261317D01*
X191009Y-261321D01*
X191031Y-261328D01*
X191064Y-261327D01*
X191135Y-261335D01*
X192601Y-261335D01*
X192691Y-261321D01*
X192782Y-261313D01*
X192812Y-261301D01*
X192844Y-261296D01*
X192924Y-261253D01*
X193008Y-261217D01*
X193040Y-261191D01*
X193061Y-261180D01*
X193083Y-261157D01*
X193139Y-261112D01*
X195712Y-258539D01*
X195765Y-258465D01*
X195825Y-258396D01*
X195837Y-258366D01*
X195856Y-258340D01*
X195883Y-258253D01*
X195917Y-258168D01*
X195921Y-258127D01*
X195928Y-258104D01*
X195927Y-258072D01*
X195935Y-258001D01*
X195935Y-241999D01*
X195921Y-241909D01*
X195913Y-241818D01*
X195901Y-241788D01*
X195896Y-241756D01*
X195853Y-241676D01*
X195817Y-241592D01*
X195791Y-241559D01*
X195780Y-241539D01*
X195757Y-241517D01*
X195712Y-241461D01*
X192250Y-237999D01*
X192192Y-237957D01*
X192140Y-237907D01*
X192093Y-237885D01*
X192051Y-237855D01*
X191982Y-237834D01*
X191917Y-237804D01*
X191865Y-237798D01*
X191815Y-237783D01*
X191744Y-237785D01*
X191673Y-237777D01*
X191622Y-237788D01*
X191570Y-237789D01*
X191502Y-237814D01*
X191432Y-237829D01*
X191387Y-237856D01*
X191339Y-237874D01*
X191283Y-237918D01*
X191221Y-237955D01*
X191187Y-237995D01*
X191147Y-238027D01*
X191108Y-238088D01*
X191061Y-238142D01*
X191042Y-238190D01*
X191014Y-238234D01*
X190996Y-238304D01*
X190969Y-238370D01*
X190961Y-238442D01*
X190953Y-238473D01*
X190955Y-238496D01*
X190951Y-238537D01*
X190951Y-243934D01*
X190058Y-244827D01*
X168474Y-244827D01*
X167935Y-244288D01*
X167861Y-244235D01*
X167792Y-244175D01*
X167762Y-244163D01*
X167736Y-244144D01*
X167649Y-244117D01*
X167564Y-244083D01*
X167523Y-244079D01*
X167501Y-244072D01*
X167468Y-244073D01*
X167397Y-244065D01*
X155156Y-244065D01*
X155137Y-244068D01*
X155117Y-244066D01*
X155016Y-244088D01*
X154913Y-244104D01*
X154896Y-244114D01*
X154876Y-244118D01*
X154787Y-244171D01*
X154696Y-244220D01*
X154682Y-244234D01*
X154665Y-244244D01*
X154598Y-244323D01*
X154527Y-244398D01*
X154518Y-244416D01*
X154505Y-244431D01*
X154467Y-244527D01*
X154423Y-244621D01*
X154421Y-244641D01*
X154413Y-244659D01*
X154395Y-244826D01*
X154395Y-312449D01*
X110692Y-356153D01*
X108313Y-356153D01*
X108223Y-356167D01*
X108132Y-356175D01*
X108102Y-356187D01*
X108070Y-356192D01*
X107989Y-356235D01*
X107906Y-356271D01*
X107873Y-356297D01*
X107853Y-356308D01*
X107831Y-356331D01*
X107775Y-356376D01*
X107440Y-356711D01*
X107387Y-356785D01*
X107327Y-356854D01*
X107315Y-356884D01*
X107296Y-356910D01*
X107269Y-356997D01*
X107235Y-357082D01*
X107231Y-357123D01*
X107224Y-357145D01*
X107225Y-357178D01*
X107217Y-357249D01*
X107217Y-374086D01*
X107232Y-374182D01*
X107242Y-374279D01*
X107252Y-374303D01*
X107256Y-374329D01*
X107302Y-374415D01*
X107342Y-374504D01*
X107359Y-374523D01*
X107372Y-374547D01*
X107442Y-374614D01*
X107508Y-374685D01*
X107531Y-374698D01*
X107550Y-374716D01*
X107638Y-374757D01*
X107724Y-374804D01*
X107749Y-374809D01*
X107773Y-374820D01*
X107870Y-374830D01*
X107966Y-374848D01*
X107992Y-374844D01*
X108017Y-374847D01*
X108113Y-374826D01*
X108209Y-374812D01*
X108232Y-374800D01*
X108258Y-374794D01*
X108341Y-374744D01*
X108428Y-374700D01*
X108447Y-374682D01*
X108469Y-374668D01*
X108532Y-374594D01*
X108600Y-374525D01*
X108616Y-374496D01*
X108629Y-374481D01*
X108641Y-374451D01*
X108681Y-374378D01*
X109640Y-372063D01*
X112713Y-368990D01*
X116727Y-367327D01*
X121073Y-367327D01*
X125087Y-368990D01*
X128160Y-372063D01*
X129823Y-376077D01*
X129823Y-380423D01*
X128160Y-384437D01*
X125087Y-387510D01*
X121073Y-389173D01*
X116727Y-389173D01*
X112713Y-387510D01*
X109640Y-384437D01*
X107977Y-380423D01*
X107977Y-377814D01*
X107966Y-377743D01*
X107964Y-377672D01*
X107946Y-377623D01*
X107938Y-377571D01*
X107904Y-377508D01*
X107879Y-377441D01*
X107847Y-377400D01*
X107822Y-377354D01*
X107770Y-377305D01*
X107726Y-377249D01*
X107682Y-377221D01*
X107644Y-377185D01*
X107579Y-377154D01*
X107519Y-377116D01*
X107468Y-377103D01*
X107421Y-377081D01*
X107350Y-377073D01*
X107280Y-377056D01*
X107228Y-377060D01*
X107177Y-377054D01*
X107106Y-377069D01*
X107035Y-377075D01*
X106987Y-377095D01*
X106936Y-377106D01*
X106875Y-377143D01*
X106809Y-377171D01*
X106753Y-377216D01*
X106725Y-377232D01*
X106710Y-377250D01*
X106678Y-377276D01*
X101514Y-382440D01*
X101502Y-382456D01*
X101486Y-382469D01*
X101430Y-382556D01*
X101370Y-382640D01*
X101364Y-382659D01*
X101353Y-382676D01*
X101328Y-382776D01*
X101298Y-382875D01*
X101298Y-382895D01*
X101293Y-382914D01*
X101301Y-383017D01*
X101304Y-383121D01*
X101311Y-383140D01*
X101313Y-383159D01*
X101353Y-383254D01*
X101389Y-383352D01*
X101401Y-383367D01*
X101409Y-383386D01*
X101514Y-383517D01*
X102760Y-384763D01*
X104423Y-388777D01*
X104423Y-393123D01*
X102760Y-397137D01*
X99687Y-400210D01*
X95673Y-401873D01*
X91327Y-401873D01*
X87313Y-400210D01*
X84240Y-397137D01*
X82577Y-393123D01*
X82577Y-388777D01*
X84240Y-384763D01*
X87313Y-381690D01*
X91327Y-380027D01*
X95673Y-380027D01*
X96719Y-380461D01*
X96787Y-380477D01*
X96788Y-380477D01*
X96789Y-380477D01*
X96833Y-380487D01*
X96947Y-380516D01*
X96953Y-380516D01*
X96959Y-380517D01*
X97075Y-380506D01*
X97192Y-380497D01*
X97198Y-380495D01*
X97204Y-380494D01*
X97312Y-380446D01*
X97418Y-380401D01*
X97424Y-380396D01*
X97429Y-380394D01*
X97443Y-380381D01*
X97491Y-380343D01*
X97494Y-380341D01*
X97498Y-380337D01*
X97549Y-380296D01*
X99057Y-378788D01*
X99099Y-378730D01*
X99148Y-378678D01*
X99170Y-378631D01*
X99200Y-378589D01*
X99221Y-378520D01*
X99252Y-378455D01*
X99257Y-378403D01*
X99273Y-378353D01*
X99271Y-378282D01*
X99279Y-378211D01*
X99268Y-378160D01*
X99266Y-378108D01*
X99242Y-378040D01*
X99226Y-377970D01*
X99200Y-377926D01*
X99182Y-377877D01*
X99137Y-377821D01*
X99100Y-377759D01*
X99061Y-377725D01*
X99028Y-377685D01*
X98968Y-377646D01*
X98913Y-377599D01*
X98865Y-377580D01*
X98821Y-377552D01*
X98752Y-377534D01*
X98685Y-377507D01*
X98614Y-377499D01*
X98583Y-377491D01*
X98559Y-377493D01*
X98518Y-377489D01*
X95023Y-377489D01*
X95023Y-366312D01*
X95020Y-366292D01*
X95022Y-366273D01*
X95000Y-366171D01*
X94983Y-366069D01*
X94974Y-366052D01*
X94970Y-366032D01*
X94917Y-365943D01*
X94868Y-365852D01*
X94854Y-365838D01*
X94844Y-365821D01*
X94765Y-365754D01*
X94690Y-365683D01*
X94672Y-365674D01*
X94657Y-365661D01*
X94561Y-365623D01*
X94467Y-365579D01*
X94447Y-365577D01*
X94429Y-365569D01*
X94262Y-365551D01*
X93499Y-365551D01*
X93499Y-365549D01*
X94262Y-365549D01*
X94282Y-365546D01*
X94301Y-365548D01*
X94403Y-365526D01*
X94505Y-365509D01*
X94522Y-365500D01*
X94542Y-365496D01*
X94631Y-365443D01*
X94722Y-365394D01*
X94736Y-365380D01*
X94753Y-365370D01*
X94820Y-365291D01*
X94891Y-365216D01*
X94900Y-365198D01*
X94913Y-365183D01*
X94952Y-365087D01*
X94995Y-364993D01*
X94997Y-364973D01*
X95005Y-364955D01*
X95023Y-364788D01*
X95023Y-353611D01*
X103232Y-353611D01*
X103753Y-353751D01*
X103820Y-353757D01*
X103886Y-353774D01*
X103941Y-353770D01*
X103997Y-353775D01*
X104063Y-353760D01*
X104131Y-353755D01*
X104183Y-353733D01*
X104237Y-353720D01*
X104295Y-353685D01*
X104357Y-353658D01*
X104419Y-353609D01*
X104447Y-353592D01*
X104460Y-353576D01*
X104488Y-353554D01*
X104720Y-353321D01*
X104773Y-353247D01*
X104833Y-353178D01*
X104845Y-353148D01*
X104864Y-353122D01*
X104891Y-353035D01*
X104925Y-352950D01*
X104929Y-352909D01*
X104936Y-352886D01*
X104935Y-352854D01*
X104943Y-352783D01*
X104943Y-350404D01*
X146043Y-309305D01*
X146096Y-309231D01*
X146155Y-309162D01*
X146167Y-309131D01*
X146186Y-309105D01*
X146213Y-309018D01*
X146247Y-308933D01*
X146252Y-308892D01*
X146258Y-308870D01*
X146258Y-308838D01*
X146266Y-308767D01*
X146266Y-241669D01*
X146251Y-241579D01*
X146244Y-241488D01*
X146231Y-241458D01*
X146226Y-241426D01*
X146183Y-241345D01*
X146147Y-241261D01*
X146122Y-241229D01*
X146111Y-241209D01*
X146087Y-241187D01*
X146043Y-241130D01*
X119200Y-214288D01*
X119126Y-214235D01*
X119056Y-214175D01*
X119026Y-214163D01*
X119000Y-214144D01*
X118913Y-214117D01*
X118828Y-214083D01*
X118787Y-214079D01*
X118765Y-214072D01*
X118733Y-214073D01*
X118662Y-214065D01*
X63755Y-214065D01*
X63665Y-214079D01*
X63574Y-214087D01*
X63545Y-214099D01*
X63513Y-214104D01*
X63432Y-214147D01*
X63348Y-214183D01*
X63316Y-214209D01*
X63295Y-214220D01*
X63273Y-214243D01*
X63217Y-214288D01*
X62198Y-215307D01*
X57802Y-215307D01*
X54693Y-212198D01*
X54693Y-207802D01*
X57431Y-205064D01*
X57473Y-205006D01*
X57522Y-204954D01*
X57544Y-204907D01*
X57574Y-204865D01*
X57596Y-204796D01*
X57626Y-204731D01*
X57631Y-204679D01*
X57647Y-204629D01*
X57645Y-204558D01*
X57653Y-204487D01*
X57642Y-204436D01*
X57640Y-204384D01*
X57616Y-204316D01*
X57601Y-204246D01*
X57574Y-204201D01*
X57556Y-204153D01*
X57511Y-204097D01*
X57474Y-204035D01*
X57435Y-204001D01*
X57402Y-203961D01*
X57342Y-203922D01*
X57287Y-203875D01*
X57239Y-203856D01*
X57195Y-203828D01*
X57126Y-203810D01*
X57059Y-203783D01*
X56988Y-203775D01*
X56957Y-203767D01*
X56934Y-203769D01*
X56893Y-203765D01*
X52343Y-203765D01*
X52228Y-203784D01*
X52112Y-203801D01*
X52107Y-203803D01*
X52100Y-203804D01*
X51998Y-203859D01*
X51893Y-203912D01*
X51889Y-203917D01*
X51883Y-203920D01*
X51803Y-204004D01*
X51721Y-204088D01*
X51717Y-204094D01*
X51714Y-204098D01*
X51706Y-204115D01*
X51640Y-204235D01*
X51373Y-204880D01*
X48800Y-207453D01*
X45439Y-208845D01*
X26561Y-208845D01*
X23200Y-207453D01*
X20627Y-204880D01*
X19235Y-201519D01*
X19235Y-197881D01*
X20627Y-194520D01*
X23200Y-191947D01*
X26561Y-190555D01*
X45439Y-190555D01*
X48800Y-191947D01*
X51373Y-194520D01*
X51640Y-195165D01*
X51701Y-195265D01*
X51761Y-195365D01*
X51766Y-195369D01*
X51769Y-195374D01*
X51860Y-195449D01*
X51948Y-195525D01*
X51954Y-195527D01*
X51959Y-195531D01*
X52067Y-195573D01*
X52176Y-195617D01*
X52184Y-195618D01*
X52189Y-195619D01*
X52207Y-195620D01*
X52343Y-195635D01*
X121384Y-195635D01*
X148761Y-223012D01*
X148835Y-223065D01*
X148904Y-223125D01*
X148934Y-223137D01*
X148960Y-223156D01*
X149047Y-223183D01*
X149132Y-223217D01*
X149173Y-223221D01*
X149196Y-223228D01*
X149228Y-223227D01*
X149299Y-223235D01*
X167397Y-223235D01*
X167487Y-223221D01*
X167578Y-223213D01*
X167608Y-223201D01*
X167640Y-223196D01*
X167721Y-223153D01*
X167804Y-223117D01*
X167837Y-223091D01*
X167857Y-223080D01*
X167879Y-223057D01*
X167935Y-223012D01*
X168474Y-222473D01*
X190058Y-222473D01*
X190951Y-223366D01*
X190951Y-224887D01*
X190965Y-224977D01*
X190973Y-225068D01*
X190985Y-225098D01*
X190990Y-225130D01*
X191033Y-225210D01*
X191069Y-225294D01*
X191095Y-225326D01*
X191106Y-225347D01*
X191129Y-225369D01*
X191174Y-225425D01*
X204065Y-238316D01*
X204065Y-261684D01*
X196284Y-269465D01*
X191135Y-269465D01*
X191045Y-269479D01*
X190954Y-269487D01*
X190924Y-269499D01*
X190892Y-269504D01*
X190811Y-269547D01*
X190728Y-269583D01*
X190695Y-269609D01*
X190675Y-269620D01*
X190653Y-269643D01*
X190597Y-269688D01*
X190058Y-270227D01*
X168474Y-270227D01*
X167581Y-269334D01*
X167581Y-265462D01*
X167570Y-265391D01*
X167568Y-265319D01*
X167550Y-265270D01*
X167542Y-265219D01*
X167508Y-265155D01*
X167483Y-265088D01*
X167451Y-265047D01*
X167426Y-265001D01*
X167374Y-264952D01*
X167330Y-264896D01*
X167286Y-264868D01*
X167248Y-264832D01*
X167183Y-264802D01*
X167123Y-264763D01*
X167072Y-264750D01*
X167025Y-264728D01*
X166954Y-264721D01*
X166884Y-264703D01*
X166832Y-264707D01*
X166781Y-264701D01*
X166710Y-264717D01*
X166639Y-264722D01*
X166591Y-264742D01*
X166540Y-264754D01*
X166479Y-264790D01*
X166413Y-264818D01*
X166357Y-264863D01*
X166329Y-264880D01*
X166314Y-264898D01*
X166282Y-264923D01*
X164288Y-266917D01*
X164235Y-266991D01*
X164175Y-267061D01*
X164163Y-267091D01*
X164144Y-267117D01*
X164117Y-267204D01*
X164083Y-267289D01*
X164079Y-267330D01*
X164072Y-267352D01*
X164073Y-267384D01*
X164065Y-267456D01*
X164065Y-392593D01*
X164079Y-392683D01*
X164087Y-392774D01*
X164099Y-392804D01*
X164104Y-392836D01*
X164147Y-392917D01*
X164183Y-393000D01*
X164209Y-393033D01*
X164220Y-393053D01*
X164243Y-393075D01*
X164288Y-393131D01*
X165025Y-393868D01*
X165025Y-406132D01*
X164132Y-407025D01*
X152868Y-407025D01*
G37*
%LPD*%
%LPC*%
G36*
X266168Y-368525D02*
X266168Y-368525D01*
X265275Y-367632D01*
X265275Y-356368D01*
X266168Y-355475D01*
X267474Y-355475D01*
X267494Y-355472D01*
X267513Y-355474D01*
X267615Y-355452D01*
X267717Y-355436D01*
X267734Y-355426D01*
X267754Y-355422D01*
X267843Y-355369D01*
X267934Y-355320D01*
X267948Y-355306D01*
X267965Y-355296D01*
X268032Y-355217D01*
X268104Y-355142D01*
X268112Y-355124D01*
X268125Y-355109D01*
X268164Y-355013D01*
X268207Y-354919D01*
X268209Y-354899D01*
X268217Y-354881D01*
X268235Y-354714D01*
X268235Y-350986D01*
X268232Y-350966D01*
X268234Y-350947D01*
X268212Y-350845D01*
X268196Y-350743D01*
X268186Y-350726D01*
X268182Y-350706D01*
X268129Y-350617D01*
X268080Y-350526D01*
X268066Y-350512D01*
X268056Y-350495D01*
X267977Y-350428D01*
X267902Y-350356D01*
X267884Y-350348D01*
X267869Y-350335D01*
X267773Y-350296D01*
X267679Y-350253D01*
X267659Y-350251D01*
X267641Y-350243D01*
X267474Y-350225D01*
X261568Y-350225D01*
X260675Y-349332D01*
X260675Y-338068D01*
X261568Y-337175D01*
X268161Y-337175D01*
X268251Y-337161D01*
X268342Y-337153D01*
X268372Y-337141D01*
X268404Y-337136D01*
X268484Y-337093D01*
X268568Y-337057D01*
X268600Y-337031D01*
X268621Y-337020D01*
X268643Y-336997D01*
X268699Y-336952D01*
X271127Y-334524D01*
X271169Y-334466D01*
X271219Y-334414D01*
X271241Y-334367D01*
X271271Y-334325D01*
X271292Y-334256D01*
X271322Y-334191D01*
X271328Y-334139D01*
X271343Y-334089D01*
X271341Y-334018D01*
X271349Y-333947D01*
X271338Y-333896D01*
X271337Y-333844D01*
X271312Y-333776D01*
X271297Y-333706D01*
X271270Y-333662D01*
X271252Y-333613D01*
X271208Y-333557D01*
X271171Y-333495D01*
X271131Y-333461D01*
X271099Y-333421D01*
X271038Y-333382D01*
X270984Y-333335D01*
X270936Y-333316D01*
X270892Y-333288D01*
X270822Y-333270D01*
X270756Y-333243D01*
X270684Y-333235D01*
X270653Y-333227D01*
X270630Y-333229D01*
X270589Y-333225D01*
X267239Y-333225D01*
X267149Y-333239D01*
X267058Y-333247D01*
X267028Y-333259D01*
X266996Y-333264D01*
X266916Y-333307D01*
X266832Y-333343D01*
X266800Y-333369D01*
X266779Y-333380D01*
X266757Y-333403D01*
X266701Y-333448D01*
X266084Y-334065D01*
X253755Y-334065D01*
X253665Y-334079D01*
X253574Y-334087D01*
X253545Y-334099D01*
X253513Y-334104D01*
X253432Y-334147D01*
X253348Y-334183D01*
X253316Y-334209D01*
X253295Y-334220D01*
X253273Y-334243D01*
X253217Y-334288D01*
X252198Y-335307D01*
X247802Y-335307D01*
X244693Y-332198D01*
X244693Y-327802D01*
X247802Y-324693D01*
X252198Y-324693D01*
X253217Y-325712D01*
X253291Y-325765D01*
X253361Y-325825D01*
X253391Y-325837D01*
X253417Y-325856D01*
X253504Y-325883D01*
X253589Y-325917D01*
X253630Y-325921D01*
X253652Y-325928D01*
X253684Y-325927D01*
X253755Y-325935D01*
X259914Y-325935D01*
X259934Y-325932D01*
X259953Y-325934D01*
X260055Y-325912D01*
X260157Y-325896D01*
X260174Y-325886D01*
X260194Y-325882D01*
X260283Y-325829D01*
X260374Y-325780D01*
X260388Y-325766D01*
X260405Y-325756D01*
X260472Y-325677D01*
X260544Y-325602D01*
X260552Y-325584D01*
X260565Y-325569D01*
X260604Y-325473D01*
X260647Y-325379D01*
X260649Y-325359D01*
X260657Y-325341D01*
X260675Y-325174D01*
X260675Y-321068D01*
X261568Y-320175D01*
X273832Y-320175D01*
X274725Y-321068D01*
X274725Y-329089D01*
X274736Y-329160D01*
X274738Y-329232D01*
X274756Y-329280D01*
X274764Y-329332D01*
X274798Y-329395D01*
X274823Y-329463D01*
X274855Y-329503D01*
X274880Y-329549D01*
X274932Y-329599D01*
X274976Y-329655D01*
X275020Y-329683D01*
X275058Y-329719D01*
X275123Y-329749D01*
X275183Y-329788D01*
X275234Y-329800D01*
X275281Y-329822D01*
X275352Y-329830D01*
X275422Y-329848D01*
X275474Y-329844D01*
X275525Y-329849D01*
X275596Y-329834D01*
X275667Y-329828D01*
X275715Y-329808D01*
X275766Y-329797D01*
X275827Y-329760D01*
X275893Y-329732D01*
X275949Y-329687D01*
X275977Y-329671D01*
X275992Y-329653D01*
X276024Y-329627D01*
X287112Y-318539D01*
X289716Y-315935D01*
X378001Y-315935D01*
X378091Y-315921D01*
X378182Y-315913D01*
X378212Y-315901D01*
X378244Y-315896D01*
X378324Y-315853D01*
X378408Y-315817D01*
X378440Y-315791D01*
X378461Y-315780D01*
X378483Y-315757D01*
X378539Y-315712D01*
X499000Y-195251D01*
X532181Y-195251D01*
X532252Y-195240D01*
X532323Y-195238D01*
X532372Y-195220D01*
X532424Y-195212D01*
X532487Y-195178D01*
X532554Y-195153D01*
X532595Y-195121D01*
X532641Y-195096D01*
X532690Y-195044D01*
X532746Y-195000D01*
X532775Y-194956D01*
X532810Y-194918D01*
X532841Y-194853D01*
X532879Y-194793D01*
X532892Y-194742D01*
X532914Y-194695D01*
X532922Y-194624D01*
X532939Y-194554D01*
X532935Y-194502D01*
X532941Y-194451D01*
X532926Y-194380D01*
X532920Y-194309D01*
X532900Y-194261D01*
X532889Y-194210D01*
X532852Y-194149D01*
X532824Y-194083D01*
X532779Y-194027D01*
X532763Y-193999D01*
X532745Y-193984D01*
X532719Y-193952D01*
X528155Y-189388D01*
X528155Y-181812D01*
X533512Y-176455D01*
X541088Y-176455D01*
X546445Y-181812D01*
X546445Y-189388D01*
X541881Y-193952D01*
X541839Y-194010D01*
X541790Y-194062D01*
X541768Y-194109D01*
X541737Y-194151D01*
X541716Y-194220D01*
X541686Y-194285D01*
X541680Y-194337D01*
X541665Y-194387D01*
X541667Y-194458D01*
X541659Y-194529D01*
X541670Y-194580D01*
X541671Y-194632D01*
X541696Y-194700D01*
X541711Y-194770D01*
X541738Y-194815D01*
X541756Y-194863D01*
X541801Y-194919D01*
X541837Y-194981D01*
X541877Y-195015D01*
X541909Y-195055D01*
X541970Y-195094D01*
X542024Y-195141D01*
X542073Y-195160D01*
X542116Y-195188D01*
X542186Y-195206D01*
X542252Y-195233D01*
X542324Y-195241D01*
X542355Y-195249D01*
X542378Y-195247D01*
X542419Y-195251D01*
X543823Y-195251D01*
X554131Y-205559D01*
X554148Y-205571D01*
X554160Y-205587D01*
X554247Y-205643D01*
X554331Y-205703D01*
X554350Y-205709D01*
X554367Y-205720D01*
X554468Y-205745D01*
X554566Y-205775D01*
X554586Y-205775D01*
X554606Y-205780D01*
X554709Y-205772D01*
X554812Y-205769D01*
X554831Y-205762D01*
X554851Y-205761D01*
X554946Y-205720D01*
X555043Y-205684D01*
X555059Y-205672D01*
X555077Y-205664D01*
X555208Y-205559D01*
X558912Y-201855D01*
X566488Y-201855D01*
X571845Y-207212D01*
X571845Y-214788D01*
X566488Y-220145D01*
X558912Y-220145D01*
X554055Y-215288D01*
X553981Y-215235D01*
X553912Y-215175D01*
X553882Y-215163D01*
X553855Y-215144D01*
X553768Y-215117D01*
X553684Y-215083D01*
X553643Y-215079D01*
X553620Y-215072D01*
X553588Y-215073D01*
X553517Y-215065D01*
X552140Y-215065D01*
X547744Y-210669D01*
X547686Y-210627D01*
X547634Y-210578D01*
X547587Y-210556D01*
X547545Y-210525D01*
X547476Y-210504D01*
X547411Y-210474D01*
X547359Y-210468D01*
X547309Y-210453D01*
X547238Y-210455D01*
X547167Y-210447D01*
X547116Y-210458D01*
X547064Y-210459D01*
X546996Y-210484D01*
X546926Y-210499D01*
X546881Y-210526D01*
X546833Y-210544D01*
X546777Y-210589D01*
X546715Y-210625D01*
X546681Y-210665D01*
X546641Y-210698D01*
X546602Y-210758D01*
X546555Y-210812D01*
X546536Y-210861D01*
X546508Y-210904D01*
X546490Y-210974D01*
X546463Y-211041D01*
X546455Y-211112D01*
X546447Y-211143D01*
X546449Y-211166D01*
X546445Y-211207D01*
X546445Y-214788D01*
X541088Y-220145D01*
X533512Y-220145D01*
X528655Y-215288D01*
X528581Y-215235D01*
X528512Y-215175D01*
X528482Y-215163D01*
X528455Y-215144D01*
X528368Y-215117D01*
X528284Y-215083D01*
X528243Y-215079D01*
X528220Y-215072D01*
X528188Y-215073D01*
X528117Y-215065D01*
X513352Y-215065D01*
X513262Y-215079D01*
X513171Y-215087D01*
X513141Y-215099D01*
X513109Y-215104D01*
X513028Y-215147D01*
X512944Y-215183D01*
X512912Y-215209D01*
X512891Y-215220D01*
X512869Y-215243D01*
X512813Y-215288D01*
X381736Y-346365D01*
X347186Y-346365D01*
X347166Y-346368D01*
X347147Y-346366D01*
X347045Y-346388D01*
X346943Y-346404D01*
X346926Y-346414D01*
X346906Y-346418D01*
X346817Y-346471D01*
X346726Y-346520D01*
X346712Y-346534D01*
X346695Y-346544D01*
X346628Y-346623D01*
X346556Y-346698D01*
X346548Y-346716D01*
X346535Y-346731D01*
X346496Y-346827D01*
X346453Y-346921D01*
X346451Y-346941D01*
X346443Y-346959D01*
X346425Y-347126D01*
X346425Y-348432D01*
X345532Y-349325D01*
X344826Y-349325D01*
X344806Y-349328D01*
X344787Y-349326D01*
X344685Y-349348D01*
X344583Y-349364D01*
X344566Y-349374D01*
X344546Y-349378D01*
X344457Y-349431D01*
X344366Y-349480D01*
X344352Y-349494D01*
X344335Y-349504D01*
X344268Y-349583D01*
X344196Y-349658D01*
X344188Y-349676D01*
X344175Y-349691D01*
X344136Y-349787D01*
X344093Y-349881D01*
X344091Y-349901D01*
X344083Y-349919D01*
X344065Y-350086D01*
X344065Y-354214D01*
X344068Y-354234D01*
X344066Y-354253D01*
X344088Y-354355D01*
X344104Y-354457D01*
X344114Y-354474D01*
X344118Y-354494D01*
X344171Y-354583D01*
X344220Y-354674D01*
X344234Y-354688D01*
X344244Y-354705D01*
X344323Y-354772D01*
X344398Y-354844D01*
X344416Y-354852D01*
X344431Y-354865D01*
X344527Y-354904D01*
X344621Y-354947D01*
X344641Y-354949D01*
X344659Y-354957D01*
X344826Y-354975D01*
X346132Y-354975D01*
X347025Y-355868D01*
X347025Y-367132D01*
X346132Y-368025D01*
X333868Y-368025D01*
X332975Y-367132D01*
X332975Y-355868D01*
X333868Y-354975D01*
X335174Y-354975D01*
X335194Y-354972D01*
X335213Y-354974D01*
X335315Y-354952D01*
X335417Y-354936D01*
X335434Y-354926D01*
X335454Y-354922D01*
X335543Y-354869D01*
X335634Y-354820D01*
X335648Y-354806D01*
X335665Y-354796D01*
X335732Y-354717D01*
X335804Y-354642D01*
X335812Y-354624D01*
X335825Y-354609D01*
X335864Y-354513D01*
X335907Y-354419D01*
X335909Y-354399D01*
X335917Y-354381D01*
X335935Y-354214D01*
X335935Y-350086D01*
X335932Y-350066D01*
X335934Y-350047D01*
X335912Y-349945D01*
X335896Y-349843D01*
X335886Y-349826D01*
X335882Y-349806D01*
X335829Y-349717D01*
X335780Y-349626D01*
X335766Y-349612D01*
X335756Y-349595D01*
X335677Y-349528D01*
X335602Y-349456D01*
X335584Y-349448D01*
X335569Y-349435D01*
X335473Y-349396D01*
X335379Y-349353D01*
X335359Y-349351D01*
X335341Y-349343D01*
X335174Y-349325D01*
X334268Y-349325D01*
X333375Y-348432D01*
X333375Y-336168D01*
X334268Y-335275D01*
X345532Y-335275D01*
X346425Y-336168D01*
X346425Y-337474D01*
X346428Y-337494D01*
X346426Y-337513D01*
X346448Y-337615D01*
X346464Y-337717D01*
X346474Y-337734D01*
X346478Y-337754D01*
X346531Y-337843D01*
X346580Y-337934D01*
X346594Y-337948D01*
X346604Y-337965D01*
X346683Y-338032D01*
X346758Y-338104D01*
X346776Y-338112D01*
X346791Y-338125D01*
X346887Y-338164D01*
X346981Y-338207D01*
X347001Y-338209D01*
X347019Y-338217D01*
X347186Y-338235D01*
X378054Y-338235D01*
X378144Y-338221D01*
X378235Y-338213D01*
X378264Y-338201D01*
X378296Y-338196D01*
X378377Y-338153D01*
X378461Y-338117D01*
X378493Y-338091D01*
X378514Y-338080D01*
X378536Y-338057D01*
X378592Y-338012D01*
X509669Y-206935D01*
X528117Y-206935D01*
X528207Y-206921D01*
X528298Y-206913D01*
X528328Y-206901D01*
X528360Y-206896D01*
X528440Y-206853D01*
X528524Y-206817D01*
X528556Y-206791D01*
X528577Y-206780D01*
X528581Y-206776D01*
X528582Y-206776D01*
X528600Y-206756D01*
X528655Y-206712D01*
X530687Y-204680D01*
X530729Y-204622D01*
X530778Y-204570D01*
X530800Y-204523D01*
X530831Y-204481D01*
X530852Y-204412D01*
X530882Y-204347D01*
X530888Y-204295D01*
X530903Y-204245D01*
X530901Y-204174D01*
X530909Y-204103D01*
X530898Y-204052D01*
X530897Y-204000D01*
X530872Y-203932D01*
X530857Y-203862D01*
X530830Y-203818D01*
X530812Y-203769D01*
X530767Y-203713D01*
X530731Y-203651D01*
X530691Y-203617D01*
X530659Y-203577D01*
X530598Y-203538D01*
X530544Y-203491D01*
X530495Y-203472D01*
X530452Y-203444D01*
X530382Y-203426D01*
X530316Y-203399D01*
X530244Y-203391D01*
X530213Y-203383D01*
X530190Y-203385D01*
X530149Y-203381D01*
X502683Y-203381D01*
X502593Y-203395D01*
X502502Y-203403D01*
X502472Y-203415D01*
X502440Y-203420D01*
X502360Y-203463D01*
X502276Y-203499D01*
X502244Y-203525D01*
X502223Y-203536D01*
X502201Y-203559D01*
X502145Y-203604D01*
X381684Y-324065D01*
X293399Y-324065D01*
X293309Y-324079D01*
X293218Y-324087D01*
X293188Y-324099D01*
X293156Y-324104D01*
X293076Y-324147D01*
X292992Y-324183D01*
X292960Y-324209D01*
X292939Y-324220D01*
X292917Y-324243D01*
X292861Y-324288D01*
X274948Y-342201D01*
X274895Y-342275D01*
X274835Y-342344D01*
X274823Y-342374D01*
X274804Y-342400D01*
X274777Y-342487D01*
X274743Y-342572D01*
X274739Y-342613D01*
X274732Y-342635D01*
X274733Y-342668D01*
X274725Y-342739D01*
X274725Y-344661D01*
X274739Y-344751D01*
X274747Y-344842D01*
X274759Y-344872D01*
X274764Y-344904D01*
X274807Y-344984D01*
X274843Y-345068D01*
X274869Y-345101D01*
X274880Y-345121D01*
X274903Y-345143D01*
X274948Y-345199D01*
X276365Y-346616D01*
X276365Y-354714D01*
X276368Y-354734D01*
X276366Y-354753D01*
X276388Y-354855D01*
X276404Y-354957D01*
X276414Y-354974D01*
X276418Y-354994D01*
X276471Y-355083D01*
X276520Y-355174D01*
X276534Y-355188D01*
X276544Y-355205D01*
X276623Y-355272D01*
X276698Y-355344D01*
X276716Y-355352D01*
X276731Y-355365D01*
X276827Y-355404D01*
X276921Y-355447D01*
X276941Y-355449D01*
X276959Y-355457D01*
X277126Y-355475D01*
X278432Y-355475D01*
X279325Y-356368D01*
X279325Y-367632D01*
X278432Y-368525D01*
X266168Y-368525D01*
G37*
%LPD*%
%LPC*%
G36*
X353868Y-438025D02*
X353868Y-438025D01*
X352975Y-437132D01*
X352975Y-425868D01*
X353305Y-425538D01*
X353317Y-425522D01*
X353333Y-425510D01*
X353389Y-425423D01*
X353449Y-425339D01*
X353455Y-425320D01*
X353466Y-425303D01*
X353491Y-425202D01*
X353521Y-425103D01*
X353521Y-425084D01*
X353526Y-425064D01*
X353518Y-424961D01*
X353515Y-424858D01*
X353508Y-424839D01*
X353507Y-424819D01*
X353466Y-424724D01*
X353431Y-424627D01*
X353418Y-424611D01*
X353410Y-424593D01*
X353305Y-424462D01*
X352975Y-424132D01*
X352975Y-412868D01*
X353868Y-411975D01*
X360461Y-411975D01*
X360551Y-411961D01*
X360642Y-411953D01*
X360672Y-411941D01*
X360704Y-411936D01*
X360784Y-411893D01*
X360868Y-411857D01*
X360900Y-411831D01*
X360921Y-411820D01*
X360943Y-411797D01*
X360999Y-411752D01*
X363427Y-409324D01*
X363469Y-409266D01*
X363519Y-409214D01*
X363541Y-409167D01*
X363571Y-409125D01*
X363592Y-409056D01*
X363622Y-408991D01*
X363628Y-408939D01*
X363643Y-408889D01*
X363641Y-408818D01*
X363649Y-408747D01*
X363638Y-408696D01*
X363637Y-408644D01*
X363612Y-408576D01*
X363597Y-408506D01*
X363570Y-408462D01*
X363552Y-408413D01*
X363508Y-408357D01*
X363471Y-408295D01*
X363431Y-408261D01*
X363399Y-408221D01*
X363338Y-408182D01*
X363284Y-408135D01*
X363236Y-408116D01*
X363192Y-408088D01*
X363122Y-408070D01*
X363056Y-408043D01*
X362984Y-408035D01*
X362953Y-408027D01*
X362930Y-408029D01*
X362889Y-408025D01*
X353868Y-408025D01*
X352975Y-407132D01*
X352975Y-395868D01*
X353868Y-394975D01*
X355174Y-394975D01*
X355194Y-394972D01*
X355213Y-394974D01*
X355315Y-394952D01*
X355417Y-394936D01*
X355434Y-394926D01*
X355454Y-394922D01*
X355543Y-394869D01*
X355634Y-394820D01*
X355648Y-394806D01*
X355665Y-394796D01*
X355732Y-394717D01*
X355804Y-394642D01*
X355812Y-394624D01*
X355825Y-394609D01*
X355864Y-394513D01*
X355907Y-394419D01*
X355909Y-394399D01*
X355917Y-394381D01*
X355935Y-394214D01*
X355935Y-393755D01*
X355921Y-393665D01*
X355913Y-393574D01*
X355901Y-393545D01*
X355896Y-393513D01*
X355853Y-393432D01*
X355817Y-393348D01*
X355791Y-393316D01*
X355780Y-393295D01*
X355757Y-393273D01*
X355712Y-393217D01*
X354693Y-392198D01*
X354693Y-387802D01*
X357802Y-384693D01*
X362198Y-384693D01*
X365307Y-387802D01*
X365307Y-392198D01*
X364288Y-393217D01*
X364235Y-393291D01*
X364175Y-393361D01*
X364163Y-393391D01*
X364144Y-393417D01*
X364117Y-393504D01*
X364083Y-393589D01*
X364079Y-393630D01*
X364072Y-393652D01*
X364073Y-393684D01*
X364065Y-393755D01*
X364065Y-394214D01*
X364067Y-394227D01*
X364066Y-394237D01*
X364067Y-394243D01*
X364066Y-394253D01*
X364088Y-394355D01*
X364104Y-394457D01*
X364114Y-394474D01*
X364118Y-394494D01*
X364171Y-394583D01*
X364220Y-394674D01*
X364234Y-394688D01*
X364244Y-394705D01*
X364323Y-394772D01*
X364398Y-394844D01*
X364416Y-394852D01*
X364431Y-394865D01*
X364527Y-394904D01*
X364621Y-394947D01*
X364641Y-394949D01*
X364659Y-394957D01*
X364826Y-394975D01*
X366132Y-394975D01*
X367025Y-395868D01*
X367025Y-403889D01*
X367036Y-403960D01*
X367038Y-404032D01*
X367056Y-404080D01*
X367064Y-404132D01*
X367098Y-404195D01*
X367123Y-404263D01*
X367155Y-404303D01*
X367180Y-404349D01*
X367232Y-404399D01*
X367276Y-404455D01*
X367320Y-404483D01*
X367358Y-404519D01*
X367423Y-404549D01*
X367483Y-404588D01*
X367534Y-404600D01*
X367581Y-404622D01*
X367652Y-404630D01*
X367722Y-404648D01*
X367774Y-404644D01*
X367825Y-404649D01*
X367896Y-404634D01*
X367967Y-404628D01*
X368015Y-404608D01*
X368066Y-404597D01*
X368127Y-404560D01*
X368193Y-404532D01*
X368249Y-404487D01*
X368277Y-404471D01*
X368292Y-404453D01*
X368324Y-404427D01*
X526128Y-246623D01*
X528732Y-244019D01*
X530149Y-244019D01*
X530220Y-244008D01*
X530291Y-244006D01*
X530340Y-243988D01*
X530392Y-243980D01*
X530455Y-243946D01*
X530522Y-243921D01*
X530563Y-243889D01*
X530609Y-243864D01*
X530658Y-243812D01*
X530714Y-243768D01*
X530743Y-243724D01*
X530778Y-243686D01*
X530809Y-243621D01*
X530847Y-243561D01*
X530860Y-243510D01*
X530882Y-243463D01*
X530890Y-243392D01*
X530907Y-243322D01*
X530903Y-243270D01*
X530909Y-243219D01*
X530894Y-243148D01*
X530888Y-243077D01*
X530868Y-243029D01*
X530857Y-242978D01*
X530820Y-242917D01*
X530792Y-242851D01*
X530747Y-242795D01*
X530731Y-242767D01*
X530713Y-242752D01*
X530687Y-242720D01*
X528655Y-240688D01*
X528581Y-240635D01*
X528512Y-240575D01*
X528482Y-240563D01*
X528455Y-240544D01*
X528368Y-240517D01*
X528284Y-240483D01*
X528243Y-240479D01*
X528220Y-240472D01*
X528188Y-240473D01*
X528117Y-240465D01*
X515599Y-240465D01*
X515509Y-240479D01*
X515418Y-240487D01*
X515388Y-240499D01*
X515356Y-240504D01*
X515276Y-240547D01*
X515192Y-240583D01*
X515160Y-240609D01*
X515139Y-240620D01*
X515117Y-240643D01*
X515061Y-240688D01*
X385530Y-370219D01*
X385477Y-370293D01*
X385417Y-370362D01*
X385405Y-370392D01*
X385386Y-370418D01*
X385359Y-370505D01*
X385325Y-370590D01*
X385321Y-370631D01*
X385314Y-370654D01*
X385315Y-370686D01*
X385307Y-370757D01*
X385307Y-372198D01*
X382198Y-375307D01*
X377802Y-375307D01*
X374693Y-372198D01*
X374693Y-367802D01*
X377802Y-364693D01*
X379243Y-364693D01*
X379333Y-364679D01*
X379424Y-364671D01*
X379454Y-364659D01*
X379486Y-364654D01*
X379566Y-364611D01*
X379650Y-364575D01*
X379682Y-364549D01*
X379703Y-364538D01*
X379725Y-364515D01*
X379781Y-364470D01*
X511916Y-232335D01*
X528117Y-232335D01*
X528207Y-232321D01*
X528298Y-232313D01*
X528328Y-232301D01*
X528360Y-232296D01*
X528440Y-232253D01*
X528524Y-232217D01*
X528556Y-232191D01*
X528577Y-232180D01*
X528599Y-232157D01*
X528655Y-232112D01*
X533512Y-227255D01*
X541088Y-227255D01*
X546445Y-232612D01*
X546445Y-236193D01*
X546456Y-236263D01*
X546458Y-236335D01*
X546476Y-236384D01*
X546484Y-236436D01*
X546518Y-236499D01*
X546543Y-236566D01*
X546575Y-236607D01*
X546600Y-236653D01*
X546652Y-236702D01*
X546696Y-236758D01*
X546740Y-236786D01*
X546778Y-236822D01*
X546843Y-236852D01*
X546903Y-236891D01*
X546954Y-236904D01*
X547001Y-236926D01*
X547072Y-236934D01*
X547142Y-236951D01*
X547194Y-236947D01*
X547245Y-236953D01*
X547316Y-236938D01*
X547387Y-236932D01*
X547435Y-236912D01*
X547486Y-236901D01*
X547547Y-236864D01*
X547613Y-236836D01*
X547669Y-236791D01*
X547697Y-236775D01*
X547712Y-236757D01*
X547744Y-236731D01*
X552140Y-232335D01*
X553517Y-232335D01*
X553607Y-232321D01*
X553698Y-232313D01*
X553728Y-232301D01*
X553760Y-232296D01*
X553840Y-232253D01*
X553924Y-232217D01*
X553956Y-232191D01*
X553977Y-232180D01*
X553999Y-232157D01*
X554055Y-232112D01*
X558912Y-227255D01*
X566488Y-227255D01*
X571845Y-232612D01*
X571845Y-240188D01*
X566488Y-245545D01*
X558912Y-245545D01*
X555208Y-241841D01*
X555192Y-241829D01*
X555179Y-241813D01*
X555092Y-241757D01*
X555008Y-241697D01*
X554989Y-241691D01*
X554973Y-241680D01*
X554872Y-241655D01*
X554773Y-241625D01*
X554753Y-241625D01*
X554734Y-241620D01*
X554631Y-241628D01*
X554527Y-241631D01*
X554509Y-241638D01*
X554489Y-241639D01*
X554394Y-241680D01*
X554296Y-241716D01*
X554281Y-241728D01*
X554262Y-241736D01*
X554131Y-241841D01*
X543823Y-252149D01*
X542419Y-252149D01*
X542348Y-252160D01*
X542277Y-252162D01*
X542228Y-252180D01*
X542176Y-252188D01*
X542113Y-252222D01*
X542046Y-252247D01*
X542005Y-252279D01*
X541959Y-252304D01*
X541910Y-252356D01*
X541854Y-252400D01*
X541825Y-252444D01*
X541790Y-252482D01*
X541759Y-252547D01*
X541721Y-252607D01*
X541708Y-252658D01*
X541686Y-252705D01*
X541678Y-252776D01*
X541661Y-252846D01*
X541665Y-252898D01*
X541659Y-252949D01*
X541674Y-253020D01*
X541680Y-253091D01*
X541700Y-253139D01*
X541711Y-253190D01*
X541748Y-253251D01*
X541776Y-253317D01*
X541821Y-253373D01*
X541837Y-253401D01*
X541855Y-253416D01*
X541881Y-253448D01*
X546445Y-258012D01*
X546445Y-265588D01*
X541088Y-270945D01*
X533512Y-270945D01*
X528155Y-265588D01*
X528155Y-257931D01*
X528152Y-257913D01*
X528154Y-257895D01*
X528143Y-257844D01*
X528142Y-257788D01*
X528124Y-257739D01*
X528116Y-257688D01*
X528105Y-257668D01*
X528102Y-257654D01*
X528078Y-257615D01*
X528057Y-257557D01*
X528025Y-257517D01*
X528000Y-257471D01*
X527981Y-257453D01*
X527976Y-257443D01*
X527945Y-257417D01*
X527904Y-257365D01*
X527860Y-257337D01*
X527822Y-257301D01*
X527795Y-257289D01*
X527789Y-257283D01*
X527754Y-257270D01*
X527697Y-257232D01*
X527646Y-257220D01*
X527599Y-257198D01*
X527568Y-257194D01*
X527561Y-257191D01*
X527513Y-257186D01*
X527458Y-257172D01*
X527417Y-257176D01*
X527394Y-257173D01*
X527391Y-257173D01*
X527385Y-257174D01*
X527355Y-257171D01*
X527284Y-257186D01*
X527213Y-257192D01*
X527173Y-257209D01*
X527148Y-257213D01*
X527139Y-257218D01*
X527114Y-257223D01*
X527053Y-257260D01*
X526987Y-257288D01*
X526949Y-257318D01*
X526931Y-257328D01*
X526920Y-257339D01*
X526903Y-257349D01*
X526888Y-257367D01*
X526856Y-257393D01*
X367248Y-417001D01*
X367195Y-417075D01*
X367135Y-417144D01*
X367123Y-417174D01*
X367104Y-417200D01*
X367077Y-417287D01*
X367043Y-417372D01*
X367039Y-417413D01*
X367032Y-417435D01*
X367033Y-417468D01*
X367025Y-417539D01*
X367025Y-424132D01*
X366695Y-424462D01*
X366683Y-424478D01*
X366667Y-424490D01*
X366611Y-424577D01*
X366551Y-424661D01*
X366545Y-424680D01*
X366534Y-424697D01*
X366509Y-424798D01*
X366479Y-424897D01*
X366479Y-424916D01*
X366474Y-424936D01*
X366482Y-425039D01*
X366485Y-425142D01*
X366492Y-425161D01*
X366493Y-425181D01*
X366534Y-425276D01*
X366569Y-425373D01*
X366582Y-425389D01*
X366590Y-425407D01*
X366695Y-425538D01*
X367025Y-425868D01*
X367025Y-437132D01*
X366132Y-438025D01*
X353868Y-438025D01*
G37*
%LPD*%
%LPC*%
G36*
X287828Y-179325D02*
X287828Y-179325D01*
X286935Y-178432D01*
X286935Y-177190D01*
X286932Y-177170D01*
X286934Y-177151D01*
X286912Y-177049D01*
X286896Y-176947D01*
X286886Y-176930D01*
X286882Y-176910D01*
X286829Y-176821D01*
X286780Y-176730D01*
X286766Y-176716D01*
X286756Y-176699D01*
X286677Y-176632D01*
X286602Y-176560D01*
X286584Y-176552D01*
X286569Y-176539D01*
X286473Y-176500D01*
X286379Y-176457D01*
X286359Y-176455D01*
X286341Y-176447D01*
X286174Y-176429D01*
X285093Y-176429D01*
X275816Y-167152D01*
X275742Y-167099D01*
X275673Y-167039D01*
X275642Y-167027D01*
X275616Y-167008D01*
X275529Y-166981D01*
X275444Y-166947D01*
X275403Y-166943D01*
X275381Y-166936D01*
X275349Y-166937D01*
X275278Y-166929D01*
X258973Y-166929D01*
X254211Y-162167D01*
X254211Y-149433D01*
X258973Y-144671D01*
X284778Y-144671D01*
X284868Y-144657D01*
X284959Y-144649D01*
X284988Y-144637D01*
X285020Y-144632D01*
X285101Y-144589D01*
X285185Y-144553D01*
X285217Y-144527D01*
X285238Y-144516D01*
X285260Y-144493D01*
X285316Y-144448D01*
X289812Y-139952D01*
X289865Y-139878D01*
X289925Y-139809D01*
X289937Y-139778D01*
X289956Y-139752D01*
X289983Y-139665D01*
X290017Y-139580D01*
X290021Y-139539D01*
X290028Y-139517D01*
X290027Y-139485D01*
X290035Y-139414D01*
X290035Y-113050D01*
X290024Y-112979D01*
X290022Y-112907D01*
X290004Y-112858D01*
X289996Y-112807D01*
X289962Y-112744D01*
X289937Y-112676D01*
X289905Y-112636D01*
X289880Y-112589D01*
X289828Y-112540D01*
X289784Y-112484D01*
X289740Y-112456D01*
X289702Y-112420D01*
X289637Y-112390D01*
X289577Y-112351D01*
X289526Y-112338D01*
X289479Y-112316D01*
X289408Y-112309D01*
X289338Y-112291D01*
X289286Y-112295D01*
X289235Y-112289D01*
X289164Y-112305D01*
X289093Y-112310D01*
X289045Y-112331D01*
X288994Y-112342D01*
X288933Y-112378D01*
X288867Y-112407D01*
X288811Y-112451D01*
X288783Y-112468D01*
X288768Y-112486D01*
X288736Y-112511D01*
X286387Y-114860D01*
X282373Y-116523D01*
X278027Y-116523D01*
X274013Y-114860D01*
X270940Y-111787D01*
X269277Y-107773D01*
X269277Y-103427D01*
X270940Y-99413D01*
X274013Y-96340D01*
X278027Y-94677D01*
X282373Y-94677D01*
X286387Y-96340D01*
X288736Y-98689D01*
X288794Y-98731D01*
X288846Y-98780D01*
X288893Y-98802D01*
X288935Y-98832D01*
X289004Y-98853D01*
X289069Y-98884D01*
X289121Y-98889D01*
X289171Y-98905D01*
X289242Y-98903D01*
X289313Y-98911D01*
X289364Y-98900D01*
X289416Y-98898D01*
X289484Y-98874D01*
X289554Y-98858D01*
X289599Y-98832D01*
X289647Y-98814D01*
X289703Y-98769D01*
X289765Y-98732D01*
X289799Y-98693D01*
X289839Y-98660D01*
X289878Y-98600D01*
X289925Y-98545D01*
X289944Y-98497D01*
X289972Y-98453D01*
X289990Y-98384D01*
X290017Y-98317D01*
X290025Y-98246D01*
X290033Y-98215D01*
X290031Y-98191D01*
X290035Y-98150D01*
X290035Y-87848D01*
X290016Y-87733D01*
X289999Y-87617D01*
X289997Y-87611D01*
X289996Y-87605D01*
X289941Y-87502D01*
X289888Y-87397D01*
X289883Y-87393D01*
X289880Y-87388D01*
X289796Y-87308D01*
X289712Y-87225D01*
X289706Y-87222D01*
X289702Y-87218D01*
X289685Y-87210D01*
X289565Y-87144D01*
X287913Y-86460D01*
X284840Y-83387D01*
X283177Y-79373D01*
X283177Y-75027D01*
X284840Y-71013D01*
X287913Y-67940D01*
X291927Y-66277D01*
X296273Y-66277D01*
X300287Y-67940D01*
X303360Y-71013D01*
X305023Y-75027D01*
X305023Y-79373D01*
X303360Y-83387D01*
X300287Y-86460D01*
X298635Y-87144D01*
X298535Y-87206D01*
X298435Y-87266D01*
X298431Y-87271D01*
X298426Y-87274D01*
X298351Y-87364D01*
X298275Y-87453D01*
X298273Y-87459D01*
X298269Y-87463D01*
X298227Y-87572D01*
X298183Y-87681D01*
X298182Y-87689D01*
X298181Y-87693D01*
X298180Y-87711D01*
X298165Y-87848D01*
X298165Y-98050D01*
X298176Y-98121D01*
X298178Y-98193D01*
X298196Y-98242D01*
X298204Y-98293D01*
X298238Y-98356D01*
X298263Y-98424D01*
X298295Y-98464D01*
X298320Y-98511D01*
X298372Y-98560D01*
X298416Y-98616D01*
X298460Y-98644D01*
X298498Y-98680D01*
X298563Y-98710D01*
X298623Y-98749D01*
X298674Y-98762D01*
X298721Y-98784D01*
X298792Y-98791D01*
X298862Y-98809D01*
X298914Y-98805D01*
X298965Y-98811D01*
X299036Y-98795D01*
X299107Y-98790D01*
X299155Y-98769D01*
X299206Y-98758D01*
X299267Y-98722D01*
X299333Y-98693D01*
X299389Y-98649D01*
X299417Y-98632D01*
X299432Y-98614D01*
X299464Y-98589D01*
X301713Y-96340D01*
X305727Y-94677D01*
X310073Y-94677D01*
X314087Y-96340D01*
X317160Y-99413D01*
X318823Y-103427D01*
X318823Y-107773D01*
X317160Y-111787D01*
X314087Y-114860D01*
X310073Y-116523D01*
X305727Y-116523D01*
X301713Y-114860D01*
X299464Y-112611D01*
X299406Y-112569D01*
X299354Y-112520D01*
X299307Y-112498D01*
X299265Y-112468D01*
X299196Y-112447D01*
X299131Y-112416D01*
X299079Y-112411D01*
X299029Y-112395D01*
X298958Y-112397D01*
X298887Y-112389D01*
X298836Y-112400D01*
X298784Y-112402D01*
X298716Y-112426D01*
X298646Y-112442D01*
X298601Y-112468D01*
X298553Y-112486D01*
X298497Y-112531D01*
X298435Y-112568D01*
X298401Y-112607D01*
X298361Y-112640D01*
X298322Y-112700D01*
X298275Y-112755D01*
X298256Y-112803D01*
X298228Y-112847D01*
X298210Y-112916D01*
X298183Y-112983D01*
X298175Y-113054D01*
X298167Y-113085D01*
X298169Y-113109D01*
X298165Y-113150D01*
X298165Y-143096D01*
X291285Y-149976D01*
X291243Y-150034D01*
X291194Y-150086D01*
X291172Y-150133D01*
X291142Y-150175D01*
X291121Y-150244D01*
X291090Y-150309D01*
X291085Y-150361D01*
X291069Y-150411D01*
X291071Y-150482D01*
X291063Y-150553D01*
X291074Y-150604D01*
X291076Y-150656D01*
X291100Y-150724D01*
X291116Y-150794D01*
X291142Y-150839D01*
X291160Y-150887D01*
X291205Y-150943D01*
X291242Y-151005D01*
X291281Y-151039D01*
X291314Y-151079D01*
X291374Y-151118D01*
X291429Y-151165D01*
X291477Y-151184D01*
X291521Y-151212D01*
X291590Y-151230D01*
X291657Y-151257D01*
X291728Y-151265D01*
X291759Y-151273D01*
X291783Y-151271D01*
X291824Y-151275D01*
X301092Y-151275D01*
X301329Y-151512D01*
X301403Y-151566D01*
X301472Y-151625D01*
X301502Y-151637D01*
X301528Y-151656D01*
X301615Y-151683D01*
X301700Y-151717D01*
X301741Y-151721D01*
X301763Y-151728D01*
X301796Y-151727D01*
X301867Y-151735D01*
X302101Y-151735D01*
X302191Y-151721D01*
X302282Y-151713D01*
X302312Y-151701D01*
X302344Y-151696D01*
X302424Y-151653D01*
X302508Y-151617D01*
X302541Y-151591D01*
X302561Y-151580D01*
X302583Y-151557D01*
X302639Y-151512D01*
X305052Y-149099D01*
X305105Y-149025D01*
X305165Y-148956D01*
X305177Y-148926D01*
X305196Y-148900D01*
X305223Y-148813D01*
X305257Y-148728D01*
X305261Y-148687D01*
X305268Y-148665D01*
X305267Y-148632D01*
X305275Y-148561D01*
X305275Y-141968D01*
X306168Y-141075D01*
X318432Y-141075D01*
X319325Y-141968D01*
X319325Y-153232D01*
X318432Y-154125D01*
X311839Y-154125D01*
X311749Y-154139D01*
X311658Y-154147D01*
X311628Y-154159D01*
X311596Y-154164D01*
X311516Y-154207D01*
X311432Y-154243D01*
X311399Y-154269D01*
X311379Y-154280D01*
X311357Y-154303D01*
X311301Y-154348D01*
X308388Y-157261D01*
X306955Y-158694D01*
X306913Y-158752D01*
X306863Y-158804D01*
X306841Y-158851D01*
X306811Y-158893D01*
X306790Y-158962D01*
X306760Y-159027D01*
X306754Y-159079D01*
X306739Y-159129D01*
X306741Y-159200D01*
X306733Y-159271D01*
X306744Y-159322D01*
X306745Y-159374D01*
X306770Y-159442D01*
X306785Y-159512D01*
X306812Y-159557D01*
X306830Y-159605D01*
X306874Y-159661D01*
X306911Y-159723D01*
X306951Y-159757D01*
X306983Y-159797D01*
X307044Y-159836D01*
X307098Y-159883D01*
X307146Y-159902D01*
X307190Y-159930D01*
X307260Y-159948D01*
X307326Y-159975D01*
X307398Y-159983D01*
X307429Y-159991D01*
X307452Y-159989D01*
X307493Y-159993D01*
X312198Y-159993D01*
X313217Y-161012D01*
X313291Y-161065D01*
X313361Y-161125D01*
X313391Y-161137D01*
X313417Y-161156D01*
X313504Y-161183D01*
X313589Y-161217D01*
X313630Y-161221D01*
X313652Y-161228D01*
X313684Y-161227D01*
X313755Y-161235D01*
X322514Y-161235D01*
X322534Y-161232D01*
X322553Y-161234D01*
X322655Y-161212D01*
X322757Y-161196D01*
X322774Y-161186D01*
X322794Y-161182D01*
X322883Y-161129D01*
X322974Y-161080D01*
X322988Y-161066D01*
X323005Y-161056D01*
X323072Y-160977D01*
X323144Y-160902D01*
X323152Y-160884D01*
X323165Y-160869D01*
X323204Y-160773D01*
X323247Y-160679D01*
X323249Y-160659D01*
X323257Y-160641D01*
X323275Y-160474D01*
X323275Y-158568D01*
X324168Y-157675D01*
X325982Y-157675D01*
X326002Y-157672D01*
X326021Y-157674D01*
X326123Y-157652D01*
X326225Y-157636D01*
X326242Y-157626D01*
X326262Y-157622D01*
X326351Y-157569D01*
X326442Y-157520D01*
X326456Y-157506D01*
X326473Y-157496D01*
X326540Y-157417D01*
X326612Y-157342D01*
X326620Y-157324D01*
X326633Y-157309D01*
X326672Y-157213D01*
X326715Y-157119D01*
X326717Y-157099D01*
X326725Y-157081D01*
X326743Y-156914D01*
X326743Y-156227D01*
X335052Y-147918D01*
X335105Y-147844D01*
X335165Y-147774D01*
X335177Y-147744D01*
X335196Y-147718D01*
X335223Y-147631D01*
X335257Y-147546D01*
X335261Y-147505D01*
X335268Y-147483D01*
X335267Y-147451D01*
X335275Y-147379D01*
X335275Y-140068D01*
X336168Y-139175D01*
X348432Y-139175D01*
X349325Y-140068D01*
X349325Y-151332D01*
X348432Y-152225D01*
X341121Y-152225D01*
X341030Y-152239D01*
X340940Y-152247D01*
X340910Y-152259D01*
X340878Y-152264D01*
X340797Y-152307D01*
X340713Y-152343D01*
X340681Y-152369D01*
X340660Y-152380D01*
X340638Y-152403D01*
X340582Y-152448D01*
X336431Y-156599D01*
X336420Y-156615D01*
X336404Y-156627D01*
X336348Y-156714D01*
X336288Y-156798D01*
X336282Y-156817D01*
X336271Y-156834D01*
X336246Y-156935D01*
X336216Y-157033D01*
X336216Y-157053D01*
X336211Y-157073D01*
X336219Y-157176D01*
X336222Y-157279D01*
X336229Y-157298D01*
X336230Y-157318D01*
X336271Y-157413D01*
X336306Y-157510D01*
X336319Y-157526D01*
X336327Y-157544D01*
X336431Y-157675D01*
X337325Y-158568D01*
X337325Y-169832D01*
X336432Y-170725D01*
X324168Y-170725D01*
X323133Y-169689D01*
X323120Y-169666D01*
X323106Y-169652D01*
X323096Y-169635D01*
X323017Y-169568D01*
X322942Y-169496D01*
X322924Y-169488D01*
X322909Y-169475D01*
X322813Y-169436D01*
X322719Y-169393D01*
X322699Y-169391D01*
X322681Y-169383D01*
X322514Y-169365D01*
X313755Y-169365D01*
X313665Y-169379D01*
X313574Y-169387D01*
X313545Y-169399D01*
X313513Y-169404D01*
X313432Y-169447D01*
X313348Y-169483D01*
X313316Y-169509D01*
X313295Y-169520D01*
X313273Y-169543D01*
X313217Y-169588D01*
X312198Y-170607D01*
X307802Y-170607D01*
X306783Y-169588D01*
X306709Y-169535D01*
X306639Y-169475D01*
X306609Y-169463D01*
X306583Y-169444D01*
X306496Y-169417D01*
X306411Y-169383D01*
X306370Y-169379D01*
X306348Y-169372D01*
X306316Y-169373D01*
X306245Y-169365D01*
X302019Y-169365D01*
X301948Y-169376D01*
X301876Y-169378D01*
X301827Y-169396D01*
X301776Y-169404D01*
X301713Y-169438D01*
X301645Y-169463D01*
X301605Y-169495D01*
X301559Y-169520D01*
X301509Y-169572D01*
X301453Y-169616D01*
X301425Y-169660D01*
X301389Y-169698D01*
X301359Y-169763D01*
X301320Y-169823D01*
X301308Y-169874D01*
X301286Y-169921D01*
X301278Y-169992D01*
X301260Y-170062D01*
X301264Y-170114D01*
X301259Y-170165D01*
X301274Y-170236D01*
X301279Y-170307D01*
X301300Y-170355D01*
X301311Y-170406D01*
X301348Y-170467D01*
X301376Y-170533D01*
X301421Y-170589D01*
X301437Y-170617D01*
X301455Y-170632D01*
X301481Y-170664D01*
X301985Y-171168D01*
X301985Y-178432D01*
X301092Y-179325D01*
X287828Y-179325D01*
G37*
%LPD*%
%LPC*%
G36*
X545954Y-80735D02*
X545954Y-80735D01*
X538137Y-78640D01*
X531128Y-74594D01*
X525406Y-68872D01*
X521360Y-61863D01*
X519265Y-54046D01*
X519265Y-45954D01*
X521360Y-38137D01*
X525406Y-31128D01*
X531128Y-25406D01*
X538137Y-21360D01*
X545954Y-19265D01*
X554046Y-19265D01*
X561863Y-21360D01*
X568872Y-25406D01*
X574594Y-31128D01*
X578640Y-38137D01*
X580735Y-45954D01*
X580735Y-54046D01*
X578640Y-61863D01*
X574594Y-68872D01*
X568872Y-74594D01*
X561863Y-78640D01*
X554046Y-80735D01*
X545954Y-80735D01*
G37*
%LPD*%
%LPC*%
G36*
X545954Y-580735D02*
X545954Y-580735D01*
X538137Y-578640D01*
X531128Y-574594D01*
X525406Y-568872D01*
X521360Y-561863D01*
X519265Y-554046D01*
X519265Y-545954D01*
X521360Y-538137D01*
X525406Y-531128D01*
X531128Y-525406D01*
X538137Y-521360D01*
X545954Y-519265D01*
X554046Y-519265D01*
X561863Y-521360D01*
X568872Y-525406D01*
X574594Y-531128D01*
X578640Y-538137D01*
X580735Y-545954D01*
X580735Y-554046D01*
X578640Y-561863D01*
X574594Y-568872D01*
X568872Y-574594D01*
X561863Y-578640D01*
X554046Y-580735D01*
X545954Y-580735D01*
G37*
%LPD*%
%LPC*%
G36*
X45954Y-580735D02*
X45954Y-580735D01*
X38137Y-578640D01*
X31128Y-574594D01*
X25406Y-568872D01*
X21360Y-561863D01*
X19265Y-554046D01*
X19265Y-545954D01*
X21360Y-538137D01*
X25406Y-531128D01*
X31128Y-525406D01*
X38137Y-521360D01*
X45954Y-519265D01*
X54046Y-519265D01*
X61863Y-521360D01*
X68872Y-525406D01*
X74594Y-531128D01*
X78640Y-538137D01*
X80735Y-545954D01*
X80735Y-554046D01*
X78640Y-561863D01*
X74594Y-568872D01*
X68872Y-574594D01*
X61863Y-578640D01*
X54046Y-580735D01*
X45954Y-580735D01*
G37*
%LPD*%
%LPC*%
G36*
X45954Y-80735D02*
X45954Y-80735D01*
X38137Y-78640D01*
X31128Y-74594D01*
X25406Y-68872D01*
X21360Y-61863D01*
X19265Y-54046D01*
X19265Y-45954D01*
X21360Y-38137D01*
X25406Y-31128D01*
X31128Y-25406D01*
X38137Y-21360D01*
X45954Y-19265D01*
X54046Y-19265D01*
X61863Y-21360D01*
X68872Y-25406D01*
X74594Y-31128D01*
X78640Y-38137D01*
X80735Y-45954D01*
X80735Y-54046D01*
X78640Y-61863D01*
X74594Y-68872D01*
X68872Y-74594D01*
X61863Y-78640D01*
X54046Y-80735D01*
X45954Y-80735D01*
G37*
%LPD*%
%LPC*%
G36*
X168474Y-219427D02*
X168474Y-219427D01*
X167581Y-218534D01*
X167581Y-210666D01*
X168474Y-209773D01*
X178029Y-209773D01*
X178119Y-209759D01*
X178210Y-209751D01*
X178240Y-209739D01*
X178272Y-209734D01*
X178352Y-209691D01*
X178436Y-209655D01*
X178469Y-209629D01*
X178489Y-209618D01*
X178511Y-209595D01*
X178567Y-209550D01*
X180091Y-208026D01*
X180133Y-207968D01*
X180183Y-207916D01*
X180205Y-207869D01*
X180235Y-207827D01*
X180256Y-207758D01*
X180286Y-207693D01*
X180292Y-207641D01*
X180307Y-207591D01*
X180305Y-207520D01*
X180313Y-207449D01*
X180302Y-207398D01*
X180301Y-207346D01*
X180276Y-207278D01*
X180261Y-207208D01*
X180234Y-207163D01*
X180216Y-207115D01*
X180172Y-207059D01*
X180135Y-206997D01*
X180095Y-206963D01*
X180063Y-206923D01*
X180002Y-206884D01*
X179948Y-206837D01*
X179900Y-206818D01*
X179856Y-206790D01*
X179786Y-206772D01*
X179720Y-206745D01*
X179648Y-206737D01*
X179617Y-206729D01*
X179594Y-206731D01*
X179553Y-206727D01*
X168474Y-206727D01*
X167935Y-206188D01*
X167861Y-206135D01*
X167792Y-206075D01*
X167762Y-206063D01*
X167736Y-206044D01*
X167649Y-206017D01*
X167564Y-205983D01*
X167523Y-205979D01*
X167501Y-205972D01*
X167468Y-205973D01*
X167397Y-205965D01*
X150216Y-205965D01*
X149781Y-205530D01*
X149707Y-205477D01*
X149638Y-205417D01*
X149608Y-205405D01*
X149582Y-205386D01*
X149495Y-205359D01*
X149410Y-205325D01*
X149369Y-205321D01*
X149346Y-205314D01*
X149314Y-205315D01*
X149243Y-205307D01*
X147802Y-205307D01*
X144693Y-202198D01*
X144693Y-197802D01*
X147802Y-194693D01*
X152198Y-194693D01*
X155117Y-197612D01*
X155191Y-197665D01*
X155261Y-197725D01*
X155291Y-197737D01*
X155317Y-197756D01*
X155404Y-197783D01*
X155489Y-197817D01*
X155530Y-197821D01*
X155552Y-197828D01*
X155584Y-197827D01*
X155655Y-197835D01*
X167397Y-197835D01*
X167487Y-197821D01*
X167578Y-197813D01*
X167608Y-197801D01*
X167640Y-197796D01*
X167721Y-197753D01*
X167804Y-197717D01*
X167837Y-197691D01*
X167857Y-197680D01*
X167879Y-197657D01*
X167935Y-197612D01*
X168474Y-197073D01*
X178029Y-197073D01*
X178119Y-197059D01*
X178210Y-197051D01*
X178240Y-197039D01*
X178272Y-197034D01*
X178352Y-196991D01*
X178436Y-196955D01*
X178468Y-196929D01*
X178489Y-196918D01*
X178511Y-196895D01*
X178567Y-196850D01*
X246878Y-128539D01*
X249482Y-125935D01*
X276245Y-125935D01*
X276335Y-125921D01*
X276426Y-125913D01*
X276455Y-125901D01*
X276487Y-125896D01*
X276568Y-125853D01*
X276652Y-125817D01*
X276684Y-125791D01*
X276705Y-125780D01*
X276727Y-125757D01*
X276783Y-125712D01*
X277802Y-124693D01*
X282198Y-124693D01*
X285307Y-127802D01*
X285307Y-132198D01*
X282198Y-135307D01*
X277802Y-135307D01*
X276783Y-134288D01*
X276709Y-134235D01*
X276639Y-134175D01*
X276609Y-134163D01*
X276583Y-134144D01*
X276496Y-134117D01*
X276411Y-134083D01*
X276370Y-134079D01*
X276348Y-134072D01*
X276316Y-134073D01*
X276245Y-134065D01*
X253165Y-134065D01*
X253075Y-134079D01*
X252984Y-134087D01*
X252954Y-134099D01*
X252922Y-134104D01*
X252842Y-134147D01*
X252758Y-134183D01*
X252726Y-134209D01*
X252705Y-134220D01*
X252683Y-134243D01*
X252627Y-134288D01*
X190488Y-196427D01*
X190476Y-196443D01*
X190460Y-196455D01*
X190404Y-196543D01*
X190344Y-196627D01*
X190338Y-196646D01*
X190327Y-196662D01*
X190302Y-196763D01*
X190272Y-196862D01*
X190272Y-196882D01*
X190267Y-196901D01*
X190275Y-197004D01*
X190278Y-197107D01*
X190285Y-197126D01*
X190286Y-197146D01*
X190327Y-197241D01*
X190363Y-197338D01*
X190375Y-197354D01*
X190383Y-197372D01*
X190488Y-197503D01*
X190951Y-197966D01*
X190951Y-201838D01*
X190962Y-201909D01*
X190964Y-201981D01*
X190982Y-202030D01*
X190990Y-202081D01*
X191024Y-202145D01*
X191049Y-202212D01*
X191081Y-202253D01*
X191106Y-202299D01*
X191158Y-202348D01*
X191202Y-202404D01*
X191246Y-202432D01*
X191284Y-202468D01*
X191349Y-202498D01*
X191409Y-202537D01*
X191460Y-202550D01*
X191507Y-202572D01*
X191578Y-202579D01*
X191648Y-202597D01*
X191700Y-202593D01*
X191751Y-202599D01*
X191822Y-202583D01*
X191893Y-202578D01*
X191941Y-202558D01*
X191992Y-202546D01*
X192053Y-202510D01*
X192119Y-202482D01*
X192175Y-202437D01*
X192203Y-202420D01*
X192218Y-202402D01*
X192250Y-202377D01*
X228692Y-165935D01*
X236245Y-165935D01*
X236335Y-165921D01*
X236426Y-165913D01*
X236455Y-165901D01*
X236487Y-165896D01*
X236568Y-165853D01*
X236652Y-165817D01*
X236684Y-165791D01*
X236705Y-165780D01*
X236727Y-165757D01*
X236783Y-165712D01*
X237802Y-164693D01*
X242198Y-164693D01*
X245307Y-167802D01*
X245307Y-172198D01*
X242198Y-175307D01*
X237802Y-175307D01*
X236783Y-174288D01*
X236709Y-174235D01*
X236639Y-174175D01*
X236609Y-174163D01*
X236583Y-174144D01*
X236496Y-174117D01*
X236411Y-174083D01*
X236370Y-174079D01*
X236348Y-174072D01*
X236316Y-174073D01*
X236245Y-174065D01*
X232374Y-174065D01*
X232284Y-174079D01*
X232193Y-174087D01*
X232164Y-174099D01*
X232132Y-174104D01*
X232051Y-174147D01*
X231967Y-174183D01*
X231935Y-174209D01*
X231914Y-174220D01*
X231892Y-174243D01*
X231836Y-174288D01*
X192793Y-213331D01*
X191712Y-213331D01*
X191692Y-213334D01*
X191673Y-213332D01*
X191571Y-213354D01*
X191469Y-213370D01*
X191452Y-213380D01*
X191432Y-213384D01*
X191343Y-213437D01*
X191252Y-213486D01*
X191238Y-213500D01*
X191221Y-213510D01*
X191154Y-213589D01*
X191082Y-213664D01*
X191074Y-213682D01*
X191061Y-213697D01*
X191022Y-213793D01*
X190979Y-213887D01*
X190977Y-213907D01*
X190969Y-213925D01*
X190951Y-214092D01*
X190951Y-218534D01*
X190058Y-219427D01*
X168474Y-219427D01*
G37*
%LPD*%
%LPC*%
G36*
X173555Y-535025D02*
X173555Y-535025D01*
X166707Y-533190D01*
X160568Y-529645D01*
X155555Y-524632D01*
X152010Y-518493D01*
X150175Y-511645D01*
X150175Y-504555D01*
X152010Y-497707D01*
X155555Y-491568D01*
X160568Y-486555D01*
X166707Y-483010D01*
X173555Y-481175D01*
X180645Y-481175D01*
X187493Y-483010D01*
X193632Y-486555D01*
X198645Y-491568D01*
X202190Y-497707D01*
X204025Y-504555D01*
X204025Y-511645D01*
X202190Y-518493D01*
X198645Y-524632D01*
X193632Y-529645D01*
X187493Y-533190D01*
X180645Y-535025D01*
X173555Y-535025D01*
G37*
%LPD*%
%LPC*%
G36*
X429355Y-118325D02*
X429355Y-118325D01*
X422507Y-116490D01*
X416368Y-112945D01*
X411355Y-107932D01*
X407810Y-101793D01*
X405975Y-94945D01*
X405975Y-87855D01*
X407810Y-81007D01*
X411355Y-74868D01*
X416368Y-69855D01*
X422507Y-66310D01*
X429355Y-64475D01*
X436445Y-64475D01*
X443293Y-66310D01*
X449432Y-69855D01*
X454445Y-74868D01*
X457990Y-81007D01*
X459825Y-87855D01*
X459825Y-94945D01*
X457990Y-101793D01*
X454445Y-107932D01*
X449432Y-112945D01*
X443293Y-116490D01*
X436445Y-118325D01*
X429355Y-118325D01*
G37*
%LPD*%
%LPC*%
G36*
X423555Y-535025D02*
X423555Y-535025D01*
X416707Y-533190D01*
X410568Y-529645D01*
X405555Y-524632D01*
X402010Y-518493D01*
X400175Y-511645D01*
X400175Y-504555D01*
X402010Y-497707D01*
X405555Y-491568D01*
X410568Y-486555D01*
X416707Y-483010D01*
X423555Y-481175D01*
X430645Y-481175D01*
X437493Y-483010D01*
X443632Y-486555D01*
X448645Y-491568D01*
X452190Y-497707D01*
X454025Y-504555D01*
X454025Y-511645D01*
X452190Y-518493D01*
X448645Y-524632D01*
X443632Y-529645D01*
X437493Y-533190D01*
X430645Y-535025D01*
X423555Y-535025D01*
G37*
%LPD*%
%LPC*%
G36*
X179355Y-118325D02*
X179355Y-118325D01*
X172507Y-116490D01*
X166368Y-112945D01*
X161355Y-107932D01*
X157810Y-101793D01*
X155975Y-94945D01*
X155975Y-87855D01*
X157810Y-81007D01*
X161355Y-74868D01*
X166368Y-69855D01*
X172507Y-66310D01*
X179355Y-64475D01*
X186445Y-64475D01*
X193293Y-66310D01*
X199432Y-69855D01*
X204445Y-74868D01*
X207990Y-81007D01*
X209825Y-87855D01*
X209825Y-94945D01*
X207990Y-101793D01*
X204445Y-107932D01*
X199432Y-112945D01*
X193293Y-116490D01*
X186445Y-118325D01*
X179355Y-118325D01*
G37*
%LPD*%
%LPC*%
G36*
X168474Y-282927D02*
X168474Y-282927D01*
X167581Y-282034D01*
X167581Y-274166D01*
X168474Y-273273D01*
X190058Y-273273D01*
X190597Y-273812D01*
X190671Y-273865D01*
X190740Y-273925D01*
X190770Y-273937D01*
X190796Y-273956D01*
X190883Y-273983D01*
X190968Y-274017D01*
X191009Y-274021D01*
X191031Y-274028D01*
X191064Y-274027D01*
X191135Y-274035D01*
X219526Y-274035D01*
X219616Y-274021D01*
X219707Y-274013D01*
X219736Y-274001D01*
X219768Y-273996D01*
X219849Y-273953D01*
X219933Y-273917D01*
X219965Y-273891D01*
X219986Y-273880D01*
X220008Y-273857D01*
X220064Y-273812D01*
X227207Y-266669D01*
X228288Y-266669D01*
X228308Y-266666D01*
X228327Y-266668D01*
X228429Y-266646D01*
X228531Y-266630D01*
X228548Y-266620D01*
X228568Y-266616D01*
X228657Y-266563D01*
X228748Y-266514D01*
X228762Y-266500D01*
X228779Y-266490D01*
X228846Y-266411D01*
X228918Y-266336D01*
X228926Y-266318D01*
X228939Y-266303D01*
X228978Y-266207D01*
X229021Y-266113D01*
X229023Y-266093D01*
X229031Y-266075D01*
X229049Y-265908D01*
X229049Y-261466D01*
X229942Y-260573D01*
X235908Y-260573D01*
X235928Y-260570D01*
X235947Y-260572D01*
X236049Y-260550D01*
X236151Y-260534D01*
X236168Y-260524D01*
X236188Y-260520D01*
X236277Y-260467D01*
X236368Y-260418D01*
X236382Y-260404D01*
X236399Y-260394D01*
X236466Y-260315D01*
X236538Y-260240D01*
X236546Y-260222D01*
X236559Y-260207D01*
X236598Y-260111D01*
X236641Y-260017D01*
X236643Y-259997D01*
X236651Y-259979D01*
X236669Y-259812D01*
X236669Y-258288D01*
X236666Y-258268D01*
X236668Y-258249D01*
X236646Y-258147D01*
X236630Y-258045D01*
X236620Y-258028D01*
X236616Y-258008D01*
X236563Y-257919D01*
X236514Y-257828D01*
X236500Y-257814D01*
X236490Y-257797D01*
X236411Y-257730D01*
X236336Y-257658D01*
X236318Y-257650D01*
X236303Y-257637D01*
X236207Y-257598D01*
X236113Y-257555D01*
X236093Y-257553D01*
X236075Y-257545D01*
X235908Y-257527D01*
X229942Y-257527D01*
X229049Y-256634D01*
X229049Y-255113D01*
X229035Y-255023D01*
X229027Y-254932D01*
X229015Y-254902D01*
X229010Y-254870D01*
X228967Y-254790D01*
X228931Y-254706D01*
X228905Y-254674D01*
X228894Y-254653D01*
X228871Y-254631D01*
X228826Y-254575D01*
X219781Y-245530D01*
X219707Y-245477D01*
X219638Y-245417D01*
X219608Y-245405D01*
X219582Y-245386D01*
X219495Y-245359D01*
X219410Y-245325D01*
X219369Y-245321D01*
X219346Y-245314D01*
X219314Y-245315D01*
X219243Y-245307D01*
X217802Y-245307D01*
X214693Y-242198D01*
X214693Y-237802D01*
X215712Y-236783D01*
X215765Y-236709D01*
X215825Y-236639D01*
X215837Y-236609D01*
X215856Y-236583D01*
X215883Y-236496D01*
X215917Y-236411D01*
X215921Y-236370D01*
X215928Y-236348D01*
X215927Y-236316D01*
X215935Y-236245D01*
X215935Y-228316D01*
X221016Y-223235D01*
X228865Y-223235D01*
X228955Y-223221D01*
X229046Y-223213D01*
X229076Y-223201D01*
X229108Y-223196D01*
X229189Y-223153D01*
X229272Y-223117D01*
X229305Y-223091D01*
X229325Y-223080D01*
X229347Y-223057D01*
X229403Y-223012D01*
X229942Y-222473D01*
X235908Y-222473D01*
X235928Y-222470D01*
X235947Y-222472D01*
X236049Y-222450D01*
X236151Y-222434D01*
X236168Y-222424D01*
X236188Y-222420D01*
X236277Y-222367D01*
X236368Y-222318D01*
X236382Y-222304D01*
X236399Y-222294D01*
X236466Y-222215D01*
X236538Y-222140D01*
X236546Y-222122D01*
X236559Y-222107D01*
X236598Y-222011D01*
X236641Y-221917D01*
X236643Y-221897D01*
X236651Y-221879D01*
X236669Y-221712D01*
X236669Y-220188D01*
X236666Y-220168D01*
X236668Y-220149D01*
X236646Y-220047D01*
X236630Y-219945D01*
X236620Y-219928D01*
X236616Y-219908D01*
X236563Y-219819D01*
X236514Y-219728D01*
X236500Y-219714D01*
X236490Y-219697D01*
X236411Y-219630D01*
X236336Y-219558D01*
X236318Y-219550D01*
X236303Y-219537D01*
X236207Y-219498D01*
X236113Y-219455D01*
X236093Y-219453D01*
X236075Y-219445D01*
X235908Y-219427D01*
X229942Y-219427D01*
X229049Y-218534D01*
X229049Y-210666D01*
X229942Y-209773D01*
X251526Y-209773D01*
X252419Y-210666D01*
X252419Y-218534D01*
X251526Y-219427D01*
X245560Y-219427D01*
X245540Y-219430D01*
X245521Y-219428D01*
X245419Y-219450D01*
X245317Y-219466D01*
X245300Y-219476D01*
X245280Y-219480D01*
X245191Y-219533D01*
X245100Y-219582D01*
X245086Y-219596D01*
X245069Y-219606D01*
X245002Y-219685D01*
X244930Y-219760D01*
X244922Y-219778D01*
X244909Y-219793D01*
X244870Y-219889D01*
X244827Y-219983D01*
X244825Y-220003D01*
X244817Y-220021D01*
X244799Y-220188D01*
X244799Y-221712D01*
X244802Y-221732D01*
X244800Y-221751D01*
X244822Y-221853D01*
X244838Y-221955D01*
X244848Y-221972D01*
X244852Y-221992D01*
X244905Y-222081D01*
X244954Y-222172D01*
X244968Y-222186D01*
X244978Y-222203D01*
X245057Y-222270D01*
X245132Y-222342D01*
X245150Y-222350D01*
X245165Y-222363D01*
X245261Y-222402D01*
X245355Y-222445D01*
X245375Y-222447D01*
X245393Y-222455D01*
X245560Y-222473D01*
X251526Y-222473D01*
X252419Y-223366D01*
X252419Y-231234D01*
X251526Y-232127D01*
X229942Y-232127D01*
X229403Y-231588D01*
X229329Y-231535D01*
X229260Y-231475D01*
X229230Y-231463D01*
X229204Y-231444D01*
X229117Y-231417D01*
X229032Y-231383D01*
X228991Y-231379D01*
X228969Y-231372D01*
X228936Y-231373D01*
X228865Y-231365D01*
X224826Y-231365D01*
X224806Y-231368D01*
X224787Y-231366D01*
X224685Y-231388D01*
X224583Y-231404D01*
X224566Y-231414D01*
X224546Y-231418D01*
X224457Y-231471D01*
X224366Y-231520D01*
X224352Y-231534D01*
X224335Y-231544D01*
X224268Y-231623D01*
X224196Y-231698D01*
X224188Y-231716D01*
X224175Y-231731D01*
X224136Y-231827D01*
X224093Y-231921D01*
X224091Y-231941D01*
X224083Y-231959D01*
X224065Y-232126D01*
X224065Y-236245D01*
X224079Y-236335D01*
X224087Y-236426D01*
X224099Y-236455D01*
X224104Y-236487D01*
X224147Y-236568D01*
X224183Y-236652D01*
X224209Y-236684D01*
X224220Y-236705D01*
X224243Y-236727D01*
X224288Y-236783D01*
X225307Y-237802D01*
X225307Y-239243D01*
X225321Y-239333D01*
X225329Y-239424D01*
X225341Y-239454D01*
X225346Y-239486D01*
X225389Y-239566D01*
X225425Y-239650D01*
X225451Y-239683D01*
X225462Y-239703D01*
X225485Y-239725D01*
X225530Y-239781D01*
X227750Y-242001D01*
X227808Y-242043D01*
X227860Y-242093D01*
X227907Y-242115D01*
X227949Y-242145D01*
X228018Y-242166D01*
X228083Y-242196D01*
X228135Y-242202D01*
X228185Y-242217D01*
X228256Y-242215D01*
X228327Y-242223D01*
X228378Y-242212D01*
X228430Y-242211D01*
X228498Y-242186D01*
X228568Y-242171D01*
X228613Y-242144D01*
X228661Y-242126D01*
X228717Y-242082D01*
X228779Y-242045D01*
X228813Y-242005D01*
X228853Y-241973D01*
X228892Y-241912D01*
X228939Y-241858D01*
X228958Y-241810D01*
X228986Y-241766D01*
X229004Y-241696D01*
X229031Y-241630D01*
X229039Y-241558D01*
X229047Y-241527D01*
X229045Y-241504D01*
X229049Y-241463D01*
X229049Y-236066D01*
X229942Y-235173D01*
X251526Y-235173D01*
X252419Y-236066D01*
X252419Y-243934D01*
X251526Y-244827D01*
X232413Y-244827D01*
X232342Y-244838D01*
X232270Y-244840D01*
X232221Y-244858D01*
X232170Y-244866D01*
X232107Y-244900D01*
X232039Y-244925D01*
X231999Y-244957D01*
X231953Y-244982D01*
X231903Y-245033D01*
X231847Y-245078D01*
X231819Y-245122D01*
X231783Y-245160D01*
X231753Y-245225D01*
X231714Y-245285D01*
X231702Y-245336D01*
X231680Y-245383D01*
X231672Y-245454D01*
X231654Y-245524D01*
X231658Y-245576D01*
X231653Y-245627D01*
X231668Y-245698D01*
X231674Y-245769D01*
X231694Y-245817D01*
X231705Y-245868D01*
X231742Y-245929D01*
X231770Y-245995D01*
X231815Y-246051D01*
X231831Y-246079D01*
X231849Y-246094D01*
X231875Y-246126D01*
X233399Y-247650D01*
X233473Y-247703D01*
X233542Y-247763D01*
X233572Y-247775D01*
X233598Y-247794D01*
X233685Y-247821D01*
X233770Y-247855D01*
X233811Y-247859D01*
X233833Y-247866D01*
X233866Y-247865D01*
X233937Y-247873D01*
X251526Y-247873D01*
X252419Y-248766D01*
X252419Y-256634D01*
X251526Y-257527D01*
X245560Y-257527D01*
X245540Y-257530D01*
X245521Y-257528D01*
X245419Y-257550D01*
X245317Y-257566D01*
X245300Y-257576D01*
X245280Y-257580D01*
X245191Y-257633D01*
X245100Y-257682D01*
X245086Y-257696D01*
X245069Y-257706D01*
X245002Y-257785D01*
X244930Y-257860D01*
X244922Y-257878D01*
X244909Y-257893D01*
X244870Y-257989D01*
X244827Y-258083D01*
X244825Y-258103D01*
X244817Y-258121D01*
X244799Y-258288D01*
X244799Y-259812D01*
X244802Y-259832D01*
X244800Y-259851D01*
X244822Y-259953D01*
X244838Y-260055D01*
X244848Y-260072D01*
X244852Y-260092D01*
X244905Y-260181D01*
X244954Y-260272D01*
X244968Y-260286D01*
X244978Y-260303D01*
X245057Y-260370D01*
X245132Y-260442D01*
X245150Y-260450D01*
X245165Y-260463D01*
X245261Y-260502D01*
X245355Y-260545D01*
X245375Y-260547D01*
X245393Y-260555D01*
X245560Y-260573D01*
X251526Y-260573D01*
X252419Y-261466D01*
X252419Y-269334D01*
X251526Y-270227D01*
X241971Y-270227D01*
X241881Y-270241D01*
X241790Y-270249D01*
X241760Y-270261D01*
X241728Y-270266D01*
X241648Y-270309D01*
X241564Y-270345D01*
X241532Y-270371D01*
X241511Y-270382D01*
X241489Y-270405D01*
X241433Y-270450D01*
X239909Y-271974D01*
X239867Y-272032D01*
X239817Y-272084D01*
X239795Y-272131D01*
X239765Y-272173D01*
X239744Y-272242D01*
X239714Y-272307D01*
X239708Y-272359D01*
X239693Y-272409D01*
X239695Y-272480D01*
X239687Y-272551D01*
X239698Y-272602D01*
X239699Y-272654D01*
X239724Y-272722D01*
X239739Y-272792D01*
X239766Y-272836D01*
X239784Y-272885D01*
X239828Y-272941D01*
X239865Y-273003D01*
X239905Y-273037D01*
X239937Y-273077D01*
X239998Y-273116D01*
X240052Y-273163D01*
X240100Y-273182D01*
X240144Y-273210D01*
X240214Y-273228D01*
X240280Y-273255D01*
X240352Y-273263D01*
X240383Y-273271D01*
X240406Y-273269D01*
X240447Y-273273D01*
X251526Y-273273D01*
X252419Y-274166D01*
X252419Y-282034D01*
X251526Y-282927D01*
X229942Y-282927D01*
X229049Y-282034D01*
X229049Y-278162D01*
X229038Y-278091D01*
X229036Y-278019D01*
X229018Y-277970D01*
X229010Y-277919D01*
X228976Y-277855D01*
X228951Y-277788D01*
X228919Y-277747D01*
X228894Y-277701D01*
X228842Y-277652D01*
X228798Y-277596D01*
X228754Y-277568D01*
X228716Y-277532D01*
X228651Y-277502D01*
X228591Y-277463D01*
X228540Y-277450D01*
X228493Y-277428D01*
X228422Y-277421D01*
X228352Y-277403D01*
X228300Y-277407D01*
X228249Y-277401D01*
X228178Y-277417D01*
X228107Y-277422D01*
X228059Y-277442D01*
X228008Y-277454D01*
X227947Y-277490D01*
X227881Y-277518D01*
X227825Y-277563D01*
X227797Y-277580D01*
X227782Y-277598D01*
X227750Y-277623D01*
X223208Y-282165D01*
X191135Y-282165D01*
X191045Y-282179D01*
X190954Y-282187D01*
X190924Y-282199D01*
X190892Y-282204D01*
X190811Y-282247D01*
X190728Y-282283D01*
X190695Y-282309D01*
X190675Y-282320D01*
X190653Y-282343D01*
X190597Y-282388D01*
X190058Y-282927D01*
X168474Y-282927D01*
G37*
%LPD*%
%LPC*%
G36*
X272227Y-504823D02*
X272227Y-504823D01*
X268213Y-503160D01*
X265140Y-500087D01*
X263477Y-496073D01*
X263477Y-491727D01*
X265140Y-487713D01*
X268213Y-484640D01*
X272227Y-482977D01*
X275308Y-482977D01*
X275328Y-482974D01*
X275347Y-482976D01*
X275449Y-482954D01*
X275551Y-482938D01*
X275568Y-482928D01*
X275588Y-482924D01*
X275677Y-482871D01*
X275768Y-482822D01*
X275782Y-482808D01*
X275799Y-482798D01*
X275866Y-482719D01*
X275938Y-482644D01*
X275946Y-482626D01*
X275959Y-482611D01*
X275998Y-482515D01*
X276041Y-482421D01*
X276043Y-482401D01*
X276051Y-482383D01*
X276069Y-482216D01*
X276069Y-463186D01*
X276066Y-463166D01*
X276068Y-463147D01*
X276046Y-463045D01*
X276030Y-462943D01*
X276020Y-462926D01*
X276016Y-462906D01*
X275963Y-462817D01*
X275914Y-462726D01*
X275900Y-462712D01*
X275890Y-462695D01*
X275811Y-462628D01*
X275736Y-462556D01*
X275718Y-462548D01*
X275703Y-462535D01*
X275607Y-462496D01*
X275513Y-462453D01*
X275493Y-462451D01*
X275475Y-462443D01*
X275308Y-462425D01*
X267818Y-462425D01*
X266925Y-461532D01*
X266925Y-459726D01*
X266922Y-459706D01*
X266924Y-459687D01*
X266902Y-459585D01*
X266886Y-459483D01*
X266876Y-459466D01*
X266872Y-459446D01*
X266819Y-459357D01*
X266770Y-459266D01*
X266756Y-459252D01*
X266746Y-459235D01*
X266667Y-459168D01*
X266592Y-459096D01*
X266574Y-459088D01*
X266559Y-459075D01*
X266463Y-459036D01*
X266369Y-458993D01*
X266349Y-458991D01*
X266331Y-458983D01*
X266164Y-458965D01*
X264036Y-458965D01*
X264016Y-458968D01*
X263997Y-458966D01*
X263895Y-458988D01*
X263793Y-459004D01*
X263776Y-459014D01*
X263756Y-459018D01*
X263667Y-459071D01*
X263576Y-459120D01*
X263562Y-459134D01*
X263545Y-459144D01*
X263478Y-459223D01*
X263406Y-459298D01*
X263398Y-459316D01*
X263385Y-459331D01*
X263346Y-459427D01*
X263303Y-459521D01*
X263301Y-459541D01*
X263293Y-459559D01*
X263275Y-459726D01*
X263275Y-461532D01*
X262382Y-462425D01*
X255118Y-462425D01*
X254225Y-461532D01*
X254225Y-459726D01*
X254222Y-459706D01*
X254224Y-459687D01*
X254202Y-459585D01*
X254186Y-459483D01*
X254176Y-459466D01*
X254172Y-459446D01*
X254119Y-459357D01*
X254070Y-459266D01*
X254056Y-459252D01*
X254046Y-459235D01*
X253967Y-459168D01*
X253892Y-459096D01*
X253874Y-459088D01*
X253859Y-459075D01*
X253763Y-459036D01*
X253669Y-458993D01*
X253649Y-458991D01*
X253631Y-458983D01*
X253464Y-458965D01*
X234716Y-458965D01*
X230999Y-455248D01*
X230925Y-455195D01*
X230856Y-455135D01*
X230826Y-455123D01*
X230800Y-455104D01*
X230713Y-455077D01*
X230628Y-455043D01*
X230587Y-455039D01*
X230564Y-455032D01*
X230532Y-455033D01*
X230461Y-455025D01*
X223868Y-455025D01*
X222975Y-454132D01*
X222975Y-442868D01*
X223868Y-441975D01*
X236132Y-441975D01*
X237025Y-442868D01*
X237025Y-449461D01*
X237039Y-449551D01*
X237047Y-449642D01*
X237059Y-449672D01*
X237064Y-449704D01*
X237107Y-449784D01*
X237143Y-449868D01*
X237169Y-449900D01*
X237180Y-449921D01*
X237203Y-449943D01*
X237248Y-449999D01*
X237861Y-450612D01*
X237935Y-450665D01*
X238004Y-450725D01*
X238034Y-450737D01*
X238060Y-450756D01*
X238147Y-450783D01*
X238232Y-450817D01*
X238273Y-450821D01*
X238296Y-450828D01*
X238328Y-450827D01*
X238399Y-450835D01*
X253464Y-450835D01*
X253484Y-450832D01*
X253503Y-450834D01*
X253605Y-450812D01*
X253707Y-450796D01*
X253724Y-450786D01*
X253744Y-450782D01*
X253833Y-450729D01*
X253924Y-450680D01*
X253938Y-450666D01*
X253955Y-450656D01*
X254022Y-450577D01*
X254094Y-450502D01*
X254102Y-450484D01*
X254115Y-450469D01*
X254154Y-450373D01*
X254197Y-450279D01*
X254199Y-450259D01*
X254207Y-450241D01*
X254225Y-450074D01*
X254225Y-448268D01*
X255118Y-447375D01*
X262382Y-447375D01*
X263275Y-448268D01*
X263275Y-450074D01*
X263278Y-450094D01*
X263276Y-450113D01*
X263298Y-450215D01*
X263314Y-450317D01*
X263324Y-450334D01*
X263328Y-450354D01*
X263381Y-450443D01*
X263430Y-450534D01*
X263444Y-450548D01*
X263454Y-450565D01*
X263533Y-450632D01*
X263608Y-450704D01*
X263626Y-450712D01*
X263641Y-450725D01*
X263737Y-450764D01*
X263831Y-450807D01*
X263851Y-450809D01*
X263869Y-450817D01*
X264036Y-450835D01*
X266164Y-450835D01*
X266184Y-450832D01*
X266203Y-450834D01*
X266305Y-450812D01*
X266407Y-450796D01*
X266424Y-450786D01*
X266444Y-450782D01*
X266533Y-450729D01*
X266624Y-450680D01*
X266638Y-450666D01*
X266655Y-450656D01*
X266722Y-450577D01*
X266794Y-450502D01*
X266802Y-450484D01*
X266815Y-450469D01*
X266854Y-450373D01*
X266897Y-450279D01*
X266899Y-450259D01*
X266907Y-450241D01*
X266925Y-450074D01*
X266925Y-448268D01*
X267818Y-447375D01*
X275308Y-447375D01*
X275328Y-447372D01*
X275347Y-447374D01*
X275449Y-447352D01*
X275551Y-447336D01*
X275568Y-447326D01*
X275588Y-447322D01*
X275677Y-447269D01*
X275768Y-447220D01*
X275782Y-447206D01*
X275799Y-447196D01*
X275866Y-447117D01*
X275938Y-447042D01*
X275946Y-447024D01*
X275959Y-447009D01*
X275998Y-446913D01*
X276037Y-446828D01*
X281386Y-441478D01*
X281439Y-441404D01*
X281499Y-441335D01*
X281511Y-441305D01*
X281530Y-441279D01*
X281557Y-441192D01*
X281591Y-441107D01*
X281595Y-441066D01*
X281602Y-441044D01*
X281601Y-441011D01*
X281609Y-440940D01*
X281609Y-407186D01*
X281606Y-407166D01*
X281608Y-407147D01*
X281586Y-407045D01*
X281570Y-406943D01*
X281560Y-406926D01*
X281556Y-406906D01*
X281503Y-406817D01*
X281454Y-406726D01*
X281440Y-406712D01*
X281430Y-406695D01*
X281351Y-406628D01*
X281276Y-406556D01*
X281258Y-406548D01*
X281243Y-406535D01*
X281147Y-406496D01*
X281053Y-406453D01*
X281033Y-406451D01*
X281015Y-406443D01*
X280848Y-406425D01*
X280518Y-406425D01*
X279625Y-405532D01*
X279625Y-392268D01*
X280518Y-391375D01*
X287782Y-391375D01*
X288675Y-392268D01*
X288675Y-405532D01*
X287782Y-406425D01*
X287452Y-406425D01*
X287432Y-406428D01*
X287413Y-406426D01*
X287311Y-406448D01*
X287209Y-406464D01*
X287192Y-406474D01*
X287172Y-406478D01*
X287083Y-406531D01*
X286992Y-406580D01*
X286978Y-406594D01*
X286961Y-406604D01*
X286894Y-406683D01*
X286822Y-406758D01*
X286814Y-406776D01*
X286801Y-406791D01*
X286762Y-406887D01*
X286719Y-406981D01*
X286717Y-407001D01*
X286709Y-407019D01*
X286691Y-407186D01*
X286691Y-443360D01*
X283975Y-446076D01*
X283933Y-446134D01*
X283884Y-446186D01*
X283862Y-446233D01*
X283832Y-446275D01*
X283811Y-446344D01*
X283780Y-446409D01*
X283775Y-446461D01*
X283759Y-446511D01*
X283761Y-446582D01*
X283753Y-446653D01*
X283764Y-446704D01*
X283766Y-446756D01*
X283790Y-446824D01*
X283806Y-446894D01*
X283832Y-446939D01*
X283850Y-446987D01*
X283895Y-447043D01*
X283932Y-447105D01*
X283971Y-447139D01*
X284004Y-447179D01*
X284064Y-447218D01*
X284119Y-447265D01*
X284167Y-447284D01*
X284211Y-447312D01*
X284280Y-447330D01*
X284347Y-447357D01*
X284418Y-447365D01*
X284449Y-447373D01*
X284473Y-447371D01*
X284514Y-447375D01*
X287782Y-447375D01*
X288675Y-448268D01*
X288675Y-461532D01*
X288438Y-461769D01*
X288384Y-461843D01*
X288325Y-461912D01*
X288313Y-461942D01*
X288294Y-461968D01*
X288267Y-462055D01*
X288233Y-462140D01*
X288229Y-462181D01*
X288222Y-462203D01*
X288223Y-462236D01*
X288215Y-462307D01*
X288215Y-473951D01*
X288229Y-474041D01*
X288237Y-474132D01*
X288249Y-474162D01*
X288254Y-474194D01*
X288297Y-474274D01*
X288333Y-474358D01*
X288359Y-474390D01*
X288370Y-474411D01*
X288393Y-474433D01*
X288438Y-474489D01*
X297445Y-483497D01*
X297540Y-483565D01*
X297634Y-483635D01*
X297640Y-483637D01*
X297645Y-483640D01*
X297756Y-483674D01*
X297868Y-483711D01*
X297874Y-483711D01*
X297880Y-483713D01*
X297997Y-483710D01*
X298114Y-483709D01*
X298121Y-483706D01*
X298126Y-483706D01*
X298143Y-483700D01*
X298275Y-483662D01*
X299927Y-482977D01*
X304273Y-482977D01*
X308287Y-484640D01*
X311360Y-487713D01*
X313023Y-491727D01*
X313023Y-496073D01*
X311360Y-500087D01*
X308287Y-503160D01*
X304273Y-504823D01*
X299927Y-504823D01*
X295913Y-503160D01*
X292840Y-500087D01*
X291177Y-496073D01*
X291177Y-491727D01*
X291862Y-490075D01*
X291888Y-489961D01*
X291917Y-489848D01*
X291917Y-489841D01*
X291918Y-489835D01*
X291907Y-489719D01*
X291898Y-489602D01*
X291895Y-489597D01*
X291895Y-489590D01*
X291847Y-489483D01*
X291802Y-489376D01*
X291797Y-489370D01*
X291795Y-489366D01*
X291782Y-489352D01*
X291697Y-489245D01*
X282450Y-479999D01*
X282392Y-479957D01*
X282340Y-479907D01*
X282293Y-479885D01*
X282251Y-479855D01*
X282182Y-479834D01*
X282117Y-479804D01*
X282065Y-479798D01*
X282015Y-479783D01*
X281944Y-479785D01*
X281873Y-479777D01*
X281822Y-479788D01*
X281770Y-479789D01*
X281702Y-479814D01*
X281632Y-479829D01*
X281587Y-479856D01*
X281539Y-479874D01*
X281483Y-479918D01*
X281421Y-479955D01*
X281387Y-479995D01*
X281347Y-480027D01*
X281308Y-480088D01*
X281261Y-480142D01*
X281242Y-480190D01*
X281214Y-480234D01*
X281196Y-480304D01*
X281169Y-480370D01*
X281161Y-480442D01*
X281153Y-480473D01*
X281155Y-480496D01*
X281151Y-480537D01*
X281151Y-484888D01*
X281165Y-484978D01*
X281173Y-485069D01*
X281185Y-485099D01*
X281190Y-485131D01*
X281233Y-485212D01*
X281269Y-485296D01*
X281295Y-485328D01*
X281306Y-485348D01*
X281329Y-485371D01*
X281374Y-485427D01*
X283660Y-487713D01*
X285323Y-491727D01*
X285323Y-496073D01*
X283660Y-500087D01*
X280587Y-503160D01*
X276573Y-504823D01*
X272227Y-504823D01*
G37*
%LPD*%
%LPC*%
G36*
X327627Y-504823D02*
X327627Y-504823D01*
X323613Y-503160D01*
X320540Y-500087D01*
X318877Y-496073D01*
X318877Y-491727D01*
X320193Y-488551D01*
X320220Y-488437D01*
X320248Y-488324D01*
X320248Y-488317D01*
X320249Y-488311D01*
X320238Y-488195D01*
X320229Y-488078D01*
X320227Y-488073D01*
X320226Y-488066D01*
X320178Y-487959D01*
X320133Y-487852D01*
X320128Y-487846D01*
X320126Y-487842D01*
X320113Y-487828D01*
X320028Y-487721D01*
X314261Y-481954D01*
X312549Y-480242D01*
X312549Y-463186D01*
X312546Y-463166D01*
X312548Y-463147D01*
X312526Y-463045D01*
X312510Y-462943D01*
X312500Y-462926D01*
X312496Y-462906D01*
X312443Y-462817D01*
X312394Y-462726D01*
X312380Y-462712D01*
X312370Y-462695D01*
X312291Y-462628D01*
X312216Y-462556D01*
X312198Y-462548D01*
X312183Y-462535D01*
X312087Y-462496D01*
X311993Y-462453D01*
X311973Y-462451D01*
X311955Y-462443D01*
X311788Y-462425D01*
X305918Y-462425D01*
X305025Y-461532D01*
X305025Y-454284D01*
X305011Y-454194D01*
X305003Y-454103D01*
X304991Y-454073D01*
X304986Y-454041D01*
X304943Y-453960D01*
X304907Y-453876D01*
X304881Y-453844D01*
X304870Y-453824D01*
X304847Y-453801D01*
X304802Y-453745D01*
X302674Y-451617D01*
X302616Y-451576D01*
X302564Y-451526D01*
X302517Y-451504D01*
X302475Y-451474D01*
X302406Y-451453D01*
X302341Y-451423D01*
X302289Y-451417D01*
X302239Y-451401D01*
X302168Y-451403D01*
X302097Y-451395D01*
X302046Y-451407D01*
X301994Y-451408D01*
X301926Y-451432D01*
X301856Y-451448D01*
X301812Y-451474D01*
X301763Y-451492D01*
X301707Y-451537D01*
X301645Y-451574D01*
X301611Y-451613D01*
X301571Y-451646D01*
X301532Y-451706D01*
X301485Y-451761D01*
X301466Y-451809D01*
X301438Y-451853D01*
X301420Y-451922D01*
X301393Y-451989D01*
X301385Y-452060D01*
X301377Y-452091D01*
X301379Y-452115D01*
X301375Y-452156D01*
X301375Y-461532D01*
X301138Y-461769D01*
X301084Y-461843D01*
X301025Y-461912D01*
X301013Y-461942D01*
X300994Y-461968D01*
X300967Y-462055D01*
X300933Y-462140D01*
X300929Y-462181D01*
X300922Y-462203D01*
X300923Y-462236D01*
X300915Y-462307D01*
X300915Y-463932D01*
X300918Y-463952D01*
X300916Y-463971D01*
X300938Y-464073D01*
X300954Y-464175D01*
X300964Y-464192D01*
X300968Y-464212D01*
X301021Y-464301D01*
X301070Y-464392D01*
X301084Y-464406D01*
X301094Y-464423D01*
X301173Y-464490D01*
X301248Y-464562D01*
X301266Y-464570D01*
X301281Y-464583D01*
X301377Y-464622D01*
X301471Y-464665D01*
X301491Y-464667D01*
X301509Y-464675D01*
X301676Y-464693D01*
X302198Y-464693D01*
X305307Y-467802D01*
X305307Y-472198D01*
X302198Y-475307D01*
X297802Y-475307D01*
X294693Y-472198D01*
X294693Y-470757D01*
X294679Y-470667D01*
X294671Y-470576D01*
X294659Y-470546D01*
X294654Y-470514D01*
X294611Y-470434D01*
X294575Y-470350D01*
X294549Y-470318D01*
X294538Y-470297D01*
X294515Y-470275D01*
X294470Y-470219D01*
X292785Y-468534D01*
X292785Y-462307D01*
X292771Y-462217D01*
X292763Y-462126D01*
X292751Y-462096D01*
X292746Y-462064D01*
X292703Y-461984D01*
X292667Y-461900D01*
X292641Y-461867D01*
X292630Y-461847D01*
X292607Y-461825D01*
X292562Y-461769D01*
X292325Y-461532D01*
X292325Y-448268D01*
X293218Y-447375D01*
X296698Y-447375D01*
X296718Y-447372D01*
X296737Y-447374D01*
X296839Y-447352D01*
X296941Y-447336D01*
X296958Y-447326D01*
X296978Y-447322D01*
X297067Y-447269D01*
X297158Y-447220D01*
X297172Y-447206D01*
X297189Y-447196D01*
X297256Y-447117D01*
X297328Y-447042D01*
X297336Y-447024D01*
X297349Y-447009D01*
X297388Y-446913D01*
X297431Y-446819D01*
X297433Y-446799D01*
X297441Y-446781D01*
X297459Y-446614D01*
X297459Y-435279D01*
X297458Y-435270D01*
X297458Y-435266D01*
X297454Y-435244D01*
X297445Y-435189D01*
X297437Y-435098D01*
X297425Y-435069D01*
X297420Y-435037D01*
X297377Y-434956D01*
X297341Y-434872D01*
X297315Y-434840D01*
X297304Y-434819D01*
X297281Y-434797D01*
X297236Y-434741D01*
X294693Y-432198D01*
X294693Y-427802D01*
X297802Y-424693D01*
X302198Y-424693D01*
X305307Y-427802D01*
X305307Y-432198D01*
X302764Y-434741D01*
X302711Y-434815D01*
X302651Y-434885D01*
X302639Y-434915D01*
X302620Y-434941D01*
X302593Y-435028D01*
X302559Y-435113D01*
X302555Y-435154D01*
X302548Y-435176D01*
X302549Y-435208D01*
X302541Y-435279D01*
X302541Y-443982D01*
X302555Y-444072D01*
X302563Y-444163D01*
X302575Y-444193D01*
X302580Y-444225D01*
X302623Y-444306D01*
X302659Y-444390D01*
X302685Y-444422D01*
X302696Y-444442D01*
X302719Y-444465D01*
X302764Y-444521D01*
X305395Y-447152D01*
X305469Y-447205D01*
X305539Y-447265D01*
X305569Y-447277D01*
X305595Y-447296D01*
X305682Y-447323D01*
X305767Y-447357D01*
X305808Y-447361D01*
X305830Y-447368D01*
X305862Y-447367D01*
X305934Y-447375D01*
X309186Y-447375D01*
X309257Y-447364D01*
X309329Y-447362D01*
X309378Y-447344D01*
X309429Y-447336D01*
X309493Y-447302D01*
X309560Y-447277D01*
X309601Y-447245D01*
X309647Y-447220D01*
X309696Y-447168D01*
X309752Y-447124D01*
X309780Y-447080D01*
X309816Y-447042D01*
X309846Y-446977D01*
X309885Y-446917D01*
X309898Y-446866D01*
X309920Y-446819D01*
X309927Y-446748D01*
X309945Y-446678D01*
X309941Y-446626D01*
X309947Y-446575D01*
X309931Y-446504D01*
X309926Y-446433D01*
X309906Y-446385D01*
X309894Y-446334D01*
X309858Y-446273D01*
X309830Y-446207D01*
X309785Y-446151D01*
X309768Y-446123D01*
X309750Y-446108D01*
X309725Y-446076D01*
X307009Y-443360D01*
X307009Y-407186D01*
X307006Y-407166D01*
X307008Y-407147D01*
X306986Y-407045D01*
X306970Y-406943D01*
X306960Y-406926D01*
X306956Y-406906D01*
X306903Y-406817D01*
X306854Y-406726D01*
X306840Y-406712D01*
X306830Y-406695D01*
X306751Y-406628D01*
X306676Y-406556D01*
X306658Y-406548D01*
X306643Y-406535D01*
X306547Y-406496D01*
X306453Y-406453D01*
X306433Y-406451D01*
X306415Y-406443D01*
X306248Y-406425D01*
X305918Y-406425D01*
X305025Y-405532D01*
X305025Y-392268D01*
X305918Y-391375D01*
X313182Y-391375D01*
X314075Y-392268D01*
X314075Y-405532D01*
X313182Y-406425D01*
X312852Y-406425D01*
X312832Y-406428D01*
X312813Y-406426D01*
X312711Y-406448D01*
X312609Y-406464D01*
X312592Y-406474D01*
X312572Y-406478D01*
X312483Y-406531D01*
X312392Y-406580D01*
X312378Y-406594D01*
X312361Y-406604D01*
X312294Y-406683D01*
X312222Y-406758D01*
X312214Y-406776D01*
X312201Y-406791D01*
X312162Y-406887D01*
X312119Y-406981D01*
X312117Y-407001D01*
X312109Y-407019D01*
X312091Y-407186D01*
X312091Y-440940D01*
X312105Y-441030D01*
X312113Y-441121D01*
X312125Y-441151D01*
X312130Y-441183D01*
X312173Y-441264D01*
X312209Y-441347D01*
X312235Y-441380D01*
X312246Y-441400D01*
X312269Y-441422D01*
X312314Y-441478D01*
X317666Y-446831D01*
X317670Y-446857D01*
X317680Y-446874D01*
X317684Y-446894D01*
X317737Y-446983D01*
X317786Y-447074D01*
X317800Y-447088D01*
X317810Y-447105D01*
X317889Y-447172D01*
X317964Y-447244D01*
X317982Y-447252D01*
X317997Y-447265D01*
X318093Y-447304D01*
X318187Y-447347D01*
X318207Y-447349D01*
X318225Y-447357D01*
X318392Y-447375D01*
X325882Y-447375D01*
X326775Y-448268D01*
X326775Y-450074D01*
X326778Y-450094D01*
X326776Y-450113D01*
X326798Y-450215D01*
X326814Y-450317D01*
X326824Y-450334D01*
X326828Y-450354D01*
X326881Y-450443D01*
X326930Y-450534D01*
X326944Y-450548D01*
X326954Y-450565D01*
X327033Y-450632D01*
X327108Y-450704D01*
X327126Y-450712D01*
X327141Y-450725D01*
X327237Y-450764D01*
X327331Y-450807D01*
X327351Y-450809D01*
X327369Y-450817D01*
X327536Y-450835D01*
X329664Y-450835D01*
X329684Y-450832D01*
X329703Y-450834D01*
X329805Y-450812D01*
X329907Y-450796D01*
X329924Y-450786D01*
X329944Y-450782D01*
X330033Y-450729D01*
X330124Y-450680D01*
X330138Y-450666D01*
X330155Y-450656D01*
X330222Y-450577D01*
X330294Y-450502D01*
X330302Y-450484D01*
X330315Y-450469D01*
X330354Y-450373D01*
X330397Y-450279D01*
X330399Y-450259D01*
X330407Y-450241D01*
X330425Y-450074D01*
X330425Y-448268D01*
X331318Y-447375D01*
X336411Y-447375D01*
X336501Y-447361D01*
X336592Y-447353D01*
X336622Y-447341D01*
X336654Y-447336D01*
X336734Y-447293D01*
X336818Y-447257D01*
X336850Y-447231D01*
X336871Y-447220D01*
X336893Y-447197D01*
X336949Y-447152D01*
X339666Y-444435D01*
X352214Y-444435D01*
X352234Y-444432D01*
X352253Y-444434D01*
X352355Y-444412D01*
X352457Y-444396D01*
X352474Y-444386D01*
X352494Y-444382D01*
X352583Y-444329D01*
X352674Y-444280D01*
X352688Y-444266D01*
X352705Y-444256D01*
X352772Y-444177D01*
X352844Y-444102D01*
X352852Y-444084D01*
X352865Y-444069D01*
X352904Y-443973D01*
X352947Y-443879D01*
X352949Y-443859D01*
X352957Y-443841D01*
X352975Y-443674D01*
X352975Y-442868D01*
X353868Y-441975D01*
X366132Y-441975D01*
X367025Y-442868D01*
X367025Y-454132D01*
X366132Y-455025D01*
X353868Y-455025D01*
X352975Y-454132D01*
X352975Y-453326D01*
X352972Y-453306D01*
X352974Y-453287D01*
X352952Y-453185D01*
X352936Y-453083D01*
X352926Y-453066D01*
X352922Y-453046D01*
X352869Y-452957D01*
X352820Y-452866D01*
X352806Y-452852D01*
X352796Y-452835D01*
X352717Y-452768D01*
X352642Y-452696D01*
X352624Y-452688D01*
X352609Y-452675D01*
X352513Y-452636D01*
X352419Y-452593D01*
X352399Y-452591D01*
X352381Y-452583D01*
X352214Y-452565D01*
X343349Y-452565D01*
X343259Y-452579D01*
X343168Y-452587D01*
X343138Y-452599D01*
X343106Y-452604D01*
X343026Y-452647D01*
X342942Y-452683D01*
X342910Y-452709D01*
X342889Y-452720D01*
X342867Y-452743D01*
X342811Y-452788D01*
X339698Y-455901D01*
X339645Y-455975D01*
X339585Y-456044D01*
X339573Y-456074D01*
X339554Y-456100D01*
X339527Y-456187D01*
X339493Y-456272D01*
X339489Y-456313D01*
X339482Y-456336D01*
X339483Y-456368D01*
X339475Y-456439D01*
X339475Y-461532D01*
X338582Y-462425D01*
X331318Y-462425D01*
X330425Y-461532D01*
X330425Y-459726D01*
X330422Y-459706D01*
X330424Y-459687D01*
X330402Y-459585D01*
X330386Y-459483D01*
X330376Y-459466D01*
X330372Y-459446D01*
X330319Y-459357D01*
X330270Y-459266D01*
X330256Y-459252D01*
X330246Y-459235D01*
X330167Y-459168D01*
X330092Y-459096D01*
X330074Y-459088D01*
X330059Y-459075D01*
X329963Y-459036D01*
X329869Y-458993D01*
X329849Y-458991D01*
X329831Y-458983D01*
X329664Y-458965D01*
X327536Y-458965D01*
X327516Y-458968D01*
X327497Y-458966D01*
X327395Y-458988D01*
X327293Y-459004D01*
X327276Y-459014D01*
X327256Y-459018D01*
X327167Y-459071D01*
X327076Y-459120D01*
X327062Y-459134D01*
X327045Y-459144D01*
X326978Y-459223D01*
X326906Y-459298D01*
X326898Y-459316D01*
X326885Y-459331D01*
X326846Y-459427D01*
X326803Y-459521D01*
X326801Y-459541D01*
X326793Y-459559D01*
X326775Y-459726D01*
X326775Y-461532D01*
X325882Y-462425D01*
X318392Y-462425D01*
X318372Y-462428D01*
X318353Y-462426D01*
X318251Y-462448D01*
X318149Y-462464D01*
X318132Y-462474D01*
X318112Y-462478D01*
X318023Y-462531D01*
X317932Y-462580D01*
X317918Y-462594D01*
X317901Y-462604D01*
X317834Y-462683D01*
X317762Y-462758D01*
X317754Y-462776D01*
X317741Y-462791D01*
X317702Y-462887D01*
X317659Y-462981D01*
X317657Y-463001D01*
X317649Y-463019D01*
X317631Y-463186D01*
X317631Y-477822D01*
X317645Y-477912D01*
X317653Y-478003D01*
X317665Y-478033D01*
X317670Y-478065D01*
X317713Y-478146D01*
X317749Y-478230D01*
X317775Y-478262D01*
X317786Y-478282D01*
X317809Y-478305D01*
X317854Y-478361D01*
X323621Y-484128D01*
X323716Y-484197D01*
X323810Y-484266D01*
X323816Y-484268D01*
X323821Y-484272D01*
X323932Y-484306D01*
X324044Y-484342D01*
X324050Y-484342D01*
X324056Y-484344D01*
X324173Y-484341D01*
X324290Y-484340D01*
X324297Y-484338D01*
X324302Y-484338D01*
X324319Y-484331D01*
X324451Y-484293D01*
X327627Y-482977D01*
X331973Y-482977D01*
X335987Y-484640D01*
X339060Y-487713D01*
X340723Y-491727D01*
X340723Y-496073D01*
X339060Y-500087D01*
X335987Y-503160D01*
X331973Y-504823D01*
X327627Y-504823D01*
G37*
%LPD*%
%LPC*%
G36*
X82868Y-187025D02*
X82868Y-187025D01*
X81975Y-186132D01*
X81975Y-173868D01*
X82868Y-172975D01*
X94132Y-172975D01*
X95025Y-173868D01*
X95025Y-175174D01*
X95028Y-175194D01*
X95026Y-175213D01*
X95048Y-175315D01*
X95064Y-175417D01*
X95074Y-175434D01*
X95078Y-175454D01*
X95131Y-175543D01*
X95180Y-175634D01*
X95194Y-175648D01*
X95204Y-175665D01*
X95283Y-175732D01*
X95358Y-175804D01*
X95376Y-175812D01*
X95391Y-175825D01*
X95487Y-175864D01*
X95581Y-175907D01*
X95601Y-175909D01*
X95619Y-175917D01*
X95786Y-175935D01*
X148001Y-175935D01*
X148091Y-175921D01*
X148182Y-175913D01*
X148212Y-175901D01*
X148244Y-175896D01*
X148324Y-175853D01*
X148408Y-175817D01*
X148440Y-175791D01*
X148461Y-175780D01*
X148483Y-175757D01*
X148539Y-175712D01*
X214470Y-109781D01*
X214523Y-109707D01*
X214583Y-109638D01*
X214595Y-109608D01*
X214614Y-109582D01*
X214641Y-109495D01*
X214675Y-109410D01*
X214679Y-109369D01*
X214686Y-109346D01*
X214685Y-109314D01*
X214693Y-109243D01*
X214693Y-107802D01*
X217802Y-104693D01*
X222198Y-104693D01*
X225307Y-107802D01*
X225307Y-112198D01*
X222198Y-115307D01*
X220757Y-115307D01*
X220667Y-115321D01*
X220576Y-115329D01*
X220546Y-115341D01*
X220514Y-115346D01*
X220434Y-115389D01*
X220350Y-115425D01*
X220318Y-115451D01*
X220297Y-115462D01*
X220275Y-115485D01*
X220219Y-115530D01*
X151684Y-184065D01*
X95786Y-184065D01*
X95766Y-184068D01*
X95747Y-184066D01*
X95645Y-184088D01*
X95543Y-184104D01*
X95526Y-184114D01*
X95506Y-184118D01*
X95417Y-184171D01*
X95326Y-184220D01*
X95312Y-184234D01*
X95295Y-184244D01*
X95228Y-184323D01*
X95156Y-184398D01*
X95148Y-184416D01*
X95135Y-184431D01*
X95096Y-184527D01*
X95053Y-184621D01*
X95051Y-184641D01*
X95043Y-184659D01*
X95025Y-184826D01*
X95025Y-186132D01*
X94132Y-187025D01*
X82868Y-187025D01*
G37*
%LPD*%
%LPC*%
G36*
X65868Y-237025D02*
X65868Y-237025D01*
X64975Y-236132D01*
X64975Y-234826D01*
X64972Y-234806D01*
X64974Y-234787D01*
X64952Y-234685D01*
X64936Y-234583D01*
X64926Y-234566D01*
X64922Y-234546D01*
X64869Y-234457D01*
X64820Y-234366D01*
X64806Y-234352D01*
X64796Y-234335D01*
X64717Y-234268D01*
X64642Y-234196D01*
X64624Y-234188D01*
X64609Y-234175D01*
X64513Y-234136D01*
X64419Y-234093D01*
X64399Y-234091D01*
X64381Y-234083D01*
X64214Y-234065D01*
X46025Y-234065D01*
X45960Y-234075D01*
X45895Y-234076D01*
X45815Y-234099D01*
X45782Y-234104D01*
X45765Y-234114D01*
X45734Y-234123D01*
X45439Y-234245D01*
X26561Y-234245D01*
X23200Y-232853D01*
X20627Y-230280D01*
X19235Y-226919D01*
X19235Y-223281D01*
X20627Y-219920D01*
X23200Y-217347D01*
X26561Y-215955D01*
X45439Y-215955D01*
X48800Y-217347D01*
X51373Y-219920D01*
X52765Y-223281D01*
X52765Y-225174D01*
X52768Y-225194D01*
X52766Y-225213D01*
X52788Y-225315D01*
X52804Y-225417D01*
X52814Y-225434D01*
X52818Y-225454D01*
X52871Y-225543D01*
X52920Y-225634D01*
X52934Y-225648D01*
X52944Y-225665D01*
X53023Y-225732D01*
X53098Y-225804D01*
X53116Y-225812D01*
X53131Y-225825D01*
X53227Y-225864D01*
X53321Y-225907D01*
X53341Y-225909D01*
X53359Y-225917D01*
X53526Y-225935D01*
X64214Y-225935D01*
X64234Y-225932D01*
X64253Y-225934D01*
X64355Y-225912D01*
X64457Y-225896D01*
X64474Y-225886D01*
X64494Y-225882D01*
X64583Y-225829D01*
X64674Y-225780D01*
X64688Y-225766D01*
X64705Y-225756D01*
X64772Y-225677D01*
X64844Y-225602D01*
X64852Y-225584D01*
X64865Y-225569D01*
X64904Y-225473D01*
X64947Y-225379D01*
X64949Y-225359D01*
X64957Y-225341D01*
X64975Y-225174D01*
X64975Y-223868D01*
X65868Y-222975D01*
X77132Y-222975D01*
X78025Y-223868D01*
X78025Y-236132D01*
X77132Y-237025D01*
X65868Y-237025D01*
G37*
%LPD*%
%LPC*%
G36*
X65868Y-187025D02*
X65868Y-187025D01*
X64975Y-186132D01*
X64975Y-179539D01*
X64961Y-179449D01*
X64953Y-179358D01*
X64941Y-179328D01*
X64936Y-179296D01*
X64893Y-179216D01*
X64857Y-179132D01*
X64831Y-179099D01*
X64820Y-179079D01*
X64797Y-179057D01*
X64791Y-179049D01*
X64782Y-179035D01*
X64773Y-179027D01*
X64752Y-179001D01*
X64339Y-178588D01*
X64265Y-178534D01*
X64196Y-178475D01*
X64166Y-178463D01*
X64140Y-178444D01*
X64052Y-178417D01*
X63968Y-178383D01*
X63927Y-178379D01*
X63904Y-178372D01*
X63872Y-178373D01*
X63801Y-178365D01*
X52343Y-178365D01*
X52228Y-178384D01*
X52112Y-178401D01*
X52107Y-178403D01*
X52100Y-178404D01*
X51998Y-178459D01*
X51893Y-178512D01*
X51889Y-178517D01*
X51883Y-178520D01*
X51803Y-178604D01*
X51721Y-178688D01*
X51717Y-178694D01*
X51714Y-178698D01*
X51706Y-178715D01*
X51640Y-178835D01*
X51373Y-179480D01*
X48800Y-182053D01*
X45439Y-183445D01*
X26561Y-183445D01*
X23200Y-182053D01*
X20627Y-179480D01*
X19235Y-176119D01*
X19235Y-172481D01*
X20627Y-169120D01*
X23200Y-166547D01*
X26561Y-165155D01*
X45439Y-165155D01*
X48800Y-166547D01*
X51373Y-169120D01*
X51640Y-169765D01*
X51701Y-169865D01*
X51761Y-169965D01*
X51766Y-169969D01*
X51769Y-169974D01*
X51860Y-170049D01*
X51948Y-170125D01*
X51954Y-170127D01*
X51959Y-170131D01*
X52067Y-170173D01*
X52176Y-170217D01*
X52184Y-170218D01*
X52189Y-170219D01*
X52207Y-170220D01*
X52343Y-170235D01*
X67484Y-170235D01*
X70001Y-172752D01*
X70075Y-172805D01*
X70144Y-172865D01*
X70174Y-172877D01*
X70200Y-172896D01*
X70287Y-172923D01*
X70372Y-172957D01*
X70413Y-172961D01*
X70435Y-172968D01*
X70468Y-172967D01*
X70539Y-172975D01*
X77132Y-172975D01*
X78025Y-173868D01*
X78025Y-186132D01*
X77132Y-187025D01*
X65868Y-187025D01*
G37*
%LPD*%
%LPC*%
G36*
X102368Y-309025D02*
X102368Y-309025D01*
X101475Y-308132D01*
X101475Y-291868D01*
X102368Y-290975D01*
X104674Y-290975D01*
X104694Y-290972D01*
X104713Y-290974D01*
X104815Y-290952D01*
X104917Y-290936D01*
X104934Y-290926D01*
X104954Y-290922D01*
X105043Y-290869D01*
X105134Y-290820D01*
X105148Y-290806D01*
X105165Y-290796D01*
X105232Y-290717D01*
X105304Y-290642D01*
X105312Y-290624D01*
X105325Y-290609D01*
X105364Y-290513D01*
X105407Y-290419D01*
X105409Y-290399D01*
X105417Y-290381D01*
X105435Y-290214D01*
X105435Y-279786D01*
X105432Y-279766D01*
X105434Y-279747D01*
X105412Y-279645D01*
X105396Y-279543D01*
X105386Y-279526D01*
X105382Y-279506D01*
X105329Y-279417D01*
X105280Y-279326D01*
X105266Y-279312D01*
X105256Y-279295D01*
X105177Y-279228D01*
X105102Y-279156D01*
X105084Y-279148D01*
X105069Y-279135D01*
X104973Y-279096D01*
X104879Y-279053D01*
X104859Y-279051D01*
X104841Y-279043D01*
X104674Y-279025D01*
X102368Y-279025D01*
X101475Y-278132D01*
X101475Y-261868D01*
X102368Y-260975D01*
X116632Y-260975D01*
X117525Y-261868D01*
X117525Y-278132D01*
X116632Y-279025D01*
X114326Y-279025D01*
X114306Y-279028D01*
X114287Y-279026D01*
X114185Y-279048D01*
X114083Y-279064D01*
X114066Y-279074D01*
X114046Y-279078D01*
X113957Y-279131D01*
X113866Y-279180D01*
X113852Y-279194D01*
X113835Y-279204D01*
X113768Y-279283D01*
X113696Y-279358D01*
X113688Y-279376D01*
X113675Y-279391D01*
X113636Y-279487D01*
X113593Y-279581D01*
X113591Y-279601D01*
X113583Y-279619D01*
X113565Y-279786D01*
X113565Y-290214D01*
X113568Y-290234D01*
X113566Y-290253D01*
X113588Y-290355D01*
X113604Y-290457D01*
X113614Y-290474D01*
X113618Y-290494D01*
X113671Y-290583D01*
X113720Y-290674D01*
X113734Y-290688D01*
X113744Y-290705D01*
X113823Y-290772D01*
X113898Y-290844D01*
X113916Y-290852D01*
X113931Y-290865D01*
X114027Y-290904D01*
X114121Y-290947D01*
X114141Y-290949D01*
X114159Y-290957D01*
X114326Y-290975D01*
X116632Y-290975D01*
X117525Y-291868D01*
X117525Y-295174D01*
X117528Y-295194D01*
X117526Y-295213D01*
X117548Y-295315D01*
X117564Y-295417D01*
X117574Y-295434D01*
X117578Y-295454D01*
X117631Y-295543D01*
X117680Y-295634D01*
X117694Y-295648D01*
X117704Y-295665D01*
X117783Y-295732D01*
X117858Y-295804D01*
X117876Y-295812D01*
X117891Y-295825D01*
X117987Y-295864D01*
X118081Y-295907D01*
X118101Y-295909D01*
X118119Y-295917D01*
X118286Y-295935D01*
X126245Y-295935D01*
X126335Y-295921D01*
X126426Y-295913D01*
X126455Y-295901D01*
X126487Y-295896D01*
X126568Y-295853D01*
X126652Y-295817D01*
X126684Y-295791D01*
X126705Y-295780D01*
X126727Y-295757D01*
X126783Y-295712D01*
X127802Y-294693D01*
X132198Y-294693D01*
X135307Y-297802D01*
X135307Y-302198D01*
X132198Y-305307D01*
X127802Y-305307D01*
X126783Y-304288D01*
X126709Y-304235D01*
X126639Y-304175D01*
X126609Y-304163D01*
X126583Y-304144D01*
X126496Y-304117D01*
X126411Y-304083D01*
X126370Y-304079D01*
X126348Y-304072D01*
X126316Y-304073D01*
X126245Y-304065D01*
X118286Y-304065D01*
X118266Y-304068D01*
X118247Y-304066D01*
X118145Y-304088D01*
X118043Y-304104D01*
X118026Y-304114D01*
X118006Y-304118D01*
X117917Y-304171D01*
X117826Y-304220D01*
X117812Y-304234D01*
X117795Y-304244D01*
X117728Y-304323D01*
X117656Y-304398D01*
X117648Y-304416D01*
X117635Y-304431D01*
X117596Y-304527D01*
X117553Y-304621D01*
X117551Y-304641D01*
X117543Y-304659D01*
X117525Y-304826D01*
X117525Y-308132D01*
X116632Y-309025D01*
X102368Y-309025D01*
G37*
%LPD*%
%LPC*%
G36*
X82368Y-159025D02*
X82368Y-159025D01*
X81475Y-158132D01*
X81475Y-141868D01*
X82368Y-140975D01*
X84674Y-140975D01*
X84694Y-140972D01*
X84713Y-140974D01*
X84815Y-140952D01*
X84917Y-140936D01*
X84934Y-140926D01*
X84954Y-140922D01*
X85043Y-140869D01*
X85134Y-140820D01*
X85148Y-140806D01*
X85165Y-140796D01*
X85232Y-140717D01*
X85304Y-140642D01*
X85312Y-140624D01*
X85325Y-140609D01*
X85364Y-140513D01*
X85407Y-140419D01*
X85409Y-140399D01*
X85417Y-140381D01*
X85435Y-140214D01*
X85435Y-129786D01*
X85432Y-129766D01*
X85434Y-129747D01*
X85412Y-129645D01*
X85396Y-129543D01*
X85386Y-129526D01*
X85382Y-129506D01*
X85329Y-129417D01*
X85280Y-129326D01*
X85266Y-129312D01*
X85256Y-129295D01*
X85177Y-129228D01*
X85102Y-129156D01*
X85084Y-129148D01*
X85069Y-129135D01*
X84973Y-129096D01*
X84879Y-129053D01*
X84859Y-129051D01*
X84841Y-129043D01*
X84674Y-129025D01*
X82368Y-129025D01*
X81475Y-128132D01*
X81475Y-111868D01*
X82368Y-110975D01*
X96632Y-110975D01*
X97525Y-111868D01*
X97525Y-115174D01*
X97528Y-115194D01*
X97526Y-115213D01*
X97548Y-115315D01*
X97564Y-115417D01*
X97574Y-115434D01*
X97578Y-115454D01*
X97631Y-115543D01*
X97680Y-115634D01*
X97694Y-115648D01*
X97704Y-115665D01*
X97783Y-115732D01*
X97858Y-115804D01*
X97876Y-115812D01*
X97891Y-115825D01*
X97987Y-115864D01*
X98081Y-115907D01*
X98101Y-115909D01*
X98119Y-115917D01*
X98286Y-115935D01*
X106245Y-115935D01*
X106335Y-115921D01*
X106426Y-115913D01*
X106455Y-115901D01*
X106487Y-115896D01*
X106568Y-115853D01*
X106652Y-115817D01*
X106684Y-115791D01*
X106705Y-115780D01*
X106727Y-115757D01*
X106783Y-115712D01*
X107802Y-114693D01*
X112198Y-114693D01*
X115307Y-117802D01*
X115307Y-122198D01*
X112198Y-125307D01*
X107802Y-125307D01*
X106783Y-124288D01*
X106709Y-124235D01*
X106639Y-124175D01*
X106609Y-124163D01*
X106583Y-124144D01*
X106496Y-124117D01*
X106411Y-124083D01*
X106370Y-124079D01*
X106348Y-124072D01*
X106316Y-124073D01*
X106245Y-124065D01*
X98286Y-124065D01*
X98266Y-124068D01*
X98247Y-124066D01*
X98145Y-124088D01*
X98043Y-124104D01*
X98026Y-124114D01*
X98006Y-124118D01*
X97917Y-124171D01*
X97826Y-124220D01*
X97812Y-124234D01*
X97795Y-124244D01*
X97728Y-124323D01*
X97656Y-124398D01*
X97648Y-124416D01*
X97635Y-124431D01*
X97596Y-124527D01*
X97553Y-124621D01*
X97551Y-124641D01*
X97543Y-124659D01*
X97525Y-124826D01*
X97525Y-128132D01*
X96632Y-129025D01*
X94326Y-129025D01*
X94306Y-129028D01*
X94287Y-129026D01*
X94185Y-129048D01*
X94083Y-129064D01*
X94066Y-129074D01*
X94046Y-129078D01*
X93957Y-129131D01*
X93866Y-129180D01*
X93852Y-129194D01*
X93835Y-129204D01*
X93768Y-129283D01*
X93696Y-129358D01*
X93688Y-129376D01*
X93675Y-129391D01*
X93636Y-129487D01*
X93593Y-129581D01*
X93591Y-129601D01*
X93583Y-129619D01*
X93565Y-129786D01*
X93565Y-140214D01*
X93568Y-140234D01*
X93566Y-140253D01*
X93588Y-140355D01*
X93604Y-140457D01*
X93614Y-140474D01*
X93618Y-140494D01*
X93671Y-140583D01*
X93720Y-140674D01*
X93734Y-140688D01*
X93744Y-140705D01*
X93823Y-140772D01*
X93898Y-140844D01*
X93916Y-140852D01*
X93931Y-140865D01*
X94027Y-140904D01*
X94121Y-140947D01*
X94141Y-140949D01*
X94159Y-140957D01*
X94326Y-140975D01*
X96632Y-140975D01*
X97525Y-141868D01*
X97525Y-158132D01*
X96632Y-159025D01*
X82368Y-159025D01*
G37*
%LPD*%
%LPC*%
G36*
X306168Y-137125D02*
X306168Y-137125D01*
X305275Y-136232D01*
X305275Y-124968D01*
X306168Y-124075D01*
X318432Y-124075D01*
X318769Y-124412D01*
X318843Y-124465D01*
X318912Y-124525D01*
X318942Y-124537D01*
X318968Y-124556D01*
X319055Y-124583D01*
X319140Y-124617D01*
X319181Y-124621D01*
X319203Y-124628D01*
X319236Y-124627D01*
X319307Y-124635D01*
X334514Y-124635D01*
X334534Y-124632D01*
X334553Y-124634D01*
X334655Y-124612D01*
X334757Y-124596D01*
X334774Y-124586D01*
X334794Y-124582D01*
X334883Y-124529D01*
X334974Y-124480D01*
X334988Y-124466D01*
X335005Y-124456D01*
X335072Y-124377D01*
X335144Y-124302D01*
X335152Y-124284D01*
X335165Y-124269D01*
X335204Y-124173D01*
X335247Y-124079D01*
X335249Y-124059D01*
X335257Y-124041D01*
X335275Y-123874D01*
X335275Y-123068D01*
X336168Y-122175D01*
X348432Y-122175D01*
X349325Y-123068D01*
X349325Y-123366D01*
X349328Y-123386D01*
X349326Y-123405D01*
X349348Y-123507D01*
X349364Y-123609D01*
X349374Y-123626D01*
X349378Y-123646D01*
X349431Y-123735D01*
X349480Y-123826D01*
X349494Y-123840D01*
X349504Y-123857D01*
X349583Y-123924D01*
X349658Y-123996D01*
X349676Y-124004D01*
X349691Y-124017D01*
X349787Y-124056D01*
X349881Y-124099D01*
X349901Y-124101D01*
X349919Y-124109D01*
X350086Y-124127D01*
X360594Y-124127D01*
X360937Y-124470D01*
X361011Y-124523D01*
X361081Y-124583D01*
X361111Y-124595D01*
X361137Y-124614D01*
X361224Y-124641D01*
X361309Y-124675D01*
X361350Y-124679D01*
X361372Y-124686D01*
X361404Y-124685D01*
X361475Y-124693D01*
X362198Y-124693D01*
X365307Y-127802D01*
X365307Y-132198D01*
X362198Y-135307D01*
X357802Y-135307D01*
X355991Y-133496D01*
X355917Y-133443D01*
X355847Y-133383D01*
X355817Y-133371D01*
X355791Y-133352D01*
X355704Y-133325D01*
X355619Y-133291D01*
X355578Y-133287D01*
X355556Y-133280D01*
X355524Y-133281D01*
X355453Y-133273D01*
X350086Y-133273D01*
X350066Y-133276D01*
X350047Y-133274D01*
X349945Y-133296D01*
X349843Y-133312D01*
X349826Y-133322D01*
X349806Y-133326D01*
X349717Y-133379D01*
X349626Y-133428D01*
X349612Y-133442D01*
X349595Y-133452D01*
X349528Y-133531D01*
X349456Y-133606D01*
X349448Y-133624D01*
X349435Y-133639D01*
X349396Y-133735D01*
X349353Y-133829D01*
X349351Y-133849D01*
X349343Y-133867D01*
X349325Y-134034D01*
X349325Y-134332D01*
X348432Y-135225D01*
X336168Y-135225D01*
X335275Y-134332D01*
X335275Y-133526D01*
X335272Y-133506D01*
X335274Y-133487D01*
X335252Y-133385D01*
X335236Y-133283D01*
X335226Y-133266D01*
X335222Y-133246D01*
X335169Y-133157D01*
X335120Y-133066D01*
X335106Y-133052D01*
X335096Y-133035D01*
X335017Y-132968D01*
X334942Y-132896D01*
X334924Y-132888D01*
X334909Y-132875D01*
X334813Y-132836D01*
X334719Y-132793D01*
X334699Y-132791D01*
X334681Y-132783D01*
X334514Y-132765D01*
X320086Y-132765D01*
X320066Y-132768D01*
X320047Y-132766D01*
X319945Y-132788D01*
X319843Y-132804D01*
X319826Y-132814D01*
X319806Y-132818D01*
X319717Y-132871D01*
X319626Y-132920D01*
X319612Y-132934D01*
X319595Y-132944D01*
X319528Y-133023D01*
X319456Y-133098D01*
X319448Y-133116D01*
X319435Y-133131D01*
X319396Y-133227D01*
X319353Y-133321D01*
X319351Y-133341D01*
X319343Y-133359D01*
X319325Y-133526D01*
X319325Y-136232D01*
X318432Y-137125D01*
X306168Y-137125D01*
G37*
%LPD*%
%LPC*%
G36*
X223868Y-438025D02*
X223868Y-438025D01*
X222975Y-437132D01*
X222975Y-425868D01*
X223868Y-424975D01*
X225174Y-424975D01*
X225194Y-424972D01*
X225213Y-424974D01*
X225315Y-424952D01*
X225417Y-424936D01*
X225434Y-424926D01*
X225454Y-424922D01*
X225543Y-424869D01*
X225634Y-424820D01*
X225648Y-424806D01*
X225665Y-424796D01*
X225732Y-424717D01*
X225804Y-424642D01*
X225812Y-424624D01*
X225825Y-424609D01*
X225864Y-424513D01*
X225907Y-424419D01*
X225909Y-424399D01*
X225917Y-424381D01*
X225935Y-424214D01*
X225935Y-415786D01*
X225932Y-415766D01*
X225934Y-415747D01*
X225912Y-415645D01*
X225896Y-415543D01*
X225886Y-415526D01*
X225882Y-415506D01*
X225829Y-415417D01*
X225780Y-415326D01*
X225766Y-415312D01*
X225756Y-415295D01*
X225677Y-415228D01*
X225602Y-415156D01*
X225584Y-415148D01*
X225569Y-415135D01*
X225473Y-415096D01*
X225379Y-415053D01*
X225359Y-415051D01*
X225341Y-415043D01*
X225174Y-415025D01*
X223868Y-415025D01*
X222975Y-414132D01*
X222975Y-402868D01*
X223868Y-401975D01*
X236132Y-401975D01*
X237025Y-402868D01*
X237025Y-409461D01*
X237039Y-409551D01*
X237047Y-409642D01*
X237059Y-409672D01*
X237064Y-409704D01*
X237107Y-409784D01*
X237143Y-409868D01*
X237169Y-409900D01*
X237180Y-409921D01*
X237203Y-409943D01*
X237248Y-409999D01*
X242961Y-415712D01*
X243035Y-415765D01*
X243104Y-415825D01*
X243134Y-415837D01*
X243160Y-415856D01*
X243247Y-415883D01*
X243332Y-415917D01*
X243373Y-415921D01*
X243395Y-415928D01*
X243428Y-415927D01*
X243499Y-415935D01*
X246245Y-415935D01*
X246335Y-415921D01*
X246426Y-415913D01*
X246455Y-415901D01*
X246487Y-415896D01*
X246568Y-415853D01*
X246652Y-415817D01*
X246684Y-415791D01*
X246705Y-415780D01*
X246727Y-415757D01*
X246783Y-415712D01*
X247802Y-414693D01*
X252198Y-414693D01*
X255307Y-417802D01*
X255307Y-422198D01*
X252198Y-425307D01*
X247802Y-425307D01*
X246783Y-424288D01*
X246709Y-424235D01*
X246639Y-424175D01*
X246609Y-424163D01*
X246583Y-424144D01*
X246496Y-424117D01*
X246411Y-424083D01*
X246370Y-424079D01*
X246348Y-424072D01*
X246316Y-424073D01*
X246245Y-424065D01*
X239816Y-424065D01*
X237212Y-421461D01*
X235364Y-419613D01*
X235306Y-419571D01*
X235254Y-419521D01*
X235207Y-419499D01*
X235165Y-419469D01*
X235096Y-419448D01*
X235031Y-419418D01*
X234979Y-419412D01*
X234929Y-419397D01*
X234858Y-419399D01*
X234787Y-419391D01*
X234736Y-419402D01*
X234684Y-419403D01*
X234616Y-419428D01*
X234546Y-419443D01*
X234502Y-419470D01*
X234453Y-419488D01*
X234397Y-419532D01*
X234335Y-419569D01*
X234301Y-419609D01*
X234261Y-419641D01*
X234222Y-419702D01*
X234175Y-419756D01*
X234156Y-419804D01*
X234128Y-419848D01*
X234110Y-419918D01*
X234083Y-419984D01*
X234075Y-420056D01*
X234067Y-420087D01*
X234069Y-420110D01*
X234065Y-420151D01*
X234065Y-424214D01*
X234068Y-424234D01*
X234066Y-424253D01*
X234088Y-424355D01*
X234104Y-424457D01*
X234114Y-424474D01*
X234118Y-424494D01*
X234171Y-424583D01*
X234220Y-424674D01*
X234234Y-424688D01*
X234244Y-424705D01*
X234323Y-424772D01*
X234398Y-424844D01*
X234416Y-424852D01*
X234431Y-424865D01*
X234527Y-424904D01*
X234621Y-424947D01*
X234641Y-424949D01*
X234659Y-424957D01*
X234826Y-424975D01*
X236132Y-424975D01*
X237025Y-425868D01*
X237025Y-437132D01*
X236132Y-438025D01*
X223868Y-438025D01*
G37*
%LPD*%
%LPC*%
G36*
X290168Y-363825D02*
X290168Y-363825D01*
X289275Y-362932D01*
X289275Y-350668D01*
X290168Y-349775D01*
X290974Y-349775D01*
X290994Y-349772D01*
X291013Y-349774D01*
X291115Y-349752D01*
X291217Y-349736D01*
X291234Y-349726D01*
X291254Y-349722D01*
X291343Y-349669D01*
X291434Y-349620D01*
X291448Y-349606D01*
X291465Y-349596D01*
X291532Y-349517D01*
X291604Y-349442D01*
X291612Y-349424D01*
X291625Y-349409D01*
X291664Y-349313D01*
X291707Y-349219D01*
X291709Y-349199D01*
X291717Y-349181D01*
X291735Y-349014D01*
X291735Y-342516D01*
X294470Y-339781D01*
X294523Y-339707D01*
X294583Y-339638D01*
X294595Y-339608D01*
X294614Y-339582D01*
X294641Y-339495D01*
X294675Y-339410D01*
X294679Y-339369D01*
X294686Y-339346D01*
X294685Y-339314D01*
X294693Y-339243D01*
X294693Y-337802D01*
X297802Y-334693D01*
X302198Y-334693D01*
X305517Y-338012D01*
X305591Y-338065D01*
X305661Y-338125D01*
X305691Y-338137D01*
X305717Y-338156D01*
X305804Y-338183D01*
X305889Y-338217D01*
X305930Y-338221D01*
X305952Y-338228D01*
X305984Y-338227D01*
X306055Y-338235D01*
X315614Y-338235D01*
X315634Y-338232D01*
X315653Y-338234D01*
X315755Y-338212D01*
X315857Y-338196D01*
X315874Y-338186D01*
X315894Y-338182D01*
X315983Y-338129D01*
X316074Y-338080D01*
X316088Y-338066D01*
X316105Y-338056D01*
X316172Y-337977D01*
X316244Y-337902D01*
X316252Y-337884D01*
X316265Y-337869D01*
X316304Y-337773D01*
X316347Y-337679D01*
X316349Y-337659D01*
X316357Y-337641D01*
X316375Y-337474D01*
X316375Y-336168D01*
X317268Y-335275D01*
X328532Y-335275D01*
X329425Y-336168D01*
X329425Y-348432D01*
X328532Y-349325D01*
X317268Y-349325D01*
X316375Y-348432D01*
X316375Y-347126D01*
X316372Y-347106D01*
X316374Y-347087D01*
X316352Y-346985D01*
X316336Y-346883D01*
X316326Y-346866D01*
X316322Y-346846D01*
X316269Y-346757D01*
X316220Y-346666D01*
X316206Y-346652D01*
X316196Y-346635D01*
X316117Y-346568D01*
X316042Y-346496D01*
X316024Y-346488D01*
X316009Y-346475D01*
X315913Y-346436D01*
X315819Y-346393D01*
X315799Y-346391D01*
X315781Y-346383D01*
X315614Y-346365D01*
X300626Y-346365D01*
X300606Y-346368D01*
X300587Y-346366D01*
X300485Y-346388D01*
X300383Y-346404D01*
X300366Y-346414D01*
X300346Y-346418D01*
X300257Y-346471D01*
X300166Y-346520D01*
X300152Y-346534D01*
X300135Y-346544D01*
X300068Y-346623D01*
X299996Y-346698D01*
X299988Y-346716D01*
X299975Y-346731D01*
X299936Y-346827D01*
X299893Y-346921D01*
X299891Y-346941D01*
X299883Y-346959D01*
X299865Y-347126D01*
X299865Y-349014D01*
X299868Y-349034D01*
X299866Y-349053D01*
X299888Y-349155D01*
X299904Y-349257D01*
X299914Y-349274D01*
X299918Y-349294D01*
X299971Y-349383D01*
X300020Y-349474D01*
X300034Y-349488D01*
X300044Y-349505D01*
X300123Y-349572D01*
X300198Y-349644D01*
X300216Y-349652D01*
X300231Y-349665D01*
X300327Y-349704D01*
X300421Y-349747D01*
X300441Y-349749D01*
X300459Y-349757D01*
X300626Y-349775D01*
X301432Y-349775D01*
X302325Y-350668D01*
X302325Y-362932D01*
X301432Y-363825D01*
X290168Y-363825D01*
G37*
%LPD*%
%LPC*%
G36*
X116727Y-414573D02*
X116727Y-414573D01*
X112713Y-412910D01*
X109640Y-409837D01*
X107977Y-405823D01*
X107977Y-401477D01*
X109640Y-397463D01*
X112713Y-394390D01*
X116727Y-392727D01*
X121073Y-392727D01*
X125087Y-394390D01*
X126409Y-395712D01*
X126483Y-395765D01*
X126553Y-395825D01*
X126583Y-395837D01*
X126609Y-395856D01*
X126696Y-395883D01*
X126781Y-395917D01*
X126822Y-395921D01*
X126844Y-395928D01*
X126876Y-395927D01*
X126948Y-395935D01*
X134214Y-395935D01*
X134234Y-395932D01*
X134253Y-395934D01*
X134355Y-395912D01*
X134457Y-395896D01*
X134474Y-395886D01*
X134494Y-395882D01*
X134583Y-395829D01*
X134674Y-395780D01*
X134688Y-395766D01*
X134705Y-395756D01*
X134772Y-395677D01*
X134844Y-395602D01*
X134852Y-395584D01*
X134865Y-395569D01*
X134904Y-395473D01*
X134947Y-395379D01*
X134949Y-395359D01*
X134957Y-395341D01*
X134975Y-395174D01*
X134975Y-393868D01*
X135868Y-392975D01*
X147132Y-392975D01*
X148025Y-393868D01*
X148025Y-406132D01*
X147132Y-407025D01*
X135868Y-407025D01*
X134975Y-406132D01*
X134975Y-404826D01*
X134974Y-404818D01*
X134974Y-404816D01*
X134972Y-404806D01*
X134974Y-404787D01*
X134952Y-404685D01*
X134936Y-404583D01*
X134926Y-404566D01*
X134922Y-404546D01*
X134869Y-404457D01*
X134820Y-404366D01*
X134806Y-404352D01*
X134796Y-404335D01*
X134717Y-404268D01*
X134642Y-404196D01*
X134624Y-404188D01*
X134609Y-404175D01*
X134513Y-404136D01*
X134419Y-404093D01*
X134399Y-404091D01*
X134381Y-404083D01*
X134214Y-404065D01*
X130584Y-404065D01*
X130564Y-404068D01*
X130545Y-404066D01*
X130443Y-404088D01*
X130341Y-404104D01*
X130324Y-404114D01*
X130304Y-404118D01*
X130215Y-404171D01*
X130124Y-404220D01*
X130110Y-404234D01*
X130093Y-404244D01*
X130026Y-404323D01*
X129954Y-404398D01*
X129946Y-404416D01*
X129933Y-404431D01*
X129894Y-404527D01*
X129851Y-404621D01*
X129849Y-404641D01*
X129841Y-404659D01*
X129823Y-404826D01*
X129823Y-405823D01*
X128160Y-409837D01*
X125087Y-412910D01*
X121073Y-414573D01*
X116727Y-414573D01*
G37*
%LPD*%
%LPC*%
G36*
X116727Y-439973D02*
X116727Y-439973D01*
X112713Y-438310D01*
X109640Y-435237D01*
X107977Y-431223D01*
X107977Y-426877D01*
X109640Y-422863D01*
X112713Y-419790D01*
X116727Y-418127D01*
X121073Y-418127D01*
X125087Y-419790D01*
X128160Y-422863D01*
X129055Y-425023D01*
X129116Y-425123D01*
X129176Y-425223D01*
X129181Y-425227D01*
X129184Y-425232D01*
X129274Y-425307D01*
X129363Y-425383D01*
X129369Y-425385D01*
X129374Y-425389D01*
X129482Y-425431D01*
X129591Y-425475D01*
X129599Y-425476D01*
X129603Y-425477D01*
X129622Y-425478D01*
X129758Y-425493D01*
X139161Y-425493D01*
X139252Y-425479D01*
X139342Y-425471D01*
X139372Y-425459D01*
X139404Y-425454D01*
X139485Y-425411D01*
X139569Y-425375D01*
X139601Y-425349D01*
X139622Y-425338D01*
X139644Y-425315D01*
X139700Y-425270D01*
X144470Y-420500D01*
X144523Y-420426D01*
X144583Y-420356D01*
X144595Y-420326D01*
X144614Y-420300D01*
X144641Y-420213D01*
X144675Y-420128D01*
X144679Y-420087D01*
X144686Y-420065D01*
X144685Y-420033D01*
X144693Y-419961D01*
X144693Y-417802D01*
X147802Y-414693D01*
X152198Y-414693D01*
X155307Y-417802D01*
X155307Y-422198D01*
X152198Y-425307D01*
X150039Y-425307D01*
X149948Y-425321D01*
X149858Y-425329D01*
X149828Y-425341D01*
X149796Y-425346D01*
X149715Y-425389D01*
X149631Y-425425D01*
X149599Y-425451D01*
X149578Y-425462D01*
X149556Y-425485D01*
X149500Y-425530D01*
X142423Y-432607D01*
X129758Y-432607D01*
X129643Y-432626D01*
X129527Y-432643D01*
X129522Y-432645D01*
X129515Y-432646D01*
X129413Y-432701D01*
X129308Y-432754D01*
X129303Y-432759D01*
X129298Y-432762D01*
X129218Y-432846D01*
X129136Y-432930D01*
X129132Y-432936D01*
X129129Y-432940D01*
X129121Y-432957D01*
X129055Y-433077D01*
X128160Y-435237D01*
X125087Y-438310D01*
X121073Y-439973D01*
X116727Y-439973D01*
G37*
%LPD*%
%LPC*%
G36*
X127802Y-255307D02*
X127802Y-255307D01*
X124693Y-252198D01*
X124693Y-250757D01*
X124679Y-250667D01*
X124671Y-250576D01*
X124659Y-250546D01*
X124654Y-250514D01*
X124611Y-250434D01*
X124575Y-250350D01*
X124549Y-250318D01*
X124538Y-250297D01*
X124515Y-250275D01*
X124470Y-250219D01*
X108539Y-234288D01*
X108465Y-234235D01*
X108396Y-234175D01*
X108366Y-234163D01*
X108340Y-234144D01*
X108253Y-234117D01*
X108168Y-234083D01*
X108127Y-234079D01*
X108104Y-234072D01*
X108072Y-234073D01*
X108001Y-234065D01*
X95786Y-234065D01*
X95766Y-234068D01*
X95747Y-234066D01*
X95645Y-234088D01*
X95543Y-234104D01*
X95526Y-234114D01*
X95506Y-234118D01*
X95417Y-234171D01*
X95326Y-234220D01*
X95312Y-234234D01*
X95295Y-234244D01*
X95228Y-234323D01*
X95156Y-234398D01*
X95148Y-234416D01*
X95135Y-234431D01*
X95096Y-234527D01*
X95053Y-234621D01*
X95051Y-234641D01*
X95043Y-234659D01*
X95025Y-234826D01*
X95025Y-236132D01*
X94132Y-237025D01*
X82868Y-237025D01*
X81975Y-236132D01*
X81975Y-223868D01*
X82868Y-222975D01*
X94132Y-222975D01*
X95025Y-223868D01*
X95025Y-225174D01*
X95028Y-225194D01*
X95026Y-225213D01*
X95048Y-225315D01*
X95064Y-225417D01*
X95074Y-225434D01*
X95078Y-225454D01*
X95131Y-225543D01*
X95180Y-225634D01*
X95194Y-225648D01*
X95204Y-225665D01*
X95283Y-225732D01*
X95358Y-225804D01*
X95376Y-225812D01*
X95391Y-225825D01*
X95487Y-225864D01*
X95581Y-225907D01*
X95601Y-225909D01*
X95619Y-225917D01*
X95786Y-225935D01*
X111684Y-225935D01*
X130219Y-244470D01*
X130293Y-244523D01*
X130362Y-244583D01*
X130392Y-244595D01*
X130418Y-244614D01*
X130505Y-244641D01*
X130590Y-244675D01*
X130631Y-244679D01*
X130654Y-244686D01*
X130686Y-244685D01*
X130757Y-244693D01*
X132198Y-244693D01*
X135307Y-247802D01*
X135307Y-252198D01*
X132198Y-255307D01*
X127802Y-255307D01*
G37*
%LPD*%
%LPC*%
G36*
X26561Y-158045D02*
X26561Y-158045D01*
X23200Y-156653D01*
X20627Y-154080D01*
X19235Y-150719D01*
X19235Y-147081D01*
X20627Y-143720D01*
X23200Y-141147D01*
X26561Y-139755D01*
X45439Y-139755D01*
X48800Y-141147D01*
X51373Y-143720D01*
X52765Y-147081D01*
X52765Y-150719D01*
X51373Y-154080D01*
X48800Y-156653D01*
X45439Y-158045D01*
X26561Y-158045D01*
G37*
%LPD*%
%LPC*%
G36*
X26561Y-285045D02*
X26561Y-285045D01*
X23200Y-283653D01*
X20627Y-281080D01*
X19235Y-277719D01*
X19235Y-274081D01*
X20627Y-270720D01*
X23200Y-268147D01*
X26561Y-266755D01*
X45439Y-266755D01*
X48800Y-268147D01*
X51373Y-270720D01*
X52765Y-274081D01*
X52765Y-277719D01*
X51373Y-281080D01*
X48800Y-283653D01*
X45439Y-285045D01*
X26561Y-285045D01*
G37*
%LPD*%
%LPC*%
G36*
X26561Y-259645D02*
X26561Y-259645D01*
X23200Y-258253D01*
X20627Y-255680D01*
X19235Y-252319D01*
X19235Y-248681D01*
X20627Y-245320D01*
X23200Y-242747D01*
X26561Y-241355D01*
X45439Y-241355D01*
X48800Y-242747D01*
X51373Y-245320D01*
X52765Y-248681D01*
X52765Y-252319D01*
X51373Y-255680D01*
X48800Y-258253D01*
X45439Y-259645D01*
X26561Y-259645D01*
G37*
%LPD*%
%LPC*%
G36*
X26561Y-107245D02*
X26561Y-107245D01*
X23200Y-105853D01*
X20627Y-103280D01*
X19235Y-99919D01*
X19235Y-96281D01*
X20627Y-92920D01*
X23200Y-90347D01*
X26561Y-88955D01*
X45439Y-88955D01*
X48800Y-90347D01*
X51373Y-92920D01*
X52765Y-96281D01*
X52765Y-99919D01*
X51373Y-103280D01*
X48800Y-105853D01*
X45439Y-107245D01*
X26561Y-107245D01*
G37*
%LPD*%
%LPC*%
G36*
X318618Y-406425D02*
X318618Y-406425D01*
X317725Y-405532D01*
X317725Y-392268D01*
X318618Y-391375D01*
X325882Y-391375D01*
X326775Y-392268D01*
X326775Y-394582D01*
X326778Y-394602D01*
X326776Y-394621D01*
X326798Y-394723D01*
X326814Y-394825D01*
X326824Y-394842D01*
X326828Y-394862D01*
X326881Y-394951D01*
X326930Y-395042D01*
X326944Y-395056D01*
X326954Y-395073D01*
X327033Y-395140D01*
X327108Y-395212D01*
X327126Y-395220D01*
X327141Y-395233D01*
X327237Y-395272D01*
X327331Y-395315D01*
X327351Y-395317D01*
X327369Y-395325D01*
X327536Y-395343D01*
X329664Y-395343D01*
X329684Y-395340D01*
X329703Y-395342D01*
X329805Y-395320D01*
X329907Y-395304D01*
X329924Y-395294D01*
X329944Y-395290D01*
X330033Y-395237D01*
X330124Y-395188D01*
X330138Y-395174D01*
X330155Y-395164D01*
X330222Y-395085D01*
X330294Y-395010D01*
X330302Y-394992D01*
X330315Y-394977D01*
X330354Y-394881D01*
X330397Y-394787D01*
X330399Y-394767D01*
X330407Y-394749D01*
X330425Y-394582D01*
X330425Y-392268D01*
X331170Y-391523D01*
X331223Y-391449D01*
X331283Y-391380D01*
X331295Y-391350D01*
X331314Y-391324D01*
X331341Y-391237D01*
X331375Y-391152D01*
X331379Y-391111D01*
X331386Y-391089D01*
X331385Y-391056D01*
X331393Y-390985D01*
X331393Y-382077D01*
X332752Y-380718D01*
X332805Y-380644D01*
X332865Y-380574D01*
X332877Y-380544D01*
X332896Y-380518D01*
X332923Y-380431D01*
X332957Y-380346D01*
X332961Y-380305D01*
X332968Y-380283D01*
X332967Y-380251D01*
X332975Y-380179D01*
X332975Y-372868D01*
X333868Y-371975D01*
X346132Y-371975D01*
X347025Y-372868D01*
X347025Y-384132D01*
X346132Y-385025D01*
X339268Y-385025D01*
X339248Y-385028D01*
X339229Y-385026D01*
X339127Y-385048D01*
X339025Y-385064D01*
X339008Y-385074D01*
X338988Y-385078D01*
X338899Y-385131D01*
X338808Y-385180D01*
X338794Y-385194D01*
X338777Y-385204D01*
X338710Y-385283D01*
X338638Y-385358D01*
X338630Y-385376D01*
X338617Y-385391D01*
X338578Y-385487D01*
X338535Y-385581D01*
X338533Y-385601D01*
X338525Y-385619D01*
X338507Y-385786D01*
X338507Y-390985D01*
X338521Y-391075D01*
X338529Y-391166D01*
X338541Y-391196D01*
X338546Y-391228D01*
X338589Y-391309D01*
X338625Y-391392D01*
X338651Y-391425D01*
X338662Y-391445D01*
X338685Y-391467D01*
X338730Y-391523D01*
X339475Y-392268D01*
X339475Y-405532D01*
X338582Y-406425D01*
X331318Y-406425D01*
X330425Y-405532D01*
X330425Y-403218D01*
X330422Y-403198D01*
X330424Y-403179D01*
X330402Y-403077D01*
X330386Y-402975D01*
X330376Y-402958D01*
X330372Y-402938D01*
X330319Y-402849D01*
X330270Y-402758D01*
X330256Y-402744D01*
X330246Y-402727D01*
X330167Y-402660D01*
X330092Y-402588D01*
X330074Y-402580D01*
X330059Y-402567D01*
X329963Y-402528D01*
X329869Y-402485D01*
X329849Y-402483D01*
X329831Y-402475D01*
X329664Y-402457D01*
X327536Y-402457D01*
X327516Y-402460D01*
X327497Y-402458D01*
X327395Y-402480D01*
X327293Y-402496D01*
X327276Y-402506D01*
X327256Y-402510D01*
X327167Y-402563D01*
X327076Y-402612D01*
X327062Y-402626D01*
X327045Y-402636D01*
X326978Y-402715D01*
X326906Y-402790D01*
X326898Y-402808D01*
X326885Y-402823D01*
X326846Y-402919D01*
X326803Y-403013D01*
X326801Y-403033D01*
X326793Y-403051D01*
X326775Y-403218D01*
X326775Y-405532D01*
X325882Y-406425D01*
X318618Y-406425D01*
G37*
%LPD*%
%LPC*%
G36*
X255118Y-406425D02*
X255118Y-406425D01*
X254225Y-405532D01*
X254225Y-392268D01*
X255118Y-391375D01*
X262382Y-391375D01*
X263275Y-392268D01*
X263275Y-394582D01*
X263278Y-394602D01*
X263276Y-394621D01*
X263298Y-394723D01*
X263314Y-394825D01*
X263324Y-394842D01*
X263328Y-394862D01*
X263381Y-394951D01*
X263430Y-395042D01*
X263444Y-395056D01*
X263454Y-395073D01*
X263533Y-395140D01*
X263608Y-395212D01*
X263626Y-395220D01*
X263641Y-395233D01*
X263737Y-395272D01*
X263831Y-395315D01*
X263851Y-395317D01*
X263869Y-395325D01*
X264036Y-395343D01*
X266164Y-395343D01*
X266184Y-395340D01*
X266203Y-395342D01*
X266305Y-395320D01*
X266407Y-395304D01*
X266424Y-395294D01*
X266444Y-395290D01*
X266533Y-395237D01*
X266624Y-395188D01*
X266638Y-395174D01*
X266655Y-395164D01*
X266722Y-395085D01*
X266794Y-395010D01*
X266802Y-394992D01*
X266815Y-394977D01*
X266854Y-394881D01*
X266897Y-394787D01*
X266899Y-394767D01*
X266907Y-394749D01*
X266925Y-394582D01*
X266925Y-392268D01*
X267818Y-391375D01*
X267982Y-391375D01*
X268002Y-391372D01*
X268021Y-391374D01*
X268123Y-391352D01*
X268225Y-391336D01*
X268242Y-391326D01*
X268262Y-391322D01*
X268351Y-391269D01*
X268442Y-391220D01*
X268456Y-391206D01*
X268473Y-391196D01*
X268540Y-391117D01*
X268612Y-391042D01*
X268620Y-391024D01*
X268633Y-391009D01*
X268672Y-390913D01*
X268715Y-390819D01*
X268717Y-390799D01*
X268725Y-390781D01*
X268743Y-390614D01*
X268743Y-386286D01*
X268740Y-386266D01*
X268742Y-386247D01*
X268720Y-386145D01*
X268704Y-386043D01*
X268694Y-386026D01*
X268690Y-386006D01*
X268637Y-385917D01*
X268588Y-385826D01*
X268574Y-385812D01*
X268564Y-385795D01*
X268485Y-385728D01*
X268410Y-385656D01*
X268392Y-385648D01*
X268377Y-385635D01*
X268281Y-385596D01*
X268187Y-385553D01*
X268167Y-385551D01*
X268149Y-385543D01*
X267982Y-385525D01*
X266168Y-385525D01*
X265275Y-384632D01*
X265275Y-373368D01*
X266168Y-372475D01*
X278432Y-372475D01*
X279325Y-373368D01*
X279325Y-384632D01*
X278432Y-385525D01*
X276618Y-385525D01*
X276598Y-385528D01*
X276579Y-385526D01*
X276477Y-385548D01*
X276375Y-385564D01*
X276358Y-385574D01*
X276338Y-385578D01*
X276249Y-385631D01*
X276158Y-385680D01*
X276144Y-385694D01*
X276127Y-385704D01*
X276060Y-385783D01*
X275988Y-385858D01*
X275980Y-385876D01*
X275967Y-385891D01*
X275928Y-385987D01*
X275885Y-386081D01*
X275883Y-386101D01*
X275875Y-386119D01*
X275857Y-386286D01*
X275857Y-391835D01*
X275871Y-391925D01*
X275879Y-392016D01*
X275891Y-392046D01*
X275896Y-392078D01*
X275939Y-392158D01*
X275975Y-392242D01*
X275975Y-405532D01*
X275082Y-406425D01*
X267818Y-406425D01*
X266925Y-405532D01*
X266925Y-403218D01*
X266922Y-403198D01*
X266924Y-403179D01*
X266902Y-403077D01*
X266886Y-402975D01*
X266876Y-402958D01*
X266872Y-402938D01*
X266819Y-402849D01*
X266770Y-402758D01*
X266756Y-402744D01*
X266746Y-402727D01*
X266667Y-402660D01*
X266592Y-402588D01*
X266574Y-402580D01*
X266559Y-402567D01*
X266463Y-402528D01*
X266369Y-402485D01*
X266349Y-402483D01*
X266331Y-402475D01*
X266164Y-402457D01*
X264036Y-402457D01*
X264016Y-402460D01*
X263997Y-402458D01*
X263895Y-402480D01*
X263793Y-402496D01*
X263776Y-402506D01*
X263756Y-402510D01*
X263667Y-402563D01*
X263576Y-402612D01*
X263562Y-402626D01*
X263545Y-402636D01*
X263478Y-402715D01*
X263406Y-402790D01*
X263398Y-402808D01*
X263385Y-402823D01*
X263346Y-402919D01*
X263303Y-403013D01*
X263301Y-403033D01*
X263293Y-403051D01*
X263275Y-403218D01*
X263275Y-405532D01*
X262382Y-406425D01*
X255118Y-406425D01*
G37*
%LPD*%
%LPC*%
G36*
X347470Y-504823D02*
X347470Y-504823D01*
X346577Y-503930D01*
X346577Y-483870D01*
X347470Y-482977D01*
X367530Y-482977D01*
X368423Y-483870D01*
X368423Y-503930D01*
X367530Y-504823D01*
X347470Y-504823D01*
G37*
%LPD*%
%LPC*%
G36*
X242470Y-116523D02*
X242470Y-116523D01*
X241577Y-115630D01*
X241577Y-95570D01*
X242470Y-94677D01*
X262530Y-94677D01*
X263423Y-95570D01*
X263423Y-115630D01*
X262530Y-116523D01*
X242470Y-116523D01*
G37*
%LPD*%
%LPC*%
G36*
X67802Y-325307D02*
X67802Y-325307D01*
X64693Y-322198D01*
X64693Y-317802D01*
X67802Y-314693D01*
X72198Y-314693D01*
X73725Y-316220D01*
X73799Y-316273D01*
X73869Y-316333D01*
X73899Y-316345D01*
X73925Y-316364D01*
X74012Y-316391D01*
X74097Y-316425D01*
X74138Y-316429D01*
X74160Y-316436D01*
X74192Y-316435D01*
X74263Y-316443D01*
X115737Y-316443D01*
X115827Y-316429D01*
X115918Y-316421D01*
X115947Y-316409D01*
X115979Y-316404D01*
X116060Y-316361D01*
X116144Y-316325D01*
X116176Y-316299D01*
X116197Y-316288D01*
X116219Y-316265D01*
X116275Y-316220D01*
X117802Y-314693D01*
X122198Y-314693D01*
X125307Y-317802D01*
X125307Y-322198D01*
X122198Y-325307D01*
X117802Y-325307D01*
X116275Y-323780D01*
X116201Y-323727D01*
X116131Y-323667D01*
X116101Y-323655D01*
X116075Y-323636D01*
X115988Y-323609D01*
X115903Y-323575D01*
X115862Y-323571D01*
X115840Y-323564D01*
X115808Y-323565D01*
X115737Y-323557D01*
X74263Y-323557D01*
X74173Y-323571D01*
X74082Y-323579D01*
X74053Y-323591D01*
X74021Y-323596D01*
X73940Y-323639D01*
X73856Y-323675D01*
X73824Y-323701D01*
X73803Y-323712D01*
X73781Y-323735D01*
X73725Y-323780D01*
X72198Y-325307D01*
X67802Y-325307D01*
G37*
%LPD*%
%LPC*%
G36*
X333427Y-116523D02*
X333427Y-116523D01*
X329413Y-114860D01*
X326340Y-111787D01*
X324677Y-107773D01*
X324677Y-103427D01*
X326340Y-99413D01*
X329413Y-96340D01*
X333427Y-94677D01*
X337773Y-94677D01*
X341787Y-96340D01*
X344860Y-99413D01*
X346523Y-103427D01*
X346523Y-107773D01*
X344860Y-111787D01*
X341787Y-114860D01*
X337773Y-116523D01*
X333427Y-116523D01*
G37*
%LPD*%
%LPC*%
G36*
X116727Y-465373D02*
X116727Y-465373D01*
X112713Y-463710D01*
X109640Y-460637D01*
X107977Y-456623D01*
X107977Y-452277D01*
X109640Y-448263D01*
X112713Y-445190D01*
X116727Y-443527D01*
X121073Y-443527D01*
X125087Y-445190D01*
X128160Y-448263D01*
X129823Y-452277D01*
X129823Y-456623D01*
X128160Y-460637D01*
X125087Y-463710D01*
X121073Y-465373D01*
X116727Y-465373D01*
G37*
%LPD*%
%LPC*%
G36*
X361127Y-116523D02*
X361127Y-116523D01*
X357113Y-114860D01*
X354040Y-111787D01*
X352377Y-107773D01*
X352377Y-103427D01*
X354040Y-99413D01*
X357113Y-96340D01*
X361127Y-94677D01*
X365473Y-94677D01*
X369487Y-96340D01*
X372560Y-99413D01*
X374223Y-103427D01*
X374223Y-107773D01*
X372560Y-111787D01*
X369487Y-114860D01*
X365473Y-116523D01*
X361127Y-116523D01*
G37*
%LPD*%
%LPC*%
G36*
X313727Y-533223D02*
X313727Y-533223D01*
X309713Y-531560D01*
X306640Y-528487D01*
X304977Y-524473D01*
X304977Y-520127D01*
X306640Y-516113D01*
X309713Y-513040D01*
X313727Y-511377D01*
X318073Y-511377D01*
X322087Y-513040D01*
X325160Y-516113D01*
X326823Y-520127D01*
X326823Y-524473D01*
X325160Y-528487D01*
X322087Y-531560D01*
X318073Y-533223D01*
X313727Y-533223D01*
G37*
%LPD*%
%LPC*%
G36*
X91327Y-427273D02*
X91327Y-427273D01*
X87313Y-425610D01*
X84240Y-422537D01*
X82577Y-418523D01*
X82577Y-414177D01*
X84240Y-410163D01*
X87313Y-407090D01*
X91327Y-405427D01*
X95673Y-405427D01*
X99687Y-407090D01*
X102760Y-410163D01*
X104423Y-414177D01*
X104423Y-418523D01*
X102760Y-422537D01*
X99687Y-425610D01*
X95673Y-427273D01*
X91327Y-427273D01*
G37*
%LPD*%
%LPC*%
G36*
X91327Y-452673D02*
X91327Y-452673D01*
X87313Y-451010D01*
X84240Y-447937D01*
X82577Y-443923D01*
X82577Y-439577D01*
X84240Y-435563D01*
X87313Y-432490D01*
X91327Y-430827D01*
X95673Y-430827D01*
X99687Y-432490D01*
X102760Y-435563D01*
X104423Y-439577D01*
X104423Y-443923D01*
X102760Y-447937D01*
X99687Y-451010D01*
X95673Y-452673D01*
X91327Y-452673D01*
G37*
%LPD*%
%LPC*%
G36*
X347227Y-88123D02*
X347227Y-88123D01*
X343213Y-86460D01*
X340140Y-83387D01*
X338477Y-79373D01*
X338477Y-75027D01*
X340140Y-71013D01*
X343213Y-67940D01*
X347227Y-66277D01*
X351573Y-66277D01*
X355587Y-67940D01*
X358660Y-71013D01*
X360323Y-75027D01*
X360323Y-79373D01*
X358660Y-83387D01*
X355587Y-86460D01*
X351573Y-88123D01*
X347227Y-88123D01*
G37*
%LPD*%
%LPC*%
G36*
X244527Y-504823D02*
X244527Y-504823D01*
X240513Y-503160D01*
X237440Y-500087D01*
X235777Y-496073D01*
X235777Y-491727D01*
X237440Y-487713D01*
X240513Y-484640D01*
X244527Y-482977D01*
X248873Y-482977D01*
X252887Y-484640D01*
X255960Y-487713D01*
X257623Y-491727D01*
X257623Y-496073D01*
X255960Y-500087D01*
X252887Y-503160D01*
X248873Y-504823D01*
X244527Y-504823D01*
G37*
%LPD*%
%LPC*%
G36*
X286127Y-533223D02*
X286127Y-533223D01*
X282113Y-531560D01*
X279040Y-528487D01*
X277377Y-524473D01*
X277377Y-520127D01*
X279040Y-516113D01*
X282113Y-513040D01*
X286127Y-511377D01*
X290473Y-511377D01*
X294487Y-513040D01*
X297560Y-516113D01*
X299223Y-520127D01*
X299223Y-524473D01*
X297560Y-528487D01*
X294487Y-531560D01*
X290473Y-533223D01*
X286127Y-533223D01*
G37*
%LPD*%
%LPC*%
G36*
X223868Y-398025D02*
X223868Y-398025D01*
X222975Y-397132D01*
X222975Y-385868D01*
X223868Y-384975D01*
X225174Y-384975D01*
X225194Y-384972D01*
X225213Y-384974D01*
X225315Y-384952D01*
X225417Y-384936D01*
X225434Y-384926D01*
X225454Y-384922D01*
X225543Y-384869D01*
X225634Y-384820D01*
X225648Y-384806D01*
X225665Y-384796D01*
X225732Y-384717D01*
X225804Y-384642D01*
X225812Y-384624D01*
X225825Y-384609D01*
X225864Y-384513D01*
X225907Y-384419D01*
X225909Y-384399D01*
X225917Y-384381D01*
X225935Y-384214D01*
X225935Y-373755D01*
X225921Y-373665D01*
X225913Y-373574D01*
X225901Y-373545D01*
X225896Y-373513D01*
X225853Y-373432D01*
X225817Y-373348D01*
X225791Y-373316D01*
X225780Y-373295D01*
X225757Y-373273D01*
X225712Y-373217D01*
X224693Y-372198D01*
X224693Y-367802D01*
X227802Y-364693D01*
X232198Y-364693D01*
X235307Y-367802D01*
X235307Y-372198D01*
X234288Y-373217D01*
X234235Y-373291D01*
X234175Y-373361D01*
X234163Y-373391D01*
X234144Y-373417D01*
X234117Y-373504D01*
X234083Y-373589D01*
X234079Y-373630D01*
X234072Y-373652D01*
X234073Y-373684D01*
X234065Y-373755D01*
X234065Y-384214D01*
X234068Y-384234D01*
X234066Y-384253D01*
X234088Y-384355D01*
X234104Y-384457D01*
X234114Y-384474D01*
X234118Y-384494D01*
X234171Y-384583D01*
X234220Y-384674D01*
X234234Y-384688D01*
X234244Y-384705D01*
X234323Y-384772D01*
X234398Y-384844D01*
X234416Y-384852D01*
X234431Y-384865D01*
X234527Y-384904D01*
X234621Y-384947D01*
X234641Y-384949D01*
X234659Y-384957D01*
X234826Y-384975D01*
X236132Y-384975D01*
X237025Y-385868D01*
X237025Y-397132D01*
X236132Y-398025D01*
X223868Y-398025D01*
G37*
%LPD*%
%LPC*%
G36*
X558912Y-270945D02*
X558912Y-270945D01*
X553555Y-265588D01*
X553555Y-258012D01*
X558912Y-252655D01*
X566488Y-252655D01*
X571845Y-258012D01*
X571845Y-265588D01*
X566488Y-270945D01*
X558912Y-270945D01*
G37*
%LPD*%
%LPC*%
G36*
X558912Y-169345D02*
X558912Y-169345D01*
X553555Y-163988D01*
X553555Y-156412D01*
X558912Y-151055D01*
X566488Y-151055D01*
X571845Y-156412D01*
X571845Y-163988D01*
X566488Y-169345D01*
X558912Y-169345D01*
G37*
%LPD*%
%LPC*%
G36*
X558912Y-194745D02*
X558912Y-194745D01*
X553555Y-189388D01*
X553555Y-181812D01*
X558912Y-176455D01*
X566488Y-176455D01*
X571845Y-181812D01*
X571845Y-189388D01*
X566488Y-194745D01*
X558912Y-194745D01*
G37*
%LPD*%
%LPC*%
G36*
X449068Y-168225D02*
X449068Y-168225D01*
X448175Y-167332D01*
X448175Y-152068D01*
X449068Y-151175D01*
X460332Y-151175D01*
X461225Y-152068D01*
X461225Y-167332D01*
X460332Y-168225D01*
X449068Y-168225D01*
G37*
%LPD*%
%LPC*%
G36*
X37523Y-311461D02*
X37523Y-311461D01*
X37523Y-302823D01*
X53666Y-302823D01*
X53531Y-303679D01*
X53036Y-305200D01*
X52310Y-306625D01*
X51370Y-307919D01*
X50239Y-309050D01*
X48945Y-309990D01*
X47520Y-310716D01*
X45999Y-311211D01*
X44420Y-311461D01*
X37523Y-311461D01*
G37*
%LPD*%
%LPC*%
G36*
X26001Y-311211D02*
X26001Y-311211D01*
X24480Y-310716D01*
X23055Y-309990D01*
X21761Y-309050D01*
X20630Y-307919D01*
X19690Y-306625D01*
X18964Y-305200D01*
X18469Y-303679D01*
X18334Y-302823D01*
X34477Y-302823D01*
X34477Y-311461D01*
X27580Y-311461D01*
X26001Y-311211D01*
G37*
%LPD*%
%LPC*%
G36*
X37523Y-299777D02*
X37523Y-299777D01*
X37523Y-291139D01*
X44420Y-291139D01*
X45999Y-291389D01*
X47520Y-291884D01*
X48945Y-292610D01*
X50239Y-293550D01*
X51370Y-294681D01*
X52310Y-295975D01*
X53036Y-297400D01*
X53531Y-298921D01*
X53666Y-299777D01*
X37523Y-299777D01*
G37*
%LPD*%
%LPC*%
G36*
X18334Y-299777D02*
X18334Y-299777D01*
X18469Y-298921D01*
X18964Y-297400D01*
X19690Y-295975D01*
X20630Y-294681D01*
X21761Y-293550D01*
X23055Y-292610D01*
X24480Y-291884D01*
X26001Y-291389D01*
X27580Y-291139D01*
X34477Y-291139D01*
X34477Y-299777D01*
X18334Y-299777D01*
G37*
%LPD*%
%LPC*%
G36*
X83768Y-377489D02*
X83768Y-377489D01*
X83121Y-377316D01*
X82542Y-376981D01*
X82069Y-376508D01*
X81734Y-375929D01*
X81561Y-375282D01*
X81561Y-367073D01*
X91977Y-367073D01*
X91977Y-377489D01*
X83768Y-377489D01*
G37*
%LPD*%
%LPC*%
G36*
X81561Y-364027D02*
X81561Y-364027D01*
X81561Y-355818D01*
X81734Y-355171D01*
X82069Y-354592D01*
X82542Y-354119D01*
X83121Y-353784D01*
X83768Y-353611D01*
X91977Y-353611D01*
X91977Y-364027D01*
X81561Y-364027D01*
G37*
%LPD*%
%LPC*%
G36*
X267923Y-78723D02*
X267923Y-78723D01*
X278246Y-78723D01*
X278045Y-79996D01*
X277464Y-81783D01*
X276611Y-83457D01*
X275506Y-84978D01*
X274178Y-86306D01*
X272657Y-87411D01*
X270983Y-88264D01*
X269196Y-88845D01*
X267923Y-89046D01*
X267923Y-78723D01*
G37*
%LPD*%
%LPC*%
G36*
X262123Y-523823D02*
X262123Y-523823D01*
X272446Y-523823D01*
X272245Y-525096D01*
X271664Y-526883D01*
X270811Y-528557D01*
X269706Y-530078D01*
X268378Y-531406D01*
X266857Y-532511D01*
X265183Y-533364D01*
X263396Y-533945D01*
X262123Y-534146D01*
X262123Y-523823D01*
G37*
%LPD*%
%LPC*%
G36*
X345123Y-523823D02*
X345123Y-523823D01*
X355446Y-523823D01*
X355245Y-525096D01*
X354664Y-526883D01*
X353811Y-528557D01*
X352706Y-530078D01*
X351378Y-531406D01*
X349857Y-532511D01*
X348183Y-533364D01*
X346396Y-533945D01*
X345123Y-534146D01*
X345123Y-523823D01*
G37*
%LPD*%
%LPC*%
G36*
X323223Y-78723D02*
X323223Y-78723D01*
X333546Y-78723D01*
X333345Y-79996D01*
X332764Y-81783D01*
X331911Y-83457D01*
X330806Y-84978D01*
X329478Y-86306D01*
X327957Y-87411D01*
X326283Y-88264D01*
X324496Y-88845D01*
X323223Y-89046D01*
X323223Y-78723D01*
G37*
%LPD*%
%LPC*%
G36*
X340804Y-533945D02*
X340804Y-533945D01*
X339017Y-533364D01*
X337343Y-532511D01*
X335822Y-531406D01*
X334494Y-530078D01*
X333389Y-528557D01*
X332536Y-526883D01*
X331955Y-525096D01*
X331754Y-523823D01*
X342077Y-523823D01*
X342077Y-534146D01*
X340804Y-533945D01*
G37*
%LPD*%
%LPC*%
G36*
X263604Y-88845D02*
X263604Y-88845D01*
X261817Y-88264D01*
X260143Y-87411D01*
X258622Y-86306D01*
X257294Y-84978D01*
X256189Y-83457D01*
X255336Y-81783D01*
X254755Y-79996D01*
X254554Y-78723D01*
X264877Y-78723D01*
X264877Y-89046D01*
X263604Y-88845D01*
G37*
%LPD*%
%LPC*%
G36*
X323223Y-75677D02*
X323223Y-75677D01*
X323223Y-65354D01*
X324496Y-65555D01*
X326283Y-66136D01*
X327957Y-66989D01*
X329478Y-68094D01*
X330806Y-69422D01*
X331911Y-70943D01*
X332764Y-72617D01*
X333345Y-74404D01*
X333546Y-75677D01*
X323223Y-75677D01*
G37*
%LPD*%
%LPC*%
G36*
X257804Y-533945D02*
X257804Y-533945D01*
X256017Y-533364D01*
X254343Y-532511D01*
X252822Y-531406D01*
X251494Y-530078D01*
X250389Y-528557D01*
X249536Y-526883D01*
X248955Y-525096D01*
X248754Y-523823D01*
X259077Y-523823D01*
X259077Y-534146D01*
X257804Y-533945D01*
G37*
%LPD*%
%LPC*%
G36*
X318904Y-88845D02*
X318904Y-88845D01*
X317117Y-88264D01*
X315443Y-87411D01*
X313922Y-86306D01*
X312594Y-84978D01*
X311489Y-83457D01*
X310636Y-81783D01*
X310055Y-79996D01*
X309854Y-78723D01*
X320177Y-78723D01*
X320177Y-89046D01*
X318904Y-88845D01*
G37*
%LPD*%
%LPC*%
G36*
X262123Y-520777D02*
X262123Y-520777D01*
X262123Y-510454D01*
X263396Y-510655D01*
X265183Y-511236D01*
X266857Y-512089D01*
X268378Y-513194D01*
X269706Y-514522D01*
X270811Y-516043D01*
X271664Y-517717D01*
X272245Y-519504D01*
X272446Y-520777D01*
X262123Y-520777D01*
G37*
%LPD*%
%LPC*%
G36*
X267923Y-75677D02*
X267923Y-75677D01*
X267923Y-65354D01*
X269196Y-65555D01*
X270983Y-66136D01*
X272657Y-66989D01*
X274178Y-68094D01*
X275506Y-69422D01*
X276611Y-70943D01*
X277464Y-72617D01*
X278045Y-74404D01*
X278246Y-75677D01*
X267923Y-75677D01*
G37*
%LPD*%
%LPC*%
G36*
X345123Y-520777D02*
X345123Y-520777D01*
X345123Y-510454D01*
X346396Y-510655D01*
X348183Y-511236D01*
X349857Y-512089D01*
X351378Y-513194D01*
X352706Y-514522D01*
X353811Y-516043D01*
X354664Y-517717D01*
X355245Y-519504D01*
X355446Y-520777D01*
X345123Y-520777D01*
G37*
%LPD*%
%LPC*%
G36*
X248754Y-520777D02*
X248754Y-520777D01*
X248955Y-519504D01*
X249536Y-517717D01*
X250389Y-516043D01*
X251494Y-514522D01*
X252822Y-513194D01*
X254343Y-512089D01*
X256017Y-511236D01*
X257804Y-510655D01*
X259077Y-510454D01*
X259077Y-520777D01*
X248754Y-520777D01*
G37*
%LPD*%
%LPC*%
G36*
X331754Y-520777D02*
X331754Y-520777D01*
X331955Y-519504D01*
X332536Y-517717D01*
X333389Y-516043D01*
X334494Y-514522D01*
X335822Y-513194D01*
X337343Y-512089D01*
X339017Y-511236D01*
X340804Y-510655D01*
X342077Y-510454D01*
X342077Y-520777D01*
X331754Y-520777D01*
G37*
%LPD*%
%LPC*%
G36*
X309854Y-75677D02*
X309854Y-75677D01*
X310055Y-74404D01*
X310636Y-72617D01*
X311489Y-70943D01*
X312594Y-69422D01*
X313922Y-68094D01*
X315443Y-66989D01*
X317117Y-66136D01*
X318904Y-65555D01*
X320177Y-65354D01*
X320177Y-75677D01*
X309854Y-75677D01*
G37*
%LPD*%
%LPC*%
G36*
X254554Y-75677D02*
X254554Y-75677D01*
X254755Y-74404D01*
X255336Y-72617D01*
X256189Y-70943D01*
X257294Y-69422D01*
X258622Y-68094D01*
X260143Y-66989D01*
X261817Y-66136D01*
X263604Y-65555D01*
X264877Y-65354D01*
X264877Y-75677D01*
X254554Y-75677D01*
G37*
%LPD*%
%LPC*%
G36*
X92023Y-310041D02*
X92023Y-310041D01*
X92023Y-301523D01*
X99541Y-301523D01*
X99541Y-307834D01*
X99368Y-308481D01*
X99033Y-309060D01*
X98560Y-309533D01*
X97981Y-309868D01*
X97334Y-310041D01*
X92023Y-310041D01*
G37*
%LPD*%
%LPC*%
G36*
X92023Y-280041D02*
X92023Y-280041D01*
X92023Y-271523D01*
X99541Y-271523D01*
X99541Y-277834D01*
X99368Y-278481D01*
X99033Y-279060D01*
X98560Y-279533D01*
X97981Y-279868D01*
X97334Y-280041D01*
X92023Y-280041D01*
G37*
%LPD*%
%LPC*%
G36*
X92023Y-268477D02*
X92023Y-268477D01*
X92023Y-259959D01*
X97334Y-259959D01*
X97981Y-260132D01*
X98560Y-260467D01*
X99033Y-260940D01*
X99368Y-261519D01*
X99541Y-262166D01*
X99541Y-268477D01*
X92023Y-268477D01*
G37*
%LPD*%
%LPC*%
G36*
X92023Y-298477D02*
X92023Y-298477D01*
X92023Y-289959D01*
X97334Y-289959D01*
X97981Y-290132D01*
X98560Y-290467D01*
X99033Y-290940D01*
X99368Y-291519D01*
X99541Y-292166D01*
X99541Y-298477D01*
X92023Y-298477D01*
G37*
%LPD*%
%LPC*%
G36*
X83666Y-310041D02*
X83666Y-310041D01*
X83019Y-309868D01*
X82440Y-309533D01*
X81967Y-309060D01*
X81632Y-308481D01*
X81459Y-307834D01*
X81459Y-301523D01*
X88977Y-301523D01*
X88977Y-310041D01*
X83666Y-310041D01*
G37*
%LPD*%
%LPC*%
G36*
X83666Y-280041D02*
X83666Y-280041D01*
X83019Y-279868D01*
X82440Y-279533D01*
X81967Y-279060D01*
X81632Y-278481D01*
X81459Y-277834D01*
X81459Y-271523D01*
X88977Y-271523D01*
X88977Y-280041D01*
X83666Y-280041D01*
G37*
%LPD*%
%LPC*%
G36*
X81459Y-298477D02*
X81459Y-298477D01*
X81459Y-292166D01*
X81632Y-291519D01*
X81967Y-290940D01*
X82440Y-290467D01*
X83019Y-290132D01*
X83666Y-289959D01*
X88977Y-289959D01*
X88977Y-298477D01*
X81459Y-298477D01*
G37*
%LPD*%
%LPC*%
G36*
X81459Y-268477D02*
X81459Y-268477D01*
X81459Y-262166D01*
X81632Y-261519D01*
X81967Y-260940D01*
X82440Y-260467D01*
X83019Y-260132D01*
X83666Y-259959D01*
X88977Y-259959D01*
X88977Y-268477D01*
X81459Y-268477D01*
G37*
%LPD*%
%LPC*%
G36*
X242257Y-207743D02*
X242257Y-207743D01*
X242257Y-203423D01*
X253435Y-203423D01*
X253435Y-205536D01*
X253262Y-206183D01*
X252927Y-206762D01*
X252454Y-207235D01*
X251875Y-207570D01*
X251228Y-207743D01*
X242257Y-207743D01*
G37*
%LPD*%
%LPC*%
G36*
X230240Y-207743D02*
X230240Y-207743D01*
X229593Y-207570D01*
X229014Y-207235D01*
X228541Y-206762D01*
X228206Y-206183D01*
X228033Y-205536D01*
X228033Y-203423D01*
X239211Y-203423D01*
X239211Y-207743D01*
X230240Y-207743D01*
G37*
%LPD*%
%LPC*%
G36*
X242257Y-200377D02*
X242257Y-200377D01*
X242257Y-196057D01*
X251228Y-196057D01*
X251875Y-196230D01*
X252454Y-196565D01*
X252927Y-197038D01*
X253262Y-197617D01*
X253435Y-198264D01*
X253435Y-200377D01*
X242257Y-200377D01*
G37*
%LPD*%
%LPC*%
G36*
X228033Y-200377D02*
X228033Y-200377D01*
X228033Y-198264D01*
X228206Y-197617D01*
X228541Y-197038D01*
X229014Y-196565D01*
X229593Y-196230D01*
X230240Y-196057D01*
X239211Y-196057D01*
X239211Y-200377D01*
X228033Y-200377D01*
G37*
%LPD*%
%LPC*%
G36*
X465723Y-191241D02*
X465723Y-191241D01*
X465723Y-183223D01*
X471741Y-183223D01*
X471741Y-189035D01*
X471568Y-189681D01*
X471233Y-190260D01*
X470760Y-190733D01*
X470181Y-191068D01*
X469534Y-191241D01*
X465723Y-191241D01*
G37*
%LPD*%
%LPC*%
G36*
X465723Y-180177D02*
X465723Y-180177D01*
X465723Y-172159D01*
X469534Y-172159D01*
X470181Y-172332D01*
X470760Y-172667D01*
X471233Y-173140D01*
X471568Y-173719D01*
X471741Y-174366D01*
X471741Y-180177D01*
X465723Y-180177D01*
G37*
%LPD*%
%LPC*%
G36*
X458866Y-191241D02*
X458866Y-191241D01*
X458219Y-191068D01*
X457640Y-190733D01*
X457167Y-190260D01*
X456832Y-189681D01*
X456659Y-189035D01*
X456659Y-183223D01*
X462677Y-183223D01*
X462677Y-191241D01*
X458866Y-191241D01*
G37*
%LPD*%
%LPC*%
G36*
X456659Y-180177D02*
X456659Y-180177D01*
X456659Y-174366D01*
X456832Y-173719D01*
X457167Y-173140D01*
X457640Y-172667D01*
X458219Y-172332D01*
X458866Y-172159D01*
X462677Y-172159D01*
X462677Y-180177D01*
X456659Y-180177D01*
G37*
%LPD*%
%LPC*%
G36*
X297323Y-381841D02*
X297323Y-381841D01*
X297323Y-375323D01*
X303341Y-375323D01*
X303341Y-379634D01*
X303168Y-380281D01*
X302833Y-380860D01*
X302360Y-381333D01*
X301781Y-381668D01*
X301134Y-381841D01*
X297323Y-381841D01*
G37*
%LPD*%
%LPC*%
G36*
X348823Y-171741D02*
X348823Y-171741D01*
X348823Y-165723D01*
X355341Y-165723D01*
X355341Y-169535D01*
X355168Y-170181D01*
X354833Y-170760D01*
X354360Y-171233D01*
X353781Y-171568D01*
X353134Y-171741D01*
X348823Y-171741D01*
G37*
%LPD*%
%LPC*%
G36*
X341466Y-171741D02*
X341466Y-171741D01*
X340819Y-171568D01*
X340240Y-171233D01*
X339767Y-170760D01*
X339432Y-170181D01*
X339259Y-169534D01*
X339259Y-165723D01*
X345777Y-165723D01*
X345777Y-171741D01*
X341466Y-171741D01*
G37*
%LPD*%
%LPC*%
G36*
X297323Y-372277D02*
X297323Y-372277D01*
X297323Y-365759D01*
X301134Y-365759D01*
X301781Y-365932D01*
X302360Y-366267D01*
X302833Y-366740D01*
X303168Y-367319D01*
X303341Y-367966D01*
X303341Y-372277D01*
X297323Y-372277D01*
G37*
%LPD*%
%LPC*%
G36*
X348823Y-162677D02*
X348823Y-162677D01*
X348823Y-156659D01*
X353134Y-156659D01*
X353781Y-156832D01*
X354360Y-157167D01*
X354833Y-157640D01*
X355168Y-158219D01*
X355341Y-158866D01*
X355341Y-162677D01*
X348823Y-162677D01*
G37*
%LPD*%
%LPC*%
G36*
X289819Y-381668D02*
X289819Y-381668D01*
X289240Y-381333D01*
X288767Y-380860D01*
X288432Y-380281D01*
X288259Y-379634D01*
X288259Y-375323D01*
X294277Y-375323D01*
X294277Y-381841D01*
X290465Y-381841D01*
X289819Y-381668D01*
G37*
%LPD*%
%LPC*%
G36*
X288259Y-372277D02*
X288259Y-372277D01*
X288259Y-367966D01*
X288432Y-367319D01*
X288767Y-366740D01*
X289240Y-366267D01*
X289819Y-365932D01*
X290466Y-365759D01*
X294277Y-365759D01*
X294277Y-372277D01*
X288259Y-372277D01*
G37*
%LPD*%
%LPC*%
G36*
X339259Y-162677D02*
X339259Y-162677D01*
X339259Y-158866D01*
X339432Y-158219D01*
X339767Y-157640D01*
X340240Y-157167D01*
X340819Y-156832D01*
X341466Y-156659D01*
X345777Y-156659D01*
X345777Y-162677D01*
X339259Y-162677D01*
G37*
%LPD*%
%LPC*%
G36*
X298349Y-407441D02*
X298349Y-407441D01*
X298349Y-400399D01*
X302391Y-400399D01*
X302391Y-405234D01*
X302218Y-405881D01*
X301883Y-406460D01*
X301410Y-406933D01*
X300831Y-407268D01*
X300184Y-407441D01*
X298349Y-407441D01*
G37*
%LPD*%
%LPC*%
G36*
X269839Y-180341D02*
X269839Y-180341D01*
X269839Y-176299D01*
X276881Y-176299D01*
X276881Y-178134D01*
X276708Y-178781D01*
X276373Y-179360D01*
X275900Y-179833D01*
X275321Y-180168D01*
X274674Y-180341D01*
X269839Y-180341D01*
G37*
%LPD*%
%LPC*%
G36*
X298349Y-397401D02*
X298349Y-397401D01*
X298349Y-390359D01*
X300184Y-390359D01*
X300831Y-390532D01*
X301410Y-390867D01*
X301883Y-391340D01*
X302218Y-391919D01*
X302391Y-392566D01*
X302391Y-397401D01*
X298349Y-397401D01*
G37*
%LPD*%
%LPC*%
G36*
X262006Y-180341D02*
X262006Y-180341D01*
X261359Y-180168D01*
X260780Y-179833D01*
X260307Y-179360D01*
X259972Y-178781D01*
X259799Y-178134D01*
X259799Y-176299D01*
X266841Y-176299D01*
X266841Y-180341D01*
X262006Y-180341D01*
G37*
%LPD*%
%LPC*%
G36*
X269839Y-173301D02*
X269839Y-173301D01*
X269839Y-169259D01*
X274674Y-169259D01*
X275321Y-169432D01*
X275900Y-169767D01*
X276373Y-170240D01*
X276708Y-170819D01*
X276881Y-171466D01*
X276881Y-173301D01*
X269839Y-173301D01*
G37*
%LPD*%
%LPC*%
G36*
X293516Y-407441D02*
X293516Y-407441D01*
X292869Y-407268D01*
X292290Y-406933D01*
X291817Y-406460D01*
X291482Y-405881D01*
X291309Y-405234D01*
X291309Y-400399D01*
X295351Y-400399D01*
X295351Y-407441D01*
X293516Y-407441D01*
G37*
%LPD*%
%LPC*%
G36*
X291309Y-397401D02*
X291309Y-397401D01*
X291309Y-392566D01*
X291482Y-391919D01*
X291817Y-391340D01*
X292290Y-390867D01*
X292869Y-390532D01*
X293516Y-390359D01*
X295351Y-390359D01*
X295351Y-397401D01*
X291309Y-397401D01*
G37*
%LPD*%
%LPC*%
G36*
X259799Y-173301D02*
X259799Y-173301D01*
X259799Y-171466D01*
X259972Y-170819D01*
X260307Y-170240D01*
X260780Y-169767D01*
X261359Y-169432D01*
X262006Y-169259D01*
X266841Y-169259D01*
X266841Y-173301D01*
X259799Y-173301D01*
G37*
%LPD*%
%LPC*%
G36*
X35999Y-301301D02*
X35999Y-301301D01*
X35999Y-301299D01*
X36001Y-301299D01*
X36001Y-301301D01*
X35999Y-301301D01*
G37*
%LPD*%
%LPC*%
G36*
X266399Y-77201D02*
X266399Y-77201D01*
X266399Y-77199D01*
X266401Y-77199D01*
X266401Y-77201D01*
X266399Y-77201D01*
G37*
%LPD*%
%LPC*%
G36*
X321699Y-77201D02*
X321699Y-77201D01*
X321699Y-77199D01*
X321701Y-77199D01*
X321701Y-77201D01*
X321699Y-77201D01*
G37*
%LPD*%
%LPC*%
G36*
X260599Y-522301D02*
X260599Y-522301D01*
X260599Y-522299D01*
X260601Y-522299D01*
X260601Y-522301D01*
X260599Y-522301D01*
G37*
%LPD*%
%LPC*%
G36*
X343599Y-522301D02*
X343599Y-522301D01*
X343599Y-522299D01*
X343601Y-522299D01*
X343601Y-522301D01*
X343599Y-522301D01*
G37*
%LPD*%
%LPC*%
G36*
X90499Y-300001D02*
X90499Y-300001D01*
X90499Y-299999D01*
X90501Y-299999D01*
X90501Y-300001D01*
X90499Y-300001D01*
G37*
%LPD*%
%LPC*%
G36*
X240733Y-201901D02*
X240733Y-201901D01*
X240733Y-201899D01*
X240735Y-201899D01*
X240735Y-201901D01*
X240733Y-201901D01*
G37*
%LPD*%
%LPC*%
G36*
X464199Y-181701D02*
X464199Y-181701D01*
X464199Y-181699D01*
X464201Y-181699D01*
X464201Y-181701D01*
X464199Y-181701D01*
G37*
%LPD*%
%LPC*%
G36*
X347299Y-164201D02*
X347299Y-164201D01*
X347299Y-164199D01*
X347301Y-164199D01*
X347301Y-164201D01*
X347299Y-164201D01*
G37*
%LPD*%
%LPC*%
G36*
X90499Y-270001D02*
X90499Y-270001D01*
X90499Y-269999D01*
X90501Y-269999D01*
X90501Y-270001D01*
X90499Y-270001D01*
G37*
%LPD*%
%LPC*%
G36*
X295799Y-373801D02*
X295799Y-373801D01*
X295799Y-373799D01*
X295801Y-373799D01*
X295801Y-373801D01*
X295799Y-373801D01*
G37*
%LPD*%
D10*
X295800Y-373800D03*
X295800Y-356800D03*
D11*
X347300Y-164200D03*
X330300Y-164200D03*
D12*
X464200Y-181700D03*
X454700Y-159700D03*
X473700Y-159700D03*
D13*
X50000Y-550000D03*
X50000Y-50000D03*
X550000Y-550000D03*
X550000Y-50000D03*
D14*
X268340Y-174800D03*
X268340Y-155800D03*
X294460Y-174800D03*
X294460Y-165300D03*
X294460Y-155800D03*
D15*
X357500Y-493900D03*
D16*
X329800Y-493900D03*
X302100Y-493900D03*
X274400Y-493900D03*
X246700Y-493900D03*
X343600Y-522300D03*
X315900Y-522300D03*
X288300Y-522300D03*
X260600Y-522300D03*
D17*
X427100Y-508100D03*
X177100Y-508100D03*
D15*
X252500Y-105600D03*
D16*
X280200Y-105600D03*
X307900Y-105600D03*
X335600Y-105600D03*
X363300Y-105600D03*
X266400Y-77200D03*
X294100Y-77200D03*
X321700Y-77200D03*
X349400Y-77200D03*
D17*
X182900Y-91400D03*
X432900Y-91400D03*
D18*
X537300Y-160200D03*
X562700Y-160200D03*
X537300Y-185600D03*
X562700Y-185600D03*
X537300Y-211000D03*
X562700Y-211000D03*
X537300Y-236400D03*
X562700Y-236400D03*
X537300Y-261800D03*
X562700Y-261800D03*
D11*
X342300Y-145700D03*
X342300Y-128700D03*
X230000Y-448500D03*
X230000Y-431500D03*
X272300Y-379000D03*
X272300Y-362000D03*
D10*
X322900Y-342300D03*
X339900Y-342300D03*
D11*
X230000Y-391500D03*
X230000Y-408500D03*
X267700Y-326700D03*
X267700Y-343700D03*
X360000Y-448500D03*
X360000Y-431500D03*
X360000Y-401500D03*
X360000Y-418500D03*
X312300Y-147600D03*
X312300Y-130600D03*
D19*
X334950Y-398900D03*
X322250Y-398900D03*
X309550Y-398900D03*
X296850Y-398900D03*
X284150Y-398900D03*
X271450Y-398900D03*
X258750Y-398900D03*
X258750Y-454900D03*
X271450Y-454900D03*
X284150Y-454900D03*
X296850Y-454900D03*
X309550Y-454900D03*
X322250Y-454900D03*
X334950Y-454900D03*
D20*
X179266Y-201900D03*
X240734Y-201900D03*
X179266Y-214600D03*
X179266Y-227300D03*
X240734Y-214600D03*
X240734Y-227300D03*
X179266Y-240000D03*
X240734Y-240000D03*
X179266Y-252700D03*
X179266Y-265400D03*
X240734Y-252700D03*
X240734Y-265400D03*
X179266Y-278100D03*
X240734Y-278100D03*
D16*
X118900Y-454450D03*
X93500Y-441750D03*
X118900Y-429050D03*
X118900Y-403650D03*
X118900Y-378250D03*
X93500Y-416350D03*
X93500Y-390950D03*
D15*
X93500Y-365550D03*
D21*
X90500Y-300000D03*
X109500Y-300000D03*
X70500Y-120000D03*
X89500Y-120000D03*
X90500Y-270000D03*
X109500Y-270000D03*
X70500Y-150000D03*
X89500Y-150000D03*
D10*
X141500Y-400000D03*
X158500Y-400000D03*
D11*
X340000Y-378500D03*
X340000Y-361500D03*
D22*
X43620Y-98100D02*
X28380Y-98100D01*
X28380Y-123500D02*
X43620Y-123500D01*
X43620Y-148900D02*
X28380Y-148900D01*
X28380Y-174300D02*
X43620Y-174300D01*
X43620Y-199700D02*
X28380Y-199700D01*
X28380Y-225100D02*
X43620Y-225100D01*
X43620Y-250500D02*
X28380Y-250500D01*
X28380Y-275900D02*
X43620Y-275900D01*
X43620Y-301300D02*
X28380Y-301300D01*
D10*
X71500Y-180000D03*
X88500Y-180000D03*
X71500Y-230000D03*
X88500Y-230000D03*
D23*
X309550Y-398900D02*
X309550Y-442308D01*
X315090Y-447848D01*
X315090Y-479190D02*
X329800Y-493900D01*
X315090Y-479190D02*
X315090Y-447848D01*
D24*
X284150Y-454900D02*
X284150Y-475950D01*
X302100Y-493900D01*
D23*
X284150Y-442308D02*
X284150Y-398900D01*
X284150Y-442308D02*
X278610Y-447848D01*
X278610Y-489690D02*
X274400Y-493900D01*
X278610Y-489690D02*
X278610Y-447848D01*
D25*
X110000Y-120000D03*
D24*
X89500Y-120000D01*
X360000Y-390000D02*
X360000Y-401500D01*
D25*
X360000Y-390000D03*
D24*
X130000Y-300000D02*
X109500Y-300000D01*
D25*
X130000Y-300000D03*
D24*
X109500Y-300000D02*
X109500Y-270000D01*
X89500Y-150000D02*
X89500Y-120000D01*
X294460Y-165300D02*
X310000Y-165300D01*
X329200Y-165300D01*
X330300Y-164200D01*
D25*
X310000Y-165300D03*
D24*
X295800Y-344200D02*
X295800Y-356800D01*
X295800Y-344200D02*
X300000Y-340000D01*
D25*
X300000Y-340000D03*
D24*
X302300Y-342300D02*
X322900Y-342300D01*
X302300Y-342300D02*
X300000Y-340000D01*
X230000Y-370000D02*
X230000Y-391500D01*
D25*
X230000Y-370000D03*
D24*
X240734Y-265400D02*
X240734Y-252700D01*
X240734Y-227300D02*
X240734Y-214600D01*
X240734Y-265400D02*
X235400Y-270734D01*
X228891Y-270734D01*
X221525Y-278100D02*
X179266Y-278100D01*
X221525Y-278100D02*
X228891Y-270734D01*
X222700Y-227300D02*
X240734Y-227300D01*
X222700Y-227300D02*
X220000Y-230000D01*
X220000Y-240000D01*
X232700Y-252700D02*
X240734Y-252700D01*
D25*
X220000Y-240000D03*
D24*
X232700Y-252700D01*
X296850Y-454900D02*
X296850Y-466850D01*
X300000Y-470000D01*
D25*
X300000Y-470000D03*
D24*
X264400Y-330000D02*
X267700Y-326700D01*
X264400Y-330000D02*
X250000Y-330000D01*
D25*
X250000Y-330000D03*
D26*
X330300Y-157700D02*
X342300Y-145700D01*
X330300Y-157700D02*
X330300Y-164200D01*
D24*
X150000Y-180000D02*
X88500Y-180000D01*
X150000Y-180000D02*
X220000Y-110000D01*
D25*
X220000Y-110000D03*
D24*
X119700Y-199700D02*
X36000Y-199700D01*
X147300Y-227300D02*
X179266Y-227300D01*
X147300Y-227300D02*
X119700Y-199700D01*
X179266Y-265400D02*
X194600Y-265400D01*
X200000Y-260000D01*
X200000Y-240000D01*
X187300Y-227300D01*
X179266Y-227300D01*
D25*
X150000Y-200000D03*
D24*
X151900Y-201900D01*
X179266Y-201900D01*
X251166Y-130000D01*
X280000Y-130000D01*
D25*
X280000Y-130000D03*
D23*
X300000Y-445350D02*
X309550Y-454900D01*
D25*
X300000Y-430000D03*
D23*
X300000Y-445350D01*
D24*
X110000Y-230000D02*
X88500Y-230000D01*
X110000Y-230000D02*
X130000Y-250000D01*
D25*
X130000Y-250000D03*
D24*
X294100Y-141413D02*
X294100Y-77200D01*
X258276Y-160483D02*
X260657Y-162864D01*
X258276Y-160483D02*
X258276Y-151117D01*
X260657Y-148736D01*
X286777Y-172364D02*
X292024Y-172364D01*
X294460Y-174800D01*
X286777Y-172364D02*
X277277Y-162864D01*
X286777Y-148736D02*
X294100Y-141413D01*
X277277Y-162864D02*
X260657Y-162864D01*
X260657Y-148736D02*
X286777Y-148736D01*
D26*
X340000Y-378500D02*
X334950Y-383550D01*
X334950Y-398900D01*
X322250Y-398900D01*
D24*
X236400Y-454900D02*
X230000Y-448500D01*
X236400Y-454900D02*
X258750Y-454900D01*
X271450Y-454900D01*
D26*
X272300Y-398050D02*
X272300Y-379000D01*
X272300Y-398050D02*
X271450Y-398900D01*
X258750Y-398900D01*
D24*
X339900Y-342300D02*
X340000Y-342400D01*
X340000Y-361500D01*
X339900Y-342300D02*
X380053Y-342300D01*
X511353Y-211000D02*
X537300Y-211000D01*
X511353Y-211000D02*
X380053Y-342300D01*
X230000Y-408500D02*
X230000Y-431500D01*
X241500Y-420000D02*
X230000Y-408500D01*
X241500Y-420000D02*
X250000Y-420000D01*
D25*
X250000Y-420000D03*
X380000Y-370000D03*
D24*
X513600Y-236400D02*
X537300Y-236400D01*
X513600Y-236400D02*
X380000Y-370000D01*
X272300Y-348300D02*
X267700Y-343700D01*
X272300Y-348300D02*
X272300Y-362000D01*
X267700Y-343700D02*
X291400Y-320000D01*
X380000Y-320000D01*
X553824Y-211000D02*
X562700Y-211000D01*
X553824Y-211000D02*
X542140Y-199316D01*
X500684Y-199316D01*
X380000Y-320000D01*
D27*
X67000Y-123500D02*
X60000Y-123500D01*
X67000Y-123500D02*
X70500Y-120000D01*
D24*
X60000Y-123500D02*
X36000Y-123500D01*
X60000Y-123500D02*
X67000Y-123500D01*
X70500Y-120000D02*
X70500Y-150000D01*
X536800Y-159700D02*
X537300Y-160200D01*
X536800Y-159700D02*
X473700Y-159700D01*
D28*
X70500Y-150000D02*
X70500Y-109500D01*
X140000Y-40000D01*
X440000Y-40000D01*
X473700Y-73700D02*
X473700Y-159700D01*
X473700Y-73700D02*
X440000Y-40000D01*
D24*
X36000Y-275900D02*
X36000Y-277156D01*
D26*
X118900Y-429050D02*
X140950Y-429050D01*
X150000Y-420000D01*
D25*
X150000Y-420000D03*
X120000Y-320000D03*
D26*
X70000Y-320000D01*
D25*
X70000Y-320000D03*
D24*
X60000Y-210000D02*
X120661Y-210000D01*
D25*
X60000Y-210000D03*
D24*
X150661Y-240000D02*
X179266Y-240000D01*
X150661Y-240000D02*
X150330Y-239670D01*
X120661Y-210000D01*
X150330Y-310766D02*
X109008Y-352088D01*
X150330Y-310766D02*
X150330Y-239670D01*
X93500Y-390093D02*
X93500Y-390950D01*
D29*
X105057Y-356039D02*
X109008Y-352088D01*
X105057Y-356039D02*
X105057Y-375842D01*
X93500Y-387399D02*
X93500Y-390950D01*
X93500Y-387399D02*
X105057Y-375842D01*
D24*
X322250Y-454900D02*
X334950Y-454900D01*
X338450Y-451400D01*
X341350Y-448500D01*
X360000Y-448500D01*
X360000Y-431500D02*
X360000Y-418500D01*
X530416Y-248084D01*
X553824Y-236400D02*
X562700Y-236400D01*
X542140Y-248084D02*
X530416Y-248084D01*
X542140Y-248084D02*
X553824Y-236400D01*
X290000Y-155800D02*
X268340Y-155800D01*
X290000Y-155800D02*
X294460Y-155800D01*
X304100Y-155800D02*
X312300Y-147600D01*
X304100Y-155800D02*
X294460Y-155800D01*
X312300Y-130600D02*
X314200Y-128700D01*
X342300Y-128700D01*
D25*
X360000Y-130000D03*
D30*
X358700Y-128700D02*
X342300Y-128700D01*
X358700Y-128700D02*
X360000Y-130000D01*
D24*
X160000Y-398500D02*
X158500Y-400000D01*
X160000Y-265457D02*
X172757Y-252700D01*
X179266Y-252700D01*
X160000Y-265457D02*
X160000Y-398500D01*
X179266Y-214600D02*
X184600Y-209266D01*
X191109Y-209266D01*
X230375Y-170000D02*
X240000Y-170000D01*
X230375Y-170000D02*
X191109Y-209266D01*
D25*
X240000Y-170000D03*
D24*
X122550Y-400000D02*
X118900Y-403650D01*
X122550Y-400000D02*
X141500Y-400000D01*
X65800Y-174300D02*
X36000Y-174300D01*
X65800Y-174300D02*
X71500Y-180000D01*
X36000Y-225100D02*
X40900Y-230000D01*
X71500Y-230000D01*
M02*
