G04 EAGLE Gerber RS-274X export*
G75*
%MOMM*%
%FSLAX34Y34*%
%LPD*%
%INBottom Copper*%
%IPPOS*%
%AMOC8*
5,1,8,0,0,1.08239X$1,22.5*%
G01*
%ADD10C,5.842000*%
%ADD11R,1.879600X1.879600*%
%ADD12C,1.879600*%
%ADD13C,5.080000*%
%ADD14P,1.649562X8X292.500000*%
%ADD15C,1.524000*%
%ADD16C,0.756400*%
%ADD17C,0.508000*%
%ADD18C,0.406400*%

G36*
X550016Y-589837D02*
X550016Y-589837D01*
X550043Y-589838D01*
X554418Y-589592D01*
X554450Y-589585D01*
X554545Y-589574D01*
X563076Y-587627D01*
X563077Y-587627D01*
X563079Y-587627D01*
X563237Y-587571D01*
X571121Y-583774D01*
X571122Y-583773D01*
X571124Y-583773D01*
X571265Y-583683D01*
X578107Y-578228D01*
X578108Y-578227D01*
X578109Y-578226D01*
X578227Y-578107D01*
X583683Y-571265D01*
X583684Y-571264D01*
X583685Y-571263D01*
X583699Y-571242D01*
X583704Y-571236D01*
X583709Y-571224D01*
X583774Y-571121D01*
X587571Y-563237D01*
X587571Y-563236D01*
X587572Y-563234D01*
X587627Y-563076D01*
X589574Y-554545D01*
X589576Y-554513D01*
X589592Y-554418D01*
X589838Y-550043D01*
X589836Y-550027D01*
X589839Y-550000D01*
X589839Y-50000D01*
X589837Y-49984D01*
X589838Y-49957D01*
X589592Y-45582D01*
X589585Y-45550D01*
X589574Y-45455D01*
X587627Y-36924D01*
X587627Y-36923D01*
X587627Y-36921D01*
X587571Y-36763D01*
X583774Y-28879D01*
X583773Y-28878D01*
X583773Y-28876D01*
X583683Y-28735D01*
X578227Y-21893D01*
X578227Y-21892D01*
X578226Y-21891D01*
X578107Y-21773D01*
X571265Y-16317D01*
X571264Y-16316D01*
X571263Y-16315D01*
X571121Y-16226D01*
X563237Y-12429D01*
X563236Y-12429D01*
X563234Y-12428D01*
X563076Y-12373D01*
X561745Y-12069D01*
X558410Y-11308D01*
X555075Y-10547D01*
X555075Y-10546D01*
X554545Y-10426D01*
X554513Y-10424D01*
X554418Y-10408D01*
X550043Y-10162D01*
X550026Y-10164D01*
X550000Y-10161D01*
X50000Y-10161D01*
X49984Y-10163D01*
X49957Y-10162D01*
X45582Y-10408D01*
X45550Y-10415D01*
X45455Y-10426D01*
X36924Y-12373D01*
X36923Y-12373D01*
X36921Y-12373D01*
X36763Y-12429D01*
X28879Y-16226D01*
X28878Y-16227D01*
X28876Y-16227D01*
X28735Y-16317D01*
X21893Y-21773D01*
X21892Y-21773D01*
X21891Y-21774D01*
X21773Y-21893D01*
X16317Y-28735D01*
X16316Y-28736D01*
X16315Y-28737D01*
X16226Y-28879D01*
X12429Y-36763D01*
X12429Y-36764D01*
X12428Y-36766D01*
X12373Y-36924D01*
X10426Y-45455D01*
X10424Y-45487D01*
X10408Y-45582D01*
X10162Y-49957D01*
X10164Y-49974D01*
X10161Y-50000D01*
X10161Y-333855D01*
X10172Y-333925D01*
X10174Y-333997D01*
X10192Y-334046D01*
X10200Y-334097D01*
X10234Y-334161D01*
X10259Y-334228D01*
X10291Y-334269D01*
X10316Y-334315D01*
X10368Y-334364D01*
X10412Y-334420D01*
X10456Y-334448D01*
X10494Y-334484D01*
X10559Y-334514D01*
X10619Y-334553D01*
X10670Y-334566D01*
X10717Y-334588D01*
X10788Y-334596D01*
X10858Y-334613D01*
X10910Y-334609D01*
X10961Y-334615D01*
X11032Y-334600D01*
X11103Y-334594D01*
X11151Y-334574D01*
X11202Y-334563D01*
X11263Y-334526D01*
X11329Y-334498D01*
X11385Y-334453D01*
X11413Y-334436D01*
X11428Y-334419D01*
X11460Y-334393D01*
X13937Y-331916D01*
X19902Y-328472D01*
X26556Y-326689D01*
X33444Y-326689D01*
X40098Y-328472D01*
X46063Y-331916D01*
X50934Y-336787D01*
X54378Y-342752D01*
X56161Y-349406D01*
X56161Y-356294D01*
X54378Y-362948D01*
X50934Y-368913D01*
X46063Y-373784D01*
X40098Y-377228D01*
X33444Y-379011D01*
X26556Y-379011D01*
X19902Y-377228D01*
X13937Y-373784D01*
X11460Y-371307D01*
X11402Y-371265D01*
X11350Y-371216D01*
X11303Y-371194D01*
X11261Y-371164D01*
X11192Y-371142D01*
X11127Y-371112D01*
X11075Y-371107D01*
X11025Y-371091D01*
X10954Y-371093D01*
X10883Y-371085D01*
X10832Y-371096D01*
X10780Y-371098D01*
X10712Y-371122D01*
X10642Y-371137D01*
X10597Y-371164D01*
X10549Y-371182D01*
X10493Y-371227D01*
X10431Y-371264D01*
X10397Y-371303D01*
X10357Y-371336D01*
X10318Y-371396D01*
X10271Y-371451D01*
X10252Y-371499D01*
X10224Y-371543D01*
X10206Y-371612D01*
X10179Y-371679D01*
X10171Y-371750D01*
X10163Y-371781D01*
X10165Y-371804D01*
X10161Y-371845D01*
X10161Y-448155D01*
X10172Y-448225D01*
X10174Y-448297D01*
X10192Y-448346D01*
X10200Y-448397D01*
X10234Y-448461D01*
X10259Y-448528D01*
X10291Y-448569D01*
X10316Y-448615D01*
X10368Y-448664D01*
X10412Y-448720D01*
X10456Y-448748D01*
X10494Y-448784D01*
X10559Y-448814D01*
X10619Y-448853D01*
X10670Y-448866D01*
X10717Y-448888D01*
X10788Y-448896D01*
X10858Y-448913D01*
X10910Y-448909D01*
X10961Y-448915D01*
X11032Y-448900D01*
X11103Y-448894D01*
X11151Y-448874D01*
X11202Y-448863D01*
X11263Y-448826D01*
X11329Y-448798D01*
X11385Y-448753D01*
X11413Y-448736D01*
X11428Y-448719D01*
X11460Y-448693D01*
X13937Y-446216D01*
X19902Y-442772D01*
X26556Y-440989D01*
X33444Y-440989D01*
X40098Y-442772D01*
X46063Y-446216D01*
X50934Y-451087D01*
X54378Y-457052D01*
X56161Y-463706D01*
X56161Y-470594D01*
X54378Y-477248D01*
X50934Y-483213D01*
X46063Y-488084D01*
X40098Y-491528D01*
X33444Y-493311D01*
X26556Y-493311D01*
X19902Y-491528D01*
X13937Y-488084D01*
X11460Y-485607D01*
X11402Y-485565D01*
X11350Y-485516D01*
X11303Y-485494D01*
X11261Y-485464D01*
X11192Y-485442D01*
X11127Y-485412D01*
X11075Y-485407D01*
X11025Y-485391D01*
X10954Y-485393D01*
X10883Y-485385D01*
X10832Y-485396D01*
X10780Y-485398D01*
X10712Y-485422D01*
X10642Y-485437D01*
X10597Y-485464D01*
X10549Y-485482D01*
X10493Y-485527D01*
X10431Y-485564D01*
X10397Y-485603D01*
X10357Y-485636D01*
X10318Y-485696D01*
X10271Y-485751D01*
X10252Y-485799D01*
X10224Y-485843D01*
X10206Y-485912D01*
X10179Y-485979D01*
X10171Y-486050D01*
X10163Y-486081D01*
X10165Y-486104D01*
X10161Y-486145D01*
X10161Y-550000D01*
X10163Y-550016D01*
X10162Y-550043D01*
X10408Y-554418D01*
X10415Y-554450D01*
X10426Y-554545D01*
X12373Y-563076D01*
X12373Y-563077D01*
X12373Y-563079D01*
X12429Y-563237D01*
X16226Y-571121D01*
X16227Y-571122D01*
X16227Y-571124D01*
X16317Y-571265D01*
X21773Y-578107D01*
X21773Y-578108D01*
X21774Y-578109D01*
X21893Y-578227D01*
X28735Y-583683D01*
X28736Y-583684D01*
X28737Y-583685D01*
X28879Y-583774D01*
X36763Y-587571D01*
X36764Y-587571D01*
X36766Y-587572D01*
X36924Y-587627D01*
X39864Y-588298D01*
X43199Y-589060D01*
X45455Y-589574D01*
X45487Y-589576D01*
X45582Y-589592D01*
X49957Y-589838D01*
X49974Y-589836D01*
X50000Y-589839D01*
X550000Y-589839D01*
X550016Y-589837D01*
G37*
%LPC*%
G36*
X297802Y-435307D02*
X297802Y-435307D01*
X294629Y-432134D01*
X294555Y-432081D01*
X294485Y-432021D01*
X294455Y-432009D01*
X294429Y-431990D01*
X294342Y-431963D01*
X294257Y-431929D01*
X294216Y-431925D01*
X294194Y-431918D01*
X294162Y-431919D01*
X294091Y-431911D01*
X245066Y-431911D01*
X242462Y-429307D01*
X240693Y-427538D01*
X238089Y-424934D01*
X238089Y-185249D01*
X238075Y-185159D01*
X238067Y-185068D01*
X238055Y-185038D01*
X238050Y-185006D01*
X238007Y-184925D01*
X237971Y-184842D01*
X237945Y-184809D01*
X237934Y-184789D01*
X237911Y-184767D01*
X237866Y-184711D01*
X228089Y-174934D01*
X228089Y-165066D01*
X275912Y-117243D01*
X275965Y-117169D01*
X276025Y-117100D01*
X276037Y-117070D01*
X276056Y-117044D01*
X276083Y-116957D01*
X276117Y-116872D01*
X276121Y-116831D01*
X276128Y-116809D01*
X276127Y-116776D01*
X276135Y-116705D01*
X276135Y-116248D01*
X276116Y-116133D01*
X276099Y-116017D01*
X276097Y-116011D01*
X276096Y-116005D01*
X276041Y-115902D01*
X275988Y-115797D01*
X275983Y-115793D01*
X275980Y-115788D01*
X275896Y-115708D01*
X275812Y-115625D01*
X275806Y-115622D01*
X275802Y-115618D01*
X275785Y-115610D01*
X275665Y-115544D01*
X274013Y-114860D01*
X270940Y-111787D01*
X269277Y-107773D01*
X269277Y-103427D01*
X270940Y-99413D01*
X272851Y-97502D01*
X272893Y-97444D01*
X272942Y-97392D01*
X272964Y-97345D01*
X272994Y-97303D01*
X273015Y-97234D01*
X273046Y-97169D01*
X273051Y-97117D01*
X273067Y-97067D01*
X273065Y-96996D01*
X273073Y-96925D01*
X273062Y-96874D01*
X273060Y-96822D01*
X273036Y-96754D01*
X273020Y-96684D01*
X272994Y-96639D01*
X272976Y-96591D01*
X272931Y-96535D01*
X272894Y-96473D01*
X272855Y-96439D01*
X272822Y-96399D01*
X272762Y-96360D01*
X272707Y-96313D01*
X272659Y-96294D01*
X272615Y-96266D01*
X272546Y-96248D01*
X272479Y-96221D01*
X272408Y-96213D01*
X272377Y-96205D01*
X272353Y-96207D01*
X272312Y-96203D01*
X264184Y-96203D01*
X264164Y-96206D01*
X264145Y-96204D01*
X264043Y-96226D01*
X263941Y-96242D01*
X263924Y-96252D01*
X263904Y-96256D01*
X263815Y-96309D01*
X263724Y-96358D01*
X263710Y-96372D01*
X263693Y-96382D01*
X263626Y-96461D01*
X263554Y-96536D01*
X263546Y-96554D01*
X263533Y-96569D01*
X263494Y-96665D01*
X263451Y-96759D01*
X263449Y-96779D01*
X263441Y-96797D01*
X263423Y-96964D01*
X263423Y-115630D01*
X262530Y-116523D01*
X242470Y-116523D01*
X241577Y-115630D01*
X241577Y-96964D01*
X241574Y-96944D01*
X241576Y-96925D01*
X241554Y-96823D01*
X241538Y-96721D01*
X241528Y-96704D01*
X241524Y-96684D01*
X241471Y-96595D01*
X241422Y-96504D01*
X241408Y-96490D01*
X241398Y-96473D01*
X241319Y-96406D01*
X241244Y-96334D01*
X241226Y-96326D01*
X241211Y-96313D01*
X241115Y-96274D01*
X241021Y-96231D01*
X241001Y-96229D01*
X240983Y-96221D01*
X240816Y-96203D01*
X233418Y-96203D01*
X233328Y-96217D01*
X233237Y-96225D01*
X233207Y-96237D01*
X233175Y-96242D01*
X233094Y-96285D01*
X233010Y-96321D01*
X232978Y-96347D01*
X232957Y-96358D01*
X232935Y-96381D01*
X232879Y-96426D01*
X224288Y-105017D01*
X224235Y-105091D01*
X224175Y-105161D01*
X224163Y-105191D01*
X224144Y-105217D01*
X224117Y-105304D01*
X224083Y-105389D01*
X224079Y-105430D01*
X224072Y-105452D01*
X224073Y-105484D01*
X224065Y-105556D01*
X224065Y-106245D01*
X224079Y-106335D01*
X224087Y-106426D01*
X224099Y-106455D01*
X224104Y-106487D01*
X224147Y-106568D01*
X224183Y-106652D01*
X224209Y-106684D01*
X224220Y-106705D01*
X224243Y-106727D01*
X224288Y-106783D01*
X225307Y-107802D01*
X225307Y-112198D01*
X222198Y-115307D01*
X217802Y-115307D01*
X214693Y-112198D01*
X214693Y-107802D01*
X215712Y-106783D01*
X215765Y-106709D01*
X215825Y-106639D01*
X215837Y-106609D01*
X215856Y-106583D01*
X215883Y-106496D01*
X215917Y-106411D01*
X215921Y-106370D01*
X215928Y-106348D01*
X215927Y-106316D01*
X215935Y-106245D01*
X215935Y-101873D01*
X229735Y-88073D01*
X260281Y-88073D01*
X260377Y-88058D01*
X260474Y-88048D01*
X260498Y-88038D01*
X260524Y-88034D01*
X260609Y-87988D01*
X260699Y-87948D01*
X260718Y-87931D01*
X260741Y-87918D01*
X260808Y-87848D01*
X260880Y-87782D01*
X260892Y-87759D01*
X260910Y-87740D01*
X260951Y-87652D01*
X260998Y-87566D01*
X261003Y-87541D01*
X261014Y-87517D01*
X261025Y-87420D01*
X261042Y-87324D01*
X261038Y-87298D01*
X261041Y-87273D01*
X261020Y-87178D01*
X261006Y-87081D01*
X260994Y-87058D01*
X260989Y-87032D01*
X260939Y-86949D01*
X260895Y-86862D01*
X260876Y-86843D01*
X260863Y-86821D01*
X260789Y-86758D01*
X260719Y-86690D01*
X260691Y-86674D01*
X260676Y-86661D01*
X260645Y-86649D01*
X260572Y-86609D01*
X260213Y-86460D01*
X257140Y-83387D01*
X255477Y-79373D01*
X255477Y-75027D01*
X257140Y-71013D01*
X260213Y-67940D01*
X264227Y-66277D01*
X268573Y-66277D01*
X272587Y-67940D01*
X275660Y-71013D01*
X277323Y-75027D01*
X277323Y-79373D01*
X275660Y-83387D01*
X272587Y-86460D01*
X272228Y-86609D01*
X272145Y-86660D01*
X272059Y-86706D01*
X272041Y-86725D01*
X272019Y-86738D01*
X271957Y-86813D01*
X271890Y-86884D01*
X271879Y-86908D01*
X271862Y-86928D01*
X271827Y-87019D01*
X271786Y-87107D01*
X271783Y-87133D01*
X271774Y-87157D01*
X271770Y-87255D01*
X271759Y-87351D01*
X271764Y-87377D01*
X271763Y-87403D01*
X271790Y-87497D01*
X271811Y-87592D01*
X271825Y-87614D01*
X271832Y-87639D01*
X271887Y-87719D01*
X271937Y-87803D01*
X271957Y-87820D01*
X271972Y-87841D01*
X272050Y-87900D01*
X272124Y-87963D01*
X272148Y-87973D01*
X272169Y-87988D01*
X272262Y-88018D01*
X272352Y-88055D01*
X272385Y-88058D01*
X272403Y-88064D01*
X272436Y-88064D01*
X272519Y-88073D01*
X287981Y-88073D01*
X288077Y-88058D01*
X288174Y-88048D01*
X288198Y-88038D01*
X288224Y-88034D01*
X288309Y-87988D01*
X288399Y-87948D01*
X288418Y-87931D01*
X288441Y-87918D01*
X288508Y-87848D01*
X288580Y-87782D01*
X288592Y-87759D01*
X288610Y-87740D01*
X288651Y-87652D01*
X288698Y-87566D01*
X288703Y-87541D01*
X288714Y-87517D01*
X288725Y-87420D01*
X288742Y-87324D01*
X288738Y-87298D01*
X288741Y-87273D01*
X288720Y-87178D01*
X288706Y-87081D01*
X288694Y-87058D01*
X288689Y-87032D01*
X288639Y-86949D01*
X288595Y-86862D01*
X288576Y-86843D01*
X288563Y-86821D01*
X288489Y-86758D01*
X288419Y-86690D01*
X288391Y-86674D01*
X288376Y-86661D01*
X288345Y-86649D01*
X288272Y-86609D01*
X287913Y-86460D01*
X284840Y-83387D01*
X283177Y-79373D01*
X283177Y-75027D01*
X284840Y-71013D01*
X287913Y-67940D01*
X291927Y-66277D01*
X296273Y-66277D01*
X300287Y-67940D01*
X303360Y-71013D01*
X305023Y-75027D01*
X305023Y-79373D01*
X303360Y-83387D01*
X300287Y-86460D01*
X299928Y-86609D01*
X299845Y-86660D01*
X299759Y-86706D01*
X299741Y-86725D01*
X299719Y-86738D01*
X299657Y-86813D01*
X299590Y-86884D01*
X299579Y-86908D01*
X299562Y-86928D01*
X299527Y-87019D01*
X299486Y-87107D01*
X299483Y-87133D01*
X299474Y-87157D01*
X299470Y-87255D01*
X299459Y-87351D01*
X299464Y-87377D01*
X299463Y-87403D01*
X299490Y-87497D01*
X299511Y-87592D01*
X299525Y-87614D01*
X299532Y-87639D01*
X299587Y-87719D01*
X299637Y-87803D01*
X299657Y-87820D01*
X299672Y-87841D01*
X299750Y-87900D01*
X299824Y-87963D01*
X299848Y-87973D01*
X299869Y-87988D01*
X299962Y-88018D01*
X300052Y-88055D01*
X300085Y-88058D01*
X300103Y-88064D01*
X300136Y-88064D01*
X300219Y-88073D01*
X315581Y-88073D01*
X315677Y-88058D01*
X315774Y-88048D01*
X315798Y-88038D01*
X315824Y-88034D01*
X315909Y-87988D01*
X315999Y-87948D01*
X316018Y-87931D01*
X316041Y-87918D01*
X316108Y-87848D01*
X316180Y-87782D01*
X316192Y-87759D01*
X316210Y-87740D01*
X316251Y-87652D01*
X316298Y-87566D01*
X316303Y-87541D01*
X316314Y-87517D01*
X316325Y-87420D01*
X316342Y-87324D01*
X316338Y-87298D01*
X316341Y-87273D01*
X316320Y-87178D01*
X316306Y-87081D01*
X316294Y-87058D01*
X316289Y-87032D01*
X316239Y-86949D01*
X316195Y-86862D01*
X316176Y-86843D01*
X316163Y-86821D01*
X316089Y-86758D01*
X316019Y-86690D01*
X315991Y-86674D01*
X315976Y-86661D01*
X315945Y-86649D01*
X315872Y-86609D01*
X315513Y-86460D01*
X312440Y-83387D01*
X310777Y-79373D01*
X310777Y-75027D01*
X312440Y-71013D01*
X315513Y-67940D01*
X319527Y-66277D01*
X323873Y-66277D01*
X327887Y-67940D01*
X330960Y-71013D01*
X332623Y-75027D01*
X332623Y-79373D01*
X330960Y-83387D01*
X327887Y-86460D01*
X327528Y-86609D01*
X327445Y-86660D01*
X327359Y-86706D01*
X327341Y-86725D01*
X327319Y-86738D01*
X327257Y-86813D01*
X327190Y-86884D01*
X327179Y-86908D01*
X327162Y-86928D01*
X327127Y-87019D01*
X327086Y-87107D01*
X327083Y-87133D01*
X327074Y-87157D01*
X327070Y-87255D01*
X327059Y-87351D01*
X327064Y-87377D01*
X327063Y-87403D01*
X327090Y-87497D01*
X327111Y-87592D01*
X327125Y-87614D01*
X327132Y-87639D01*
X327187Y-87719D01*
X327237Y-87803D01*
X327257Y-87820D01*
X327272Y-87841D01*
X327350Y-87900D01*
X327424Y-87963D01*
X327448Y-87973D01*
X327469Y-87988D01*
X327562Y-88018D01*
X327652Y-88055D01*
X327685Y-88058D01*
X327703Y-88064D01*
X327736Y-88064D01*
X327819Y-88073D01*
X341712Y-88073D01*
X341719Y-88072D01*
X341727Y-88073D01*
X341841Y-88052D01*
X341954Y-88034D01*
X341961Y-88030D01*
X341969Y-88028D01*
X342070Y-87972D01*
X342172Y-87918D01*
X342177Y-87913D01*
X342184Y-87909D01*
X342262Y-87824D01*
X342341Y-87740D01*
X342344Y-87733D01*
X342350Y-87727D01*
X342396Y-87622D01*
X342445Y-87517D01*
X342446Y-87509D01*
X342449Y-87502D01*
X342459Y-87387D01*
X342472Y-87273D01*
X342470Y-87265D01*
X342471Y-87257D01*
X342444Y-87144D01*
X342419Y-87032D01*
X342415Y-87025D01*
X342414Y-87018D01*
X342352Y-86919D01*
X342293Y-86821D01*
X342287Y-86816D01*
X342283Y-86809D01*
X342159Y-86696D01*
X341622Y-86306D01*
X340294Y-84978D01*
X339189Y-83457D01*
X338336Y-81783D01*
X337755Y-79996D01*
X337554Y-78723D01*
X347877Y-78723D01*
X347877Y-89046D01*
X346604Y-88845D01*
X345216Y-88394D01*
X345149Y-88383D01*
X345084Y-88363D01*
X345028Y-88365D01*
X344973Y-88356D01*
X344906Y-88368D01*
X344838Y-88370D01*
X344786Y-88389D01*
X344731Y-88399D01*
X344671Y-88431D01*
X344607Y-88454D01*
X344564Y-88489D01*
X344514Y-88516D01*
X344468Y-88566D01*
X344415Y-88608D01*
X344385Y-88655D01*
X344347Y-88696D01*
X344319Y-88758D01*
X344282Y-88815D01*
X344269Y-88869D01*
X344246Y-88920D01*
X344239Y-88988D01*
X344222Y-89053D01*
X344227Y-89109D01*
X344221Y-89165D01*
X344236Y-89231D01*
X344241Y-89299D01*
X344263Y-89350D01*
X344276Y-89405D01*
X344311Y-89463D01*
X344338Y-89525D01*
X344387Y-89587D01*
X344404Y-89615D01*
X344420Y-89628D01*
X344443Y-89656D01*
X345464Y-90677D01*
X353581Y-98795D01*
X353598Y-98807D01*
X353610Y-98822D01*
X353697Y-98878D01*
X353781Y-98938D01*
X353800Y-98944D01*
X353817Y-98955D01*
X353918Y-98980D01*
X354016Y-99011D01*
X354036Y-99010D01*
X354056Y-99015D01*
X354159Y-99007D01*
X354262Y-99004D01*
X354281Y-98998D01*
X354301Y-98996D01*
X354396Y-98956D01*
X354493Y-98920D01*
X354509Y-98907D01*
X354527Y-98900D01*
X354658Y-98795D01*
X357113Y-96340D01*
X361127Y-94677D01*
X365473Y-94677D01*
X369487Y-96340D01*
X372560Y-99413D01*
X374223Y-103427D01*
X374223Y-107773D01*
X372560Y-111787D01*
X369487Y-114860D01*
X365473Y-116523D01*
X361127Y-116523D01*
X357113Y-114860D01*
X354040Y-111787D01*
X353356Y-110135D01*
X353294Y-110035D01*
X353234Y-109935D01*
X353229Y-109931D01*
X353226Y-109926D01*
X353164Y-109874D01*
X347822Y-104532D01*
X347764Y-104491D01*
X347712Y-104441D01*
X347665Y-104419D01*
X347623Y-104389D01*
X347554Y-104368D01*
X347489Y-104338D01*
X347437Y-104332D01*
X347387Y-104317D01*
X347316Y-104318D01*
X347245Y-104311D01*
X347194Y-104322D01*
X347142Y-104323D01*
X347074Y-104348D01*
X347004Y-104363D01*
X346959Y-104389D01*
X346911Y-104407D01*
X346855Y-104452D01*
X346793Y-104489D01*
X346759Y-104529D01*
X346719Y-104561D01*
X346680Y-104621D01*
X346633Y-104676D01*
X346614Y-104724D01*
X346586Y-104768D01*
X346568Y-104837D01*
X346541Y-104904D01*
X346533Y-104975D01*
X346525Y-105007D01*
X346527Y-105030D01*
X346523Y-105071D01*
X346523Y-107773D01*
X344860Y-111787D01*
X341787Y-114860D01*
X337773Y-116523D01*
X333427Y-116523D01*
X329413Y-114860D01*
X326958Y-112405D01*
X326942Y-112393D01*
X326929Y-112378D01*
X326842Y-112322D01*
X326758Y-112262D01*
X326739Y-112256D01*
X326722Y-112245D01*
X326622Y-112220D01*
X326523Y-112189D01*
X326503Y-112190D01*
X326484Y-112185D01*
X326381Y-112193D01*
X326277Y-112196D01*
X326259Y-112202D01*
X326239Y-112204D01*
X326144Y-112244D01*
X326046Y-112280D01*
X326031Y-112293D01*
X326012Y-112300D01*
X325881Y-112405D01*
X296376Y-141911D01*
X274153Y-141911D01*
X274063Y-141925D01*
X273972Y-141933D01*
X273942Y-141945D01*
X273910Y-141950D01*
X273830Y-141993D01*
X273746Y-142029D01*
X273714Y-142055D01*
X273693Y-142066D01*
X273671Y-142089D01*
X273615Y-142134D01*
X245530Y-170219D01*
X245477Y-170293D01*
X245417Y-170362D01*
X245405Y-170392D01*
X245386Y-170418D01*
X245359Y-170505D01*
X245325Y-170590D01*
X245321Y-170631D01*
X245314Y-170654D01*
X245315Y-170686D01*
X245307Y-170757D01*
X245307Y-172198D01*
X242198Y-175307D01*
X241797Y-175307D01*
X241726Y-175318D01*
X241655Y-175320D01*
X241606Y-175338D01*
X241554Y-175346D01*
X241491Y-175380D01*
X241424Y-175405D01*
X241383Y-175437D01*
X241337Y-175462D01*
X241288Y-175514D01*
X241232Y-175558D01*
X241203Y-175602D01*
X241167Y-175640D01*
X241137Y-175705D01*
X241099Y-175765D01*
X241086Y-175816D01*
X241064Y-175863D01*
X241056Y-175934D01*
X241038Y-176004D01*
X241043Y-176056D01*
X241037Y-176107D01*
X241052Y-176178D01*
X241058Y-176249D01*
X241078Y-176297D01*
X241089Y-176348D01*
X241126Y-176409D01*
X241154Y-176475D01*
X241199Y-176531D01*
X241215Y-176559D01*
X241233Y-176574D01*
X241259Y-176606D01*
X243615Y-178962D01*
X246219Y-181566D01*
X246219Y-414439D01*
X246230Y-414509D01*
X246232Y-414581D01*
X246250Y-414630D01*
X246258Y-414681D01*
X246292Y-414745D01*
X246317Y-414812D01*
X246349Y-414853D01*
X246374Y-414899D01*
X246426Y-414948D01*
X246470Y-415004D01*
X246514Y-415032D01*
X246552Y-415068D01*
X246617Y-415098D01*
X246677Y-415137D01*
X246728Y-415150D01*
X246775Y-415172D01*
X246846Y-415180D01*
X246916Y-415197D01*
X246968Y-415193D01*
X247019Y-415199D01*
X247090Y-415184D01*
X247161Y-415178D01*
X247209Y-415158D01*
X247260Y-415147D01*
X247321Y-415110D01*
X247387Y-415082D01*
X247443Y-415037D01*
X247471Y-415020D01*
X247486Y-415003D01*
X247518Y-414977D01*
X247802Y-414693D01*
X252198Y-414693D01*
X253217Y-415712D01*
X253291Y-415765D01*
X253361Y-415825D01*
X253391Y-415837D01*
X253417Y-415856D01*
X253504Y-415883D01*
X253589Y-415917D01*
X253630Y-415921D01*
X253652Y-415928D01*
X253684Y-415927D01*
X253755Y-415935D01*
X316905Y-415935D01*
X316995Y-415921D01*
X317086Y-415913D01*
X317116Y-415901D01*
X317148Y-415896D01*
X317229Y-415853D01*
X317312Y-415817D01*
X317345Y-415791D01*
X317365Y-415780D01*
X317387Y-415757D01*
X317443Y-415712D01*
X355066Y-378089D01*
X365847Y-378089D01*
X365937Y-378075D01*
X366028Y-378067D01*
X366058Y-378055D01*
X366090Y-378050D01*
X366170Y-378007D01*
X366254Y-377971D01*
X366286Y-377945D01*
X366307Y-377934D01*
X366329Y-377911D01*
X366385Y-377866D01*
X374470Y-369781D01*
X374523Y-369707D01*
X374583Y-369638D01*
X374595Y-369608D01*
X374614Y-369582D01*
X374641Y-369495D01*
X374675Y-369410D01*
X374679Y-369369D01*
X374686Y-369346D01*
X374685Y-369314D01*
X374693Y-369243D01*
X374693Y-367802D01*
X377802Y-364693D01*
X382198Y-364693D01*
X385307Y-367802D01*
X385307Y-372198D01*
X382198Y-375307D01*
X380757Y-375307D01*
X380667Y-375321D01*
X380576Y-375329D01*
X380546Y-375341D01*
X380514Y-375346D01*
X380434Y-375389D01*
X380350Y-375425D01*
X380318Y-375451D01*
X380297Y-375462D01*
X380275Y-375485D01*
X380219Y-375530D01*
X369530Y-386219D01*
X358749Y-386219D01*
X358659Y-386233D01*
X358568Y-386241D01*
X358538Y-386253D01*
X358506Y-386258D01*
X358426Y-386301D01*
X358342Y-386337D01*
X358310Y-386363D01*
X358289Y-386374D01*
X358267Y-386397D01*
X358211Y-386442D01*
X320588Y-424065D01*
X303407Y-424065D01*
X303337Y-424076D01*
X303265Y-424078D01*
X303216Y-424096D01*
X303165Y-424104D01*
X303101Y-424138D01*
X303034Y-424163D01*
X302993Y-424195D01*
X302947Y-424220D01*
X302898Y-424272D01*
X302842Y-424316D01*
X302814Y-424360D01*
X302778Y-424398D01*
X302748Y-424463D01*
X302709Y-424523D01*
X302696Y-424574D01*
X302674Y-424621D01*
X302666Y-424692D01*
X302649Y-424762D01*
X302653Y-424814D01*
X302647Y-424865D01*
X302662Y-424936D01*
X302668Y-425007D01*
X302688Y-425055D01*
X302699Y-425106D01*
X302736Y-425167D01*
X302764Y-425233D01*
X302809Y-425289D01*
X302826Y-425317D01*
X302843Y-425332D01*
X302869Y-425364D01*
X305307Y-427802D01*
X305307Y-432198D01*
X302198Y-435307D01*
X297802Y-435307D01*
G37*
%LPD*%
%LPC*%
G36*
X429355Y-118325D02*
X429355Y-118325D01*
X422507Y-116490D01*
X416368Y-112945D01*
X411355Y-107932D01*
X407810Y-101793D01*
X405975Y-94945D01*
X405975Y-87855D01*
X407810Y-81007D01*
X411355Y-74868D01*
X416368Y-69855D01*
X422507Y-66310D01*
X429355Y-64475D01*
X436445Y-64475D01*
X443293Y-66310D01*
X449432Y-69855D01*
X454445Y-74868D01*
X457990Y-81007D01*
X459825Y-87855D01*
X459825Y-94945D01*
X457990Y-101793D01*
X454445Y-107932D01*
X449432Y-112945D01*
X443293Y-116490D01*
X436445Y-118325D01*
X429355Y-118325D01*
G37*
%LPD*%
%LPC*%
G36*
X173555Y-535025D02*
X173555Y-535025D01*
X166707Y-533190D01*
X160568Y-529645D01*
X155555Y-524632D01*
X152010Y-518493D01*
X150175Y-511645D01*
X150175Y-504555D01*
X152010Y-497707D01*
X155555Y-491568D01*
X160568Y-486555D01*
X166707Y-483010D01*
X173555Y-481175D01*
X180645Y-481175D01*
X187493Y-483010D01*
X193632Y-486555D01*
X198645Y-491568D01*
X202190Y-497707D01*
X204025Y-504555D01*
X204025Y-511645D01*
X202190Y-518493D01*
X198645Y-524632D01*
X193632Y-529645D01*
X187493Y-533190D01*
X180645Y-535025D01*
X173555Y-535025D01*
G37*
%LPD*%
%LPC*%
G36*
X423555Y-535025D02*
X423555Y-535025D01*
X416707Y-533190D01*
X410568Y-529645D01*
X405555Y-524632D01*
X402010Y-518493D01*
X400175Y-511645D01*
X400175Y-504555D01*
X402010Y-497707D01*
X405555Y-491568D01*
X410568Y-486555D01*
X416707Y-483010D01*
X423555Y-481175D01*
X430645Y-481175D01*
X437493Y-483010D01*
X443632Y-486555D01*
X448645Y-491568D01*
X452190Y-497707D01*
X454025Y-504555D01*
X454025Y-511645D01*
X452190Y-518493D01*
X448645Y-524632D01*
X443632Y-529645D01*
X437493Y-533190D01*
X430645Y-535025D01*
X423555Y-535025D01*
G37*
%LPD*%
%LPC*%
G36*
X179355Y-118325D02*
X179355Y-118325D01*
X172507Y-116490D01*
X166368Y-112945D01*
X161355Y-107932D01*
X157810Y-101793D01*
X155975Y-94945D01*
X155975Y-87855D01*
X157810Y-81007D01*
X161355Y-74868D01*
X166368Y-69855D01*
X172507Y-66310D01*
X179355Y-64475D01*
X186445Y-64475D01*
X193293Y-66310D01*
X199432Y-69855D01*
X204445Y-74868D01*
X207990Y-81007D01*
X209825Y-87855D01*
X209825Y-94945D01*
X207990Y-101793D01*
X204445Y-107932D01*
X199432Y-112945D01*
X193293Y-116490D01*
X186445Y-118325D01*
X179355Y-118325D01*
G37*
%LPD*%
%LPC*%
G36*
X533512Y-270945D02*
X533512Y-270945D01*
X528155Y-265588D01*
X528155Y-258719D01*
X528141Y-258629D01*
X528133Y-258538D01*
X528121Y-258508D01*
X528116Y-258476D01*
X528073Y-258396D01*
X528037Y-258312D01*
X528011Y-258280D01*
X528000Y-258259D01*
X527977Y-258237D01*
X527955Y-258209D01*
X527952Y-258205D01*
X527949Y-258202D01*
X527932Y-258181D01*
X404039Y-134288D01*
X403965Y-134235D01*
X403896Y-134175D01*
X403866Y-134163D01*
X403840Y-134144D01*
X403753Y-134117D01*
X403668Y-134083D01*
X403627Y-134079D01*
X403604Y-134072D01*
X403572Y-134073D01*
X403501Y-134065D01*
X363755Y-134065D01*
X363665Y-134079D01*
X363574Y-134087D01*
X363545Y-134099D01*
X363513Y-134104D01*
X363432Y-134147D01*
X363348Y-134183D01*
X363316Y-134209D01*
X363295Y-134220D01*
X363273Y-134243D01*
X363217Y-134288D01*
X362198Y-135307D01*
X357802Y-135307D01*
X354693Y-132198D01*
X354693Y-127802D01*
X357802Y-124693D01*
X362198Y-124693D01*
X363217Y-125712D01*
X363291Y-125765D01*
X363361Y-125825D01*
X363391Y-125837D01*
X363417Y-125856D01*
X363504Y-125883D01*
X363589Y-125917D01*
X363630Y-125921D01*
X363652Y-125928D01*
X363684Y-125927D01*
X363755Y-125935D01*
X407184Y-125935D01*
X533681Y-252432D01*
X533755Y-252485D01*
X533824Y-252545D01*
X533854Y-252557D01*
X533880Y-252576D01*
X533967Y-252603D01*
X534052Y-252637D01*
X534093Y-252641D01*
X534115Y-252648D01*
X534148Y-252647D01*
X534219Y-252655D01*
X541088Y-252655D01*
X546445Y-258012D01*
X546445Y-265588D01*
X541088Y-270945D01*
X533512Y-270945D01*
G37*
%LPD*%
%LPC*%
G36*
X91327Y-427273D02*
X91327Y-427273D01*
X87313Y-425610D01*
X84240Y-422537D01*
X82577Y-418523D01*
X82577Y-414177D01*
X83262Y-412525D01*
X83288Y-412411D01*
X83317Y-412298D01*
X83317Y-412291D01*
X83318Y-412285D01*
X83307Y-412169D01*
X83298Y-412052D01*
X83295Y-412047D01*
X83295Y-412040D01*
X83247Y-411933D01*
X83202Y-411826D01*
X83197Y-411820D01*
X83195Y-411816D01*
X83182Y-411802D01*
X83097Y-411695D01*
X65935Y-394534D01*
X65935Y-338316D01*
X125712Y-278539D01*
X125765Y-278465D01*
X125825Y-278396D01*
X125837Y-278366D01*
X125856Y-278340D01*
X125883Y-278253D01*
X125917Y-278168D01*
X125921Y-278127D01*
X125928Y-278104D01*
X125927Y-278072D01*
X125935Y-278001D01*
X125935Y-253755D01*
X125921Y-253665D01*
X125913Y-253574D01*
X125901Y-253545D01*
X125896Y-253513D01*
X125853Y-253432D01*
X125817Y-253348D01*
X125791Y-253316D01*
X125780Y-253295D01*
X125757Y-253273D01*
X125712Y-253217D01*
X124693Y-252198D01*
X124693Y-247802D01*
X127802Y-244693D01*
X132198Y-244693D01*
X135307Y-247802D01*
X135307Y-252198D01*
X134288Y-253217D01*
X134235Y-253291D01*
X134175Y-253361D01*
X134163Y-253391D01*
X134144Y-253417D01*
X134117Y-253504D01*
X134083Y-253589D01*
X134079Y-253630D01*
X134072Y-253652D01*
X134073Y-253684D01*
X134065Y-253755D01*
X134065Y-281684D01*
X74288Y-341461D01*
X74235Y-341535D01*
X74175Y-341604D01*
X74163Y-341634D01*
X74144Y-341660D01*
X74117Y-341747D01*
X74083Y-341832D01*
X74079Y-341873D01*
X74072Y-341896D01*
X74073Y-341928D01*
X74065Y-341999D01*
X74065Y-390851D01*
X74079Y-390941D01*
X74087Y-391032D01*
X74099Y-391062D01*
X74104Y-391094D01*
X74147Y-391174D01*
X74183Y-391258D01*
X74209Y-391290D01*
X74220Y-391311D01*
X74243Y-391333D01*
X74288Y-391389D01*
X88845Y-405947D01*
X88940Y-406015D01*
X89034Y-406085D01*
X89040Y-406087D01*
X89045Y-406090D01*
X89156Y-406124D01*
X89268Y-406161D01*
X89274Y-406161D01*
X89280Y-406163D01*
X89397Y-406160D01*
X89514Y-406159D01*
X89521Y-406156D01*
X89526Y-406156D01*
X89543Y-406150D01*
X89675Y-406112D01*
X91327Y-405427D01*
X95673Y-405427D01*
X99687Y-407090D01*
X102760Y-410163D01*
X104423Y-414177D01*
X104423Y-418523D01*
X102760Y-422537D01*
X99687Y-425610D01*
X95673Y-427273D01*
X91327Y-427273D01*
G37*
%LPD*%
%LPC*%
G36*
X26561Y-259645D02*
X26561Y-259645D01*
X23200Y-258253D01*
X20627Y-255680D01*
X19235Y-252319D01*
X19235Y-248681D01*
X20627Y-245320D01*
X23200Y-242747D01*
X26561Y-241355D01*
X45439Y-241355D01*
X48800Y-242747D01*
X51373Y-245320D01*
X51640Y-245965D01*
X51701Y-246065D01*
X51761Y-246165D01*
X51766Y-246169D01*
X51769Y-246174D01*
X51860Y-246249D01*
X51948Y-246325D01*
X51954Y-246327D01*
X51959Y-246331D01*
X52067Y-246373D01*
X52176Y-246417D01*
X52184Y-246418D01*
X52189Y-246419D01*
X52207Y-246420D01*
X52343Y-246435D01*
X97501Y-246435D01*
X97591Y-246421D01*
X97682Y-246413D01*
X97712Y-246401D01*
X97744Y-246396D01*
X97824Y-246353D01*
X97908Y-246317D01*
X97940Y-246291D01*
X97961Y-246280D01*
X97983Y-246257D01*
X98039Y-246212D01*
X144470Y-199781D01*
X144523Y-199707D01*
X144583Y-199638D01*
X144595Y-199608D01*
X144614Y-199582D01*
X144641Y-199495D01*
X144675Y-199410D01*
X144679Y-199369D01*
X144686Y-199346D01*
X144685Y-199314D01*
X144693Y-199243D01*
X144693Y-197802D01*
X147802Y-194693D01*
X152198Y-194693D01*
X155307Y-197802D01*
X155307Y-202198D01*
X152198Y-205307D01*
X150757Y-205307D01*
X150667Y-205321D01*
X150576Y-205329D01*
X150546Y-205341D01*
X150514Y-205346D01*
X150434Y-205389D01*
X150350Y-205425D01*
X150318Y-205451D01*
X150297Y-205462D01*
X150275Y-205485D01*
X150219Y-205530D01*
X101184Y-254565D01*
X52343Y-254565D01*
X52228Y-254584D01*
X52112Y-254601D01*
X52107Y-254603D01*
X52100Y-254604D01*
X51998Y-254659D01*
X51893Y-254712D01*
X51889Y-254717D01*
X51883Y-254720D01*
X51803Y-254804D01*
X51721Y-254888D01*
X51717Y-254894D01*
X51714Y-254898D01*
X51706Y-254915D01*
X51640Y-255035D01*
X51373Y-255680D01*
X48800Y-258253D01*
X45439Y-259645D01*
X26561Y-259645D01*
G37*
%LPD*%
%LPC*%
G36*
X57802Y-215307D02*
X57802Y-215307D01*
X54693Y-212198D01*
X54693Y-207802D01*
X55712Y-206783D01*
X55765Y-206709D01*
X55825Y-206639D01*
X55837Y-206609D01*
X55856Y-206583D01*
X55883Y-206496D01*
X55917Y-206411D01*
X55921Y-206370D01*
X55928Y-206348D01*
X55927Y-206316D01*
X55935Y-206245D01*
X55935Y-161999D01*
X55933Y-161986D01*
X55934Y-161977D01*
X55924Y-161930D01*
X55921Y-161909D01*
X55913Y-161818D01*
X55901Y-161788D01*
X55896Y-161756D01*
X55853Y-161676D01*
X55817Y-161592D01*
X55791Y-161560D01*
X55780Y-161539D01*
X55757Y-161517D01*
X55712Y-161461D01*
X50390Y-156139D01*
X50374Y-156127D01*
X50362Y-156112D01*
X50294Y-156068D01*
X50258Y-156037D01*
X50238Y-156029D01*
X50191Y-155995D01*
X50172Y-155989D01*
X50155Y-155979D01*
X50054Y-155953D01*
X50035Y-155947D01*
X50030Y-155945D01*
X50027Y-155945D01*
X49956Y-155923D01*
X49936Y-155923D01*
X49916Y-155919D01*
X49813Y-155927D01*
X49710Y-155929D01*
X49691Y-155936D01*
X49671Y-155938D01*
X49606Y-155965D01*
X49598Y-155967D01*
X49579Y-155977D01*
X49576Y-155978D01*
X49479Y-156014D01*
X49463Y-156026D01*
X49445Y-156034D01*
X49394Y-156075D01*
X49381Y-156082D01*
X49368Y-156096D01*
X49314Y-156139D01*
X48800Y-156653D01*
X45439Y-158045D01*
X26561Y-158045D01*
X23200Y-156653D01*
X20627Y-154080D01*
X19235Y-150719D01*
X19235Y-147081D01*
X20627Y-143720D01*
X23200Y-141147D01*
X26561Y-139755D01*
X45439Y-139755D01*
X48800Y-141147D01*
X51373Y-143720D01*
X52661Y-146831D01*
X52696Y-146887D01*
X52721Y-146947D01*
X52773Y-147012D01*
X52791Y-147040D01*
X52806Y-147052D01*
X52826Y-147078D01*
X64065Y-158316D01*
X64065Y-206245D01*
X64079Y-206335D01*
X64087Y-206426D01*
X64099Y-206455D01*
X64104Y-206487D01*
X64147Y-206568D01*
X64183Y-206652D01*
X64209Y-206684D01*
X64220Y-206705D01*
X64243Y-206727D01*
X64288Y-206783D01*
X65307Y-207802D01*
X65307Y-212198D01*
X62198Y-215307D01*
X57802Y-215307D01*
G37*
%LPD*%
%LPC*%
G36*
X67802Y-325307D02*
X67802Y-325307D01*
X64693Y-322198D01*
X64693Y-317802D01*
X66220Y-316275D01*
X66273Y-316201D01*
X66333Y-316131D01*
X66345Y-316101D01*
X66364Y-316075D01*
X66391Y-315988D01*
X66425Y-315903D01*
X66429Y-315862D01*
X66436Y-315840D01*
X66435Y-315808D01*
X66443Y-315737D01*
X66443Y-301789D01*
X66429Y-301698D01*
X66421Y-301608D01*
X66409Y-301578D01*
X66404Y-301546D01*
X66361Y-301465D01*
X66325Y-301381D01*
X66299Y-301349D01*
X66288Y-301328D01*
X66265Y-301306D01*
X66220Y-301250D01*
X49034Y-284064D01*
X48940Y-283997D01*
X48846Y-283926D01*
X48839Y-283924D01*
X48834Y-283921D01*
X48724Y-283887D01*
X48612Y-283850D01*
X48605Y-283850D01*
X48599Y-283848D01*
X48483Y-283851D01*
X48366Y-283852D01*
X48359Y-283855D01*
X48353Y-283855D01*
X48336Y-283861D01*
X48205Y-283899D01*
X45439Y-285045D01*
X26561Y-285045D01*
X23200Y-283653D01*
X20627Y-281080D01*
X19235Y-277719D01*
X19235Y-274081D01*
X20627Y-270720D01*
X23200Y-268147D01*
X26561Y-266755D01*
X45439Y-266755D01*
X48800Y-268147D01*
X51373Y-270720D01*
X52765Y-274081D01*
X52765Y-277419D01*
X52779Y-277510D01*
X52787Y-277600D01*
X52799Y-277630D01*
X52804Y-277662D01*
X52847Y-277743D01*
X52883Y-277827D01*
X52909Y-277859D01*
X52920Y-277880D01*
X52943Y-277902D01*
X52988Y-277958D01*
X73557Y-298527D01*
X73557Y-315737D01*
X73571Y-315827D01*
X73579Y-315918D01*
X73591Y-315947D01*
X73596Y-315979D01*
X73639Y-316060D01*
X73675Y-316144D01*
X73701Y-316176D01*
X73712Y-316197D01*
X73735Y-316219D01*
X73780Y-316275D01*
X75307Y-317802D01*
X75307Y-322198D01*
X72198Y-325307D01*
X67802Y-325307D01*
G37*
%LPD*%
%LPC*%
G36*
X147802Y-425307D02*
X147802Y-425307D01*
X144693Y-422198D01*
X144693Y-420039D01*
X144679Y-419948D01*
X144671Y-419858D01*
X144659Y-419828D01*
X144654Y-419796D01*
X144611Y-419715D01*
X144575Y-419631D01*
X144549Y-419599D01*
X144538Y-419578D01*
X144515Y-419556D01*
X144470Y-419500D01*
X136443Y-411473D01*
X136443Y-341789D01*
X136429Y-341698D01*
X136421Y-341608D01*
X136409Y-341578D01*
X136404Y-341546D01*
X136361Y-341465D01*
X136325Y-341381D01*
X136299Y-341349D01*
X136288Y-341328D01*
X136265Y-341306D01*
X136220Y-341250D01*
X120500Y-325530D01*
X120426Y-325477D01*
X120356Y-325417D01*
X120326Y-325405D01*
X120300Y-325386D01*
X120213Y-325359D01*
X120128Y-325325D01*
X120087Y-325321D01*
X120065Y-325314D01*
X120033Y-325315D01*
X119961Y-325307D01*
X117802Y-325307D01*
X114693Y-322198D01*
X114693Y-317802D01*
X117802Y-314693D01*
X122198Y-314693D01*
X125307Y-317802D01*
X125307Y-319961D01*
X125321Y-320052D01*
X125329Y-320142D01*
X125341Y-320172D01*
X125346Y-320204D01*
X125389Y-320285D01*
X125425Y-320369D01*
X125451Y-320401D01*
X125462Y-320422D01*
X125485Y-320444D01*
X125530Y-320500D01*
X143557Y-338527D01*
X143557Y-408211D01*
X143571Y-408302D01*
X143579Y-408392D01*
X143591Y-408422D01*
X143596Y-408454D01*
X143639Y-408535D01*
X143675Y-408619D01*
X143701Y-408651D01*
X143712Y-408672D01*
X143735Y-408694D01*
X143780Y-408750D01*
X149500Y-414470D01*
X149574Y-414523D01*
X149644Y-414583D01*
X149674Y-414595D01*
X149700Y-414614D01*
X149787Y-414641D01*
X149872Y-414675D01*
X149913Y-414679D01*
X149935Y-414686D01*
X149967Y-414685D01*
X150039Y-414693D01*
X152198Y-414693D01*
X155307Y-417802D01*
X155307Y-422198D01*
X152198Y-425307D01*
X147802Y-425307D01*
G37*
%LPD*%
%LPC*%
G36*
X51523Y-581751D02*
X51523Y-581751D01*
X51523Y-551523D01*
X81751Y-551523D01*
X81751Y-551560D01*
X81445Y-554664D01*
X80836Y-557724D01*
X79931Y-560709D01*
X78737Y-563592D01*
X77266Y-566343D01*
X75533Y-568937D01*
X73554Y-571348D01*
X71348Y-573554D01*
X68937Y-575533D01*
X66343Y-577266D01*
X63592Y-578737D01*
X60709Y-579931D01*
X57724Y-580836D01*
X54664Y-581445D01*
X51560Y-581751D01*
X51523Y-581751D01*
G37*
%LPD*%
%LPC*%
G36*
X551523Y-581751D02*
X551523Y-581751D01*
X551523Y-551523D01*
X581751Y-551523D01*
X581751Y-551560D01*
X581445Y-554664D01*
X580836Y-557724D01*
X579931Y-560709D01*
X578737Y-563592D01*
X577266Y-566343D01*
X575533Y-568937D01*
X573554Y-571348D01*
X571348Y-573554D01*
X568937Y-575533D01*
X566343Y-577266D01*
X563592Y-578737D01*
X560709Y-579931D01*
X557724Y-580836D01*
X554664Y-581445D01*
X551560Y-581751D01*
X551523Y-581751D01*
G37*
%LPD*%
%LPC*%
G36*
X551523Y-81751D02*
X551523Y-81751D01*
X551523Y-51523D01*
X581751Y-51523D01*
X581751Y-51560D01*
X581445Y-54664D01*
X580836Y-57724D01*
X579931Y-60709D01*
X578737Y-63592D01*
X577266Y-66343D01*
X575533Y-68937D01*
X573554Y-71348D01*
X571348Y-73554D01*
X568937Y-75533D01*
X566343Y-77266D01*
X563592Y-78737D01*
X560709Y-79931D01*
X557724Y-80836D01*
X554664Y-81445D01*
X551560Y-81751D01*
X551523Y-81751D01*
G37*
%LPD*%
%LPC*%
G36*
X51523Y-81751D02*
X51523Y-81751D01*
X51523Y-51523D01*
X81751Y-51523D01*
X81751Y-51560D01*
X81445Y-54664D01*
X80836Y-57724D01*
X79931Y-60709D01*
X78737Y-63592D01*
X77266Y-66343D01*
X75533Y-68937D01*
X73554Y-71348D01*
X71348Y-73554D01*
X68937Y-75533D01*
X66343Y-77266D01*
X63592Y-78737D01*
X60709Y-79931D01*
X57724Y-80836D01*
X54664Y-81445D01*
X51560Y-81751D01*
X51523Y-81751D01*
G37*
%LPD*%
%LPC*%
G36*
X548440Y-581751D02*
X548440Y-581751D01*
X545336Y-581445D01*
X542276Y-580836D01*
X539291Y-579931D01*
X536408Y-578737D01*
X533657Y-577266D01*
X531063Y-575533D01*
X528652Y-573554D01*
X526446Y-571348D01*
X524467Y-568937D01*
X522734Y-566343D01*
X521263Y-563592D01*
X520069Y-560709D01*
X519164Y-557724D01*
X518555Y-554664D01*
X518249Y-551560D01*
X518249Y-551523D01*
X548477Y-551523D01*
X548477Y-581751D01*
X548440Y-581751D01*
G37*
%LPD*%
%LPC*%
G36*
X51523Y-548477D02*
X51523Y-548477D01*
X51523Y-518249D01*
X51560Y-518249D01*
X54664Y-518555D01*
X57724Y-519164D01*
X60709Y-520069D01*
X63592Y-521263D01*
X66343Y-522734D01*
X68937Y-524467D01*
X71348Y-526446D01*
X73554Y-528652D01*
X75533Y-531063D01*
X77266Y-533657D01*
X78737Y-536408D01*
X79931Y-539291D01*
X80836Y-542276D01*
X81445Y-545336D01*
X81751Y-548440D01*
X81751Y-548477D01*
X51523Y-548477D01*
G37*
%LPD*%
%LPC*%
G36*
X551523Y-48477D02*
X551523Y-48477D01*
X551523Y-18249D01*
X551560Y-18249D01*
X554664Y-18555D01*
X557724Y-19164D01*
X560709Y-20069D01*
X563592Y-21263D01*
X566343Y-22734D01*
X568937Y-24467D01*
X571348Y-26446D01*
X573554Y-28652D01*
X575533Y-31063D01*
X577266Y-33657D01*
X578737Y-36408D01*
X579931Y-39291D01*
X580836Y-42276D01*
X581445Y-45336D01*
X581751Y-48440D01*
X581751Y-48477D01*
X551523Y-48477D01*
G37*
%LPD*%
%LPC*%
G36*
X48440Y-581751D02*
X48440Y-581751D01*
X45336Y-581445D01*
X42276Y-580836D01*
X39291Y-579931D01*
X36408Y-578737D01*
X33657Y-577266D01*
X31063Y-575533D01*
X28652Y-573554D01*
X26446Y-571348D01*
X24467Y-568937D01*
X22734Y-566343D01*
X21263Y-563592D01*
X20069Y-560709D01*
X19164Y-557724D01*
X18555Y-554664D01*
X18249Y-551560D01*
X18249Y-551523D01*
X48477Y-551523D01*
X48477Y-581751D01*
X48440Y-581751D01*
G37*
%LPD*%
%LPC*%
G36*
X51523Y-48477D02*
X51523Y-48477D01*
X51523Y-18249D01*
X51560Y-18249D01*
X54664Y-18555D01*
X57724Y-19164D01*
X60709Y-20069D01*
X63592Y-21263D01*
X66343Y-22734D01*
X68937Y-24467D01*
X71348Y-26446D01*
X73554Y-28652D01*
X75533Y-31063D01*
X77266Y-33657D01*
X78737Y-36408D01*
X79931Y-39291D01*
X80836Y-42276D01*
X81445Y-45336D01*
X81751Y-48440D01*
X81751Y-48477D01*
X51523Y-48477D01*
G37*
%LPD*%
%LPC*%
G36*
X548440Y-81751D02*
X548440Y-81751D01*
X545336Y-81445D01*
X542276Y-80836D01*
X539291Y-79931D01*
X536408Y-78737D01*
X533657Y-77266D01*
X531063Y-75533D01*
X528652Y-73554D01*
X526446Y-71348D01*
X524467Y-68937D01*
X522734Y-66343D01*
X521263Y-63592D01*
X520069Y-60709D01*
X519164Y-57724D01*
X518555Y-54664D01*
X518249Y-51560D01*
X518249Y-51523D01*
X548477Y-51523D01*
X548477Y-81751D01*
X548440Y-81751D01*
G37*
%LPD*%
%LPC*%
G36*
X551523Y-548477D02*
X551523Y-548477D01*
X551523Y-518249D01*
X551560Y-518249D01*
X554664Y-518555D01*
X557724Y-519164D01*
X560709Y-520069D01*
X563592Y-521263D01*
X566343Y-522734D01*
X568937Y-524467D01*
X571348Y-526446D01*
X573554Y-528652D01*
X575533Y-531063D01*
X577266Y-533657D01*
X578737Y-536408D01*
X579931Y-539291D01*
X580836Y-542276D01*
X581445Y-545336D01*
X581751Y-548440D01*
X581751Y-548477D01*
X551523Y-548477D01*
G37*
%LPD*%
%LPC*%
G36*
X48440Y-81751D02*
X48440Y-81751D01*
X45336Y-81445D01*
X42276Y-80836D01*
X39291Y-79931D01*
X36408Y-78737D01*
X33657Y-77266D01*
X31063Y-75533D01*
X28652Y-73554D01*
X26446Y-71348D01*
X24467Y-68937D01*
X22734Y-66343D01*
X21263Y-63592D01*
X20069Y-60709D01*
X19164Y-57724D01*
X18555Y-54664D01*
X18249Y-51560D01*
X18249Y-51523D01*
X48477Y-51523D01*
X48477Y-81751D01*
X48440Y-81751D01*
G37*
%LPD*%
%LPC*%
G36*
X18249Y-548477D02*
X18249Y-548477D01*
X18249Y-548440D01*
X18555Y-545336D01*
X19164Y-542276D01*
X20069Y-539291D01*
X21263Y-536408D01*
X22734Y-533657D01*
X24467Y-531063D01*
X26446Y-528652D01*
X28652Y-526446D01*
X31063Y-524467D01*
X33657Y-522734D01*
X36408Y-521263D01*
X39291Y-520069D01*
X42276Y-519164D01*
X45336Y-518555D01*
X48440Y-518249D01*
X48477Y-518249D01*
X48477Y-548477D01*
X18249Y-548477D01*
G37*
%LPD*%
%LPC*%
G36*
X518249Y-548477D02*
X518249Y-548477D01*
X518249Y-548440D01*
X518555Y-545336D01*
X519164Y-542276D01*
X520069Y-539291D01*
X521263Y-536408D01*
X522734Y-533657D01*
X524467Y-531063D01*
X526446Y-528652D01*
X528652Y-526446D01*
X531063Y-524467D01*
X533657Y-522734D01*
X536408Y-521263D01*
X539291Y-520069D01*
X542276Y-519164D01*
X545336Y-518555D01*
X548440Y-518249D01*
X548477Y-518249D01*
X548477Y-548477D01*
X518249Y-548477D01*
G37*
%LPD*%
%LPC*%
G36*
X18249Y-48477D02*
X18249Y-48477D01*
X18249Y-48440D01*
X18555Y-45336D01*
X19164Y-42276D01*
X20069Y-39291D01*
X21263Y-36408D01*
X22734Y-33657D01*
X24467Y-31063D01*
X26446Y-28652D01*
X28652Y-26446D01*
X31063Y-24467D01*
X33657Y-22734D01*
X36408Y-21263D01*
X39291Y-20069D01*
X42276Y-19164D01*
X45336Y-18555D01*
X48440Y-18249D01*
X48477Y-18249D01*
X48477Y-48477D01*
X18249Y-48477D01*
G37*
%LPD*%
%LPC*%
G36*
X518249Y-48477D02*
X518249Y-48477D01*
X518249Y-48440D01*
X518555Y-45336D01*
X519164Y-42276D01*
X520069Y-39291D01*
X521263Y-36408D01*
X522734Y-33657D01*
X524467Y-31063D01*
X526446Y-28652D01*
X528652Y-26446D01*
X531063Y-24467D01*
X533657Y-22734D01*
X536408Y-21263D01*
X539291Y-20069D01*
X542276Y-19164D01*
X545336Y-18555D01*
X548440Y-18249D01*
X548477Y-18249D01*
X548477Y-48477D01*
X518249Y-48477D01*
G37*
%LPD*%
%LPC*%
G36*
X26561Y-183445D02*
X26561Y-183445D01*
X23200Y-182053D01*
X20627Y-179480D01*
X19235Y-176119D01*
X19235Y-172481D01*
X20627Y-169120D01*
X23200Y-166547D01*
X26561Y-165155D01*
X45439Y-165155D01*
X48800Y-166547D01*
X51373Y-169120D01*
X52765Y-172481D01*
X52765Y-176119D01*
X51373Y-179480D01*
X48800Y-182053D01*
X45439Y-183445D01*
X26561Y-183445D01*
G37*
%LPD*%
%LPC*%
G36*
X26561Y-310445D02*
X26561Y-310445D01*
X23200Y-309053D01*
X20627Y-306480D01*
X19235Y-303119D01*
X19235Y-299481D01*
X20627Y-296120D01*
X23200Y-293547D01*
X26561Y-292155D01*
X45439Y-292155D01*
X48800Y-293547D01*
X51373Y-296120D01*
X52765Y-299481D01*
X52765Y-303119D01*
X51373Y-306480D01*
X48800Y-309053D01*
X45439Y-310445D01*
X26561Y-310445D01*
G37*
%LPD*%
%LPC*%
G36*
X26561Y-208845D02*
X26561Y-208845D01*
X23200Y-207453D01*
X20627Y-204880D01*
X19235Y-201519D01*
X19235Y-197881D01*
X20627Y-194520D01*
X23200Y-191947D01*
X26561Y-190555D01*
X45439Y-190555D01*
X48800Y-191947D01*
X51373Y-194520D01*
X52765Y-197881D01*
X52765Y-201519D01*
X51373Y-204880D01*
X48800Y-207453D01*
X45439Y-208845D01*
X26561Y-208845D01*
G37*
%LPD*%
%LPC*%
G36*
X26561Y-132645D02*
X26561Y-132645D01*
X23200Y-131253D01*
X20627Y-128680D01*
X19235Y-125319D01*
X19235Y-121681D01*
X20627Y-118320D01*
X23200Y-115747D01*
X26561Y-114355D01*
X45439Y-114355D01*
X48800Y-115747D01*
X51373Y-118320D01*
X52765Y-121681D01*
X52765Y-125319D01*
X51373Y-128680D01*
X48800Y-131253D01*
X45439Y-132645D01*
X26561Y-132645D01*
G37*
%LPD*%
%LPC*%
G36*
X26561Y-234245D02*
X26561Y-234245D01*
X23200Y-232853D01*
X20627Y-230280D01*
X19235Y-226919D01*
X19235Y-223281D01*
X20627Y-219920D01*
X23200Y-217347D01*
X26561Y-215955D01*
X45439Y-215955D01*
X48800Y-217347D01*
X51373Y-219920D01*
X52765Y-223281D01*
X52765Y-226919D01*
X51373Y-230280D01*
X48800Y-232853D01*
X45439Y-234245D01*
X26561Y-234245D01*
G37*
%LPD*%
%LPC*%
G36*
X83470Y-376473D02*
X83470Y-376473D01*
X82577Y-375580D01*
X82577Y-355520D01*
X83470Y-354627D01*
X103530Y-354627D01*
X104423Y-355520D01*
X104423Y-375580D01*
X103530Y-376473D01*
X83470Y-376473D01*
G37*
%LPD*%
%LPC*%
G36*
X116727Y-414573D02*
X116727Y-414573D01*
X112713Y-412910D01*
X109640Y-409837D01*
X107977Y-405823D01*
X107977Y-401477D01*
X109640Y-397463D01*
X112713Y-394390D01*
X116727Y-392727D01*
X121073Y-392727D01*
X125087Y-394390D01*
X128160Y-397463D01*
X129823Y-401477D01*
X129823Y-405823D01*
X128160Y-409837D01*
X125087Y-412910D01*
X121073Y-414573D01*
X116727Y-414573D01*
G37*
%LPD*%
%LPC*%
G36*
X286127Y-533223D02*
X286127Y-533223D01*
X282113Y-531560D01*
X279040Y-528487D01*
X277377Y-524473D01*
X277377Y-520127D01*
X279040Y-516113D01*
X282113Y-513040D01*
X286127Y-511377D01*
X290473Y-511377D01*
X294487Y-513040D01*
X297560Y-516113D01*
X299223Y-520127D01*
X299223Y-524473D01*
X297560Y-528487D01*
X294487Y-531560D01*
X290473Y-533223D01*
X286127Y-533223D01*
G37*
%LPD*%
%LPC*%
G36*
X258427Y-533223D02*
X258427Y-533223D01*
X254413Y-531560D01*
X251340Y-528487D01*
X249677Y-524473D01*
X249677Y-520127D01*
X251340Y-516113D01*
X254413Y-513040D01*
X258427Y-511377D01*
X262773Y-511377D01*
X266787Y-513040D01*
X269860Y-516113D01*
X271523Y-520127D01*
X271523Y-524473D01*
X269860Y-528487D01*
X266787Y-531560D01*
X262773Y-533223D01*
X258427Y-533223D01*
G37*
%LPD*%
%LPC*%
G36*
X341427Y-533223D02*
X341427Y-533223D01*
X337413Y-531560D01*
X334340Y-528487D01*
X332677Y-524473D01*
X332677Y-520127D01*
X334340Y-516113D01*
X337413Y-513040D01*
X341427Y-511377D01*
X345773Y-511377D01*
X349787Y-513040D01*
X352860Y-516113D01*
X354523Y-520127D01*
X354523Y-524473D01*
X352860Y-528487D01*
X349787Y-531560D01*
X345773Y-533223D01*
X341427Y-533223D01*
G37*
%LPD*%
%LPC*%
G36*
X313727Y-533223D02*
X313727Y-533223D01*
X309713Y-531560D01*
X306640Y-528487D01*
X304977Y-524473D01*
X304977Y-520127D01*
X306640Y-516113D01*
X309713Y-513040D01*
X313727Y-511377D01*
X318073Y-511377D01*
X322087Y-513040D01*
X325160Y-516113D01*
X326823Y-520127D01*
X326823Y-524473D01*
X325160Y-528487D01*
X322087Y-531560D01*
X318073Y-533223D01*
X313727Y-533223D01*
G37*
%LPD*%
%LPC*%
G36*
X244527Y-504823D02*
X244527Y-504823D01*
X240513Y-503160D01*
X237440Y-500087D01*
X235777Y-496073D01*
X235777Y-491727D01*
X237440Y-487713D01*
X240513Y-484640D01*
X244527Y-482977D01*
X248873Y-482977D01*
X252887Y-484640D01*
X255960Y-487713D01*
X257623Y-491727D01*
X257623Y-496073D01*
X255960Y-500087D01*
X252887Y-503160D01*
X248873Y-504823D01*
X244527Y-504823D01*
G37*
%LPD*%
%LPC*%
G36*
X272227Y-504823D02*
X272227Y-504823D01*
X268213Y-503160D01*
X265140Y-500087D01*
X263477Y-496073D01*
X263477Y-491727D01*
X265140Y-487713D01*
X268213Y-484640D01*
X272227Y-482977D01*
X276573Y-482977D01*
X280587Y-484640D01*
X283660Y-487713D01*
X285323Y-491727D01*
X285323Y-496073D01*
X283660Y-500087D01*
X280587Y-503160D01*
X276573Y-504823D01*
X272227Y-504823D01*
G37*
%LPD*%
%LPC*%
G36*
X299927Y-504823D02*
X299927Y-504823D01*
X295913Y-503160D01*
X292840Y-500087D01*
X291177Y-496073D01*
X291177Y-491727D01*
X292840Y-487713D01*
X295913Y-484640D01*
X299927Y-482977D01*
X304273Y-482977D01*
X308287Y-484640D01*
X311360Y-487713D01*
X313023Y-491727D01*
X313023Y-496073D01*
X311360Y-500087D01*
X308287Y-503160D01*
X304273Y-504823D01*
X299927Y-504823D01*
G37*
%LPD*%
%LPC*%
G36*
X327627Y-504823D02*
X327627Y-504823D01*
X323613Y-503160D01*
X320540Y-500087D01*
X318877Y-496073D01*
X318877Y-491727D01*
X320540Y-487713D01*
X323613Y-484640D01*
X327627Y-482977D01*
X331973Y-482977D01*
X335987Y-484640D01*
X339060Y-487713D01*
X340723Y-491727D01*
X340723Y-496073D01*
X339060Y-500087D01*
X335987Y-503160D01*
X331973Y-504823D01*
X327627Y-504823D01*
G37*
%LPD*%
%LPC*%
G36*
X91327Y-452673D02*
X91327Y-452673D01*
X87313Y-451010D01*
X84240Y-447937D01*
X82577Y-443923D01*
X82577Y-439577D01*
X84240Y-435563D01*
X87313Y-432490D01*
X91327Y-430827D01*
X95673Y-430827D01*
X99687Y-432490D01*
X102760Y-435563D01*
X104423Y-439577D01*
X104423Y-443923D01*
X102760Y-447937D01*
X99687Y-451010D01*
X95673Y-452673D01*
X91327Y-452673D01*
G37*
%LPD*%
%LPC*%
G36*
X116727Y-439973D02*
X116727Y-439973D01*
X112713Y-438310D01*
X109640Y-435237D01*
X107977Y-431223D01*
X107977Y-426877D01*
X109640Y-422863D01*
X112713Y-419790D01*
X116727Y-418127D01*
X121073Y-418127D01*
X125087Y-419790D01*
X128160Y-422863D01*
X129823Y-426877D01*
X129823Y-431223D01*
X128160Y-435237D01*
X125087Y-438310D01*
X121073Y-439973D01*
X116727Y-439973D01*
G37*
%LPD*%
%LPC*%
G36*
X91327Y-401873D02*
X91327Y-401873D01*
X87313Y-400210D01*
X84240Y-397137D01*
X82577Y-393123D01*
X82577Y-388777D01*
X84240Y-384763D01*
X87313Y-381690D01*
X91327Y-380027D01*
X95673Y-380027D01*
X99687Y-381690D01*
X102760Y-384763D01*
X104423Y-388777D01*
X104423Y-393123D01*
X102760Y-397137D01*
X99687Y-400210D01*
X95673Y-401873D01*
X91327Y-401873D01*
G37*
%LPD*%
%LPC*%
G36*
X558912Y-169345D02*
X558912Y-169345D01*
X553555Y-163988D01*
X553555Y-156412D01*
X558912Y-151055D01*
X566488Y-151055D01*
X571845Y-156412D01*
X571845Y-163988D01*
X566488Y-169345D01*
X558912Y-169345D01*
G37*
%LPD*%
%LPC*%
G36*
X558912Y-270945D02*
X558912Y-270945D01*
X553555Y-265588D01*
X553555Y-258012D01*
X558912Y-252655D01*
X566488Y-252655D01*
X571845Y-258012D01*
X571845Y-265588D01*
X566488Y-270945D01*
X558912Y-270945D01*
G37*
%LPD*%
%LPC*%
G36*
X533512Y-169345D02*
X533512Y-169345D01*
X528155Y-163988D01*
X528155Y-156412D01*
X533512Y-151055D01*
X541088Y-151055D01*
X546445Y-156412D01*
X546445Y-163988D01*
X541088Y-169345D01*
X533512Y-169345D01*
G37*
%LPD*%
%LPC*%
G36*
X558912Y-194745D02*
X558912Y-194745D01*
X553555Y-189388D01*
X553555Y-181812D01*
X558912Y-176455D01*
X566488Y-176455D01*
X571845Y-181812D01*
X571845Y-189388D01*
X566488Y-194745D01*
X558912Y-194745D01*
G37*
%LPD*%
%LPC*%
G36*
X533512Y-220145D02*
X533512Y-220145D01*
X528155Y-214788D01*
X528155Y-207212D01*
X533512Y-201855D01*
X541088Y-201855D01*
X546445Y-207212D01*
X546445Y-214788D01*
X541088Y-220145D01*
X533512Y-220145D01*
G37*
%LPD*%
%LPC*%
G36*
X533512Y-245545D02*
X533512Y-245545D01*
X528155Y-240188D01*
X528155Y-232612D01*
X533512Y-227255D01*
X541088Y-227255D01*
X546445Y-232612D01*
X546445Y-240188D01*
X541088Y-245545D01*
X533512Y-245545D01*
G37*
%LPD*%
%LPC*%
G36*
X533512Y-194745D02*
X533512Y-194745D01*
X528155Y-189388D01*
X528155Y-181812D01*
X533512Y-176455D01*
X541088Y-176455D01*
X546445Y-181812D01*
X546445Y-189388D01*
X541088Y-194745D01*
X533512Y-194745D01*
G37*
%LPD*%
%LPC*%
G36*
X558912Y-245545D02*
X558912Y-245545D01*
X553555Y-240188D01*
X553555Y-232612D01*
X558912Y-227255D01*
X566488Y-227255D01*
X571845Y-232612D01*
X571845Y-240188D01*
X566488Y-245545D01*
X558912Y-245545D01*
G37*
%LPD*%
%LPC*%
G36*
X558912Y-220145D02*
X558912Y-220145D01*
X553555Y-214788D01*
X553555Y-207212D01*
X558912Y-201855D01*
X566488Y-201855D01*
X571845Y-207212D01*
X571845Y-214788D01*
X566488Y-220145D01*
X558912Y-220145D01*
G37*
%LPD*%
%LPC*%
G36*
X37523Y-108261D02*
X37523Y-108261D01*
X37523Y-99623D01*
X53666Y-99623D01*
X53531Y-100479D01*
X53036Y-102000D01*
X52310Y-103425D01*
X51370Y-104719D01*
X50239Y-105850D01*
X48945Y-106790D01*
X47520Y-107516D01*
X45999Y-108011D01*
X44420Y-108261D01*
X37523Y-108261D01*
G37*
%LPD*%
%LPC*%
G36*
X26001Y-108011D02*
X26001Y-108011D01*
X24480Y-107516D01*
X23055Y-106790D01*
X21761Y-105850D01*
X20630Y-104719D01*
X19690Y-103425D01*
X18964Y-102000D01*
X18469Y-100479D01*
X18334Y-99623D01*
X34477Y-99623D01*
X34477Y-108261D01*
X27580Y-108261D01*
X26001Y-108011D01*
G37*
%LPD*%
%LPC*%
G36*
X37523Y-96577D02*
X37523Y-96577D01*
X37523Y-87939D01*
X44420Y-87939D01*
X45999Y-88189D01*
X47520Y-88684D01*
X48945Y-89410D01*
X50239Y-90350D01*
X51370Y-91481D01*
X52310Y-92775D01*
X53036Y-94200D01*
X53531Y-95721D01*
X53666Y-96577D01*
X37523Y-96577D01*
G37*
%LPD*%
%LPC*%
G36*
X18334Y-96577D02*
X18334Y-96577D01*
X18469Y-95721D01*
X18964Y-94200D01*
X19690Y-92775D01*
X20630Y-91481D01*
X21761Y-90350D01*
X23055Y-89410D01*
X24480Y-88684D01*
X26001Y-88189D01*
X27580Y-87939D01*
X34477Y-87939D01*
X34477Y-96577D01*
X18334Y-96577D01*
G37*
%LPD*%
%LPC*%
G36*
X359023Y-505839D02*
X359023Y-505839D01*
X359023Y-495423D01*
X369439Y-495423D01*
X369439Y-503632D01*
X369266Y-504279D01*
X368931Y-504858D01*
X368458Y-505331D01*
X367879Y-505666D01*
X367232Y-505839D01*
X359023Y-505839D01*
G37*
%LPD*%
%LPC*%
G36*
X359023Y-492377D02*
X359023Y-492377D01*
X359023Y-481961D01*
X367232Y-481961D01*
X367879Y-482134D01*
X368458Y-482469D01*
X368931Y-482942D01*
X369266Y-483521D01*
X369439Y-484168D01*
X369439Y-492377D01*
X359023Y-492377D01*
G37*
%LPD*%
%LPC*%
G36*
X347121Y-505666D02*
X347121Y-505666D01*
X346542Y-505331D01*
X346069Y-504858D01*
X345734Y-504279D01*
X345561Y-503632D01*
X345561Y-495423D01*
X355977Y-495423D01*
X355977Y-505839D01*
X347768Y-505839D01*
X347121Y-505666D01*
G37*
%LPD*%
%LPC*%
G36*
X345561Y-492377D02*
X345561Y-492377D01*
X345561Y-484168D01*
X345734Y-483521D01*
X346069Y-482942D01*
X346542Y-482469D01*
X347121Y-482134D01*
X347768Y-481961D01*
X355977Y-481961D01*
X355977Y-492377D01*
X345561Y-492377D01*
G37*
%LPD*%
%LPC*%
G36*
X350923Y-78723D02*
X350923Y-78723D01*
X361246Y-78723D01*
X361045Y-79996D01*
X360464Y-81783D01*
X359611Y-83457D01*
X358506Y-84978D01*
X357178Y-86306D01*
X355657Y-87411D01*
X353983Y-88264D01*
X352196Y-88845D01*
X350923Y-89046D01*
X350923Y-78723D01*
G37*
%LPD*%
%LPC*%
G36*
X120423Y-379773D02*
X120423Y-379773D01*
X130746Y-379773D01*
X130545Y-381046D01*
X129964Y-382833D01*
X129111Y-384507D01*
X128006Y-386028D01*
X126678Y-387356D01*
X125157Y-388461D01*
X123483Y-389314D01*
X121696Y-389895D01*
X120423Y-390096D01*
X120423Y-379773D01*
G37*
%LPD*%
%LPC*%
G36*
X120423Y-455973D02*
X120423Y-455973D01*
X130746Y-455973D01*
X130545Y-457246D01*
X129964Y-459033D01*
X129111Y-460707D01*
X128006Y-462228D01*
X126678Y-463556D01*
X125157Y-464661D01*
X123483Y-465514D01*
X121696Y-466095D01*
X120423Y-466296D01*
X120423Y-455973D01*
G37*
%LPD*%
%LPC*%
G36*
X116104Y-389895D02*
X116104Y-389895D01*
X114317Y-389314D01*
X112643Y-388461D01*
X111122Y-387356D01*
X109794Y-386028D01*
X108689Y-384507D01*
X107836Y-382833D01*
X107255Y-381046D01*
X107054Y-379773D01*
X117377Y-379773D01*
X117377Y-390096D01*
X116104Y-389895D01*
G37*
%LPD*%
%LPC*%
G36*
X120423Y-452927D02*
X120423Y-452927D01*
X120423Y-442604D01*
X121696Y-442805D01*
X123483Y-443386D01*
X125157Y-444239D01*
X126678Y-445344D01*
X128006Y-446672D01*
X129111Y-448193D01*
X129964Y-449867D01*
X130545Y-451654D01*
X130746Y-452927D01*
X120423Y-452927D01*
G37*
%LPD*%
%LPC*%
G36*
X350923Y-75677D02*
X350923Y-75677D01*
X350923Y-65354D01*
X352196Y-65555D01*
X353983Y-66136D01*
X355657Y-66989D01*
X357178Y-68094D01*
X358506Y-69422D01*
X359611Y-70943D01*
X360464Y-72617D01*
X361045Y-74404D01*
X361246Y-75677D01*
X350923Y-75677D01*
G37*
%LPD*%
%LPC*%
G36*
X116104Y-466095D02*
X116104Y-466095D01*
X114317Y-465514D01*
X112643Y-464661D01*
X111122Y-463556D01*
X109794Y-462228D01*
X108689Y-460707D01*
X107836Y-459033D01*
X107255Y-457246D01*
X107054Y-455973D01*
X117377Y-455973D01*
X117377Y-466296D01*
X116104Y-466095D01*
G37*
%LPD*%
%LPC*%
G36*
X120423Y-376727D02*
X120423Y-376727D01*
X120423Y-366404D01*
X121696Y-366605D01*
X123483Y-367186D01*
X125157Y-368039D01*
X126678Y-369144D01*
X128006Y-370472D01*
X129111Y-371993D01*
X129964Y-373667D01*
X130545Y-375454D01*
X130746Y-376727D01*
X120423Y-376727D01*
G37*
%LPD*%
%LPC*%
G36*
X107054Y-376727D02*
X107054Y-376727D01*
X107255Y-375454D01*
X107836Y-373667D01*
X108689Y-371993D01*
X109794Y-370472D01*
X111122Y-369144D01*
X112643Y-368039D01*
X114317Y-367186D01*
X116104Y-366605D01*
X117377Y-366404D01*
X117377Y-376727D01*
X107054Y-376727D01*
G37*
%LPD*%
%LPC*%
G36*
X107054Y-452927D02*
X107054Y-452927D01*
X107255Y-451654D01*
X107836Y-449867D01*
X108689Y-448193D01*
X109794Y-446672D01*
X111122Y-445344D01*
X112643Y-444239D01*
X114317Y-443386D01*
X116104Y-442805D01*
X117377Y-442604D01*
X117377Y-452927D01*
X107054Y-452927D01*
G37*
%LPD*%
%LPC*%
G36*
X337554Y-75677D02*
X337554Y-75677D01*
X337755Y-74404D01*
X338336Y-72617D01*
X339189Y-70943D01*
X340294Y-69422D01*
X341622Y-68094D01*
X343143Y-66989D01*
X344817Y-66136D01*
X346604Y-65555D01*
X347877Y-65354D01*
X347877Y-75677D01*
X337554Y-75677D01*
G37*
%LPD*%
%LPC*%
G36*
X357499Y-493901D02*
X357499Y-493901D01*
X357499Y-493899D01*
X357501Y-493899D01*
X357501Y-493901D01*
X357499Y-493901D01*
G37*
%LPD*%
%LPC*%
G36*
X49999Y-50001D02*
X49999Y-50001D01*
X49999Y-49999D01*
X50001Y-49999D01*
X50001Y-50001D01*
X49999Y-50001D01*
G37*
%LPD*%
%LPC*%
G36*
X118899Y-454451D02*
X118899Y-454451D01*
X118899Y-454449D01*
X118901Y-454449D01*
X118901Y-454451D01*
X118899Y-454451D01*
G37*
%LPD*%
%LPC*%
G36*
X549999Y-550001D02*
X549999Y-550001D01*
X549999Y-549999D01*
X550001Y-549999D01*
X550001Y-550001D01*
X549999Y-550001D01*
G37*
%LPD*%
%LPC*%
G36*
X49999Y-550001D02*
X49999Y-550001D01*
X49999Y-549999D01*
X50001Y-549999D01*
X50001Y-550001D01*
X49999Y-550001D01*
G37*
%LPD*%
%LPC*%
G36*
X35999Y-98101D02*
X35999Y-98101D01*
X35999Y-98099D01*
X36001Y-98099D01*
X36001Y-98101D01*
X35999Y-98101D01*
G37*
%LPD*%
%LPC*%
G36*
X349399Y-77201D02*
X349399Y-77201D01*
X349399Y-77199D01*
X349401Y-77199D01*
X349401Y-77201D01*
X349399Y-77201D01*
G37*
%LPD*%
%LPC*%
G36*
X118899Y-378251D02*
X118899Y-378251D01*
X118899Y-378249D01*
X118901Y-378249D01*
X118901Y-378251D01*
X118899Y-378251D01*
G37*
%LPD*%
%LPC*%
G36*
X549999Y-50001D02*
X549999Y-50001D01*
X549999Y-49999D01*
X550001Y-49999D01*
X550001Y-50001D01*
X549999Y-50001D01*
G37*
%LPD*%
D10*
X50000Y-550000D03*
X50000Y-50000D03*
X550000Y-550000D03*
X550000Y-50000D03*
D11*
X357500Y-493900D03*
D12*
X329800Y-493900D03*
X302100Y-493900D03*
X274400Y-493900D03*
X246700Y-493900D03*
X343600Y-522300D03*
X315900Y-522300D03*
X288300Y-522300D03*
X260600Y-522300D03*
D13*
X427100Y-508100D03*
X177100Y-508100D03*
D11*
X252500Y-105600D03*
D12*
X280200Y-105600D03*
X307900Y-105600D03*
X335600Y-105600D03*
X363300Y-105600D03*
X266400Y-77200D03*
X294100Y-77200D03*
X321700Y-77200D03*
X349400Y-77200D03*
D13*
X182900Y-91400D03*
X432900Y-91400D03*
D14*
X537300Y-160200D03*
X562700Y-160200D03*
X537300Y-185600D03*
X562700Y-185600D03*
X537300Y-211000D03*
X562700Y-211000D03*
X537300Y-236400D03*
X562700Y-236400D03*
X537300Y-261800D03*
X562700Y-261800D03*
D12*
X118900Y-454450D03*
X93500Y-441750D03*
X118900Y-429050D03*
X118900Y-403650D03*
X118900Y-378250D03*
X93500Y-416350D03*
X93500Y-390950D03*
D11*
X93500Y-365550D03*
D15*
X43620Y-98100D02*
X28380Y-98100D01*
X28380Y-123500D02*
X43620Y-123500D01*
X43620Y-148900D02*
X28380Y-148900D01*
X28380Y-174300D02*
X43620Y-174300D01*
X43620Y-199700D02*
X28380Y-199700D01*
X28380Y-225100D02*
X43620Y-225100D01*
X43620Y-250500D02*
X28380Y-250500D01*
X28380Y-275900D02*
X43620Y-275900D01*
X43620Y-301300D02*
X28380Y-301300D01*
D16*
X110000Y-120000D03*
X360000Y-390000D03*
X130000Y-300000D03*
X310000Y-165300D03*
X300000Y-340000D03*
X230000Y-370000D03*
X220000Y-240000D03*
X300000Y-470000D03*
X250000Y-330000D03*
X220000Y-110000D03*
D17*
X354638Y-105600D02*
X363300Y-105600D01*
X220000Y-103557D02*
X220000Y-110000D01*
X220000Y-103557D02*
X231419Y-92138D01*
X341176Y-92138D02*
X354638Y-105600D01*
X341176Y-92138D02*
X231419Y-92138D01*
X99500Y-250500D02*
X36000Y-250500D01*
X99500Y-250500D02*
X150000Y-200000D01*
D16*
X150000Y-200000D03*
X280000Y-130000D03*
D17*
X304400Y-105600D01*
X307900Y-105600D01*
D16*
X300000Y-430000D03*
D17*
X246750Y-427846D02*
X242154Y-423250D01*
X232154Y-173250D02*
X232154Y-166750D01*
X297846Y-427846D02*
X300000Y-430000D01*
X280200Y-118704D02*
X280200Y-105600D01*
X297846Y-427846D02*
X246750Y-427846D01*
X232154Y-166750D02*
X280200Y-118704D01*
X232154Y-173250D02*
X242154Y-183250D01*
X242154Y-423250D01*
D16*
X130000Y-250000D03*
D17*
X130000Y-280000D01*
X70000Y-340000D01*
X70000Y-392850D01*
X93500Y-416350D01*
D16*
X250000Y-420000D03*
D17*
X367846Y-382154D02*
X380000Y-370000D01*
X367846Y-382154D02*
X356750Y-382154D01*
X318904Y-420000D02*
X250000Y-420000D01*
X318904Y-420000D02*
X356750Y-382154D01*
D16*
X380000Y-370000D03*
X150000Y-420000D03*
D18*
X140000Y-410000D01*
X140000Y-340000D01*
X120000Y-320000D01*
D16*
X120000Y-320000D03*
X70000Y-320000D03*
D18*
X70000Y-300000D01*
X45900Y-275900D01*
X36000Y-275900D01*
D16*
X60000Y-210000D03*
D17*
X60000Y-160000D01*
X48900Y-148900D01*
X36000Y-148900D01*
D16*
X360000Y-130000D03*
D17*
X405500Y-130000D01*
X537300Y-261800D01*
D16*
X240000Y-170000D03*
D17*
X272154Y-137846D01*
X326938Y-105600D02*
X335600Y-105600D01*
X294692Y-137846D02*
X272154Y-137846D01*
X294692Y-137846D02*
X326938Y-105600D01*
M02*
