G04 EAGLE Gerber RS-274X export*
G75*
%MOMM*%
%FSLAX34Y34*%
%LPD*%
%INSolderpaste Top*%
%IPPOS*%
%AMOC8*
5,1,8,0,0,1.08239X$1,22.5*%
G01*
%ADD10R,1.000000X1.100000*%
%ADD11R,1.100000X1.000000*%
%ADD12R,1.000000X1.400000*%
%ADD13R,1.200000X0.600000*%
%ADD14R,0.600000X1.200000*%
%ADD15R,0.900000X0.350000*%
%ADD16R,1.300000X1.500000*%
%ADD17R,1.400000X1.000000*%


D10*
X295800Y-373800D03*
X295800Y-356800D03*
D11*
X347300Y-164200D03*
X330300Y-164200D03*
D12*
X464200Y-181700D03*
X454700Y-159700D03*
X473700Y-159700D03*
D13*
X268340Y-174800D03*
X268340Y-155800D03*
X294460Y-174800D03*
X294460Y-165300D03*
X294460Y-155800D03*
D11*
X342300Y-145700D03*
X342300Y-128700D03*
X230000Y-448500D03*
X230000Y-431500D03*
X272300Y-379000D03*
X272300Y-362000D03*
D10*
X322900Y-342300D03*
X339900Y-342300D03*
D11*
X230000Y-391500D03*
X230000Y-408500D03*
X267700Y-326700D03*
X267700Y-343700D03*
X360000Y-448500D03*
X360000Y-431500D03*
X360000Y-401500D03*
X360000Y-418500D03*
X312300Y-147600D03*
X312300Y-130600D03*
D14*
X334950Y-398900D03*
X322250Y-398900D03*
X309550Y-398900D03*
X296850Y-398900D03*
X284150Y-398900D03*
X271450Y-398900D03*
X258750Y-398900D03*
X258750Y-454900D03*
X271450Y-454900D03*
X284150Y-454900D03*
X296850Y-454900D03*
X309550Y-454900D03*
X322250Y-454900D03*
X334950Y-454900D03*
D15*
X130750Y-230500D03*
X130750Y-237000D03*
X130750Y-243500D03*
X130750Y-250000D03*
X130750Y-256500D03*
X130750Y-263000D03*
X130750Y-269500D03*
X189250Y-269500D03*
X189250Y-263000D03*
X189250Y-256500D03*
X189250Y-250000D03*
X189250Y-243500D03*
X189250Y-237000D03*
X189250Y-230500D03*
D16*
X80500Y-300000D03*
X99500Y-300000D03*
X100500Y-80000D03*
X119500Y-80000D03*
X80500Y-270000D03*
X99500Y-270000D03*
X90500Y-120000D03*
X109500Y-120000D03*
D10*
X141500Y-400000D03*
X158500Y-400000D03*
D11*
X340000Y-378500D03*
X340000Y-361500D03*
D10*
X71500Y-165000D03*
X88500Y-165000D03*
X76500Y-230000D03*
X93500Y-230000D03*
D15*
X130750Y-150500D03*
X130750Y-157000D03*
X130750Y-163500D03*
X130750Y-170000D03*
X130750Y-176500D03*
X130750Y-183000D03*
X130750Y-189500D03*
X189250Y-189500D03*
X189250Y-183000D03*
X189250Y-176500D03*
X189250Y-170000D03*
X189250Y-163500D03*
X189250Y-157000D03*
X189250Y-150500D03*
D11*
X196500Y-135000D03*
X213500Y-135000D03*
D10*
X215000Y-226500D03*
X215000Y-243500D03*
D17*
X426000Y-215000D03*
X404000Y-224500D03*
X404000Y-205500D03*
X426000Y-250000D03*
X404000Y-259500D03*
X404000Y-240500D03*
X426000Y-180000D03*
X404000Y-189500D03*
X404000Y-170500D03*
D12*
X505000Y-156000D03*
X495500Y-134000D03*
X514500Y-134000D03*
D17*
X426000Y-145000D03*
X404000Y-154500D03*
X404000Y-135500D03*
X64000Y-195000D03*
X86000Y-185500D03*
X86000Y-204500D03*
D11*
X115000Y-211500D03*
X115000Y-228500D03*
M02*
