G04 EAGLE Gerber RS-274X export*
G75*
%MOMM*%
%FSLAX34Y34*%
%LPD*%
%INSoldermask Bottom*%
%IPPOS*%
%AMOC8*
5,1,8,0,0,1.08239X$1,22.5*%
G01*
%ADD10C,6.045200*%
%ADD11R,2.082800X2.082800*%
%ADD12C,2.082800*%
%ADD13C,5.283200*%
%ADD14P,1.869504X8X292.500000*%
%ADD15C,3.403200*%
%ADD16C,1.727200*%
%ADD17C,0.959600*%


D10*
X50000Y-550000D03*
X50000Y-50000D03*
X550000Y-550000D03*
X550000Y-50000D03*
D11*
X357500Y-493900D03*
D12*
X329800Y-493900D03*
X302100Y-493900D03*
X274400Y-493900D03*
X246700Y-493900D03*
X343600Y-522300D03*
X315900Y-522300D03*
X288300Y-522300D03*
X260600Y-522300D03*
D13*
X427100Y-508100D03*
X177100Y-508100D03*
D11*
X252500Y-105600D03*
D12*
X280200Y-105600D03*
X307900Y-105600D03*
X335600Y-105600D03*
X363300Y-105600D03*
X266400Y-77200D03*
X294100Y-77200D03*
X321700Y-77200D03*
X349400Y-77200D03*
D13*
X182900Y-91400D03*
X432900Y-91400D03*
D14*
X537300Y-160200D03*
X562700Y-160200D03*
X537300Y-185600D03*
X562700Y-185600D03*
X537300Y-211000D03*
X562700Y-211000D03*
X537300Y-236400D03*
X562700Y-236400D03*
X537300Y-261800D03*
X562700Y-261800D03*
D12*
X118900Y-454450D03*
X93500Y-441750D03*
X118900Y-429050D03*
X118900Y-403650D03*
X118900Y-378250D03*
X93500Y-416350D03*
X93500Y-390950D03*
D11*
X93500Y-365550D03*
D15*
X30000Y-352850D03*
X30000Y-467150D03*
D16*
X28380Y-98100D02*
X43620Y-98100D01*
X43620Y-123500D02*
X28380Y-123500D01*
X28380Y-148900D02*
X43620Y-148900D01*
X43620Y-174300D02*
X28380Y-174300D01*
X28380Y-199700D02*
X43620Y-199700D01*
X43620Y-225100D02*
X28380Y-225100D01*
X28380Y-250500D02*
X43620Y-250500D01*
X43620Y-275900D02*
X28380Y-275900D01*
X28380Y-301300D02*
X43620Y-301300D01*
D17*
X360000Y-390000D03*
X310000Y-165300D03*
X300000Y-340000D03*
X230000Y-370000D03*
X300000Y-470000D03*
X250000Y-330000D03*
X140000Y-80000D03*
X130000Y-120000D03*
X125000Y-200000D03*
X200000Y-240000D03*
X100000Y-320000D03*
X230000Y-130000D03*
X160000Y-160000D03*
X100000Y-190000D03*
X280000Y-130000D03*
X300000Y-430000D03*
X150000Y-180000D03*
X365000Y-265000D03*
X360000Y-360000D03*
X250000Y-420000D03*
X380000Y-370000D03*
X380000Y-275000D03*
X150000Y-215000D03*
X115000Y-255000D03*
X360000Y-130000D03*
X158500Y-296500D03*
X145000Y-255000D03*
X240000Y-170000D03*
X90000Y-215000D03*
X105000Y-200000D03*
X165000Y-185000D03*
X99500Y-250500D03*
X116071Y-148900D03*
X175000Y-164872D03*
M02*
